<svg xmlns="http://www.w3.org/2000/svg" xmlns:xlink="http://www.w3.org/1999/xlink" width="1200" zoomAndPan="magnify" viewBox="0 0 900 374.999991" height="500" preserveAspectRatio="xMidYMid meet" version="1.0"><defs><g/><clipPath id="5ff6adcfc3"><path d="M 460 166 L 802.421875 166 L 802.421875 209 L 460 209 Z M 460 166 " clip-rule="nonzero"/></clipPath><clipPath id="eb09674f9c"><path d="M 460 219 L 802.421875 219 L 802.421875 262.5 L 460 262.5 Z M 460 219 " clip-rule="nonzero"/></clipPath><clipPath id="4b66851375"><path d="M 460 112.5 L 802.421875 112.5 L 802.421875 156 L 460 156 Z M 460 112.5 " clip-rule="nonzero"/></clipPath></defs><g clip-path="url(#5ff6adcfc3)"><path fill="#ffc857" d="M 742.125 208.929688 C 725.785156 208.929688 717.75 199.285156 710.25 190.980469 C 703.820312 183.480469 698.195312 176.785156 686.945312 176.785156 C 675.695312 176.785156 669.804688 183.480469 663.375 190.980469 C 655.875 199.285156 647.839844 208.929688 631.5 208.929688 C 615.160156 208.929688 607.125 199.285156 599.890625 190.980469 C 593.195312 183.480469 587.570312 176.785156 576.320312 176.785156 C 565.070312 176.785156 559.179688 183.480469 552.75 190.980469 C 545.515625 199.285156 537.214844 208.929688 521.140625 208.929688 C 505.070312 208.929688 496.765625 199.285156 489.535156 190.980469 C 482.570312 183.480469 476.679688 176.785156 465.429688 176.785156 C 462.480469 176.785156 460.070312 174.375 460.070312 171.429688 C 460.070312 168.480469 462.480469 166.070312 465.429688 166.070312 C 481.765625 166.070312 489.804688 175.714844 497.035156 184.019531 C 503.730469 191.519531 509.355469 198.214844 520.605469 198.214844 C 531.855469 198.214844 537.75 191.519531 544.179688 184.019531 C 551.410156 175.714844 559.714844 166.070312 575.785156 166.070312 C 592.125 166.070312 600.160156 175.714844 607.390625 184.019531 C 614.089844 191.519531 619.714844 198.214844 630.964844 198.214844 C 642.480469 198.214844 648.105469 191.519531 654.535156 184.019531 C 661.765625 175.714844 670.070312 166.070312 686.140625 166.070312 C 702.480469 166.070312 710.515625 175.714844 717.75 184.019531 C 724.445312 191.519531 730.070312 198.214844 741.320312 198.214844 C 752.839844 198.214844 758.464844 191.519531 764.890625 184.019531 C 772.125 175.714844 780.429688 166.070312 796.765625 166.070312 C 799.714844 166.070312 802.125 168.480469 802.125 171.429688 C 802.125 174.375 799.714844 176.785156 796.765625 176.785156 C 785.25 176.785156 779.625 183.480469 773.195312 190.980469 C 766.765625 199.285156 758.464844 208.929688 742.125 208.929688 Z M 742.125 208.929688 " fill-opacity="1" fill-rule="nonzero"/></g><g clip-path="url(#eb09674f9c)"><path fill="#ffc857" d="M 742.125 262.5 C 725.785156 262.5 717.75 252.855469 710.25 244.554688 C 703.820312 237.054688 698.195312 230.355469 686.945312 230.355469 C 675.695312 230.355469 669.804688 237.054688 663.375 244.554688 C 655.875 252.855469 647.839844 262.5 631.5 262.5 C 615.160156 262.5 607.125 252.855469 599.890625 244.554688 C 593.195312 237.054688 587.570312 230.355469 576.320312 230.355469 C 565.070312 230.355469 559.179688 237.054688 552.75 244.554688 C 545.515625 252.855469 537.214844 262.5 521.140625 262.5 C 505.070312 262.5 496.765625 252.855469 489.535156 244.554688 C 482.570312 237.054688 476.679688 230.355469 465.429688 230.355469 C 462.480469 230.355469 460.070312 227.945312 460.070312 225 C 460.070312 222.054688 462.480469 219.644531 465.429688 219.644531 C 481.765625 219.644531 489.804688 229.285156 497.035156 237.589844 C 503.730469 245.089844 509.355469 251.785156 520.605469 251.785156 C 531.855469 251.785156 537.75 245.089844 544.179688 237.589844 C 551.410156 229.285156 559.714844 219.644531 575.785156 219.644531 C 592.125 219.644531 600.160156 229.285156 607.390625 237.589844 C 614.089844 245.089844 619.714844 251.785156 630.964844 251.785156 C 642.480469 251.785156 648.105469 245.089844 654.535156 237.589844 C 661.765625 229.285156 670.070312 219.644531 686.140625 219.644531 C 702.480469 219.644531 710.515625 229.285156 717.75 237.589844 C 724.445312 245.089844 730.070312 251.785156 741.320312 251.785156 C 752.839844 251.785156 758.464844 245.089844 764.890625 237.589844 C 772.125 229.285156 780.429688 219.644531 796.765625 219.644531 C 799.714844 219.644531 802.125 222.054688 802.125 225 C 802.125 227.945312 799.714844 230.355469 796.765625 230.355469 C 785.25 230.355469 779.625 237.054688 773.195312 244.554688 C 766.765625 252.855469 758.464844 262.5 742.125 262.5 Z M 742.125 262.5 " fill-opacity="1" fill-rule="nonzero"/></g><g clip-path="url(#4b66851375)"><path fill="#ffc857" d="M 742.125 155.355469 C 725.785156 155.355469 717.75 145.714844 710.25 137.410156 C 703.820312 129.910156 698.195312 123.214844 686.945312 123.214844 C 675.695312 123.214844 669.804688 129.910156 663.375 137.410156 C 655.875 145.714844 647.839844 155.355469 631.5 155.355469 C 615.160156 155.355469 607.125 145.714844 599.890625 137.410156 C 593.195312 129.910156 587.570312 123.214844 576.320312 123.214844 C 565.070312 123.214844 559.179688 129.910156 552.75 137.410156 C 545.515625 145.714844 537.214844 155.355469 521.140625 155.355469 C 505.070312 155.355469 496.765625 145.714844 489.535156 137.410156 C 482.570312 129.910156 476.679688 123.214844 465.429688 123.214844 C 462.480469 123.214844 460.070312 120.804688 460.070312 117.855469 C 460.070312 114.910156 462.480469 112.5 465.429688 112.5 C 481.765625 112.5 489.804688 122.144531 497.035156 130.445312 C 503.730469 137.945312 509.355469 144.644531 520.605469 144.644531 C 531.855469 144.644531 537.75 137.945312 544.179688 130.445312 C 551.410156 122.144531 559.714844 112.5 575.785156 112.5 C 592.125 112.5 600.160156 122.144531 607.390625 130.445312 C 614.089844 137.945312 619.714844 144.644531 630.964844 144.644531 C 642.480469 144.644531 648.105469 137.945312 654.535156 130.445312 C 661.765625 122.144531 670.070312 112.5 686.140625 112.5 C 702.480469 112.5 710.515625 122.144531 717.75 130.445312 C 724.445312 137.945312 730.070312 144.644531 741.320312 144.644531 C 752.839844 144.644531 758.464844 137.945312 764.890625 130.445312 C 772.125 122.144531 780.429688 112.5 796.765625 112.5 C 799.714844 112.5 802.125 114.910156 802.125 117.855469 C 802.125 120.804688 799.714844 123.214844 796.765625 123.214844 C 785.25 123.214844 779.625 129.910156 773.195312 137.410156 C 766.765625 145.714844 758.464844 155.355469 742.125 155.355469 Z M 742.125 155.355469 " fill-opacity="1" fill-rule="nonzero"/></g><g fill="#ffc857" fill-opacity="1"><g transform="translate(97.472803, 165.749989)"><g><path d="M 26.84375 -41.25 L 26.84375 -33 L 12.40625 -33 L 12.40625 -24.796875 L 25.75 -24.796875 L 25.75 -16.546875 L 12.40625 -16.546875 L 12.40625 0 L 3 0 L 3 -41.25 Z M 26.84375 -41.25 "/></g></g></g><g fill="#ffc857" fill-opacity="1"><g transform="translate(125.818409, 165.749989)"><g><path d="M 28.953125 -11.59375 L 10.34375 -11.59375 C 10.34375 -9.800781 10.925781 -8.46875 12.09375 -7.59375 C 13.257812 -6.726562 14.53125 -6.296875 15.90625 -6.296875 C 17.332031 -6.296875 18.460938 -6.488281 19.296875 -6.875 C 20.128906 -7.257812 21.082031 -8.019531 22.15625 -9.15625 L 28.546875 -5.953125 C 25.878906 -1.484375 21.445312 0.75 15.25 0.75 C 11.382812 0.75 8.066406 -0.570312 5.296875 -3.21875 C 2.535156 -5.875 1.15625 -9.066406 1.15625 -12.796875 C 1.15625 -16.535156 2.535156 -19.738281 5.296875 -22.40625 C 8.066406 -25.070312 11.382812 -26.40625 15.25 -26.40625 C 19.3125 -26.40625 22.617188 -25.226562 25.171875 -22.875 C 27.722656 -20.519531 29 -17.160156 29 -12.796875 C 29 -12.203125 28.984375 -11.800781 28.953125 -11.59375 Z M 10.59375 -16.5 L 20.34375 -16.5 C 20.144531 -17.832031 19.617188 -18.859375 18.765625 -19.578125 C 17.921875 -20.296875 16.832031 -20.65625 15.5 -20.65625 C 14.03125 -20.65625 12.863281 -20.269531 12 -19.5 C 11.132812 -18.726562 10.664062 -17.726562 10.59375 -16.5 Z M 10.59375 -16.5 "/></g></g></g><g fill="#ffc857" fill-opacity="1"><g transform="translate(155.963747, 165.749989)"><g><path d="M 28.953125 -11.59375 L 10.34375 -11.59375 C 10.34375 -9.800781 10.925781 -8.46875 12.09375 -7.59375 C 13.257812 -6.726562 14.53125 -6.296875 15.90625 -6.296875 C 17.332031 -6.296875 18.460938 -6.488281 19.296875 -6.875 C 20.128906 -7.257812 21.082031 -8.019531 22.15625 -9.15625 L 28.546875 -5.953125 C 25.878906 -1.484375 21.445312 0.75 15.25 0.75 C 11.382812 0.75 8.066406 -0.570312 5.296875 -3.21875 C 2.535156 -5.875 1.15625 -9.066406 1.15625 -12.796875 C 1.15625 -16.535156 2.535156 -19.738281 5.296875 -22.40625 C 8.066406 -25.070312 11.382812 -26.40625 15.25 -26.40625 C 19.3125 -26.40625 22.617188 -25.226562 25.171875 -22.875 C 27.722656 -20.519531 29 -17.160156 29 -12.796875 C 29 -12.203125 28.984375 -11.800781 28.953125 -11.59375 Z M 10.59375 -16.5 L 20.34375 -16.5 C 20.144531 -17.832031 19.617188 -18.859375 18.765625 -19.578125 C 17.921875 -20.296875 16.832031 -20.65625 15.5 -20.65625 C 14.03125 -20.65625 12.863281 -20.269531 12 -19.5 C 11.132812 -18.726562 10.664062 -17.726562 10.59375 -16.5 Z M 10.59375 -16.5 "/></g></g></g><g fill="#ffc857" fill-opacity="1"><g transform="translate(186.109085, 165.749989)"><g><path d="M 3 0 L 3 -43 L 11.84375 -43 L 11.84375 0 Z M 3 0 "/></g></g></g><g fill="#ffc857" fill-opacity="1"><g transform="translate(200.956787, 165.749989)"><g/></g></g><g fill="#ffc857" fill-opacity="1"><g transform="translate(214.604677, 165.749989)"><g><path d="M 4.5 -25.65625 L 4.5 -35.203125 L 13.34375 -35.203125 L 13.34375 -25.65625 L 18.75 -25.65625 L 18.75 -18.90625 L 13.34375 -18.90625 L 13.34375 -10.75 C 13.34375 -8.382812 14.007812 -7.203125 15.34375 -7.203125 C 15.675781 -7.203125 16.023438 -7.265625 16.390625 -7.390625 C 16.765625 -7.523438 17.050781 -7.660156 17.25 -7.796875 L 17.546875 -8 L 19.75 -0.84375 C 17.851562 0.21875 15.6875 0.75 13.25 0.75 C 11.582031 0.75 10.148438 0.457031 8.953125 -0.125 C 7.753906 -0.707031 6.84375 -1.488281 6.21875 -2.46875 C 5.601562 -3.457031 5.160156 -4.492188 4.890625 -5.578125 C 4.628906 -6.660156 4.5 -7.816406 4.5 -9.046875 L 4.5 -18.90625 L 0.796875 -18.90625 L 0.796875 -25.65625 Z M 4.5 -25.65625 "/></g></g></g><g fill="#ffc857" fill-opacity="1"><g transform="translate(234.351617, 165.749989)"><g><path d="M 3 0 L 3 -43 L 11.84375 -43 L 11.84375 -22.953125 L 11.953125 -22.953125 C 14.253906 -25.253906 16.703125 -26.40625 19.296875 -26.40625 C 20.566406 -26.40625 21.828125 -26.238281 23.078125 -25.90625 C 24.328125 -25.570312 25.523438 -25.050781 26.671875 -24.34375 C 27.828125 -23.644531 28.757812 -22.65625 29.46875 -21.375 C 30.1875 -20.09375 30.546875 -18.601562 30.546875 -16.90625 L 30.546875 0 L 21.703125 0 L 21.703125 -14.5 C 21.703125 -15.832031 21.273438 -17 20.421875 -18 C 19.578125 -19 18.46875 -19.5 17.09375 -19.5 C 15.757812 -19.5 14.550781 -18.984375 13.46875 -17.953125 C 12.382812 -16.921875 11.84375 -15.769531 11.84375 -14.5 L 11.84375 0 Z M 3 0 "/></g></g></g><g fill="#ffc857" fill-opacity="1"><g transform="translate(267.396498, 165.749989)"><g><path d="M 28.953125 -11.59375 L 10.34375 -11.59375 C 10.34375 -9.800781 10.925781 -8.46875 12.09375 -7.59375 C 13.257812 -6.726562 14.53125 -6.296875 15.90625 -6.296875 C 17.332031 -6.296875 18.460938 -6.488281 19.296875 -6.875 C 20.128906 -7.257812 21.082031 -8.019531 22.15625 -9.15625 L 28.546875 -5.953125 C 25.878906 -1.484375 21.445312 0.75 15.25 0.75 C 11.382812 0.75 8.066406 -0.570312 5.296875 -3.21875 C 2.535156 -5.875 1.15625 -9.066406 1.15625 -12.796875 C 1.15625 -16.535156 2.535156 -19.738281 5.296875 -22.40625 C 8.066406 -25.070312 11.382812 -26.40625 15.25 -26.40625 C 19.3125 -26.40625 22.617188 -25.226562 25.171875 -22.875 C 27.722656 -20.519531 29 -17.160156 29 -12.796875 C 29 -12.203125 28.984375 -11.800781 28.953125 -11.59375 Z M 10.59375 -16.5 L 20.34375 -16.5 C 20.144531 -17.832031 19.617188 -18.859375 18.765625 -19.578125 C 17.921875 -20.296875 16.832031 -20.65625 15.5 -20.65625 C 14.03125 -20.65625 12.863281 -20.269531 12 -19.5 C 11.132812 -18.726562 10.664062 -17.726562 10.59375 -16.5 Z M 10.59375 -16.5 "/></g></g></g><g fill="#ffc857" fill-opacity="1"><g transform="translate(297.541836, 165.749989)"><g/></g></g><g fill="#ffc857" fill-opacity="1"><g transform="translate(311.189739, 165.749989)"><g><path d="M 3 -41.25 L 15.796875 -41.25 C 19.660156 -41.25 22.742188 -40.421875 25.046875 -38.765625 C 27.347656 -37.117188 28.5 -34.445312 28.5 -30.75 C 28.5 -26.613281 26.78125 -23.664062 23.34375 -21.90625 C 29.21875 -20.863281 32.15625 -17.394531 32.15625 -11.5 C 32.15625 -8.03125 30.953125 -5.242188 28.546875 -3.140625 C 26.148438 -1.046875 22.851562 0 18.65625 0 L 3 0 Z M 12.40625 -25.09375 L 13.15625 -25.09375 C 15.25 -25.09375 16.8125 -25.457031 17.84375 -26.1875 C 18.882812 -26.925781 19.40625 -28.128906 19.40625 -29.796875 C 19.40625 -32.597656 17.320312 -34 13.15625 -34 L 12.40625 -34 Z M 12.40625 -7.25 L 15.34375 -7.25 C 19.945312 -7.25 22.25 -8.78125 22.25 -11.84375 C 22.25 -13.675781 21.671875 -14.992188 20.515625 -15.796875 C 19.367188 -16.597656 17.644531 -17 15.34375 -17 L 12.40625 -17 Z M 12.40625 -7.25 "/></g></g></g><g fill="#ffc857" fill-opacity="1"><g transform="translate(344.484582, 165.749989)"><g><path d="M 28.953125 -11.59375 L 10.34375 -11.59375 C 10.34375 -9.800781 10.925781 -8.46875 12.09375 -7.59375 C 13.257812 -6.726562 14.53125 -6.296875 15.90625 -6.296875 C 17.332031 -6.296875 18.460938 -6.488281 19.296875 -6.875 C 20.128906 -7.257812 21.082031 -8.019531 22.15625 -9.15625 L 28.546875 -5.953125 C 25.878906 -1.484375 21.445312 0.75 15.25 0.75 C 11.382812 0.75 8.066406 -0.570312 5.296875 -3.21875 C 2.535156 -5.875 1.15625 -9.066406 1.15625 -12.796875 C 1.15625 -16.535156 2.535156 -19.738281 5.296875 -22.40625 C 8.066406 -25.070312 11.382812 -26.40625 15.25 -26.40625 C 19.3125 -26.40625 22.617188 -25.226562 25.171875 -22.875 C 27.722656 -20.519531 29 -17.160156 29 -12.796875 C 29 -12.203125 28.984375 -11.800781 28.953125 -11.59375 Z M 10.59375 -16.5 L 20.34375 -16.5 C 20.144531 -17.832031 19.617188 -18.859375 18.765625 -19.578125 C 17.921875 -20.296875 16.832031 -20.65625 15.5 -20.65625 C 14.03125 -20.65625 12.863281 -20.269531 12 -19.5 C 11.132812 -18.726562 10.664062 -17.726562 10.59375 -16.5 Z M 10.59375 -16.5 "/></g></g></g><g fill="#ffc857" fill-opacity="1"><g transform="translate(374.629921, 165.749989)"><g><path d="M 4.75 -3.171875 C 2.351562 -5.785156 1.15625 -8.992188 1.15625 -12.796875 C 1.15625 -16.597656 2.351562 -19.816406 4.75 -22.453125 C 7.144531 -25.085938 10.195312 -26.40625 13.90625 -26.40625 C 17.300781 -26.40625 20.097656 -25.335938 22.296875 -23.203125 L 22.296875 -25.65625 L 31.15625 -25.65625 L 31.15625 0 L 22.40625 0 L 22.40625 -2.90625 L 22.296875 -2.90625 C 20.097656 -0.46875 17.300781 0.75 13.90625 0.75 C 10.195312 0.75 7.144531 -0.554688 4.75 -3.171875 Z M 12.265625 -17.140625 C 11.117188 -16.015625 10.546875 -14.566406 10.546875 -12.796875 C 10.546875 -11.035156 11.09375 -9.59375 12.1875 -8.46875 C 13.289062 -7.351562 14.742188 -6.796875 16.546875 -6.796875 C 18.285156 -6.796875 19.710938 -7.363281 20.828125 -8.5 C 21.941406 -9.632812 22.5 -11.066406 22.5 -12.796875 C 22.5 -14.566406 21.921875 -16.015625 20.765625 -17.140625 C 19.617188 -18.273438 18.210938 -18.84375 16.546875 -18.84375 C 14.847656 -18.84375 13.421875 -18.273438 12.265625 -17.140625 Z M 12.265625 -17.140625 "/></g></g></g><g fill="#ffc857" fill-opacity="1"><g transform="translate(408.774648, 165.749989)"><g><path d="M 4.5 -25.65625 L 4.5 -35.203125 L 13.34375 -35.203125 L 13.34375 -25.65625 L 18.75 -25.65625 L 18.75 -18.90625 L 13.34375 -18.90625 L 13.34375 -10.75 C 13.34375 -8.382812 14.007812 -7.203125 15.34375 -7.203125 C 15.675781 -7.203125 16.023438 -7.265625 16.390625 -7.390625 C 16.765625 -7.523438 17.050781 -7.660156 17.25 -7.796875 L 17.546875 -8 L 19.75 -0.84375 C 17.851562 0.21875 15.6875 0.75 13.25 0.75 C 11.582031 0.75 10.148438 0.457031 8.953125 -0.125 C 7.753906 -0.707031 6.84375 -1.488281 6.21875 -2.46875 C 5.601562 -3.457031 5.160156 -4.492188 4.890625 -5.578125 C 4.628906 -6.660156 4.5 -7.816406 4.5 -9.046875 L 4.5 -18.90625 L 0.796875 -18.90625 L 0.796875 -25.65625 Z M 4.5 -25.65625 "/></g></g></g><g fill="#ffc857" fill-opacity="1"><g transform="translate(428.521587, 165.749989)"><g><path d="M 8.703125 -10.703125 C 10.296875 -10.703125 11.648438 -10.140625 12.765625 -9.015625 C 13.890625 -7.898438 14.453125 -6.546875 14.453125 -4.953125 C 14.453125 -3.378906 13.890625 -2.035156 12.765625 -0.921875 C 11.648438 0.191406 10.296875 0.75 8.703125 0.75 C 7.128906 0.75 5.785156 0.191406 4.671875 -0.921875 C 3.554688 -2.035156 3 -3.378906 3 -4.953125 C 3 -6.546875 3.554688 -7.898438 4.671875 -9.015625 C 5.785156 -10.140625 7.128906 -10.703125 8.703125 -10.703125 Z M 8.703125 -10.703125 "/></g></g></g><g fill="#ffc857" fill-opacity="1"><g transform="translate(445.97669, 165.749989)"><g/></g></g><g fill="#ffc857" fill-opacity="1"><g transform="translate(97.472803, 235.499985)"><g><path d="M 12.40625 -41.25 L 12.40625 -8.25 L 26.59375 -8.25 L 26.59375 0 L 3 0 L 3 -41.25 Z M 12.40625 -41.25 "/></g></g></g><g fill="#ffc857" fill-opacity="1"><g transform="translate(125.718433, 235.499985)"><g><path d="M 3.84375 -39.953125 C 4.882812 -40.984375 6.117188 -41.5 7.546875 -41.5 C 8.984375 -41.5 10.21875 -40.984375 11.25 -39.953125 C 12.28125 -38.921875 12.796875 -37.6875 12.796875 -36.25 C 12.796875 -34.8125 12.28125 -33.578125 11.25 -32.546875 C 10.21875 -31.515625 8.984375 -31 7.546875 -31 C 6.117188 -31 4.882812 -31.515625 3.84375 -32.546875 C 2.8125 -33.578125 2.296875 -34.8125 2.296875 -36.25 C 2.296875 -37.6875 2.8125 -38.921875 3.84375 -39.953125 Z M 3 -25.65625 L 3 0 L 11.84375 0 L 11.84375 -25.65625 Z M 3 -25.65625 "/></g></g></g><g fill="#ffc857" fill-opacity="1"><g transform="translate(140.816096, 235.499985)"><g><path d="M 9.5 -25.65625 L 15.75 -11.703125 L 22 -25.65625 L 32.5 -25.65625 L 18.75 0 L 12.75 0 L -1 -25.65625 Z M 9.5 -25.65625 "/></g></g></g><g fill="#ffc857" fill-opacity="1"><g transform="translate(172.311219, 235.499985)"><g><path d="M 28.953125 -11.59375 L 10.34375 -11.59375 C 10.34375 -9.800781 10.925781 -8.46875 12.09375 -7.59375 C 13.257812 -6.726562 14.53125 -6.296875 15.90625 -6.296875 C 17.332031 -6.296875 18.460938 -6.488281 19.296875 -6.875 C 20.128906 -7.257812 21.082031 -8.019531 22.15625 -9.15625 L 28.546875 -5.953125 C 25.878906 -1.484375 21.445312 0.75 15.25 0.75 C 11.382812 0.75 8.066406 -0.570312 5.296875 -3.21875 C 2.535156 -5.875 1.15625 -9.066406 1.15625 -12.796875 C 1.15625 -16.535156 2.535156 -19.738281 5.296875 -22.40625 C 8.066406 -25.070312 11.382812 -26.40625 15.25 -26.40625 C 19.3125 -26.40625 22.617188 -25.226562 25.171875 -22.875 C 27.722656 -20.519531 29 -17.160156 29 -12.796875 C 29 -12.203125 28.984375 -11.800781 28.953125 -11.59375 Z M 10.59375 -16.5 L 20.34375 -16.5 C 20.144531 -17.832031 19.617188 -18.859375 18.765625 -19.578125 C 17.921875 -20.296875 16.832031 -20.65625 15.5 -20.65625 C 14.03125 -20.65625 12.863281 -20.269531 12 -19.5 C 11.132812 -18.726562 10.664062 -17.726562 10.59375 -16.5 Z M 10.59375 -16.5 "/></g></g></g><g fill="#ffc857" fill-opacity="1"><g transform="translate(202.456558, 235.499985)"><g/></g></g><g fill="#ffc857" fill-opacity="1"><g transform="translate(216.104449, 235.499985)"><g><path d="M 4.5 -25.65625 L 4.5 -35.203125 L 13.34375 -35.203125 L 13.34375 -25.65625 L 18.75 -25.65625 L 18.75 -18.90625 L 13.34375 -18.90625 L 13.34375 -10.75 C 13.34375 -8.382812 14.007812 -7.203125 15.34375 -7.203125 C 15.675781 -7.203125 16.023438 -7.265625 16.390625 -7.390625 C 16.765625 -7.523438 17.050781 -7.660156 17.25 -7.796875 L 17.546875 -8 L 19.75 -0.84375 C 17.851562 0.21875 15.6875 0.75 13.25 0.75 C 11.582031 0.75 10.148438 0.457031 8.953125 -0.125 C 7.753906 -0.707031 6.84375 -1.488281 6.21875 -2.46875 C 5.601562 -3.457031 5.160156 -4.492188 4.890625 -5.578125 C 4.628906 -6.660156 4.5 -7.816406 4.5 -9.046875 L 4.5 -18.90625 L 0.796875 -18.90625 L 0.796875 -25.65625 Z M 4.5 -25.65625 "/></g></g></g><g fill="#ffc857" fill-opacity="1"><g transform="translate(235.851388, 235.499985)"><g><path d="M 3 0 L 3 -43 L 11.84375 -43 L 11.84375 -22.953125 L 11.953125 -22.953125 C 14.253906 -25.253906 16.703125 -26.40625 19.296875 -26.40625 C 20.566406 -26.40625 21.828125 -26.238281 23.078125 -25.90625 C 24.328125 -25.570312 25.523438 -25.050781 26.671875 -24.34375 C 27.828125 -23.644531 28.757812 -22.65625 29.46875 -21.375 C 30.1875 -20.09375 30.546875 -18.601562 30.546875 -16.90625 L 30.546875 0 L 21.703125 0 L 21.703125 -14.5 C 21.703125 -15.832031 21.273438 -17 20.421875 -18 C 19.578125 -19 18.46875 -19.5 17.09375 -19.5 C 15.757812 -19.5 14.550781 -18.984375 13.46875 -17.953125 C 12.382812 -16.921875 11.84375 -15.769531 11.84375 -14.5 L 11.84375 0 Z M 3 0 "/></g></g></g><g fill="#ffc857" fill-opacity="1"><g transform="translate(268.896269, 235.499985)"><g><path d="M 28.953125 -11.59375 L 10.34375 -11.59375 C 10.34375 -9.800781 10.925781 -8.46875 12.09375 -7.59375 C 13.257812 -6.726562 14.53125 -6.296875 15.90625 -6.296875 C 17.332031 -6.296875 18.460938 -6.488281 19.296875 -6.875 C 20.128906 -7.257812 21.082031 -8.019531 22.15625 -9.15625 L 28.546875 -5.953125 C 25.878906 -1.484375 21.445312 0.75 15.25 0.75 C 11.382812 0.75 8.066406 -0.570312 5.296875 -3.21875 C 2.535156 -5.875 1.15625 -9.066406 1.15625 -12.796875 C 1.15625 -16.535156 2.535156 -19.738281 5.296875 -22.40625 C 8.066406 -25.070312 11.382812 -26.40625 15.25 -26.40625 C 19.3125 -26.40625 22.617188 -25.226562 25.171875 -22.875 C 27.722656 -20.519531 29 -17.160156 29 -12.796875 C 29 -12.203125 28.984375 -11.800781 28.953125 -11.59375 Z M 10.59375 -16.5 L 20.34375 -16.5 C 20.144531 -17.832031 19.617188 -18.859375 18.765625 -19.578125 C 17.921875 -20.296875 16.832031 -20.65625 15.5 -20.65625 C 14.03125 -20.65625 12.863281 -20.269531 12 -19.5 C 11.132812 -18.726562 10.664062 -17.726562 10.59375 -16.5 Z M 10.59375 -16.5 "/></g></g></g><g fill="#ffc857" fill-opacity="1"><g transform="translate(299.041608, 235.499985)"><g/></g></g><g fill="#ffc857" fill-opacity="1"><g transform="translate(312.68951, 235.499985)"><g><path d="M 15.90625 0 L -1.40625 -41.25 L 9.203125 -41.25 L 19.59375 -14.15625 L 30 -41.25 L 40.59375 -41.25 L 23.296875 0 Z M 15.90625 0 "/></g></g></g><g fill="#ffc857" fill-opacity="1"><g transform="translate(351.883439, 235.499985)"><g><path d="M 3.84375 -39.953125 C 4.882812 -40.984375 6.117188 -41.5 7.546875 -41.5 C 8.984375 -41.5 10.21875 -40.984375 11.25 -39.953125 C 12.28125 -38.921875 12.796875 -37.6875 12.796875 -36.25 C 12.796875 -34.8125 12.28125 -33.578125 11.25 -32.546875 C 10.21875 -31.515625 8.984375 -31 7.546875 -31 C 6.117188 -31 4.882812 -31.515625 3.84375 -32.546875 C 2.8125 -33.578125 2.296875 -34.8125 2.296875 -36.25 C 2.296875 -37.6875 2.8125 -38.921875 3.84375 -39.953125 Z M 3 -25.65625 L 3 0 L 11.84375 0 L 11.84375 -25.65625 Z M 3 -25.65625 "/></g></g></g><g fill="#ffc857" fill-opacity="1"><g transform="translate(366.981102, 235.499985)"><g><path d="M 29.390625 -22.453125 C 31.796875 -19.816406 33 -16.597656 33 -12.796875 C 33 -8.992188 31.796875 -5.785156 29.390625 -3.171875 C 26.992188 -0.554688 23.945312 0.75 20.25 0.75 C 16.851562 0.75 14.050781 -0.46875 11.84375 -2.90625 L 11.75 -2.90625 L 11.75 0 L 3 0 L 3 -43 L 11.84375 -43 L 11.84375 -23.203125 C 14.050781 -25.335938 16.851562 -26.40625 20.25 -26.40625 C 23.945312 -26.40625 26.992188 -25.085938 29.390625 -22.453125 Z M 21.9375 -8.46875 C 23.039062 -9.59375 23.59375 -11.035156 23.59375 -12.796875 C 23.59375 -14.566406 23.019531 -16.015625 21.875 -17.140625 C 20.726562 -18.273438 19.300781 -18.84375 17.59375 -18.84375 C 15.925781 -18.84375 14.519531 -18.273438 13.375 -17.140625 C 12.226562 -16.015625 11.65625 -14.566406 11.65625 -12.796875 C 11.65625 -11.066406 12.210938 -9.632812 13.328125 -8.5 C 14.441406 -7.363281 15.863281 -6.796875 17.59375 -6.796875 C 19.394531 -6.796875 20.84375 -7.351562 21.9375 -8.46875 Z M 21.9375 -8.46875 "/></g></g></g><g fill="#ffc857" fill-opacity="1"><g transform="translate(401.12583, 235.499985)"><g><path d="M 28.953125 -11.59375 L 10.34375 -11.59375 C 10.34375 -9.800781 10.925781 -8.46875 12.09375 -7.59375 C 13.257812 -6.726562 14.53125 -6.296875 15.90625 -6.296875 C 17.332031 -6.296875 18.460938 -6.488281 19.296875 -6.875 C 20.128906 -7.257812 21.082031 -8.019531 22.15625 -9.15625 L 28.546875 -5.953125 C 25.878906 -1.484375 21.445312 0.75 15.25 0.75 C 11.382812 0.75 8.066406 -0.570312 5.296875 -3.21875 C 2.535156 -5.875 1.15625 -9.066406 1.15625 -12.796875 C 1.15625 -16.535156 2.535156 -19.738281 5.296875 -22.40625 C 8.066406 -25.070312 11.382812 -26.40625 15.25 -26.40625 C 19.3125 -26.40625 22.617188 -25.226562 25.171875 -22.875 C 27.722656 -20.519531 29 -17.160156 29 -12.796875 C 29 -12.203125 28.984375 -11.800781 28.953125 -11.59375 Z M 10.59375 -16.5 L 20.34375 -16.5 C 20.144531 -17.832031 19.617188 -18.859375 18.765625 -19.578125 C 17.921875 -20.296875 16.832031 -20.65625 15.5 -20.65625 C 14.03125 -20.65625 12.863281 -20.269531 12 -19.5 C 11.132812 -18.726562 10.664062 -17.726562 10.59375 -16.5 Z M 10.59375 -16.5 "/></g></g></g><g fill="#ffc857" fill-opacity="1"><g transform="translate(431.271168, 235.499985)"><g><path d="M 8.703125 -10.703125 C 10.296875 -10.703125 11.648438 -10.140625 12.765625 -9.015625 C 13.890625 -7.898438 14.453125 -6.546875 14.453125 -4.953125 C 14.453125 -3.378906 13.890625 -2.035156 12.765625 -0.921875 C 11.648438 0.191406 10.296875 0.75 8.703125 0.75 C 7.128906 0.75 5.785156 0.191406 4.671875 -0.921875 C 3.554688 -2.035156 3 -3.378906 3 -4.953125 C 3 -6.546875 3.554688 -7.898438 4.671875 -9.015625 C 5.785156 -10.140625 7.128906 -10.703125 8.703125 -10.703125 Z M 8.703125 -10.703125 "/></g></g></g></svg>