<svg xmlns="http://www.w3.org/2000/svg" xmlns:xlink="http://www.w3.org/1999/xlink" width="1200" zoomAndPan="magnify" viewBox="0 0 900 225" height="300" preserveAspectRatio="xMidYMid meet" version="1.0"><defs><g/><clipPath id="b3a4b657b6"><path d="M 457.464844 95 L 722 95 L 722 130 L 457.464844 130 Z M 457.464844 95 " clip-rule="nonzero"/></clipPath><clipPath id="b5727737af"><path d="M 457.464844 137 L 722 137 L 722 170.105469 L 457.464844 170.105469 Z M 457.464844 137 " clip-rule="nonzero"/></clipPath><clipPath id="df2ce9a6ce"><path d="M 457.464844 54.605469 L 722 54.605469 L 722 88 L 457.464844 88 Z M 457.464844 54.605469 " clip-rule="nonzero"/></clipPath></defs><g clip-path="url(#b3a4b657b6)"><path fill="#ffc857" d="M 675.484375 129.039062 C 662.875 129.039062 656.671875 121.59375 650.882812 115.1875 C 645.917969 109.398438 641.578125 104.226562 632.894531 104.226562 C 624.210938 104.226562 619.664062 109.398438 614.699219 115.1875 C 608.910156 121.59375 602.707031 129.039062 590.097656 129.039062 C 577.484375 129.039062 571.28125 121.59375 565.699219 115.1875 C 560.53125 109.398438 556.1875 104.226562 547.503906 104.226562 C 538.820312 104.226562 534.273438 109.398438 529.3125 115.1875 C 523.730469 121.59375 517.320312 129.039062 504.914062 129.039062 C 492.507812 129.039062 486.101562 121.59375 480.519531 115.1875 C 475.140625 109.398438 470.59375 104.226562 461.910156 104.226562 C 459.636719 104.226562 457.773438 102.367188 457.773438 100.09375 C 457.773438 97.820312 459.636719 95.957031 461.910156 95.957031 C 474.523438 95.957031 480.726562 103.402344 486.308594 109.808594 C 491.476562 115.597656 495.816406 120.769531 504.5 120.769531 C 513.183594 120.769531 517.734375 115.597656 522.695312 109.808594 C 528.277344 103.402344 534.6875 95.957031 547.09375 95.957031 C 559.703125 95.957031 565.90625 103.402344 571.488281 109.808594 C 576.65625 115.597656 581 120.769531 589.683594 120.769531 C 598.574219 120.769531 602.914062 115.597656 607.878906 109.808594 C 613.460938 103.402344 619.867188 95.957031 632.273438 95.957031 C 644.886719 95.957031 651.089844 103.402344 656.671875 109.808594 C 661.839844 115.597656 666.179688 120.769531 674.863281 120.769531 C 683.753906 120.769531 688.097656 115.597656 693.058594 109.808594 C 698.640625 103.402344 705.050781 95.957031 717.664062 95.957031 C 719.9375 95.957031 721.796875 97.820312 721.796875 100.09375 C 721.796875 102.367188 719.9375 104.226562 717.664062 104.226562 C 708.773438 104.226562 704.429688 109.398438 699.46875 115.1875 C 694.507812 121.59375 688.097656 129.039062 675.484375 129.039062 Z M 675.484375 129.039062 " fill-opacity="1" fill-rule="nonzero"/></g><g clip-path="url(#b5727737af)"><path fill="#ffc857" d="M 675.484375 170.386719 C 662.875 170.386719 656.671875 162.945312 650.882812 156.535156 C 645.917969 150.746094 641.578125 145.578125 632.894531 145.578125 C 624.210938 145.578125 619.664062 150.746094 614.699219 156.535156 C 608.910156 162.945312 602.707031 170.386719 590.097656 170.386719 C 577.484375 170.386719 571.28125 162.945312 565.699219 156.535156 C 560.53125 150.746094 556.1875 145.578125 547.503906 145.578125 C 538.820312 145.578125 534.273438 150.746094 529.3125 156.535156 C 523.730469 162.945312 517.320312 170.386719 504.914062 170.386719 C 492.507812 170.386719 486.101562 162.945312 480.519531 156.535156 C 475.140625 150.746094 470.59375 145.578125 461.910156 145.578125 C 459.636719 145.578125 457.773438 143.71875 457.773438 141.441406 C 457.773438 139.167969 459.636719 137.308594 461.910156 137.308594 C 474.523438 137.308594 480.726562 144.75 486.308594 151.160156 C 491.476562 156.949219 495.816406 162.117188 504.5 162.117188 C 513.183594 162.117188 517.734375 156.949219 522.695312 151.160156 C 528.277344 144.75 534.6875 137.308594 547.09375 137.308594 C 559.703125 137.308594 565.90625 144.75 571.488281 151.160156 C 576.65625 156.949219 581 162.117188 589.683594 162.117188 C 598.574219 162.117188 602.914062 156.949219 607.878906 151.160156 C 613.460938 144.75 619.867188 137.308594 632.273438 137.308594 C 644.886719 137.308594 651.089844 144.75 656.671875 151.160156 C 661.839844 156.949219 666.179688 162.117188 674.863281 162.117188 C 683.753906 162.117188 688.097656 156.949219 693.058594 151.160156 C 698.640625 144.75 705.050781 137.308594 717.664062 137.308594 C 719.9375 137.308594 721.796875 139.167969 721.796875 141.441406 C 721.796875 143.71875 719.9375 145.578125 717.664062 145.578125 C 708.773438 145.578125 704.429688 150.746094 699.46875 156.535156 C 694.507812 162.945312 688.097656 170.386719 675.484375 170.386719 Z M 675.484375 170.386719 " fill-opacity="1" fill-rule="nonzero"/></g><g clip-path="url(#df2ce9a6ce)"><path fill="#ffc857" d="M 675.484375 87.6875 C 662.875 87.6875 656.671875 80.246094 650.882812 73.835938 C 645.917969 68.046875 641.578125 62.878906 632.894531 62.878906 C 624.210938 62.878906 619.664062 68.046875 614.699219 73.835938 C 608.910156 80.246094 602.707031 87.6875 590.097656 87.6875 C 577.484375 87.6875 571.28125 80.246094 565.699219 73.835938 C 560.53125 68.046875 556.1875 62.878906 547.503906 62.878906 C 538.820312 62.878906 534.273438 68.046875 529.3125 73.835938 C 523.730469 80.246094 517.320312 87.6875 504.914062 87.6875 C 492.507812 87.6875 486.101562 80.246094 480.519531 73.835938 C 475.140625 68.046875 470.59375 62.878906 461.910156 62.878906 C 459.636719 62.878906 457.773438 61.015625 457.773438 58.742188 C 457.773438 56.46875 459.636719 54.605469 461.910156 54.605469 C 474.523438 54.605469 480.726562 62.050781 486.308594 68.460938 C 491.476562 74.25 495.816406 79.417969 504.5 79.417969 C 513.183594 79.417969 517.734375 74.25 522.695312 68.460938 C 528.277344 62.050781 534.6875 54.605469 547.09375 54.605469 C 559.703125 54.605469 565.90625 62.050781 571.488281 68.460938 C 576.65625 74.25 581 79.417969 589.683594 79.417969 C 598.574219 79.417969 602.914062 74.25 607.878906 68.460938 C 613.460938 62.050781 619.867188 54.605469 632.273438 54.605469 C 644.886719 54.605469 651.089844 62.050781 656.671875 68.460938 C 661.839844 74.25 666.179688 79.417969 674.863281 79.417969 C 683.753906 79.417969 688.097656 74.25 693.058594 68.460938 C 698.640625 62.050781 705.050781 54.605469 717.664062 54.605469 C 719.9375 54.605469 721.796875 56.46875 721.796875 58.742188 C 721.796875 61.015625 719.9375 62.878906 717.664062 62.878906 C 708.773438 62.878906 704.429688 68.046875 699.46875 73.835938 C 694.507812 80.246094 688.097656 87.6875 675.484375 87.6875 Z M 675.484375 87.6875 " fill-opacity="1" fill-rule="nonzero"/></g><g fill="#ffc857" fill-opacity="1"><g transform="translate(177.88278, 95.711085)"><g><path d="M 20.71875 -31.84375 L 20.71875 -25.46875 L 9.578125 -25.46875 L 9.578125 -19.140625 L 19.875 -19.140625 L 19.875 -12.78125 L 9.578125 -12.78125 L 9.578125 0 L 2.3125 0 L 2.3125 -31.84375 Z M 20.71875 -31.84375 "/></g></g></g><g fill="#ffc857" fill-opacity="1"><g transform="translate(199.762872, 95.711085)"><g><path d="M 22.34375 -8.953125 L 7.984375 -8.953125 C 7.984375 -7.566406 8.429688 -6.535156 9.328125 -5.859375 C 10.234375 -5.191406 11.210938 -4.859375 12.265625 -4.859375 C 13.378906 -4.859375 14.253906 -5.003906 14.890625 -5.296875 C 15.535156 -5.597656 16.269531 -6.1875 17.09375 -7.0625 L 22.03125 -4.59375 C 19.976562 -1.144531 16.554688 0.578125 11.765625 0.578125 C 8.785156 0.578125 6.226562 -0.441406 4.09375 -2.484375 C 1.957031 -4.535156 0.890625 -7 0.890625 -9.875 C 0.890625 -12.757812 1.957031 -15.226562 4.09375 -17.28125 C 6.226562 -19.34375 8.785156 -20.375 11.765625 -20.375 C 14.910156 -20.375 17.46875 -19.46875 19.4375 -17.65625 C 21.40625 -15.84375 22.390625 -13.25 22.390625 -9.875 C 22.390625 -9.414062 22.375 -9.109375 22.34375 -8.953125 Z M 8.1875 -12.734375 L 15.703125 -12.734375 C 15.546875 -13.765625 15.140625 -14.554688 14.484375 -15.109375 C 13.835938 -15.660156 13 -15.9375 11.96875 -15.9375 C 10.832031 -15.9375 9.929688 -15.640625 9.265625 -15.046875 C 8.597656 -14.453125 8.238281 -13.679688 8.1875 -12.734375 Z M 8.1875 -12.734375 "/></g></g></g><g fill="#ffc857" fill-opacity="1"><g transform="translate(223.032184, 95.711085)"><g><path d="M 22.34375 -8.953125 L 7.984375 -8.953125 C 7.984375 -7.566406 8.429688 -6.535156 9.328125 -5.859375 C 10.234375 -5.191406 11.210938 -4.859375 12.265625 -4.859375 C 13.378906 -4.859375 14.253906 -5.003906 14.890625 -5.296875 C 15.535156 -5.597656 16.269531 -6.1875 17.09375 -7.0625 L 22.03125 -4.59375 C 19.976562 -1.144531 16.554688 0.578125 11.765625 0.578125 C 8.785156 0.578125 6.226562 -0.441406 4.09375 -2.484375 C 1.957031 -4.535156 0.890625 -7 0.890625 -9.875 C 0.890625 -12.757812 1.957031 -15.226562 4.09375 -17.28125 C 6.226562 -19.34375 8.785156 -20.375 11.765625 -20.375 C 14.910156 -20.375 17.46875 -19.46875 19.4375 -17.65625 C 21.40625 -15.84375 22.390625 -13.25 22.390625 -9.875 C 22.390625 -9.414062 22.375 -9.109375 22.34375 -8.953125 Z M 8.1875 -12.734375 L 15.703125 -12.734375 C 15.546875 -13.765625 15.140625 -14.554688 14.484375 -15.109375 C 13.835938 -15.660156 13 -15.9375 11.96875 -15.9375 C 10.832031 -15.9375 9.929688 -15.640625 9.265625 -15.046875 C 8.597656 -14.453125 8.238281 -13.679688 8.1875 -12.734375 Z M 8.1875 -12.734375 "/></g></g></g><g fill="#ffc857" fill-opacity="1"><g transform="translate(246.301497, 95.711085)"><g><path d="M 2.3125 0 L 2.3125 -33.1875 L 9.140625 -33.1875 L 9.140625 0 Z M 2.3125 0 "/></g></g></g><g fill="#ffc857" fill-opacity="1"><g transform="translate(257.762499, 95.711085)"><g/></g></g><g fill="#ffc857" fill-opacity="1"><g transform="translate(268.297363, 95.711085)"><g><path d="M 3.46875 -19.796875 L 3.46875 -27.171875 L 10.296875 -27.171875 L 10.296875 -19.796875 L 14.46875 -19.796875 L 14.46875 -14.59375 L 10.296875 -14.59375 L 10.296875 -8.296875 C 10.296875 -6.472656 10.8125 -5.5625 11.84375 -5.5625 C 12.101562 -5.5625 12.375 -5.609375 12.65625 -5.703125 C 12.9375 -5.804688 13.15625 -5.910156 13.3125 -6.015625 L 13.546875 -6.171875 L 15.25 -0.65625 C 13.78125 0.164062 12.109375 0.578125 10.234375 0.578125 C 8.941406 0.578125 7.832031 0.351562 6.90625 -0.09375 C 5.976562 -0.539062 5.273438 -1.144531 4.796875 -1.90625 C 4.328125 -2.664062 3.988281 -3.460938 3.78125 -4.296875 C 3.570312 -5.140625 3.46875 -6.035156 3.46875 -6.984375 L 3.46875 -14.59375 L 0.625 -14.59375 L 0.625 -19.796875 Z M 3.46875 -19.796875 "/></g></g></g><g fill="#ffc857" fill-opacity="1"><g transform="translate(283.540108, 95.711085)"><g><path d="M 2.3125 0 L 2.3125 -33.1875 L 9.140625 -33.1875 L 9.140625 -17.71875 L 9.21875 -17.71875 C 11 -19.488281 12.890625 -20.375 14.890625 -20.375 C 15.867188 -20.375 16.84375 -20.242188 17.8125 -19.984375 C 18.78125 -19.734375 19.707031 -19.335938 20.59375 -18.796875 C 21.476562 -18.253906 22.195312 -17.488281 22.75 -16.5 C 23.300781 -15.507812 23.578125 -14.359375 23.578125 -13.046875 L 23.578125 0 L 16.75 0 L 16.75 -11.1875 C 16.75 -12.21875 16.421875 -13.117188 15.765625 -13.890625 C 15.109375 -14.660156 14.253906 -15.046875 13.203125 -15.046875 C 12.171875 -15.046875 11.234375 -14.644531 10.390625 -13.84375 C 9.554688 -13.050781 9.140625 -12.164062 9.140625 -11.1875 L 9.140625 0 Z M 2.3125 0 "/></g></g></g><g fill="#ffc857" fill-opacity="1"><g transform="translate(309.04759, 95.711085)"><g><path d="M 22.34375 -8.953125 L 7.984375 -8.953125 C 7.984375 -7.566406 8.429688 -6.535156 9.328125 -5.859375 C 10.234375 -5.191406 11.210938 -4.859375 12.265625 -4.859375 C 13.378906 -4.859375 14.253906 -5.003906 14.890625 -5.296875 C 15.535156 -5.597656 16.269531 -6.1875 17.09375 -7.0625 L 22.03125 -4.59375 C 19.976562 -1.144531 16.554688 0.578125 11.765625 0.578125 C 8.785156 0.578125 6.226562 -0.441406 4.09375 -2.484375 C 1.957031 -4.535156 0.890625 -7 0.890625 -9.875 C 0.890625 -12.757812 1.957031 -15.226562 4.09375 -17.28125 C 6.226562 -19.34375 8.785156 -20.375 11.765625 -20.375 C 14.910156 -20.375 17.46875 -19.46875 19.4375 -17.65625 C 21.40625 -15.84375 22.390625 -13.25 22.390625 -9.875 C 22.390625 -9.414062 22.375 -9.109375 22.34375 -8.953125 Z M 8.1875 -12.734375 L 15.703125 -12.734375 C 15.546875 -13.765625 15.140625 -14.554688 14.484375 -15.109375 C 13.835938 -15.660156 13 -15.9375 11.96875 -15.9375 C 10.832031 -15.9375 9.929688 -15.640625 9.265625 -15.046875 C 8.597656 -14.453125 8.238281 -13.679688 8.1875 -12.734375 Z M 8.1875 -12.734375 "/></g></g></g><g fill="#ffc857" fill-opacity="1"><g transform="translate(332.316903, 95.711085)"><g/></g></g><g fill="#ffc857" fill-opacity="1"><g transform="translate(342.851776, 95.711085)"><g><path d="M 2.3125 -31.84375 L 12.203125 -31.84375 C 15.179688 -31.84375 17.554688 -31.203125 19.328125 -29.921875 C 21.109375 -28.648438 22 -26.585938 22 -23.734375 C 22 -20.546875 20.671875 -18.269531 18.015625 -16.90625 C 22.546875 -16.101562 24.8125 -13.425781 24.8125 -8.875 C 24.8125 -6.195312 23.882812 -4.046875 22.03125 -2.421875 C 20.1875 -0.804688 17.640625 0 14.390625 0 L 2.3125 0 Z M 9.578125 -19.375 L 10.15625 -19.375 C 11.769531 -19.375 12.972656 -19.65625 13.765625 -20.21875 C 14.566406 -20.789062 14.96875 -21.71875 14.96875 -23 C 14.96875 -25.164062 13.363281 -26.25 10.15625 -26.25 L 9.578125 -26.25 Z M 9.578125 -5.59375 L 11.84375 -5.59375 C 15.394531 -5.59375 17.171875 -6.773438 17.171875 -9.140625 C 17.171875 -10.554688 16.726562 -11.570312 15.84375 -12.1875 C 14.957031 -12.8125 13.625 -13.125 11.84375 -13.125 L 9.578125 -13.125 Z M 9.578125 -5.59375 "/></g></g></g><g fill="#ffc857" fill-opacity="1"><g transform="translate(368.552205, 95.711085)"><g><path d="M 22.34375 -8.953125 L 7.984375 -8.953125 C 7.984375 -7.566406 8.429688 -6.535156 9.328125 -5.859375 C 10.234375 -5.191406 11.210938 -4.859375 12.265625 -4.859375 C 13.378906 -4.859375 14.253906 -5.003906 14.890625 -5.296875 C 15.535156 -5.597656 16.269531 -6.1875 17.09375 -7.0625 L 22.03125 -4.59375 C 19.976562 -1.144531 16.554688 0.578125 11.765625 0.578125 C 8.785156 0.578125 6.226562 -0.441406 4.09375 -2.484375 C 1.957031 -4.535156 0.890625 -7 0.890625 -9.875 C 0.890625 -12.757812 1.957031 -15.226562 4.09375 -17.28125 C 6.226562 -19.34375 8.785156 -20.375 11.765625 -20.375 C 14.910156 -20.375 17.46875 -19.46875 19.4375 -17.65625 C 21.40625 -15.84375 22.390625 -13.25 22.390625 -9.875 C 22.390625 -9.414062 22.375 -9.109375 22.34375 -8.953125 Z M 8.1875 -12.734375 L 15.703125 -12.734375 C 15.546875 -13.765625 15.140625 -14.554688 14.484375 -15.109375 C 13.835938 -15.660156 13 -15.9375 11.96875 -15.9375 C 10.832031 -15.9375 9.929688 -15.640625 9.265625 -15.046875 C 8.597656 -14.453125 8.238281 -13.679688 8.1875 -12.734375 Z M 8.1875 -12.734375 "/></g></g></g><g fill="#ffc857" fill-opacity="1"><g transform="translate(391.821517, 95.711085)"><g><path d="M 3.65625 -2.453125 C 1.8125 -4.472656 0.890625 -6.945312 0.890625 -9.875 C 0.890625 -12.8125 1.8125 -15.296875 3.65625 -17.328125 C 5.507812 -19.359375 7.867188 -20.375 10.734375 -20.375 C 13.359375 -20.375 15.519531 -19.550781 17.21875 -17.90625 L 17.21875 -19.796875 L 24.046875 -19.796875 L 24.046875 0 L 17.296875 0 L 17.296875 -2.234375 L 17.21875 -2.234375 C 15.519531 -0.359375 13.359375 0.578125 10.734375 0.578125 C 7.867188 0.578125 5.507812 -0.429688 3.65625 -2.453125 Z M 9.46875 -13.234375 C 8.582031 -12.359375 8.140625 -11.238281 8.140625 -9.875 C 8.140625 -8.507812 8.5625 -7.394531 9.40625 -6.53125 C 10.257812 -5.675781 11.382812 -5.25 12.78125 -5.25 C 14.113281 -5.25 15.210938 -5.6875 16.078125 -6.5625 C 16.941406 -7.4375 17.375 -8.539062 17.375 -9.875 C 17.375 -11.238281 16.925781 -12.359375 16.03125 -13.234375 C 15.144531 -14.109375 14.0625 -14.546875 12.78125 -14.546875 C 11.46875 -14.546875 10.363281 -14.109375 9.46875 -13.234375 Z M 9.46875 -13.234375 "/></g></g></g><g fill="#ffc857" fill-opacity="1"><g transform="translate(418.177975, 95.711085)"><g><path d="M 3.46875 -19.796875 L 3.46875 -27.171875 L 10.296875 -27.171875 L 10.296875 -19.796875 L 14.46875 -19.796875 L 14.46875 -14.59375 L 10.296875 -14.59375 L 10.296875 -8.296875 C 10.296875 -6.472656 10.8125 -5.5625 11.84375 -5.5625 C 12.101562 -5.5625 12.375 -5.609375 12.65625 -5.703125 C 12.9375 -5.804688 13.15625 -5.910156 13.3125 -6.015625 L 13.546875 -6.171875 L 15.25 -0.65625 C 13.78125 0.164062 12.109375 0.578125 10.234375 0.578125 C 8.941406 0.578125 7.832031 0.351562 6.90625 -0.09375 C 5.976562 -0.539062 5.273438 -1.144531 4.796875 -1.90625 C 4.328125 -2.664062 3.988281 -3.460938 3.78125 -4.296875 C 3.570312 -5.140625 3.46875 -6.035156 3.46875 -6.984375 L 3.46875 -14.59375 L 0.625 -14.59375 L 0.625 -19.796875 Z M 3.46875 -19.796875 "/></g></g></g><g fill="#ffc857" fill-opacity="1"><g transform="translate(433.42072, 95.711085)"><g><path d="M 6.71875 -8.265625 C 7.945312 -8.265625 8.992188 -7.832031 9.859375 -6.96875 C 10.722656 -6.101562 11.15625 -5.054688 11.15625 -3.828125 C 11.15625 -2.609375 10.722656 -1.566406 9.859375 -0.703125 C 8.992188 0.148438 7.945312 0.578125 6.71875 0.578125 C 5.507812 0.578125 4.472656 0.148438 3.609375 -0.703125 C 2.742188 -1.566406 2.3125 -2.609375 2.3125 -3.828125 C 2.3125 -5.054688 2.742188 -6.101562 3.609375 -6.96875 C 4.472656 -7.832031 5.507812 -8.265625 6.71875 -8.265625 Z M 6.71875 -8.265625 "/></g></g></g><g fill="#ffc857" fill-opacity="1"><g transform="translate(446.894386, 95.711085)"><g/></g></g><g fill="#ffc857" fill-opacity="1"><g transform="translate(177.88278, 149.551398)"><g><path d="M 9.578125 -31.84375 L 9.578125 -6.375 L 20.53125 -6.375 L 20.53125 0 L 2.3125 0 L 2.3125 -31.84375 Z M 9.578125 -31.84375 "/></g></g></g><g fill="#ffc857" fill-opacity="1"><g transform="translate(199.6857, 149.551398)"><g><path d="M 2.96875 -30.828125 C 3.769531 -31.628906 4.722656 -32.03125 5.828125 -32.03125 C 6.929688 -32.03125 7.878906 -31.628906 8.671875 -30.828125 C 9.472656 -30.035156 9.875 -29.085938 9.875 -27.984375 C 9.875 -26.878906 9.472656 -25.925781 8.671875 -25.125 C 7.878906 -24.320312 6.929688 -23.921875 5.828125 -23.921875 C 4.722656 -23.921875 3.769531 -24.320312 2.96875 -25.125 C 2.175781 -25.925781 1.78125 -26.878906 1.78125 -27.984375 C 1.78125 -29.085938 2.175781 -30.035156 2.96875 -30.828125 Z M 2.3125 -19.796875 L 2.3125 0 L 9.140625 0 L 9.140625 -19.796875 Z M 2.3125 -19.796875 "/></g></g></g><g fill="#ffc857" fill-opacity="1"><g transform="translate(211.339649, 149.551398)"><g><path d="M 7.328125 -19.796875 L 12.15625 -9.03125 L 16.984375 -19.796875 L 25.09375 -19.796875 L 14.46875 0 L 9.84375 0 L -0.765625 -19.796875 Z M 7.328125 -19.796875 "/></g></g></g><g fill="#ffc857" fill-opacity="1"><g transform="translate(235.650866, 149.551398)"><g><path d="M 22.34375 -8.953125 L 7.984375 -8.953125 C 7.984375 -7.566406 8.429688 -6.535156 9.328125 -5.859375 C 10.234375 -5.191406 11.210938 -4.859375 12.265625 -4.859375 C 13.378906 -4.859375 14.253906 -5.003906 14.890625 -5.296875 C 15.535156 -5.597656 16.269531 -6.1875 17.09375 -7.0625 L 22.03125 -4.59375 C 19.976562 -1.144531 16.554688 0.578125 11.765625 0.578125 C 8.785156 0.578125 6.226562 -0.441406 4.09375 -2.484375 C 1.957031 -4.535156 0.890625 -7 0.890625 -9.875 C 0.890625 -12.757812 1.957031 -15.226562 4.09375 -17.28125 C 6.226562 -19.34375 8.785156 -20.375 11.765625 -20.375 C 14.910156 -20.375 17.46875 -19.46875 19.4375 -17.65625 C 21.40625 -15.84375 22.390625 -13.25 22.390625 -9.875 C 22.390625 -9.414062 22.375 -9.109375 22.34375 -8.953125 Z M 8.1875 -12.734375 L 15.703125 -12.734375 C 15.546875 -13.765625 15.140625 -14.554688 14.484375 -15.109375 C 13.835938 -15.660156 13 -15.9375 11.96875 -15.9375 C 10.832031 -15.9375 9.929688 -15.640625 9.265625 -15.046875 C 8.597656 -14.453125 8.238281 -13.679688 8.1875 -12.734375 Z M 8.1875 -12.734375 "/></g></g></g><g fill="#ffc857" fill-opacity="1"><g transform="translate(258.920179, 149.551398)"><g/></g></g><g fill="#ffc857" fill-opacity="1"><g transform="translate(269.455043, 149.551398)"><g><path d="M 3.46875 -19.796875 L 3.46875 -27.171875 L 10.296875 -27.171875 L 10.296875 -19.796875 L 14.46875 -19.796875 L 14.46875 -14.59375 L 10.296875 -14.59375 L 10.296875 -8.296875 C 10.296875 -6.472656 10.8125 -5.5625 11.84375 -5.5625 C 12.101562 -5.5625 12.375 -5.609375 12.65625 -5.703125 C 12.9375 -5.804688 13.15625 -5.910156 13.3125 -6.015625 L 13.546875 -6.171875 L 15.25 -0.65625 C 13.78125 0.164062 12.109375 0.578125 10.234375 0.578125 C 8.941406 0.578125 7.832031 0.351562 6.90625 -0.09375 C 5.976562 -0.539062 5.273438 -1.144531 4.796875 -1.90625 C 4.328125 -2.664062 3.988281 -3.460938 3.78125 -4.296875 C 3.570312 -5.140625 3.46875 -6.035156 3.46875 -6.984375 L 3.46875 -14.59375 L 0.625 -14.59375 L 0.625 -19.796875 Z M 3.46875 -19.796875 "/></g></g></g><g fill="#ffc857" fill-opacity="1"><g transform="translate(284.697788, 149.551398)"><g><path d="M 2.3125 0 L 2.3125 -33.1875 L 9.140625 -33.1875 L 9.140625 -17.71875 L 9.21875 -17.71875 C 11 -19.488281 12.890625 -20.375 14.890625 -20.375 C 15.867188 -20.375 16.84375 -20.242188 17.8125 -19.984375 C 18.78125 -19.734375 19.707031 -19.335938 20.59375 -18.796875 C 21.476562 -18.253906 22.195312 -17.488281 22.75 -16.5 C 23.300781 -15.507812 23.578125 -14.359375 23.578125 -13.046875 L 23.578125 0 L 16.75 0 L 16.75 -11.1875 C 16.75 -12.21875 16.421875 -13.117188 15.765625 -13.890625 C 15.109375 -14.660156 14.253906 -15.046875 13.203125 -15.046875 C 12.171875 -15.046875 11.234375 -14.644531 10.390625 -13.84375 C 9.554688 -13.050781 9.140625 -12.164062 9.140625 -11.1875 L 9.140625 0 Z M 2.3125 0 "/></g></g></g><g fill="#ffc857" fill-opacity="1"><g transform="translate(310.20527, 149.551398)"><g><path d="M 22.34375 -8.953125 L 7.984375 -8.953125 C 7.984375 -7.566406 8.429688 -6.535156 9.328125 -5.859375 C 10.234375 -5.191406 11.210938 -4.859375 12.265625 -4.859375 C 13.378906 -4.859375 14.253906 -5.003906 14.890625 -5.296875 C 15.535156 -5.597656 16.269531 -6.1875 17.09375 -7.0625 L 22.03125 -4.59375 C 19.976562 -1.144531 16.554688 0.578125 11.765625 0.578125 C 8.785156 0.578125 6.226562 -0.441406 4.09375 -2.484375 C 1.957031 -4.535156 0.890625 -7 0.890625 -9.875 C 0.890625 -12.757812 1.957031 -15.226562 4.09375 -17.28125 C 6.226562 -19.34375 8.785156 -20.375 11.765625 -20.375 C 14.910156 -20.375 17.46875 -19.46875 19.4375 -17.65625 C 21.40625 -15.84375 22.390625 -13.25 22.390625 -9.875 C 22.390625 -9.414062 22.375 -9.109375 22.34375 -8.953125 Z M 8.1875 -12.734375 L 15.703125 -12.734375 C 15.546875 -13.765625 15.140625 -14.554688 14.484375 -15.109375 C 13.835938 -15.660156 13 -15.9375 11.96875 -15.9375 C 10.832031 -15.9375 9.929688 -15.640625 9.265625 -15.046875 C 8.597656 -14.453125 8.238281 -13.679688 8.1875 -12.734375 Z M 8.1875 -12.734375 "/></g></g></g><g fill="#ffc857" fill-opacity="1"><g transform="translate(333.474582, 149.551398)"><g/></g></g><g fill="#ffc857" fill-opacity="1"><g transform="translate(344.009456, 149.551398)"><g><path d="M 12.265625 0 L -1.078125 -31.84375 L 7.09375 -31.84375 L 15.125 -10.921875 L 23.15625 -31.84375 L 31.34375 -31.84375 L 17.984375 0 Z M 12.265625 0 "/></g></g></g><g fill="#ffc857" fill-opacity="1"><g transform="translate(374.263413, 149.551398)"><g><path d="M 2.96875 -30.828125 C 3.769531 -31.628906 4.722656 -32.03125 5.828125 -32.03125 C 6.929688 -32.03125 7.878906 -31.628906 8.671875 -30.828125 C 9.472656 -30.035156 9.875 -29.085938 9.875 -27.984375 C 9.875 -26.878906 9.472656 -25.925781 8.671875 -25.125 C 7.878906 -24.320312 6.929688 -23.921875 5.828125 -23.921875 C 4.722656 -23.921875 3.769531 -24.320312 2.96875 -25.125 C 2.175781 -25.925781 1.78125 -26.878906 1.78125 -27.984375 C 1.78125 -29.085938 2.175781 -30.035156 2.96875 -30.828125 Z M 2.3125 -19.796875 L 2.3125 0 L 9.140625 0 L 9.140625 -19.796875 Z M 2.3125 -19.796875 "/></g></g></g><g fill="#ffc857" fill-opacity="1"><g transform="translate(385.917362, 149.551398)"><g><path d="M 22.6875 -17.328125 C 24.539062 -15.296875 25.46875 -12.8125 25.46875 -9.875 C 25.46875 -6.945312 24.539062 -4.472656 22.6875 -2.453125 C 20.84375 -0.429688 18.488281 0.578125 15.625 0.578125 C 13 0.578125 10.835938 -0.359375 9.140625 -2.234375 L 9.0625 -2.234375 L 9.0625 0 L 2.3125 0 L 2.3125 -33.1875 L 9.140625 -33.1875 L 9.140625 -17.90625 C 10.835938 -19.550781 13 -20.375 15.625 -20.375 C 18.488281 -20.375 20.84375 -19.359375 22.6875 -17.328125 Z M 16.9375 -6.53125 C 17.789062 -7.394531 18.21875 -8.507812 18.21875 -9.875 C 18.21875 -11.238281 17.769531 -12.359375 16.875 -13.234375 C 15.988281 -14.109375 14.890625 -14.546875 13.578125 -14.546875 C 12.296875 -14.546875 11.210938 -14.109375 10.328125 -13.234375 C 9.441406 -12.359375 9 -11.238281 9 -9.875 C 9 -8.539062 9.425781 -7.4375 10.28125 -6.5625 C 11.144531 -5.6875 12.242188 -5.25 13.578125 -5.25 C 14.972656 -5.25 16.09375 -5.675781 16.9375 -6.53125 Z M 16.9375 -6.53125 "/></g></g></g><g fill="#ffc857" fill-opacity="1"><g transform="translate(412.27382, 149.551398)"><g><path d="M 22.34375 -8.953125 L 7.984375 -8.953125 C 7.984375 -7.566406 8.429688 -6.535156 9.328125 -5.859375 C 10.234375 -5.191406 11.210938 -4.859375 12.265625 -4.859375 C 13.378906 -4.859375 14.253906 -5.003906 14.890625 -5.296875 C 15.535156 -5.597656 16.269531 -6.1875 17.09375 -7.0625 L 22.03125 -4.59375 C 19.976562 -1.144531 16.554688 0.578125 11.765625 0.578125 C 8.785156 0.578125 6.226562 -0.441406 4.09375 -2.484375 C 1.957031 -4.535156 0.890625 -7 0.890625 -9.875 C 0.890625 -12.757812 1.957031 -15.226562 4.09375 -17.28125 C 6.226562 -19.34375 8.785156 -20.375 11.765625 -20.375 C 14.910156 -20.375 17.46875 -19.46875 19.4375 -17.65625 C 21.40625 -15.84375 22.390625 -13.25 22.390625 -9.875 C 22.390625 -9.414062 22.375 -9.109375 22.34375 -8.953125 Z M 8.1875 -12.734375 L 15.703125 -12.734375 C 15.546875 -13.765625 15.140625 -14.554688 14.484375 -15.109375 C 13.835938 -15.660156 13 -15.9375 11.96875 -15.9375 C 10.832031 -15.9375 9.929688 -15.640625 9.265625 -15.046875 C 8.597656 -14.453125 8.238281 -13.679688 8.1875 -12.734375 Z M 8.1875 -12.734375 "/></g></g></g><g fill="#ffc857" fill-opacity="1"><g transform="translate(435.543133, 149.551398)"><g><path d="M 6.71875 -8.265625 C 7.945312 -8.265625 8.992188 -7.832031 9.859375 -6.96875 C 10.722656 -6.101562 11.15625 -5.054688 11.15625 -3.828125 C 11.15625 -2.609375 10.722656 -1.566406 9.859375 -0.703125 C 8.992188 0.148438 7.945312 0.578125 6.71875 0.578125 C 5.507812 0.578125 4.472656 0.148438 3.609375 -0.703125 C 2.742188 -1.566406 2.3125 -2.609375 2.3125 -3.828125 C 2.3125 -5.054688 2.742188 -6.101562 3.609375 -6.96875 C 4.472656 -7.832031 5.507812 -8.265625 6.71875 -8.265625 Z M 6.71875 -8.265625 "/></g></g></g></svg>