<svg xmlns="http://www.w3.org/2000/svg" xmlns:xlink="http://www.w3.org/1999/xlink" width="500" zoomAndPan="magnify" viewBox="0 0 375 374.999991" height="500" preserveAspectRatio="xMidYMid meet" version="1.0"><defs><g/><clipPath id="0ab66962e4"><path d="M 112.5 118 L 118 118 L 118 184 L 112.5 184 Z M 112.5 118 " clip-rule="nonzero"/></clipPath><clipPath id="625f5164f1"><path d="M 121 97.769531 L 127 97.769531 L 127 205 L 121 205 Z M 121 97.769531 " clip-rule="nonzero"/></clipPath><clipPath id="ef358862ef"><path d="M 257 143 L 262.5 143 L 262.5 159 L 257 159 Z M 257 143 " clip-rule="nonzero"/></clipPath></defs><g clip-path="url(#0ab66962e4)"><path fill="#231b26" d="M 114.980469 118.699219 C 113.609375 118.699219 112.5 119.808594 112.5 121.179688 L 112.5 181.273438 C 112.5 182.644531 113.609375 183.753906 114.980469 183.753906 C 116.351562 183.753906 117.460938 182.644531 117.460938 181.273438 L 117.460938 121.179688 C 117.460938 119.808594 116.351562 118.699219 114.980469 118.699219 " fill-opacity="1" fill-rule="nonzero"/></g><g clip-path="url(#625f5164f1)"><path fill="#231b26" d="M 124.042969 97.785156 C 122.671875 97.785156 121.5625 98.894531 121.5625 100.265625 L 121.5625 202.1875 C 121.5625 203.558594 122.671875 204.667969 124.042969 204.667969 C 125.414062 204.667969 126.523438 203.558594 126.523438 202.1875 L 126.523438 100.265625 C 126.523438 98.894531 125.414062 97.785156 124.042969 97.785156 " fill-opacity="1" fill-rule="nonzero"/></g><path fill="#231b26" d="M 133.105469 110.332031 C 131.734375 110.332031 130.625 111.445312 130.625 112.816406 L 130.625 189.636719 C 130.625 191.007812 131.734375 192.121094 133.105469 192.121094 C 134.476562 192.121094 135.585938 191.007812 135.585938 189.636719 L 135.585938 112.816406 C 135.585938 111.445312 134.476562 110.332031 133.105469 110.332031 " fill-opacity="1" fill-rule="nonzero"/><path fill="#231b26" d="M 142.167969 118.699219 C 140.796875 118.699219 139.6875 119.808594 139.6875 121.179688 L 139.6875 181.273438 C 139.6875 182.644531 140.796875 183.753906 142.167969 183.753906 C 143.539062 183.753906 144.648438 182.644531 144.648438 181.273438 L 144.648438 121.179688 C 144.648438 119.808594 143.539062 118.699219 142.167969 118.699219 " fill-opacity="1" fill-rule="nonzero"/><path fill="#231b26" d="M 151.230469 135.429688 C 149.859375 135.429688 148.75 136.542969 148.75 137.914062 L 148.75 164.539062 C 148.75 165.910156 149.859375 167.023438 151.230469 167.023438 C 152.601562 167.023438 153.710938 165.910156 153.710938 164.539062 L 153.710938 137.914062 C 153.710938 136.542969 152.601562 135.429688 151.230469 135.429688 " fill-opacity="1" fill-rule="nonzero"/><path fill="#231b26" d="M 160.292969 127.066406 C 158.921875 127.066406 157.8125 128.175781 157.8125 129.546875 L 157.8125 172.90625 C 157.8125 174.277344 158.921875 175.386719 160.292969 175.386719 C 161.664062 175.386719 162.773438 174.277344 162.773438 172.90625 L 162.773438 129.546875 C 162.773438 128.175781 161.664062 127.066406 160.292969 127.066406 " fill-opacity="1" fill-rule="nonzero"/><path fill="#231b26" d="M 169.355469 139.613281 C 167.984375 139.613281 166.871094 140.726562 166.871094 142.097656 L 166.871094 160.355469 C 166.871094 161.726562 167.984375 162.839844 169.355469 162.839844 C 170.722656 162.839844 171.835938 161.726562 171.835938 160.355469 L 171.835938 142.097656 C 171.835938 140.726562 170.722656 139.613281 169.355469 139.613281 " fill-opacity="1" fill-rule="nonzero"/><path fill="#231b26" d="M 178.417969 131.246094 C 177.046875 131.246094 175.933594 132.359375 175.933594 133.730469 L 175.933594 168.722656 C 175.933594 170.09375 177.046875 171.207031 178.417969 171.207031 C 179.785156 171.207031 180.898438 170.09375 180.898438 168.722656 L 180.898438 133.730469 C 180.898438 132.359375 179.785156 131.246094 178.417969 131.246094 " fill-opacity="1" fill-rule="nonzero"/><path fill="#231b26" d="M 187.480469 118.699219 C 186.109375 118.699219 184.996094 119.808594 184.996094 121.179688 L 184.996094 181.273438 C 184.996094 182.644531 186.109375 183.753906 187.480469 183.753906 C 188.851562 183.753906 189.960938 182.644531 189.960938 181.273438 L 189.960938 121.179688 C 189.960938 119.808594 188.851562 118.699219 187.480469 118.699219 " fill-opacity="1" fill-rule="nonzero"/><path fill="#231b26" d="M 196.542969 110.332031 C 195.171875 110.332031 194.058594 111.445312 194.058594 112.816406 L 194.058594 189.636719 C 194.058594 191.007812 195.171875 192.121094 196.542969 192.121094 C 197.910156 192.121094 199.023438 191.007812 199.023438 189.636719 L 199.023438 112.816406 C 199.023438 111.445312 197.910156 110.332031 196.542969 110.332031 " fill-opacity="1" fill-rule="nonzero"/><path fill="#231b26" d="M 205.601562 118.699219 C 204.234375 118.699219 203.121094 119.808594 203.121094 121.179688 L 203.121094 181.273438 C 203.121094 182.644531 204.234375 183.753906 205.601562 183.753906 C 206.972656 183.753906 208.085938 182.644531 208.085938 181.273438 L 208.085938 121.179688 C 208.085938 119.808594 206.972656 118.699219 205.601562 118.699219 " fill-opacity="1" fill-rule="nonzero"/><path fill="#231b26" d="M 214.664062 135.429688 C 213.296875 135.429688 212.183594 136.542969 212.183594 137.914062 L 212.183594 164.539062 C 212.183594 165.910156 213.296875 167.023438 214.664062 167.023438 C 216.035156 167.023438 217.148438 165.910156 217.148438 164.539062 L 217.148438 137.914062 C 217.148438 136.542969 216.035156 135.429688 214.664062 135.429688 " fill-opacity="1" fill-rule="nonzero"/><path fill="#231b26" d="M 223.730469 131.246094 C 222.359375 131.246094 221.246094 132.359375 221.246094 133.730469 L 221.246094 168.722656 C 221.246094 170.09375 222.359375 171.207031 223.730469 171.207031 C 225.097656 171.207031 226.210938 170.09375 226.210938 168.722656 L 226.210938 133.730469 C 226.210938 132.359375 225.097656 131.246094 223.730469 131.246094 " fill-opacity="1" fill-rule="nonzero"/><path fill="#231b26" d="M 232.789062 122.882812 C 231.421875 122.882812 230.308594 123.992188 230.308594 125.363281 L 230.308594 177.089844 C 230.308594 178.460938 231.421875 179.570312 232.789062 179.570312 C 234.160156 179.570312 235.269531 178.460938 235.269531 177.089844 L 235.269531 125.363281 C 235.269531 123.992188 234.160156 122.882812 232.789062 122.882812 " fill-opacity="1" fill-rule="nonzero"/><path fill="#231b26" d="M 241.851562 135.429688 C 240.480469 135.429688 239.371094 136.542969 239.371094 137.914062 L 239.371094 164.539062 C 239.371094 165.910156 240.480469 167.023438 241.851562 167.023438 C 243.222656 167.023438 244.335938 165.910156 244.335938 164.539062 L 244.335938 137.914062 C 244.335938 136.542969 243.222656 135.429688 241.851562 135.429688 " fill-opacity="1" fill-rule="nonzero"/><path fill="#231b26" d="M 250.914062 139.613281 C 249.546875 139.613281 248.433594 140.726562 248.433594 142.097656 L 248.433594 160.355469 C 248.433594 161.726562 249.546875 162.839844 250.914062 162.839844 C 252.285156 162.839844 253.398438 161.726562 253.398438 160.355469 L 253.398438 142.097656 C 253.398438 140.726562 252.285156 139.613281 250.914062 139.613281 " fill-opacity="1" fill-rule="nonzero"/><g clip-path="url(#ef358862ef)"><path fill="#231b26" d="M 259.976562 143.796875 C 258.605469 143.796875 257.496094 144.90625 257.496094 146.277344 L 257.496094 156.175781 C 257.496094 157.546875 258.605469 158.65625 259.976562 158.65625 C 261.347656 158.65625 262.457031 157.546875 262.457031 156.175781 L 262.457031 146.277344 C 262.457031 144.90625 261.347656 143.796875 259.976562 143.796875 " fill-opacity="1" fill-rule="nonzero"/></g><g fill="#231b26" fill-opacity="1"><g transform="translate(74.414432, 256.563014)"><g><path d="M 42.484375 -26.0625 L 33.953125 0 L 27.484375 0 L 21.75 -17.65625 L 15.828125 0 L 9.390625 0 L 0.8125 -26.0625 L 7.078125 -26.0625 L 12.953125 -7.75 L 19.09375 -26.0625 L 24.6875 -26.0625 L 30.640625 -7.59375 L 36.71875 -26.0625 Z M 42.484375 -26.0625 "/></g></g></g><g fill="#231b26" fill-opacity="1"><g transform="translate(117.713493, 256.563014)"><g><path d="M 10.765625 -20.328125 C 13.867188 -20.328125 16.25 -19.585938 17.90625 -18.109375 C 19.570312 -16.640625 20.40625 -14.414062 20.40625 -11.4375 L 20.40625 0 L 14.96875 0 L 14.96875 -2.5 C 13.875 -0.632812 11.835938 0.296875 8.859375 0.296875 C 7.316406 0.296875 5.984375 0.0351562 4.859375 -0.484375 C 3.734375 -1.003906 2.867188 -1.722656 2.265625 -2.640625 C 1.671875 -3.554688 1.375 -4.597656 1.375 -5.765625 C 1.375 -7.628906 2.070312 -9.09375 3.46875 -10.15625 C 4.875 -11.226562 7.046875 -11.765625 9.984375 -11.765625 L 14.59375 -11.765625 C 14.59375 -13.035156 14.207031 -14.007812 13.4375 -14.6875 C 12.664062 -15.375 11.515625 -15.71875 9.984375 -15.71875 C 8.910156 -15.71875 7.859375 -15.546875 6.828125 -15.203125 C 5.796875 -14.867188 4.921875 -14.414062 4.203125 -13.84375 L 2.125 -17.90625 C 3.21875 -18.675781 4.523438 -19.269531 6.046875 -19.6875 C 7.578125 -20.113281 9.148438 -20.328125 10.765625 -20.328125 Z M 10.3125 -3.609375 C 11.300781 -3.609375 12.179688 -3.835938 12.953125 -4.296875 C 13.722656 -4.753906 14.269531 -5.429688 14.59375 -6.328125 L 14.59375 -8.375 L 10.609375 -8.375 C 8.222656 -8.375 7.03125 -7.59375 7.03125 -6.03125 C 7.03125 -5.289062 7.320312 -4.703125 7.90625 -4.265625 C 8.488281 -3.828125 9.289062 -3.609375 10.3125 -3.609375 Z M 10.3125 -3.609375 "/></g></g></g><g fill="#231b26" fill-opacity="1"><g transform="translate(140.684702, 256.563014)"><g><path d="M 22.5625 -20.03125 L 14.109375 0 L 8.109375 0 L -0.296875 -20.03125 L 5.703125 -20.03125 L 11.25 -6.40625 L 16.984375 -20.03125 Z M 22.5625 -20.03125 "/></g></g></g><g fill="#231b26" fill-opacity="1"><g transform="translate(162.948541, 256.563014)"><g><path d="M 22.296875 -9.9375 C 22.296875 -9.863281 22.257812 -9.34375 22.1875 -8.375 L 7.03125 -8.375 C 7.3125 -7.132812 7.957031 -6.15625 8.96875 -5.4375 C 9.988281 -4.71875 11.253906 -4.359375 12.765625 -4.359375 C 13.804688 -4.359375 14.726562 -4.507812 15.53125 -4.8125 C 16.34375 -5.125 17.097656 -5.617188 17.796875 -6.296875 L 20.890625 -2.9375 C 19.003906 -0.78125 16.25 0.296875 12.625 0.296875 C 10.363281 0.296875 8.363281 -0.140625 6.625 -1.015625 C 4.882812 -1.898438 3.539062 -3.125 2.59375 -4.6875 C 1.65625 -6.25 1.1875 -8.023438 1.1875 -10.015625 C 1.1875 -11.972656 1.648438 -13.738281 2.578125 -15.3125 C 3.515625 -16.894531 4.796875 -18.125 6.421875 -19 C 8.046875 -19.882812 9.863281 -20.328125 11.875 -20.328125 C 13.832031 -20.328125 15.601562 -19.90625 17.1875 -19.0625 C 18.78125 -18.21875 20.03125 -17.003906 20.9375 -15.421875 C 21.84375 -13.847656 22.296875 -12.019531 22.296875 -9.9375 Z M 11.921875 -15.9375 C 10.597656 -15.9375 9.488281 -15.5625 8.59375 -14.8125 C 7.707031 -14.070312 7.164062 -13.054688 6.96875 -11.765625 L 16.828125 -11.765625 C 16.628906 -13.035156 16.082031 -14.046875 15.1875 -14.796875 C 14.289062 -15.554688 13.203125 -15.9375 11.921875 -15.9375 Z M 11.921875 -15.9375 "/></g></g></g><g fill="#231b26" fill-opacity="1"><g transform="translate(186.440982, 256.563014)"><g><path d="M 26.8125 0 L 26.765625 -15.640625 L 19.09375 -2.75 L 16.390625 -2.75 L 8.75 -15.296875 L 8.75 0 L 3.09375 0 L 3.09375 -26.0625 L 8.078125 -26.0625 L 17.828125 -9.859375 L 27.4375 -26.0625 L 32.390625 -26.0625 L 32.46875 0 Z M 26.8125 0 "/></g></g></g><g fill="#231b26" fill-opacity="1"><g transform="translate(221.996102, 256.563014)"><g><path d="M 22.859375 -20.03125 L 22.859375 0 L 17.34375 0 L 17.34375 -2.390625 C 16.582031 -1.515625 15.664062 -0.847656 14.59375 -0.390625 C 13.53125 0.0664062 12.378906 0.296875 11.140625 0.296875 C 8.503906 0.296875 6.414062 -0.457031 4.875 -1.96875 C 3.332031 -3.488281 2.5625 -5.738281 2.5625 -8.71875 L 2.5625 -20.03125 L 8.375 -20.03125 L 8.375 -9.5625 C 8.375 -6.34375 9.726562 -4.734375 12.4375 -4.734375 C 13.820312 -4.734375 14.9375 -5.1875 15.78125 -6.09375 C 16.625 -7 17.046875 -8.34375 17.046875 -10.125 L 17.046875 -20.03125 Z M 22.859375 -20.03125 "/></g></g></g><g fill="#231b26" fill-opacity="1"><g transform="translate(247.573451, 256.563014)"><g><path d="M 9.421875 0.296875 C 7.753906 0.296875 6.125 0.09375 4.53125 -0.3125 C 2.945312 -0.726562 1.6875 -1.242188 0.75 -1.859375 L 2.6875 -6.03125 C 3.570312 -5.457031 4.644531 -4.988281 5.90625 -4.625 C 7.175781 -4.269531 8.421875 -4.09375 9.640625 -4.09375 C 12.097656 -4.09375 13.328125 -4.703125 13.328125 -5.921875 C 13.328125 -6.492188 12.988281 -6.898438 12.3125 -7.140625 C 11.644531 -7.390625 10.617188 -7.601562 9.234375 -7.78125 C 7.597656 -8.03125 6.242188 -8.316406 5.171875 -8.640625 C 4.109375 -8.960938 3.1875 -9.53125 2.40625 -10.34375 C 1.625 -11.164062 1.234375 -12.332031 1.234375 -13.84375 C 1.234375 -15.113281 1.597656 -16.238281 2.328125 -17.21875 C 3.054688 -18.195312 4.125 -18.957031 5.53125 -19.5 C 6.9375 -20.050781 8.59375 -20.328125 10.5 -20.328125 C 11.914062 -20.328125 13.320312 -20.171875 14.71875 -19.859375 C 16.125 -19.554688 17.285156 -19.128906 18.203125 -18.578125 L 16.265625 -14.453125 C 14.503906 -15.441406 12.582031 -15.9375 10.5 -15.9375 C 9.257812 -15.9375 8.328125 -15.757812 7.703125 -15.40625 C 7.085938 -15.0625 6.78125 -14.617188 6.78125 -14.078125 C 6.78125 -13.453125 7.113281 -13.015625 7.78125 -12.765625 C 8.445312 -12.523438 9.515625 -12.289062 10.984375 -12.0625 C 12.617188 -11.789062 13.957031 -11.5 15 -11.1875 C 16.039062 -10.875 16.945312 -10.304688 17.71875 -9.484375 C 18.488281 -8.671875 18.875 -7.53125 18.875 -6.0625 C 18.875 -4.820312 18.5 -3.71875 17.75 -2.75 C 17.007812 -1.78125 15.925781 -1.03125 14.5 -0.5 C 13.070312 0.03125 11.378906 0.296875 9.421875 0.296875 Z M 9.421875 0.296875 "/></g></g></g><g fill="#231b26" fill-opacity="1"><g transform="translate(267.342855, 256.563014)"><g><path d="M 2.6875 -20.03125 L 8.484375 -20.03125 L 8.484375 0 L 2.6875 0 Z M 5.578125 -22.828125 C 4.515625 -22.828125 3.644531 -23.132812 2.96875 -23.75 C 2.300781 -24.375 1.96875 -25.144531 1.96875 -26.0625 C 1.96875 -26.976562 2.300781 -27.742188 2.96875 -28.359375 C 3.644531 -28.984375 4.515625 -29.296875 5.578125 -29.296875 C 6.648438 -29.296875 7.519531 -29 8.1875 -28.40625 C 8.851562 -27.8125 9.1875 -27.066406 9.1875 -26.171875 C 9.1875 -25.203125 8.851562 -24.398438 8.1875 -23.765625 C 7.519531 -23.140625 6.648438 -22.828125 5.578125 -22.828125 Z M 5.578125 -22.828125 "/></g></g></g><g fill="#231b26" fill-opacity="1"><g transform="translate(278.54923, 256.563014)"><g><path d="M 12.359375 0.296875 C 10.222656 0.296875 8.304688 -0.140625 6.609375 -1.015625 C 4.910156 -1.898438 3.582031 -3.125 2.625 -4.6875 C 1.664062 -6.25 1.1875 -8.023438 1.1875 -10.015625 C 1.1875 -12.003906 1.664062 -13.78125 2.625 -15.34375 C 3.582031 -16.90625 4.910156 -18.125 6.609375 -19 C 8.304688 -19.882812 10.222656 -20.328125 12.359375 -20.328125 C 14.472656 -20.328125 16.316406 -19.882812 17.890625 -19 C 19.460938 -18.125 20.609375 -16.867188 21.328125 -15.234375 L 16.828125 -12.8125 C 15.785156 -14.644531 14.285156 -15.5625 12.328125 -15.5625 C 10.804688 -15.5625 9.550781 -15.0625 8.5625 -14.0625 C 7.570312 -13.070312 7.078125 -11.722656 7.078125 -10.015625 C 7.078125 -8.304688 7.570312 -6.953125 8.5625 -5.953125 C 9.550781 -4.960938 10.804688 -4.46875 12.328125 -4.46875 C 14.304688 -4.46875 15.804688 -5.382812 16.828125 -7.21875 L 21.328125 -4.765625 C 20.609375 -3.179688 19.460938 -1.941406 17.890625 -1.046875 C 16.316406 -0.148438 14.472656 0.296875 12.359375 0.296875 Z M 12.359375 0.296875 "/></g></g></g><g fill="#231b26" fill-opacity="1"><g transform="translate(122.896656, 273.244348)"><g><path d="M 5.234375 0.078125 C 4.367188 0.078125 3.585938 -0.113281 2.890625 -0.5 C 2.191406 -0.882812 1.644531 -1.414062 1.25 -2.09375 C 0.851562 -2.78125 0.65625 -3.546875 0.65625 -4.390625 C 0.65625 -5.234375 0.851562 -5.992188 1.25 -6.671875 C 1.644531 -7.347656 2.191406 -7.878906 2.890625 -8.265625 C 3.597656 -8.648438 4.382812 -8.84375 5.25 -8.84375 C 5.90625 -8.84375 6.503906 -8.734375 7.046875 -8.515625 C 7.597656 -8.304688 8.066406 -7.988281 8.453125 -7.5625 L 7.875 -6.984375 C 7.1875 -7.671875 6.320312 -8.015625 5.28125 -8.015625 C 4.582031 -8.015625 3.945312 -7.851562 3.375 -7.53125 C 2.8125 -7.21875 2.367188 -6.785156 2.046875 -6.234375 C 1.722656 -5.679688 1.5625 -5.066406 1.5625 -4.390625 C 1.5625 -3.703125 1.722656 -3.082031 2.046875 -2.53125 C 2.367188 -1.976562 2.8125 -1.539062 3.375 -1.21875 C 3.945312 -0.90625 4.582031 -0.75 5.28125 -0.75 C 6.332031 -0.75 7.195312 -1.097656 7.875 -1.796875 L 8.453125 -1.21875 C 8.066406 -0.800781 7.597656 -0.476562 7.046875 -0.25 C 6.492188 -0.03125 5.890625 0.078125 5.234375 0.078125 Z M 5.234375 0.078125 "/></g></g></g><g fill="#231b26" fill-opacity="1"><g transform="translate(141.282337, 273.244348)"><g><path d="M 7.421875 0 L 5.40625 -2.8125 C 5.1875 -2.789062 4.957031 -2.78125 4.71875 -2.78125 L 2.359375 -2.78125 L 2.359375 0 L 1.421875 0 L 1.421875 -8.765625 L 4.71875 -8.765625 C 5.832031 -8.765625 6.707031 -8.5 7.34375 -7.96875 C 7.976562 -7.4375 8.296875 -6.703125 8.296875 -5.765625 C 8.296875 -5.078125 8.117188 -4.5 7.765625 -4.03125 C 7.421875 -3.5625 6.929688 -3.21875 6.296875 -3 L 8.4375 0 Z M 4.6875 -3.578125 C 5.550781 -3.578125 6.210938 -3.765625 6.671875 -4.140625 C 7.140625 -4.523438 7.375 -5.066406 7.375 -5.765625 C 7.375 -6.472656 7.140625 -7.015625 6.671875 -7.390625 C 6.210938 -7.773438 5.550781 -7.96875 4.6875 -7.96875 L 2.359375 -7.96875 L 2.359375 -3.578125 Z M 4.6875 -3.578125 "/></g></g></g><g fill="#231b26" fill-opacity="1"><g transform="translate(159.718119, 273.244348)"><g><path d="M 7.625 -0.796875 L 7.625 0 L 1.421875 0 L 1.421875 -8.765625 L 7.4375 -8.765625 L 7.4375 -7.96875 L 2.359375 -7.96875 L 2.359375 -4.84375 L 6.890625 -4.84375 L 6.890625 -4.0625 L 2.359375 -4.0625 L 2.359375 -0.796875 Z M 7.625 -0.796875 "/></g></g></g><g fill="#231b26" fill-opacity="1"><g transform="translate(177.477429, 273.244348)"><g><path d="M 6.9375 -2.34375 L 2.046875 -2.34375 L 0.984375 0 L 0.03125 0 L 4.03125 -8.765625 L 4.953125 -8.765625 L 8.953125 0 L 7.984375 0 Z M 6.59375 -3.09375 L 4.484375 -7.8125 L 2.375 -3.09375 Z M 6.59375 -3.09375 "/></g></g></g><g fill="#231b26" fill-opacity="1"><g transform="translate(195.83806, 273.244348)"><g><path d="M 3.140625 -7.96875 L 0.046875 -7.96875 L 0.046875 -8.765625 L 7.140625 -8.765625 L 7.140625 -7.96875 L 4.0625 -7.96875 L 4.0625 0 L 3.140625 0 Z M 3.140625 -7.96875 "/></g></g></g><g fill="#231b26" fill-opacity="1"><g transform="translate(212.407278, 273.244348)"><g><path d="M 1.421875 -8.765625 L 2.359375 -8.765625 L 2.359375 0 L 1.421875 0 Z M 1.421875 -8.765625 "/></g></g></g><g fill="#231b26" fill-opacity="1"><g transform="translate(225.569047, 273.244348)"><g><path d="M 8.71875 -8.765625 L 4.84375 0 L 3.921875 0 L 0.03125 -8.765625 L 1.046875 -8.765625 L 4.40625 -1.15625 L 7.78125 -8.765625 Z M 8.71875 -8.765625 "/></g></g></g><g fill="#231b26" fill-opacity="1"><g transform="translate(243.691646, 273.244348)"><g><path d="M 7.625 -0.796875 L 7.625 0 L 1.421875 0 L 1.421875 -8.765625 L 7.4375 -8.765625 L 7.4375 -7.96875 L 2.359375 -7.96875 L 2.359375 -4.84375 L 6.890625 -4.84375 L 6.890625 -4.0625 L 2.359375 -4.0625 L 2.359375 -0.796875 Z M 7.625 -0.796875 "/></g></g></g></svg>