<svg xmlns="http://www.w3.org/2000/svg" xmlns:xlink="http://www.w3.org/1999/xlink" width="500" zoomAndPan="magnify" viewBox="0 0 375 374.999991" height="500" preserveAspectRatio="xMidYMid meet" version="1.0"><defs><g/><clipPath id="c80ef248ea"><path d="M 167 86.476562 L 188 86.476562 L 188 111 L 167 111 Z M 167 86.476562 " clip-rule="nonzero"/></clipPath><clipPath id="d848f14d82"><path d="M 140.882812 126 L 169 126 L 169 157 L 140.882812 157 Z M 140.882812 126 " clip-rule="nonzero"/></clipPath><clipPath id="da607e38fe"><path d="M 200 126 L 233.882812 126 L 233.882812 144 L 200 144 Z M 200 126 " clip-rule="nonzero"/></clipPath><clipPath id="b206e2ece1"><path d="M 180 160 L 185 160 L 185 179.476562 L 180 179.476562 Z M 180 160 " clip-rule="nonzero"/></clipPath><clipPath id="b8408e9f49"><path d="M 194 171 L 199 171 L 199 179.476562 L 194 179.476562 Z M 194 171 " clip-rule="nonzero"/></clipPath><clipPath id="a1a3dd5e56"><path d="M 152.292969 261.050781 L 158.484375 261.050781 L 158.484375 267.242188 L 152.292969 267.242188 Z M 152.292969 261.050781 " clip-rule="nonzero"/></clipPath><clipPath id="fe8f9945f1"><path d="M 155.390625 261.050781 C 153.679688 261.050781 152.292969 262.4375 152.292969 264.144531 C 152.292969 265.855469 153.679688 267.242188 155.390625 267.242188 C 157.097656 267.242188 158.484375 265.855469 158.484375 264.144531 C 158.484375 262.4375 157.097656 261.050781 155.390625 261.050781 Z M 155.390625 261.050781 " clip-rule="nonzero"/></clipPath></defs><path fill="#000000" d="M 203.109375 140.570312 L 193.203125 145.441406 C 192.945312 145.570312 192.6875 145.613281 192.390625 145.613281 C 191.621094 145.613281 190.894531 145.140625 190.640625 144.289062 C 190.382812 143.433594 190.851562 142.535156 191.664062 142.152344 L 200.078125 138.007812 C 200.972656 137.582031 201.359375 136.558594 200.933594 135.660156 L 200.589844 134.890625 C 200.164062 133.953125 199.050781 133.523438 198.113281 133.996094 L 189.871094 138.050781 C 189.613281 138.179688 189.359375 138.222656 189.058594 138.222656 C 188.289062 138.222656 187.5625 137.753906 187.308594 136.898438 C 187.050781 136.042969 187.519531 135.148438 188.332031 134.761719 L 196.832031 130.578125 C 197.730469 130.152344 198.113281 129.125 197.6875 128.230469 L 197.644531 128.144531 C 197.214844 127.203125 196.105469 126.777344 195.167969 127.246094 L 186.667969 131.433594 C 186.410156 131.558594 186.15625 131.601562 185.855469 131.601562 C 185.085938 131.601562 184.359375 131.132812 184.105469 130.277344 C 183.847656 129.425781 184.316406 128.527344 185.128906 128.144531 L 193.84375 123.828125 C 194.738281 123.402344 195.125 122.378906 194.695312 121.480469 C 194.269531 120.542969 193.160156 120.113281 192.21875 120.582031 L 183.550781 124.855469 C 183.292969 124.984375 183.035156 125.027344 182.738281 125.027344 C 181.96875 125.027344 181.242188 124.554688 180.988281 123.703125 C 180.730469 122.847656 181.199219 121.949219 182.011719 121.566406 L 189.65625 117.808594 C 190.894531 117.210938 191.023438 115.5 189.957031 114.691406 C 186.753906 112.296875 181.242188 109.949219 174.152344 113.792969 C 162.835938 119.898438 167.832031 132.03125 167.832031 132.03125 C 167.832031 132.03125 175.945312 150.222656 176.84375 151.675781 C 177.742188 153.128906 180.003906 155.734375 183.59375 157.1875 C 183.59375 157.1875 182.226562 151.292969 188.886719 149.753906 C 188.886719 149.753906 181.03125 153.554688 186.710938 160.132812 L 186.667969 177.769531 C 186.667969 177.769531 193.800781 178.753906 195.039062 174.355469 L 195.039062 160.132812 C 195.039062 160.132812 197.300781 158.253906 197.300781 155.734375 C 197.300781 155.734375 205.417969 149.796875 203.152344 140.957031 Z M 203.109375 140.570312 " fill-opacity="1" fill-rule="nonzero"/><g clip-path="url(#c80ef248ea)"><path fill="#000000" d="M 179.40625 109.480469 C 182.183594 109.050781 184.617188 109.4375 186.667969 110.121094 L 187.308594 87.699219 C 187.308594 87.058594 186.796875 86.5 186.15625 86.5 C 179.789062 86.671875 173.769531 88.167969 168.300781 90.644531 C 167.660156 90.945312 167.449219 91.753906 167.832031 92.308594 Z M 179.40625 109.480469 " fill-opacity="1" fill-rule="nonzero"/></g><g clip-path="url(#d848f14d82)"><path fill="#000000" d="M 165.738281 133.054688 C 165.140625 131.601562 164.628906 129.59375 164.5 127.375 L 142.460938 126.433594 C 141.863281 126.390625 141.351562 126.820312 141.265625 127.417969 C 141.011719 129.296875 140.882812 131.175781 140.882812 133.097656 C 140.882812 141.253906 143.019531 148.855469 146.691406 155.519531 C 147.03125 156.160156 147.886719 156.289062 148.441406 155.820312 L 168.558594 139.164062 C 167.363281 136.683594 166.335938 134.378906 165.738281 133.054688 Z M 165.738281 133.054688 " fill-opacity="1" fill-rule="nonzero"/></g><path fill="#000000" d="M 193.328125 116.570312 C 193.285156 117.039062 193.160156 117.507812 192.988281 117.9375 C 193.074219 117.9375 193.160156 117.976562 193.203125 117.976562 C 193.371094 117.9375 193.585938 117.851562 193.714844 117.679688 L 213.359375 95.984375 C 213.832031 95.472656 213.746094 94.660156 213.148438 94.273438 C 208.492188 91.199219 203.238281 88.894531 197.558594 87.65625 C 196.917969 87.527344 196.277344 87.953125 196.191406 88.59375 L 192.261719 113.410156 C 193.03125 114.261719 193.457031 115.375 193.328125 116.570312 Z M 193.328125 116.570312 " fill-opacity="1" fill-rule="nonzero"/><path fill="#000000" d="M 199.523438 122.378906 L 229.890625 117.378906 C 230.613281 117.253906 231.042969 116.527344 230.785156 115.84375 C 228.734375 110.675781 225.746094 105.933594 222.074219 101.878906 C 221.644531 101.40625 220.960938 101.363281 220.492188 101.792969 L 198.582031 120.414062 C 197.730469 121.140625 198.371094 122.589844 199.523438 122.378906 Z M 199.523438 122.378906 " fill-opacity="1" fill-rule="nonzero"/><path fill="#000000" d="M 145.324219 116.78125 L 165.398438 120.285156 C 166.507812 117.167969 168.773438 114.132812 172.742188 111.871094 L 159.675781 97.09375 C 159.289062 96.625 158.5625 96.582031 158.09375 96.964844 C 152.15625 101.792969 147.417969 108.070312 144.46875 115.246094 C 144.171875 115.886719 144.597656 116.65625 145.324219 116.78125 Z M 145.324219 116.78125 " fill-opacity="1" fill-rule="nonzero"/><path fill="#000000" d="M 205.417969 139.761719 L 205.671875 140.359375 C 205.929688 141.382812 206.101562 142.410156 206.140625 143.390625 L 206.140625 144.289062 C 206.101562 148.773438 203.964844 152.359375 202 154.664062 L 208.917969 173.03125 C 209.175781 173.671875 209.945312 173.96875 210.542969 173.628906 C 218.1875 169.273438 224.464844 162.78125 228.609375 154.964844 C 228.90625 154.410156 228.691406 153.769531 228.179688 153.425781 Z M 205.417969 139.761719 " fill-opacity="1" fill-rule="nonzero"/><g clip-path="url(#da607e38fe)"><path fill="#000000" d="M 233.734375 127.671875 C 233.648438 127.074219 233.132812 126.648438 232.578125 126.691406 L 200.207031 127.800781 C 200.417969 128.613281 200.417969 129.425781 200.207031 130.152344 L 231.425781 143.773438 C 232.066406 144.074219 232.835938 143.691406 233.007812 143.007812 C 233.734375 139.804688 234.117188 136.472656 234.117188 133.054688 C 234.117188 131.261719 233.988281 129.46875 233.734375 127.671875 Z M 233.734375 127.671875 " fill-opacity="1" fill-rule="nonzero"/></g><g clip-path="url(#b206e2ece1)"><path fill="#000000" d="M 184.402344 161.03125 C 184.191406 160.773438 184.0625 160.515625 183.890625 160.261719 L 180.730469 177.984375 C 180.601562 178.625 181.070312 179.222656 181.710938 179.308594 C 182.566406 179.4375 183.464844 179.523438 184.359375 179.566406 Z M 184.402344 161.03125 " fill-opacity="1" fill-rule="nonzero"/></g><g clip-path="url(#b8408e9f49)"><path fill="#000000" d="M 197.601562 171.324219 L 197.558594 175.039062 C 196.960938 177.089844 195.636719 178.371094 194.054688 179.179688 C 195.421875 178.96875 196.789062 178.753906 198.113281 178.453125 C 198.710938 178.328125 199.09375 177.6875 198.96875 177.089844 Z M 197.601562 171.324219 " fill-opacity="1" fill-rule="nonzero"/></g><path fill="#000000" d="M 174.878906 153 C 174.496094 152.359375 173.085938 149.414062 171.503906 145.910156 L 154.335938 164.316406 C 153.910156 164.746094 153.910156 165.472656 154.335938 165.898438 C 158.480469 170.082031 163.390625 173.5 168.855469 175.847656 C 169.457031 176.105469 170.222656 175.765625 170.394531 175.125 L 176.628906 155.265625 C 175.777344 154.28125 175.179688 153.425781 174.878906 153 Z M 174.878906 153 " fill-opacity="1" fill-rule="nonzero"/><g clip-path="url(#a1a3dd5e56)"><g clip-path="url(#fe8f9945f1)"><path fill="#000000" d="M 152.292969 261.050781 L 158.484375 261.050781 L 158.484375 267.242188 L 152.292969 267.242188 Z M 152.292969 261.050781 " fill-opacity="1" fill-rule="nonzero"/></g></g><g fill="#000000" fill-opacity="1"><g transform="translate(117.356926, 218.789018)"><g><path d="M 9.53125 0.265625 C 7.925781 0.265625 6.492188 -0.0078125 5.234375 -0.5625 C 3.984375 -1.113281 2.992188 -1.863281 2.265625 -2.8125 C 1.546875 -3.769531 1.144531 -4.84375 1.0625 -6.03125 L 6.625 -6.03125 C 6.6875 -5.394531 6.984375 -4.878906 7.515625 -4.484375 C 8.046875 -4.085938 8.695312 -3.890625 9.46875 -3.890625 C 10.164062 -3.890625 10.707031 -4.023438 11.09375 -4.296875 C 11.476562 -4.578125 11.671875 -4.9375 11.671875 -5.375 C 11.671875 -5.90625 11.394531 -6.296875 10.84375 -6.546875 C 10.289062 -6.796875 9.398438 -7.078125 8.171875 -7.390625 C 6.859375 -7.691406 5.757812 -8.015625 4.875 -8.359375 C 4 -8.703125 3.242188 -9.238281 2.609375 -9.96875 C 1.972656 -10.707031 1.65625 -11.703125 1.65625 -12.953125 C 1.65625 -14.015625 1.941406 -14.976562 2.515625 -15.84375 C 3.097656 -16.707031 3.957031 -17.390625 5.09375 -17.890625 C 6.226562 -18.398438 7.570312 -18.65625 9.125 -18.65625 C 11.4375 -18.65625 13.253906 -18.082031 14.578125 -16.9375 C 15.910156 -15.800781 16.675781 -14.285156 16.875 -12.390625 L 11.671875 -12.390625 C 11.585938 -13.035156 11.304688 -13.539062 10.828125 -13.90625 C 10.359375 -14.28125 9.738281 -14.46875 8.96875 -14.46875 C 8.3125 -14.46875 7.804688 -14.34375 7.453125 -14.09375 C 7.097656 -13.84375 6.921875 -13.5 6.921875 -13.0625 C 6.921875 -12.53125 7.203125 -12.128906 7.765625 -11.859375 C 8.328125 -11.597656 9.203125 -11.335938 10.390625 -11.078125 C 11.742188 -10.722656 12.847656 -10.375 13.703125 -10.03125 C 14.566406 -9.695312 15.320312 -9.148438 15.96875 -8.390625 C 16.625 -7.628906 16.960938 -6.613281 16.984375 -5.34375 C 16.984375 -4.257812 16.679688 -3.296875 16.078125 -2.453125 C 15.472656 -1.609375 14.601562 -0.941406 13.46875 -0.453125 C 12.332031 0.0234375 11.019531 0.265625 9.53125 0.265625 Z M 9.53125 0.265625 "/></g></g></g><g fill="#000000" fill-opacity="1"><g transform="translate(135.750063, 218.789018)"><g><path d="M 20.203125 -18.390625 L 20.203125 0 L 14.578125 0 L 14.578125 -2.5 C 14.003906 -1.6875 13.226562 -1.03125 12.25 -0.53125 C 11.269531 -0.0390625 10.1875 0.203125 9 0.203125 C 7.59375 0.203125 6.347656 -0.109375 5.265625 -0.734375 C 4.191406 -1.367188 3.359375 -2.273438 2.765625 -3.453125 C 2.171875 -4.640625 1.875 -6.039062 1.875 -7.65625 L 1.875 -18.390625 L 7.484375 -18.390625 L 7.484375 -8.40625 C 7.484375 -7.175781 7.800781 -6.21875 8.4375 -5.53125 C 9.070312 -4.851562 9.929688 -4.515625 11.015625 -4.515625 C 12.109375 -4.515625 12.972656 -4.851562 13.609375 -5.53125 C 14.253906 -6.21875 14.578125 -7.175781 14.578125 -8.40625 L 14.578125 -18.390625 Z M 20.203125 -18.390625 "/></g></g></g><g fill="#000000" fill-opacity="1"><g transform="translate(157.966867, 218.789018)"><g><path d="M 13.25 -18.59375 C 15.40625 -18.59375 17.125 -17.894531 18.40625 -16.5 C 19.695312 -15.101562 20.34375 -13.1875 20.34375 -10.75 L 20.34375 0 L 14.734375 0 L 14.734375 -9.984375 C 14.734375 -11.210938 14.414062 -12.164062 13.78125 -12.84375 C 13.144531 -13.53125 12.285156 -13.875 11.203125 -13.875 C 10.128906 -13.875 9.273438 -13.53125 8.640625 -12.84375 C 8.003906 -12.164062 7.6875 -11.210938 7.6875 -9.984375 L 7.6875 0 L 2.046875 0 L 2.046875 -18.390625 L 7.6875 -18.390625 L 7.6875 -15.953125 C 8.25 -16.765625 9.015625 -17.40625 9.984375 -17.875 C 10.953125 -18.351562 12.039062 -18.59375 13.25 -18.59375 Z M 13.25 -18.59375 "/></g></g></g><g fill="#000000" fill-opacity="1"><g transform="translate(180.183671, 218.789018)"><g><path d="M 7.6875 -24.390625 L 7.6875 0 L 2.046875 0 L 2.046875 -24.390625 Z M 7.6875 -24.390625 "/></g></g></g><g fill="#000000" fill-opacity="1"><g transform="translate(189.907636, 218.789018)"><g><path d="M 4.875 -20.3125 C 3.882812 -20.3125 3.078125 -20.601562 2.453125 -21.1875 C 1.828125 -21.769531 1.515625 -22.488281 1.515625 -23.34375 C 1.515625 -24.21875 1.828125 -24.945312 2.453125 -25.53125 C 3.078125 -26.113281 3.882812 -26.40625 4.875 -26.40625 C 5.84375 -26.40625 6.640625 -26.113281 7.265625 -25.53125 C 7.890625 -24.945312 8.203125 -24.21875 8.203125 -23.34375 C 8.203125 -22.488281 7.890625 -21.769531 7.265625 -21.1875 C 6.640625 -20.601562 5.84375 -20.3125 4.875 -20.3125 Z M 7.6875 -18.390625 L 7.6875 0 L 2.046875 0 L 2.046875 -18.390625 Z M 7.6875 -18.390625 "/></g></g></g><g fill="#000000" fill-opacity="1"><g transform="translate(199.631601, 218.789018)"><g><path d="M 9.03125 -18.65625 C 10.332031 -18.65625 11.46875 -18.390625 12.4375 -17.859375 C 13.414062 -17.335938 14.171875 -16.648438 14.703125 -15.796875 L 14.703125 -18.390625 L 20.34375 -18.390625 L 20.34375 -0.03125 C 20.34375 1.65625 20.003906 3.1875 19.328125 4.5625 C 18.660156 5.9375 17.640625 7.03125 16.265625 7.84375 C 14.890625 8.65625 13.179688 9.0625 11.140625 9.0625 C 8.421875 9.0625 6.210938 8.414062 4.515625 7.125 C 2.828125 5.84375 1.859375 4.101562 1.609375 1.90625 L 7.1875 1.90625 C 7.363281 2.613281 7.78125 3.171875 8.4375 3.578125 C 9.09375 3.984375 9.90625 4.1875 10.875 4.1875 C 12.039062 4.1875 12.96875 3.847656 13.65625 3.171875 C 14.351562 2.503906 14.703125 1.4375 14.703125 -0.03125 L 14.703125 -2.640625 C 14.148438 -1.785156 13.390625 -1.085938 12.421875 -0.546875 C 11.460938 -0.00390625 10.332031 0.265625 9.03125 0.265625 C 7.519531 0.265625 6.144531 -0.125 4.90625 -0.90625 C 3.675781 -1.6875 2.703125 -2.796875 1.984375 -4.234375 C 1.273438 -5.671875 0.921875 -7.335938 0.921875 -9.234375 C 0.921875 -11.117188 1.273438 -12.773438 1.984375 -14.203125 C 2.703125 -15.640625 3.675781 -16.738281 4.90625 -17.5 C 6.144531 -18.269531 7.519531 -18.65625 9.03125 -18.65625 Z M 14.703125 -9.203125 C 14.703125 -10.609375 14.3125 -11.71875 13.53125 -12.53125 C 12.75 -13.34375 11.800781 -13.75 10.6875 -13.75 C 9.5625 -13.75 8.609375 -13.347656 7.828125 -12.546875 C 7.046875 -11.742188 6.65625 -10.640625 6.65625 -9.234375 C 6.65625 -7.828125 7.046875 -6.710938 7.828125 -5.890625 C 8.609375 -5.066406 9.5625 -4.65625 10.6875 -4.65625 C 11.800781 -4.65625 12.75 -5.0625 13.53125 -5.875 C 14.3125 -6.6875 14.703125 -7.796875 14.703125 -9.203125 Z M 14.703125 -9.203125 "/></g></g></g><g fill="#000000" fill-opacity="1"><g transform="translate(222.013208, 218.789018)"><g><path d="M 13.359375 -18.59375 C 15.460938 -18.59375 17.148438 -17.894531 18.421875 -16.5 C 19.703125 -15.101562 20.34375 -13.1875 20.34375 -10.75 L 20.34375 0 L 14.734375 0 L 14.734375 -9.984375 C 14.734375 -11.210938 14.414062 -12.164062 13.78125 -12.84375 C 13.144531 -13.53125 12.285156 -13.875 11.203125 -13.875 C 10.128906 -13.875 9.273438 -13.53125 8.640625 -12.84375 C 8.003906 -12.164062 7.6875 -11.210938 7.6875 -9.984375 L 7.6875 0 L 2.046875 0 L 2.046875 -24.390625 L 7.6875 -24.390625 L 7.6875 -15.921875 C 8.25 -16.734375 9.023438 -17.378906 10.015625 -17.859375 C 11.003906 -18.347656 12.117188 -18.59375 13.359375 -18.59375 Z M 13.359375 -18.59375 "/></g></g></g><g fill="#000000" fill-opacity="1"><g transform="translate(244.230012, 218.789018)"><g><path d="M 12.296875 -4.78125 L 12.296875 0 L 9.421875 0 C 7.378906 0 5.785156 -0.5 4.640625 -1.5 C 3.503906 -2.5 2.9375 -4.128906 2.9375 -6.390625 L 2.9375 -13.71875 L 0.6875 -13.71875 L 0.6875 -18.390625 L 2.9375 -18.390625 L 2.9375 -22.875 L 8.578125 -22.875 L 8.578125 -18.390625 L 12.265625 -18.390625 L 12.265625 -13.71875 L 8.578125 -13.71875 L 8.578125 -6.328125 C 8.578125 -5.773438 8.707031 -5.378906 8.96875 -5.140625 C 9.226562 -4.898438 9.664062 -4.78125 10.28125 -4.78125 Z M 12.296875 -4.78125 "/></g></g></g><g fill="#000000" fill-opacity="1"><g transform="translate(117.558121, 250.980321)"><g><path d="M 7.6875 -15.796875 C 8.226562 -16.648438 8.984375 -17.335938 9.953125 -17.859375 C 10.921875 -18.390625 12.054688 -18.65625 13.359375 -18.65625 C 14.867188 -18.65625 16.238281 -18.269531 17.46875 -17.5 C 18.695312 -16.738281 19.671875 -15.640625 20.390625 -14.203125 C 21.109375 -12.773438 21.46875 -11.117188 21.46875 -9.234375 C 21.46875 -7.335938 21.109375 -5.671875 20.390625 -4.234375 C 19.671875 -2.796875 18.695312 -1.6875 17.46875 -0.90625 C 16.238281 -0.125 14.867188 0.265625 13.359375 0.265625 C 12.078125 0.265625 10.945312 0.00390625 9.96875 -0.515625 C 8.988281 -1.046875 8.226562 -1.734375 7.6875 -2.578125 L 7.6875 8.765625 L 2.046875 8.765625 L 2.046875 -18.390625 L 7.6875 -18.390625 Z M 15.71875 -9.234375 C 15.71875 -10.640625 15.328125 -11.742188 14.546875 -12.546875 C 13.773438 -13.347656 12.816406 -13.75 11.671875 -13.75 C 10.546875 -13.75 9.59375 -13.34375 8.8125 -12.53125 C 8.039062 -11.71875 7.65625 -10.609375 7.65625 -9.203125 C 7.65625 -7.796875 8.039062 -6.6875 8.8125 -5.875 C 9.59375 -5.0625 10.546875 -4.65625 11.671875 -4.65625 C 12.796875 -4.65625 13.75 -5.066406 14.53125 -5.890625 C 15.320312 -6.710938 15.71875 -7.828125 15.71875 -9.234375 Z M 15.71875 -9.234375 "/></g></g></g><g fill="#000000" fill-opacity="1"><g transform="translate(139.939729, 250.980321)"><g><path d="M 10.421875 0.265625 C 8.617188 0.265625 6.992188 -0.117188 5.546875 -0.890625 C 4.109375 -1.660156 2.976562 -2.757812 2.15625 -4.1875 C 1.332031 -5.613281 0.921875 -7.285156 0.921875 -9.203125 C 0.921875 -11.085938 1.335938 -12.75 2.171875 -14.1875 C 3.003906 -15.632812 4.144531 -16.738281 5.59375 -17.5 C 7.050781 -18.269531 8.679688 -18.65625 10.484375 -18.65625 C 12.285156 -18.65625 13.910156 -18.269531 15.359375 -17.5 C 16.816406 -16.738281 17.960938 -15.632812 18.796875 -14.1875 C 19.628906 -12.75 20.046875 -11.085938 20.046875 -9.203125 C 20.046875 -7.304688 19.617188 -5.640625 18.765625 -4.203125 C 17.921875 -2.765625 16.769531 -1.660156 15.3125 -0.890625 C 13.851562 -0.117188 12.222656 0.265625 10.421875 0.265625 Z M 10.421875 -4.609375 C 11.492188 -4.609375 12.410156 -5.003906 13.171875 -5.796875 C 13.929688 -6.585938 14.3125 -7.722656 14.3125 -9.203125 C 14.3125 -10.671875 13.941406 -11.800781 13.203125 -12.59375 C 12.460938 -13.382812 11.554688 -13.78125 10.484375 -13.78125 C 9.378906 -13.78125 8.460938 -13.390625 7.734375 -12.609375 C 7.015625 -11.828125 6.65625 -10.691406 6.65625 -9.203125 C 6.65625 -7.722656 7.007812 -6.585938 7.71875 -5.796875 C 8.4375 -5.003906 9.335938 -4.609375 10.421875 -4.609375 Z M 10.421875 -4.609375 "/></g></g></g><g fill="#000000" fill-opacity="1"><g transform="translate(160.936915, 250.980321)"><g><path d="M 0.921875 -9.234375 C 0.921875 -11.117188 1.273438 -12.773438 1.984375 -14.203125 C 2.703125 -15.640625 3.675781 -16.738281 4.90625 -17.5 C 6.144531 -18.269531 7.519531 -18.65625 9.03125 -18.65625 C 10.238281 -18.65625 11.34375 -18.398438 12.34375 -17.890625 C 13.34375 -17.390625 14.128906 -16.710938 14.703125 -15.859375 L 14.703125 -24.390625 L 20.34375 -24.390625 L 20.34375 0 L 14.703125 0 L 14.703125 -2.640625 C 14.171875 -1.753906 13.414062 -1.046875 12.4375 -0.515625 C 11.46875 0.00390625 10.332031 0.265625 9.03125 0.265625 C 7.519531 0.265625 6.144531 -0.125 4.90625 -0.90625 C 3.675781 -1.6875 2.703125 -2.796875 1.984375 -4.234375 C 1.273438 -5.671875 0.921875 -7.335938 0.921875 -9.234375 Z M 14.703125 -9.203125 C 14.703125 -10.609375 14.3125 -11.71875 13.53125 -12.53125 C 12.75 -13.34375 11.800781 -13.75 10.6875 -13.75 C 9.5625 -13.75 8.609375 -13.347656 7.828125 -12.546875 C 7.046875 -11.742188 6.65625 -10.640625 6.65625 -9.234375 C 6.65625 -7.828125 7.046875 -6.710938 7.828125 -5.890625 C 8.609375 -5.066406 9.5625 -4.65625 10.6875 -4.65625 C 11.800781 -4.65625 12.75 -5.0625 13.53125 -5.875 C 14.3125 -6.6875 14.703125 -7.796875 14.703125 -9.203125 Z M 14.703125 -9.203125 "/></g></g></g><g fill="#000000" fill-opacity="1"><g transform="translate(183.318522, 250.980321)"><g><path d="M 0.921875 -9.203125 C 0.921875 -11.109375 1.3125 -12.773438 2.09375 -14.203125 C 2.875 -15.640625 3.960938 -16.738281 5.359375 -17.5 C 6.753906 -18.269531 8.351562 -18.65625 10.15625 -18.65625 C 12.457031 -18.65625 14.382812 -18.050781 15.9375 -16.84375 C 17.488281 -15.632812 18.503906 -13.929688 18.984375 -11.734375 L 12.984375 -11.734375 C 12.484375 -13.140625 11.507812 -13.84375 10.0625 -13.84375 C 9.019531 -13.84375 8.191406 -13.441406 7.578125 -12.640625 C 6.960938 -11.835938 6.65625 -10.691406 6.65625 -9.203125 C 6.65625 -7.703125 6.960938 -6.550781 7.578125 -5.75 C 8.191406 -4.945312 9.019531 -4.546875 10.0625 -4.546875 C 11.507812 -4.546875 12.484375 -5.25 12.984375 -6.65625 L 18.984375 -6.65625 C 18.503906 -4.5 17.484375 -2.804688 15.921875 -1.578125 C 14.359375 -0.347656 12.4375 0.265625 10.15625 0.265625 C 8.351562 0.265625 6.753906 -0.117188 5.359375 -0.890625 C 3.960938 -1.660156 2.875 -2.757812 2.09375 -4.1875 C 1.3125 -5.613281 0.921875 -7.285156 0.921875 -9.203125 Z M 0.921875 -9.203125 "/></g></g></g><g fill="#000000" fill-opacity="1"><g transform="translate(203.260905, 250.980321)"><g><path d="M 0.921875 -9.234375 C 0.921875 -11.117188 1.273438 -12.773438 1.984375 -14.203125 C 2.703125 -15.640625 3.675781 -16.738281 4.90625 -17.5 C 6.144531 -18.269531 7.519531 -18.65625 9.03125 -18.65625 C 10.332031 -18.65625 11.46875 -18.390625 12.4375 -17.859375 C 13.414062 -17.335938 14.171875 -16.648438 14.703125 -15.796875 L 14.703125 -18.390625 L 20.34375 -18.390625 L 20.34375 0 L 14.703125 0 L 14.703125 -2.609375 C 14.148438 -1.742188 13.382812 -1.046875 12.40625 -0.515625 C 11.4375 0.00390625 10.300781 0.265625 9 0.265625 C 7.507812 0.265625 6.144531 -0.125 4.90625 -0.90625 C 3.675781 -1.6875 2.703125 -2.796875 1.984375 -4.234375 C 1.273438 -5.671875 0.921875 -7.335938 0.921875 -9.234375 Z M 14.703125 -9.203125 C 14.703125 -10.609375 14.3125 -11.71875 13.53125 -12.53125 C 12.75 -13.34375 11.800781 -13.75 10.6875 -13.75 C 9.5625 -13.75 8.609375 -13.347656 7.828125 -12.546875 C 7.046875 -11.742188 6.65625 -10.640625 6.65625 -9.234375 C 6.65625 -7.828125 7.046875 -6.710938 7.828125 -5.890625 C 8.609375 -5.066406 9.5625 -4.65625 10.6875 -4.65625 C 11.800781 -4.65625 12.75 -5.0625 13.53125 -5.875 C 14.3125 -6.6875 14.703125 -7.796875 14.703125 -9.203125 Z M 14.703125 -9.203125 "/></g></g></g><g fill="#000000" fill-opacity="1"><g transform="translate(225.642512, 250.980321)"><g><path d="M 9.53125 0.265625 C 7.925781 0.265625 6.492188 -0.0078125 5.234375 -0.5625 C 3.984375 -1.113281 2.992188 -1.863281 2.265625 -2.8125 C 1.546875 -3.769531 1.144531 -4.84375 1.0625 -6.03125 L 6.625 -6.03125 C 6.6875 -5.394531 6.984375 -4.878906 7.515625 -4.484375 C 8.046875 -4.085938 8.695312 -3.890625 9.46875 -3.890625 C 10.164062 -3.890625 10.707031 -4.023438 11.09375 -4.296875 C 11.476562 -4.578125 11.671875 -4.9375 11.671875 -5.375 C 11.671875 -5.90625 11.394531 -6.296875 10.84375 -6.546875 C 10.289062 -6.796875 9.398438 -7.078125 8.171875 -7.390625 C 6.859375 -7.691406 5.757812 -8.015625 4.875 -8.359375 C 4 -8.703125 3.242188 -9.238281 2.609375 -9.96875 C 1.972656 -10.707031 1.65625 -11.703125 1.65625 -12.953125 C 1.65625 -14.015625 1.941406 -14.976562 2.515625 -15.84375 C 3.097656 -16.707031 3.957031 -17.390625 5.09375 -17.890625 C 6.226562 -18.398438 7.570312 -18.65625 9.125 -18.65625 C 11.4375 -18.65625 13.253906 -18.082031 14.578125 -16.9375 C 15.910156 -15.800781 16.675781 -14.285156 16.875 -12.390625 L 11.671875 -12.390625 C 11.585938 -13.035156 11.304688 -13.539062 10.828125 -13.90625 C 10.359375 -14.28125 9.738281 -14.46875 8.96875 -14.46875 C 8.3125 -14.46875 7.804688 -14.34375 7.453125 -14.09375 C 7.097656 -13.84375 6.921875 -13.5 6.921875 -13.0625 C 6.921875 -12.53125 7.203125 -12.128906 7.765625 -11.859375 C 8.328125 -11.597656 9.203125 -11.335938 10.390625 -11.078125 C 11.742188 -10.722656 12.847656 -10.375 13.703125 -10.03125 C 14.566406 -9.695312 15.320312 -9.148438 15.96875 -8.390625 C 16.625 -7.628906 16.960938 -6.613281 16.984375 -5.34375 C 16.984375 -4.257812 16.679688 -3.296875 16.078125 -2.453125 C 15.472656 -1.609375 14.601562 -0.941406 13.46875 -0.453125 C 12.332031 0.0234375 11.019531 0.265625 9.53125 0.265625 Z M 9.53125 0.265625 "/></g></g></g><g fill="#000000" fill-opacity="1"><g transform="translate(244.035649, 250.980321)"><g><path d="M 12.296875 -4.78125 L 12.296875 0 L 9.421875 0 C 7.378906 0 5.785156 -0.5 4.640625 -1.5 C 3.503906 -2.5 2.9375 -4.128906 2.9375 -6.390625 L 2.9375 -13.71875 L 0.6875 -13.71875 L 0.6875 -18.390625 L 2.9375 -18.390625 L 2.9375 -22.875 L 8.578125 -22.875 L 8.578125 -18.390625 L 12.265625 -18.390625 L 12.265625 -13.71875 L 8.578125 -13.71875 L 8.578125 -6.328125 C 8.578125 -5.773438 8.707031 -5.378906 8.96875 -5.140625 C 9.226562 -4.898438 9.664062 -4.78125 10.28125 -4.78125 Z M 12.296875 -4.78125 "/></g></g></g><g fill="#000000" fill-opacity="1"><g transform="translate(161.425525, 266.391499)"><g><path d="M 3.515625 -4.984375 L 5.421875 -4.984375 L 5.421875 -4.078125 L 5.015625 -4.078125 L 5.015625 0 L 3.921875 0 L 1.84375 -3.21875 L 1.84375 -0.90625 L 2.265625 -0.90625 L 2.265625 0 L 0.375 0 L 0.375 -0.90625 L 0.78125 -0.90625 L 0.78125 -4.078125 L 0.375 -4.078125 L 0.375 -4.984375 L 1.890625 -4.984375 L 3.953125 -1.71875 L 3.953125 -4.078125 L 3.515625 -4.078125 Z M 3.515625 -4.984375 "/></g></g><g transform="translate(167.009875, 266.391499)"><g><path d="M 0.375 -4.984375 L 4.34375 -4.984375 L 4.34375 -3.28125 L 3.265625 -3.28125 L 3.265625 -3.984375 L 1.984375 -3.984375 L 1.984375 -3.015625 L 2.96875 -3.015625 L 2.96875 -2.0625 L 1.984375 -2.0625 L 1.984375 -0.90625 L 3.265625 -0.90625 L 3.265625 -1.78125 L 4.34375 -1.78125 L 4.34375 0 L 0.375 0 L 0.375 -0.90625 L 0.890625 -0.90625 L 0.890625 -3.984375 L 0.375 -3.984375 Z M 0.375 -4.984375 "/></g></g><g transform="translate(171.548392, 266.391499)"><g><path d="M 5.546875 -4.984375 L 7.6875 -4.984375 L 7.6875 -4.078125 L 7.234375 -4.078125 L 6.09375 0 L 4.671875 0 L 3.90625 -3.109375 L 3.140625 0 L 1.734375 0 L 0.5625 -4.078125 L 0.0625 -4.078125 L 0.0625 -4.984375 L 2.203125 -4.984375 L 2.203125 -4.078125 L 1.6875 -4.078125 L 2.421875 -1.390625 L 3.296875 -4.96875 L 4.53125 -4.96875 L 5.390625 -1.390625 L 6.125 -4.078125 L 5.546875 -4.078125 Z M 5.546875 -4.984375 "/></g></g><g transform="translate(179.300048, 266.391499)"><g><path d="M 2.765625 -3.578125 C 2.753906 -3.660156 2.726562 -3.734375 2.6875 -3.796875 C 2.644531 -3.867188 2.585938 -3.925781 2.515625 -3.96875 C 2.453125 -4.019531 2.378906 -4.0625 2.296875 -4.09375 C 2.210938 -4.125 2.125 -4.140625 2.03125 -4.140625 C 1.945312 -4.140625 1.867188 -4.128906 1.796875 -4.109375 C 1.722656 -4.085938 1.660156 -4.054688 1.609375 -4.015625 C 1.554688 -3.984375 1.515625 -3.9375 1.484375 -3.875 C 1.453125 -3.820312 1.4375 -3.757812 1.4375 -3.6875 C 1.4375 -3.582031 1.457031 -3.5 1.5 -3.4375 C 1.539062 -3.382812 1.59375 -3.335938 1.65625 -3.296875 C 1.726562 -3.265625 1.800781 -3.238281 1.875 -3.21875 C 1.957031 -3.195312 2.039062 -3.171875 2.125 -3.140625 L 3.03125 -2.84375 C 3.15625 -2.800781 3.269531 -2.738281 3.375 -2.65625 C 3.488281 -2.582031 3.582031 -2.488281 3.65625 -2.375 C 3.738281 -2.269531 3.800781 -2.144531 3.84375 -2 C 3.894531 -1.851562 3.921875 -1.691406 3.921875 -1.515625 C 3.921875 -1.273438 3.875 -1.054688 3.78125 -0.859375 C 3.695312 -0.660156 3.570312 -0.488281 3.40625 -0.34375 C 3.25 -0.207031 3.054688 -0.0976562 2.828125 -0.015625 C 2.609375 0.0664062 2.363281 0.109375 2.09375 0.109375 C 1.90625 0.109375 1.722656 0.0820312 1.546875 0.03125 C 1.378906 -0.0078125 1.222656 -0.0664062 1.078125 -0.140625 C 0.941406 -0.222656 0.820312 -0.320312 0.71875 -0.4375 C 0.613281 -0.550781 0.53125 -0.679688 0.46875 -0.828125 L 0.140625 -0.828125 L 0.140625 -1.8125 L 1.328125 -1.8125 L 1.328125 -1.609375 C 1.328125 -1.503906 1.34375 -1.410156 1.375 -1.328125 C 1.40625 -1.242188 1.453125 -1.171875 1.515625 -1.109375 C 1.578125 -1.054688 1.65625 -1.007812 1.75 -0.96875 C 1.851562 -0.9375 1.96875 -0.921875 2.09375 -0.921875 C 2.289062 -0.921875 2.441406 -0.96875 2.546875 -1.0625 C 2.648438 -1.15625 2.703125 -1.28125 2.703125 -1.4375 C 2.703125 -1.519531 2.679688 -1.585938 2.640625 -1.640625 C 2.609375 -1.703125 2.5625 -1.75 2.5 -1.78125 C 2.445312 -1.820312 2.382812 -1.851562 2.3125 -1.875 C 2.238281 -1.90625 2.171875 -1.929688 2.109375 -1.953125 L 1.359375 -2.203125 C 1.210938 -2.242188 1.070312 -2.300781 0.9375 -2.375 C 0.8125 -2.457031 0.695312 -2.554688 0.59375 -2.671875 C 0.488281 -2.796875 0.40625 -2.9375 0.34375 -3.09375 C 0.28125 -3.257812 0.25 -3.441406 0.25 -3.640625 C 0.25 -3.878906 0.289062 -4.085938 0.375 -4.265625 C 0.46875 -4.453125 0.59375 -4.609375 0.75 -4.734375 C 0.914062 -4.867188 1.101562 -4.96875 1.3125 -5.03125 C 1.53125 -5.101562 1.769531 -5.140625 2.03125 -5.140625 C 2.238281 -5.140625 2.425781 -5.113281 2.59375 -5.0625 C 2.769531 -5.007812 2.925781 -4.941406 3.0625 -4.859375 C 3.195312 -4.785156 3.3125 -4.695312 3.40625 -4.59375 C 3.5 -4.5 3.570312 -4.394531 3.625 -4.28125 L 3.953125 -4.28125 L 3.953125 -3.296875 L 2.765625 -3.296875 Z M 2.765625 -3.578125 "/></g></g><g transform="translate(183.39458, 266.391499)"><g/></g><g transform="translate(184.74298, 266.391499)"><g><path d="M 3.9375 0.15625 L 3.265625 -0.515625 C 3.085938 -0.347656 2.882812 -0.210938 2.65625 -0.109375 C 2.4375 -0.00390625 2.1875 0.046875 1.90625 0.046875 C 1.675781 0.046875 1.460938 0.0078125 1.265625 -0.0625 C 1.078125 -0.144531 0.910156 -0.253906 0.765625 -0.390625 C 0.617188 -0.535156 0.503906 -0.703125 0.421875 -0.890625 C 0.335938 -1.078125 0.296875 -1.28125 0.296875 -1.5 C 0.296875 -1.769531 0.359375 -2.015625 0.484375 -2.234375 C 0.617188 -2.453125 0.800781 -2.640625 1.03125 -2.796875 C 1.03125 -2.796875 1.035156 -2.800781 1.046875 -2.8125 L 0.984375 -2.875 C 0.835938 -3.019531 0.726562 -3.175781 0.65625 -3.34375 C 0.582031 -3.507812 0.546875 -3.695312 0.546875 -3.90625 C 0.546875 -4.09375 0.582031 -4.265625 0.65625 -4.421875 C 0.726562 -4.585938 0.828125 -4.734375 0.953125 -4.859375 C 1.085938 -4.984375 1.238281 -5.082031 1.40625 -5.15625 C 1.582031 -5.226562 1.769531 -5.265625 1.96875 -5.265625 C 2.1875 -5.265625 2.378906 -5.222656 2.546875 -5.140625 C 2.722656 -5.066406 2.875 -4.96875 3 -4.84375 C 3.125 -4.71875 3.21875 -4.570312 3.28125 -4.40625 C 3.34375 -4.25 3.375 -4.085938 3.375 -3.921875 C 3.375 -3.796875 3.359375 -3.675781 3.328125 -3.5625 C 3.296875 -3.445312 3.253906 -3.335938 3.203125 -3.234375 C 3.148438 -3.140625 3.082031 -3.050781 3 -2.96875 C 2.925781 -2.882812 2.847656 -2.816406 2.765625 -2.765625 C 2.734375 -2.734375 2.695312 -2.703125 2.65625 -2.671875 C 2.625 -2.648438 2.585938 -2.628906 2.546875 -2.609375 L 3.09375 -2.078125 C 3.125 -2.171875 3.148438 -2.265625 3.171875 -2.359375 C 3.191406 -2.453125 3.207031 -2.539062 3.21875 -2.625 L 4.203125 -2.625 C 4.179688 -2.40625 4.140625 -2.1875 4.078125 -1.96875 C 4.023438 -1.75 3.953125 -1.535156 3.859375 -1.328125 L 4.6875 -0.5 Z M 1.328125 -1.515625 C 1.328125 -1.441406 1.34375 -1.367188 1.375 -1.296875 C 1.40625 -1.234375 1.445312 -1.175781 1.5 -1.125 C 1.550781 -1.070312 1.613281 -1.03125 1.6875 -1 C 1.757812 -0.96875 1.835938 -0.953125 1.921875 -0.953125 C 2.066406 -0.953125 2.191406 -0.972656 2.296875 -1.015625 C 2.398438 -1.066406 2.5 -1.132812 2.59375 -1.21875 L 1.734375 -2.09375 C 1.671875 -2.0625 1.613281 -2.023438 1.5625 -1.984375 C 1.519531 -1.941406 1.476562 -1.894531 1.4375 -1.84375 C 1.40625 -1.800781 1.378906 -1.753906 1.359375 -1.703125 C 1.335938 -1.648438 1.328125 -1.585938 1.328125 -1.515625 Z M 2.21875 -3.5 C 2.289062 -3.550781 2.335938 -3.609375 2.359375 -3.671875 C 2.390625 -3.742188 2.40625 -3.828125 2.40625 -3.921875 C 2.40625 -3.984375 2.394531 -4.039062 2.375 -4.09375 C 2.351562 -4.144531 2.320312 -4.1875 2.28125 -4.21875 C 2.238281 -4.257812 2.191406 -4.289062 2.140625 -4.3125 C 2.085938 -4.34375 2.03125 -4.359375 1.96875 -4.359375 C 1.90625 -4.359375 1.84375 -4.347656 1.78125 -4.328125 C 1.726562 -4.304688 1.679688 -4.273438 1.640625 -4.234375 C 1.597656 -4.191406 1.5625 -4.144531 1.53125 -4.09375 C 1.507812 -4.039062 1.5 -3.984375 1.5 -3.921875 C 1.5 -3.828125 1.515625 -3.738281 1.546875 -3.65625 C 1.578125 -3.582031 1.625 -3.519531 1.6875 -3.46875 L 1.875 -3.28125 C 1.9375 -3.320312 1.992188 -3.359375 2.046875 -3.390625 C 2.109375 -3.421875 2.164062 -3.457031 2.21875 -3.5 Z M 2.21875 -3.5 "/></g></g><g transform="translate(189.140079, 266.391499)"><g/></g><g transform="translate(190.48848, 266.391499)"><g><path d="M 0.375 -4.984375 L 4.34375 -4.984375 L 4.34375 -3.28125 L 3.265625 -3.28125 L 3.265625 -3.984375 L 1.984375 -3.984375 L 1.984375 -3.015625 L 2.96875 -3.015625 L 2.96875 -2.0625 L 1.984375 -2.0625 L 1.984375 -0.90625 L 3.265625 -0.90625 L 3.265625 -1.78125 L 4.34375 -1.78125 L 4.34375 0 L 0.375 0 L 0.375 -0.90625 L 0.890625 -0.90625 L 0.890625 -3.984375 L 0.375 -3.984375 Z M 0.375 -4.984375 "/></g></g><g transform="translate(195.026997, 266.391499)"><g><path d="M 3.515625 -4.984375 L 5.421875 -4.984375 L 5.421875 -4.078125 L 5.015625 -4.078125 L 5.015625 0 L 3.921875 0 L 1.84375 -3.21875 L 1.84375 -0.90625 L 2.265625 -0.90625 L 2.265625 0 L 0.375 0 L 0.375 -0.90625 L 0.78125 -0.90625 L 0.78125 -4.078125 L 0.375 -4.078125 L 0.375 -4.984375 L 1.890625 -4.984375 L 3.953125 -1.71875 L 3.953125 -4.078125 L 3.515625 -4.078125 Z M 3.515625 -4.984375 "/></g></g><g transform="translate(200.611346, 266.391499)"><g><path d="M 1.21875 -0.90625 L 1.75 -0.90625 L 1.75 -4.109375 L 1.140625 -4.109375 L 1.140625 -3.46875 L 0.0625 -3.46875 L 0.0625 -4.984375 L 4.59375 -4.984375 L 4.59375 -3.46875 L 3.515625 -3.46875 L 3.515625 -4.109375 L 2.828125 -4.109375 L 2.828125 -0.90625 L 3.359375 -0.90625 L 3.359375 0 L 1.21875 0 Z M 1.21875 -0.90625 "/></g></g><g transform="translate(205.314303, 266.391499)"><g><path d="M 0.375 -4.984375 L 4.34375 -4.984375 L 4.34375 -3.28125 L 3.265625 -3.28125 L 3.265625 -3.984375 L 1.984375 -3.984375 L 1.984375 -3.015625 L 2.96875 -3.015625 L 2.96875 -2.0625 L 1.984375 -2.0625 L 1.984375 -0.90625 L 3.265625 -0.90625 L 3.265625 -1.78125 L 4.34375 -1.78125 L 4.34375 0 L 0.375 0 L 0.375 -0.90625 L 0.890625 -0.90625 L 0.890625 -3.984375 L 0.375 -3.984375 Z M 0.375 -4.984375 "/></g></g><g transform="translate(209.85282, 266.391499)"><g><path d="M 0.375 -4.984375 L 3.015625 -4.984375 C 3.265625 -4.984375 3.488281 -4.941406 3.6875 -4.859375 C 3.894531 -4.785156 4.066406 -4.6875 4.203125 -4.5625 C 4.335938 -4.4375 4.441406 -4.285156 4.515625 -4.109375 C 4.597656 -3.941406 4.640625 -3.765625 4.640625 -3.578125 C 4.640625 -3.410156 4.617188 -3.265625 4.578125 -3.140625 C 4.546875 -3.015625 4.492188 -2.898438 4.421875 -2.796875 C 4.347656 -2.703125 4.257812 -2.613281 4.15625 -2.53125 C 4.0625 -2.457031 3.953125 -2.390625 3.828125 -2.328125 C 3.929688 -2.273438 4.023438 -2.1875 4.109375 -2.0625 C 4.203125 -1.945312 4.269531 -1.800781 4.3125 -1.625 L 4.484375 -0.96875 L 4.890625 -0.96875 L 4.890625 0 L 3.453125 0 L 3.25 -1.1875 C 3.226562 -1.320312 3.195312 -1.441406 3.15625 -1.546875 C 3.113281 -1.648438 3.054688 -1.734375 2.984375 -1.796875 C 2.921875 -1.859375 2.84375 -1.90625 2.75 -1.9375 C 2.65625 -1.96875 2.539062 -1.984375 2.40625 -1.984375 L 1.984375 -1.984375 L 1.984375 -0.90625 L 2.4375 -0.90625 L 2.4375 0 L 0.375 0 L 0.375 -0.90625 L 0.890625 -0.90625 L 0.890625 -4.078125 L 0.375 -4.078125 Z M 1.984375 -4.078125 L 1.984375 -2.875 L 2.640625 -2.875 C 2.765625 -2.875 2.875 -2.882812 2.96875 -2.90625 C 3.070312 -2.925781 3.15625 -2.960938 3.21875 -3.015625 C 3.289062 -3.066406 3.347656 -3.128906 3.390625 -3.203125 C 3.429688 -3.273438 3.453125 -3.363281 3.453125 -3.46875 C 3.453125 -3.664062 3.378906 -3.816406 3.234375 -3.921875 C 3.097656 -4.023438 2.898438 -4.078125 2.640625 -4.078125 Z M 1.984375 -4.078125 "/></g></g><g transform="translate(214.884654, 266.391499)"><g><path d="M 1.21875 -0.90625 L 1.75 -0.90625 L 1.75 -4.109375 L 1.140625 -4.109375 L 1.140625 -3.46875 L 0.0625 -3.46875 L 0.0625 -4.984375 L 4.59375 -4.984375 L 4.59375 -3.46875 L 3.515625 -3.46875 L 3.515625 -4.109375 L 2.828125 -4.109375 L 2.828125 -0.90625 L 3.359375 -0.90625 L 3.359375 0 L 1.21875 0 Z M 1.21875 -0.90625 "/></g></g><g transform="translate(219.587611, 266.391499)"><g><path d="M 2.9375 -0.90625 L 3.4375 -0.90625 L 3.203125 -1.625 L 1.671875 -1.625 L 1.453125 -0.90625 L 1.984375 -0.90625 L 1.984375 0 L 0.09375 0 L 0.09375 -0.90625 L 0.453125 -0.90625 L 1.8125 -4.984375 L 3.140625 -4.984375 L 4.46875 -0.90625 L 4.828125 -0.90625 L 4.828125 0 L 2.9375 0 Z M 1.9375 -2.453125 L 2.9375 -2.453125 L 2.4375 -4.078125 Z M 1.9375 -2.453125 "/></g></g><g transform="translate(224.491182, 266.391499)"><g><path d="M 0.375 -4.984375 L 2.5 -4.984375 L 2.5 -4.078125 L 1.984375 -4.078125 L 1.984375 -0.90625 L 2.5 -0.90625 L 2.5 0 L 0.375 0 L 0.375 -0.90625 L 0.890625 -0.90625 L 0.890625 -4.078125 L 0.375 -4.078125 Z M 0.375 -4.984375 "/></g></g><g transform="translate(227.155095, 266.391499)"><g><path d="M 3.515625 -4.984375 L 5.421875 -4.984375 L 5.421875 -4.078125 L 5.015625 -4.078125 L 5.015625 0 L 3.921875 0 L 1.84375 -3.21875 L 1.84375 -0.90625 L 2.265625 -0.90625 L 2.265625 0 L 0.375 0 L 0.375 -0.90625 L 0.78125 -0.90625 L 0.78125 -4.078125 L 0.375 -4.078125 L 0.375 -4.984375 L 1.890625 -4.984375 L 3.953125 -1.71875 L 3.953125 -4.078125 L 3.515625 -4.078125 Z M 3.515625 -4.984375 "/></g></g><g transform="translate(232.739444, 266.391499)"><g><path d="M 0.375 -0.90625 L 0.828125 -0.90625 L 0.828125 -4.078125 L 0.375 -4.078125 L 0.375 -4.984375 L 2.421875 -4.984375 L 3.890625 -1.390625 L 5.265625 -4.984375 L 7.34375 -4.984375 L 7.34375 -4.078125 L 6.875 -4.078125 L 6.875 -0.90625 L 7.328125 -0.90625 L 7.328125 0 L 5.46875 0 L 5.46875 -0.90625 L 5.8125 -0.90625 L 5.8125 -3.765625 L 4.3125 -0.0625 L 3.390625 -0.0625 L 1.875 -3.671875 L 1.875 -0.90625 L 2.25 -0.90625 L 2.25 0 L 0.375 0 Z M 0.375 -0.90625 "/></g></g><g transform="translate(240.451635, 266.391499)"><g><path d="M 0.375 -4.984375 L 4.34375 -4.984375 L 4.34375 -3.28125 L 3.265625 -3.28125 L 3.265625 -3.984375 L 1.984375 -3.984375 L 1.984375 -3.015625 L 2.96875 -3.015625 L 2.96875 -2.0625 L 1.984375 -2.0625 L 1.984375 -0.90625 L 3.265625 -0.90625 L 3.265625 -1.78125 L 4.34375 -1.78125 L 4.34375 0 L 0.375 0 L 0.375 -0.90625 L 0.890625 -0.90625 L 0.890625 -3.984375 L 0.375 -3.984375 Z M 0.375 -4.984375 "/></g></g><g transform="translate(244.990152, 266.391499)"><g><path d="M 3.515625 -4.984375 L 5.421875 -4.984375 L 5.421875 -4.078125 L 5.015625 -4.078125 L 5.015625 0 L 3.921875 0 L 1.84375 -3.21875 L 1.84375 -0.90625 L 2.265625 -0.90625 L 2.265625 0 L 0.375 0 L 0.375 -0.90625 L 0.78125 -0.90625 L 0.78125 -4.078125 L 0.375 -4.078125 L 0.375 -4.984375 L 1.890625 -4.984375 L 3.953125 -1.71875 L 3.953125 -4.078125 L 3.515625 -4.078125 Z M 3.515625 -4.984375 "/></g></g><g transform="translate(250.574502, 266.391499)"><g><path d="M 1.21875 -0.90625 L 1.75 -0.90625 L 1.75 -4.109375 L 1.140625 -4.109375 L 1.140625 -3.46875 L 0.0625 -3.46875 L 0.0625 -4.984375 L 4.59375 -4.984375 L 4.59375 -3.46875 L 3.515625 -3.46875 L 3.515625 -4.109375 L 2.828125 -4.109375 L 2.828125 -0.90625 L 3.359375 -0.90625 L 3.359375 0 L 1.21875 0 Z M 1.21875 -0.90625 "/></g></g></g></svg>