<svg xmlns="http://www.w3.org/2000/svg" xmlns:xlink="http://www.w3.org/1999/xlink" width="500" zoomAndPan="magnify" viewBox="0 0 375 374.999991" height="500" preserveAspectRatio="xMidYMid meet" version="1.0"><defs><g/><clipPath id="02e4b8191d"><path d="M 125.117188 130 L 181 130 L 181 211 L 125.117188 211 Z M 125.117188 130 " clip-rule="nonzero"/></clipPath><clipPath id="db678d7ca5"><path d="M 194 130 L 249.617188 130 L 249.617188 211 L 194 211 Z M 194 130 " clip-rule="nonzero"/></clipPath></defs><g clip-path="url(#02e4b8191d)"><path fill="#000000" d="M 179.296875 135.136719 L 172.351562 131.25 C 171.289062 130.648438 169.941406 131.046875 169.34375 132.117188 L 157.867188 152.875 L 148.757812 156.941406 C 148.3125 157.140625 147.960938 157.472656 147.71875 157.894531 L 125.824219 197.5 C 125.226562 198.566406 125.625 199.921875 126.6875 200.523438 L 144.910156 210.703125 C 145.238281 210.902344 145.617188 210.992188 145.96875 210.992188 C 146.742188 210.992188 147.496094 210.566406 147.894531 209.855469 L 155.300781 196.457031 L 163.527344 181.566406 L 169.785156 170.253906 C 170.03125 169.832031 170.117188 169.339844 170.050781 168.875 L 168.679688 158.917969 L 180.15625 138.160156 C 180.753906 137.09375 180.355469 135.738281 179.296875 135.136719 Z M 152.539062 192.320312 L 147.296875 189.386719 L 153.378906 178.386719 L 158.617188 181.320312 Z M 164.457031 157.40625 C 164.214844 157.828125 164.125 158.316406 164.191406 158.785156 L 165.5625 168.695312 L 160.742188 177.429688 L 153.578125 173.429688 C 152.515625 172.832031 151.167969 173.230469 150.570312 174.296875 L 142.34375 189.1875 C 142.054688 189.699219 141.988281 190.320312 142.144531 190.878906 C 142.300781 191.433594 142.675781 191.921875 143.207031 192.210938 L 150.371094 196.210938 L 145.109375 205.722656 L 130.753906 197.722656 L 151.210938 160.695312 L 160.320312 156.628906 C 160.765625 156.429688 161.117188 156.097656 161.359375 155.671875 L 172.109375 136.203125 L 175.203125 137.917969 Z M 164.457031 157.40625 " fill-opacity="1" fill-rule="nonzero"/></g><path fill="#000000" d="M 187.476562 116.648438 C 186.261719 116.648438 185.265625 117.648438 185.265625 118.871094 L 185.265625 123.601562 C 185.265625 124.824219 186.261719 125.824219 187.476562 125.824219 C 188.695312 125.824219 189.6875 124.824219 189.6875 123.601562 L 189.6875 118.871094 C 189.6875 117.648438 188.695312 116.648438 187.476562 116.648438 Z M 187.476562 116.648438 " fill-opacity="1" fill-rule="nonzero"/><path fill="#000000" d="M 187.476562 137.316406 C 186.261719 137.316406 185.265625 138.316406 185.265625 139.539062 L 185.265625 144.273438 C 185.265625 145.496094 186.261719 146.496094 187.476562 146.496094 C 188.695312 146.496094 189.6875 145.496094 189.6875 144.273438 L 189.6875 139.539062 C 189.6875 138.316406 188.695312 137.316406 187.476562 137.316406 Z M 187.476562 137.316406 " fill-opacity="1" fill-rule="nonzero"/><path fill="#000000" d="M 179.648438 122.402344 C 179.097656 121.3125 177.769531 120.871094 176.664062 121.425781 C 175.578125 121.980469 175.136719 123.316406 175.691406 124.425781 L 177.835938 128.648438 C 178.234375 129.425781 179.007812 129.871094 179.804688 129.871094 C 180.136719 129.871094 180.488281 129.78125 180.800781 129.625 C 181.882812 129.070312 182.324219 127.738281 181.773438 126.625 Z M 179.648438 122.402344 " fill-opacity="1" fill-rule="nonzero"/><g clip-path="url(#db678d7ca5)"><path fill="#000000" d="M 249.109375 197.5 L 227.214844 157.894531 C 226.972656 157.472656 226.617188 157.140625 226.175781 156.941406 L 217.066406 152.875 L 205.589844 132.117188 C 204.992188 131.046875 203.640625 130.648438 202.582031 131.25 L 195.660156 135.136719 C 194.597656 135.738281 194.199219 137.09375 194.796875 138.160156 L 206.273438 158.917969 L 204.902344 168.832031 C 204.835938 169.320312 204.925781 169.785156 205.167969 170.207031 L 211.425781 181.519531 L 215.40625 188.722656 L 227.0625 209.8125 C 227.457031 210.546875 228.210938 210.945312 228.984375 210.945312 C 229.339844 210.945312 229.714844 210.855469 230.046875 210.65625 L 248.269531 200.476562 C 249.328125 199.921875 249.707031 198.566406 249.109375 197.5 Z M 216.976562 182.476562 L 216.335938 181.320312 L 221.578125 178.386719 L 227.65625 189.386719 L 222.417969 192.320312 Z M 229.824219 205.722656 L 224.5625 196.210938 L 231.726562 192.210938 C 232.789062 191.609375 233.1875 190.253906 232.589844 189.1875 L 224.363281 174.296875 C 223.765625 173.230469 222.417969 172.832031 221.355469 173.429688 L 214.191406 177.429688 L 209.371094 168.695312 L 210.742188 158.785156 C 210.808594 158.296875 210.71875 157.828125 210.476562 157.40625 L 199.726562 137.9375 L 202.824219 136.226562 L 213.570312 155.695312 C 213.816406 156.117188 214.167969 156.453125 214.609375 156.652344 L 223.722656 160.71875 L 244.175781 197.746094 Z M 229.824219 205.722656 " fill-opacity="1" fill-rule="nonzero"/></g><path fill="#000000" d="M 197.097656 128.648438 L 199.242188 124.425781 C 199.792969 123.335938 199.375 122.003906 198.269531 121.425781 C 197.183594 120.871094 195.859375 121.292969 195.285156 122.402344 L 193.136719 126.625 C 192.585938 127.714844 193.003906 129.046875 194.113281 129.625 C 194.441406 129.78125 194.773438 129.871094 195.105469 129.871094 C 195.925781 129.847656 196.699219 129.425781 197.097656 128.648438 Z M 197.097656 128.648438 " fill-opacity="1" fill-rule="nonzero"/><g fill="#000000" fill-opacity="1"><g transform="translate(100.079629, 250.752528)"><g><path d="M 6.34375 -8.28125 L 6.34375 0 L 2.546875 0 L 2.546875 -8.28125 L 0.515625 -8.28125 L 0.515625 -11.234375 L 2.546875 -11.234375 L 2.546875 -15.515625 L 6.34375 -15.515625 L 6.34375 -11.234375 L 8.390625 -11.234375 L 8.390625 -8.28125 Z M 6.34375 -8.28125 "/></g></g></g><g fill="#000000" fill-opacity="1"><g transform="translate(108.971402, 250.752528)"><g><path d="M 13.015625 -6.375 L 13.015625 0 L 9.203125 0 L 9.203125 -6.375 C 9.203125 -7.03125 9.066406 -7.53125 8.796875 -7.875 C 8.523438 -8.226562 8.09375 -8.40625 7.5 -8.40625 C 6.894531 -8.40625 6.382812 -8.128906 5.96875 -7.578125 C 5.5625 -7.023438 5.359375 -6.367188 5.359375 -5.609375 L 5.359375 0 L 1.53125 0 L 1.53125 -19.109375 L 5.359375 -19.109375 L 5.359375 -9.859375 C 5.742188 -10.347656 6.226562 -10.742188 6.8125 -11.046875 C 7.40625 -11.347656 8.066406 -11.5 8.796875 -11.5 C 10.304688 -11.5 11.382812 -11.023438 12.03125 -10.078125 C 12.6875 -9.140625 13.015625 -7.90625 13.015625 -6.375 Z M 13.015625 -6.375 "/></g></g></g><g fill="#000000" fill-opacity="1"><g transform="translate(123.137089, 250.752528)"><g><path d="M 5 -6.953125 L 10.015625 -6.953125 C 10.015625 -6.953125 9.992188 -7.054688 9.953125 -7.265625 C 9.910156 -7.484375 9.804688 -7.726562 9.640625 -8 C 9.484375 -8.269531 9.234375 -8.507812 8.890625 -8.71875 C 8.554688 -8.9375 8.097656 -9.046875 7.515625 -9.046875 C 6.921875 -9.046875 6.453125 -8.9375 6.109375 -8.71875 C 5.773438 -8.507812 5.523438 -8.269531 5.359375 -8 C 5.203125 -7.726562 5.101562 -7.484375 5.0625 -7.265625 C 5.019531 -7.054688 5 -6.953125 5 -6.953125 Z M 13.6875 -5.859375 C 13.6875 -5.742188 13.679688 -5.625 13.671875 -5.5 C 13.660156 -5.382812 13.65625 -5.265625 13.65625 -5.140625 L 4.9375 -5.140625 C 4.9375 -4.722656 5.035156 -4.304688 5.234375 -3.890625 C 5.429688 -3.472656 5.710938 -3.128906 6.078125 -2.859375 C 6.441406 -2.597656 6.867188 -2.46875 7.359375 -2.46875 C 8.046875 -2.46875 8.582031 -2.648438 8.96875 -3.015625 C 9.363281 -3.378906 9.566406 -3.765625 9.578125 -4.171875 L 13.484375 -4.171875 C 13.160156 -2.703125 12.445312 -1.597656 11.34375 -0.859375 C 10.238281 -0.117188 8.9375 0.25 7.4375 0.25 C 6.144531 0.25 5.003906 0.0078125 4.015625 -0.46875 C 3.035156 -0.957031 2.269531 -1.640625 1.71875 -2.515625 C 1.164062 -3.390625 0.890625 -4.421875 0.890625 -5.609375 C 0.890625 -6.773438 1.171875 -7.800781 1.734375 -8.6875 C 2.304688 -9.570312 3.085938 -10.257812 4.078125 -10.75 C 5.066406 -11.25 6.1875 -11.5 7.4375 -11.5 C 8.582031 -11.5 9.625 -11.273438 10.5625 -10.828125 C 11.507812 -10.390625 12.265625 -9.753906 12.828125 -8.921875 C 13.398438 -8.085938 13.6875 -7.066406 13.6875 -5.859375 Z M 13.6875 -5.859375 "/></g></g></g><g fill="#000000" fill-opacity="1"><g transform="translate(137.710421, 250.752528)"><g/></g></g><g fill="#000000" fill-opacity="1"><g transform="translate(144.079883, 250.752528)"><g><path d="M 7.640625 -2.796875 C 8.148438 -2.796875 8.601562 -2.925781 9 -3.1875 C 9.40625 -3.457031 9.726562 -3.804688 9.96875 -4.234375 C 10.207031 -4.671875 10.328125 -5.132812 10.328125 -5.625 C 10.328125 -6.125 10.207031 -6.582031 9.96875 -7 C 9.726562 -7.425781 9.40625 -7.769531 9 -8.03125 C 8.601562 -8.300781 8.148438 -8.4375 7.640625 -8.4375 C 7.128906 -8.4375 6.675781 -8.300781 6.28125 -8.03125 C 5.882812 -7.769531 5.566406 -7.425781 5.328125 -7 C 5.085938 -6.582031 4.96875 -6.125 4.96875 -5.625 C 4.96875 -5.132812 5.085938 -4.671875 5.328125 -4.234375 C 5.566406 -3.804688 5.882812 -3.457031 6.28125 -3.1875 C 6.675781 -2.925781 7.128906 -2.796875 7.640625 -2.796875 Z M 10.328125 -9.859375 L 10.328125 -11.234375 L 14.140625 -11.234375 L 14.140625 -0.03125 C 14.140625 1.195312 13.847656 2.296875 13.265625 3.265625 C 12.679688 4.234375 11.894531 4.992188 10.90625 5.546875 C 9.914062 6.097656 8.828125 6.375 7.640625 6.375 C 6.878906 6.375 6.117188 6.273438 5.359375 6.078125 C 4.609375 5.878906 3.910156 5.582031 3.265625 5.1875 C 2.628906 4.789062 2.113281 4.273438 1.71875 3.640625 C 1.332031 3.015625 1.117188 2.273438 1.078125 1.421875 L 4.890625 1.421875 C 5.023438 2.085938 5.332031 2.609375 5.8125 2.984375 C 6.289062 3.359375 6.832031 3.546875 7.4375 3.546875 C 8 3.546875 8.492188 3.394531 8.921875 3.09375 C 9.359375 2.800781 9.703125 2.410156 9.953125 1.921875 C 10.203125 1.441406 10.328125 0.9375 10.328125 0.40625 L 10.328125 -1.375 C 9.953125 -0.800781 9.394531 -0.382812 8.65625 -0.125 C 7.914062 0.125 7.1875 0.25 6.46875 0.25 C 5.414062 0.25 4.460938 -0.0234375 3.609375 -0.578125 C 2.765625 -1.128906 2.097656 -1.847656 1.609375 -2.734375 C 1.128906 -3.628906 0.890625 -4.59375 0.890625 -5.625 C 0.890625 -6.664062 1.128906 -7.628906 1.609375 -8.515625 C 2.097656 -9.410156 2.765625 -10.128906 3.609375 -10.671875 C 4.460938 -11.222656 5.414062 -11.5 6.46875 -11.5 C 7.1875 -11.5 7.867188 -11.382812 8.515625 -11.15625 C 9.171875 -10.9375 9.773438 -10.503906 10.328125 -9.859375 Z M 10.328125 -9.859375 "/></g></g></g><g fill="#000000" fill-opacity="1"><g transform="translate(159.748763, 250.752528)"><g><path d="M 7.875 -8.40625 C 7.394531 -8.40625 6.960938 -8.265625 6.578125 -7.984375 C 6.203125 -7.703125 5.90625 -7.347656 5.6875 -6.921875 C 5.46875 -6.503906 5.359375 -6.066406 5.359375 -5.609375 L 5.359375 0 L 1.53125 0 L 1.53125 -11.234375 L 5.359375 -11.234375 L 5.359375 -9.859375 C 5.640625 -10.285156 6.023438 -10.664062 6.515625 -11 C 7.015625 -11.332031 7.613281 -11.5 8.3125 -11.5 C 8.476562 -11.5 8.671875 -11.472656 8.890625 -11.421875 C 9.109375 -11.378906 9.296875 -11.316406 9.453125 -11.234375 L 9.453125 -7.765625 L 9.40625 -7.765625 C 9.21875 -8.003906 8.988281 -8.171875 8.71875 -8.265625 C 8.445312 -8.359375 8.164062 -8.40625 7.875 -8.40625 Z M 7.875 -8.40625 "/></g></g></g><g fill="#000000" fill-opacity="1"><g transform="translate(169.455828, 250.752528)"><g><path d="M 5 -6.953125 L 10.015625 -6.953125 C 10.015625 -6.953125 9.992188 -7.054688 9.953125 -7.265625 C 9.910156 -7.484375 9.804688 -7.726562 9.640625 -8 C 9.484375 -8.269531 9.234375 -8.507812 8.890625 -8.71875 C 8.554688 -8.9375 8.097656 -9.046875 7.515625 -9.046875 C 6.921875 -9.046875 6.453125 -8.9375 6.109375 -8.71875 C 5.773438 -8.507812 5.523438 -8.269531 5.359375 -8 C 5.203125 -7.726562 5.101562 -7.484375 5.0625 -7.265625 C 5.019531 -7.054688 5 -6.953125 5 -6.953125 Z M 13.6875 -5.859375 C 13.6875 -5.742188 13.679688 -5.625 13.671875 -5.5 C 13.660156 -5.382812 13.65625 -5.265625 13.65625 -5.140625 L 4.9375 -5.140625 C 4.9375 -4.722656 5.035156 -4.304688 5.234375 -3.890625 C 5.429688 -3.472656 5.710938 -3.128906 6.078125 -2.859375 C 6.441406 -2.597656 6.867188 -2.46875 7.359375 -2.46875 C 8.046875 -2.46875 8.582031 -2.648438 8.96875 -3.015625 C 9.363281 -3.378906 9.566406 -3.765625 9.578125 -4.171875 L 13.484375 -4.171875 C 13.160156 -2.703125 12.445312 -1.597656 11.34375 -0.859375 C 10.238281 -0.117188 8.9375 0.25 7.4375 0.25 C 6.144531 0.25 5.003906 0.0078125 4.015625 -0.46875 C 3.035156 -0.957031 2.269531 -1.640625 1.71875 -2.515625 C 1.164062 -3.390625 0.890625 -4.421875 0.890625 -5.609375 C 0.890625 -6.773438 1.171875 -7.800781 1.734375 -8.6875 C 2.304688 -9.570312 3.085938 -10.257812 4.078125 -10.75 C 5.066406 -11.25 6.1875 -11.5 7.4375 -11.5 C 8.582031 -11.5 9.625 -11.273438 10.5625 -10.828125 C 11.507812 -10.390625 12.265625 -9.753906 12.828125 -8.921875 C 13.398438 -8.085938 13.6875 -7.066406 13.6875 -5.859375 Z M 13.6875 -5.859375 "/></g></g></g><g fill="#000000" fill-opacity="1"><g transform="translate(184.02916, 250.752528)"><g><path d="M 10.328125 -5.609375 C 10.328125 -6.097656 10.207031 -6.554688 9.96875 -6.984375 C 9.726562 -7.410156 9.40625 -7.753906 9 -8.015625 C 8.601562 -8.273438 8.148438 -8.40625 7.640625 -8.40625 C 7.128906 -8.40625 6.675781 -8.273438 6.28125 -8.015625 C 5.882812 -7.753906 5.566406 -7.410156 5.328125 -6.984375 C 5.085938 -6.554688 4.96875 -6.097656 4.96875 -5.609375 C 4.96875 -5.117188 5.085938 -4.660156 5.328125 -4.234375 C 5.566406 -3.804688 5.882812 -3.457031 6.28125 -3.1875 C 6.675781 -2.925781 7.128906 -2.796875 7.640625 -2.796875 C 8.148438 -2.796875 8.601562 -2.925781 9 -3.1875 C 9.40625 -3.457031 9.726562 -3.804688 9.96875 -4.234375 C 10.207031 -4.660156 10.328125 -5.117188 10.328125 -5.609375 Z M 14.140625 -11.21875 L 14.140625 0 L 10.328125 0 L 10.328125 -1.34375 C 9.953125 -0.769531 9.394531 -0.359375 8.65625 -0.109375 C 7.914062 0.128906 7.1875 0.25 6.46875 0.25 C 5.414062 0.25 4.460938 -0.0195312 3.609375 -0.5625 C 2.765625 -1.101562 2.097656 -1.816406 1.609375 -2.703125 C 1.128906 -3.597656 0.890625 -4.566406 0.890625 -5.609375 C 0.890625 -6.640625 1.128906 -7.601562 1.609375 -8.5 C 2.097656 -9.394531 2.765625 -10.117188 3.609375 -10.671875 C 4.460938 -11.222656 5.414062 -11.5 6.46875 -11.5 C 7.1875 -11.5 7.882812 -11.378906 8.5625 -11.140625 C 9.238281 -10.898438 9.828125 -10.472656 10.328125 -9.859375 L 10.328125 -11.21875 Z M 14.140625 -11.21875 "/></g></g></g><g fill="#000000" fill-opacity="1"><g transform="translate(199.69804, 250.752528)"><g><path d="M 6.34375 -8.28125 L 6.34375 0 L 2.546875 0 L 2.546875 -8.28125 L 0.515625 -8.28125 L 0.515625 -11.234375 L 2.546875 -11.234375 L 2.546875 -15.515625 L 6.34375 -15.515625 L 6.34375 -11.234375 L 8.390625 -11.234375 L 8.390625 -8.28125 Z M 6.34375 -8.28125 "/></g></g></g><g fill="#000000" fill-opacity="1"><g transform="translate(208.589814, 250.752528)"><g/></g></g><g fill="#000000" fill-opacity="1"><g transform="translate(214.959275, 250.752528)"><g><path d="M 5.359375 -5.609375 C 5.359375 -5.117188 5.472656 -4.660156 5.703125 -4.234375 C 5.941406 -3.804688 6.257812 -3.457031 6.65625 -3.1875 C 7.0625 -2.925781 7.519531 -2.796875 8.03125 -2.796875 C 8.539062 -2.796875 8.992188 -2.925781 9.390625 -3.1875 C 9.785156 -3.457031 10.101562 -3.804688 10.34375 -4.234375 C 10.582031 -4.660156 10.703125 -5.117188 10.703125 -5.609375 C 10.703125 -6.097656 10.582031 -6.554688 10.34375 -6.984375 C 10.101562 -7.410156 9.785156 -7.753906 9.390625 -8.015625 C 8.992188 -8.273438 8.539062 -8.40625 8.03125 -8.40625 C 7.519531 -8.40625 7.0625 -8.273438 6.65625 -8.015625 C 6.257812 -7.753906 5.941406 -7.410156 5.703125 -6.984375 C 5.472656 -6.554688 5.359375 -6.097656 5.359375 -5.609375 Z M 5.359375 0 L 1.53125 0 L 1.53125 -19.109375 L 5.359375 -19.109375 L 5.359375 -9.859375 C 5.847656 -10.472656 6.425781 -10.898438 7.09375 -11.140625 C 7.769531 -11.378906 8.472656 -11.5 9.203125 -11.5 C 10.273438 -11.5 11.226562 -11.222656 12.0625 -10.671875 C 12.90625 -10.117188 13.566406 -9.394531 14.046875 -8.5 C 14.535156 -7.601562 14.78125 -6.640625 14.78125 -5.609375 C 14.78125 -4.566406 14.535156 -3.597656 14.046875 -2.703125 C 13.566406 -1.816406 12.90625 -1.101562 12.0625 -0.5625 C 11.226562 -0.0195312 10.273438 0.25 9.203125 0.25 C 8.472656 0.25 7.742188 0.128906 7.015625 -0.109375 C 6.296875 -0.359375 5.742188 -0.769531 5.359375 -1.34375 Z M 5.359375 0 "/></g></g></g><g fill="#000000" fill-opacity="1"><g transform="translate(230.628156, 250.752528)"><g><path d="M 7.875 -8.40625 C 7.394531 -8.40625 6.960938 -8.265625 6.578125 -7.984375 C 6.203125 -7.703125 5.90625 -7.347656 5.6875 -6.921875 C 5.46875 -6.503906 5.359375 -6.066406 5.359375 -5.609375 L 5.359375 0 L 1.53125 0 L 1.53125 -11.234375 L 5.359375 -11.234375 L 5.359375 -9.859375 C 5.640625 -10.285156 6.023438 -10.664062 6.515625 -11 C 7.015625 -11.332031 7.613281 -11.5 8.3125 -11.5 C 8.476562 -11.5 8.671875 -11.472656 8.890625 -11.421875 C 9.109375 -11.378906 9.296875 -11.316406 9.453125 -11.234375 L 9.453125 -7.765625 L 9.40625 -7.765625 C 9.21875 -8.003906 8.988281 -8.171875 8.71875 -8.265625 C 8.445312 -8.359375 8.164062 -8.40625 7.875 -8.40625 Z M 7.875 -8.40625 "/></g></g></g><g fill="#000000" fill-opacity="1"><g transform="translate(240.335228, 250.752528)"><g><path d="M 5 -6.953125 L 10.015625 -6.953125 C 10.015625 -6.953125 9.992188 -7.054688 9.953125 -7.265625 C 9.910156 -7.484375 9.804688 -7.726562 9.640625 -8 C 9.484375 -8.269531 9.234375 -8.507812 8.890625 -8.71875 C 8.554688 -8.9375 8.097656 -9.046875 7.515625 -9.046875 C 6.921875 -9.046875 6.453125 -8.9375 6.109375 -8.71875 C 5.773438 -8.507812 5.523438 -8.269531 5.359375 -8 C 5.203125 -7.726562 5.101562 -7.484375 5.0625 -7.265625 C 5.019531 -7.054688 5 -6.953125 5 -6.953125 Z M 13.6875 -5.859375 C 13.6875 -5.742188 13.679688 -5.625 13.671875 -5.5 C 13.660156 -5.382812 13.65625 -5.265625 13.65625 -5.140625 L 4.9375 -5.140625 C 4.9375 -4.722656 5.035156 -4.304688 5.234375 -3.890625 C 5.429688 -3.472656 5.710938 -3.128906 6.078125 -2.859375 C 6.441406 -2.597656 6.867188 -2.46875 7.359375 -2.46875 C 8.046875 -2.46875 8.582031 -2.648438 8.96875 -3.015625 C 9.363281 -3.378906 9.566406 -3.765625 9.578125 -4.171875 L 13.484375 -4.171875 C 13.160156 -2.703125 12.445312 -1.597656 11.34375 -0.859375 C 10.238281 -0.117188 8.9375 0.25 7.4375 0.25 C 6.144531 0.25 5.003906 0.0078125 4.015625 -0.46875 C 3.035156 -0.957031 2.269531 -1.640625 1.71875 -2.515625 C 1.164062 -3.390625 0.890625 -4.421875 0.890625 -5.609375 C 0.890625 -6.773438 1.171875 -7.800781 1.734375 -8.6875 C 2.304688 -9.570312 3.085938 -10.257812 4.078125 -10.75 C 5.066406 -11.25 6.1875 -11.5 7.4375 -11.5 C 8.582031 -11.5 9.625 -11.273438 10.5625 -10.828125 C 11.507812 -10.390625 12.265625 -9.753906 12.828125 -8.921875 C 13.398438 -8.085938 13.6875 -7.066406 13.6875 -5.859375 Z M 13.6875 -5.859375 "/></g></g></g><g fill="#000000" fill-opacity="1"><g transform="translate(254.908552, 250.752528)"><g><path d="M 20.46875 -11.234375 L 16.515625 0 L 12.15625 0 L 9.96875 -7.015625 L 7.796875 0 L 3.421875 0 L -0.453125 -11.234375 L 3.71875 -11.234375 L 6.015625 -3.90625 L 8.484375 -11.234375 L 11.4375 -11.234375 L 13.9375 -3.90625 L 16.265625 -11.234375 Z M 20.46875 -11.234375 "/></g></g></g><path stroke-linecap="butt" transform="matrix(0.75, 0, 0, 0.75, 231.642529, 228.676787)" fill="none" stroke-linejoin="miter" d="M -0.00253905 0.998659 L 57.096423 0.998659 " stroke="#000000" stroke-width="2" stroke-opacity="1" stroke-miterlimit="4"/><path stroke-linecap="butt" transform="matrix(0.75, 0, 0, 0.75, 97.13474, 257.41926)" fill="none" stroke-linejoin="miter" d="M -0.00256963 0.998279 L 57.096392 0.998279 " stroke="#000000" stroke-width="2" stroke-opacity="1" stroke-miterlimit="4"/></svg>