<svg xmlns="http://www.w3.org/2000/svg" xmlns:xlink="http://www.w3.org/1999/xlink" width="500" zoomAndPan="magnify" viewBox="0 0 375 374.999991" height="500" preserveAspectRatio="xMidYMid meet" version="1.0"><defs><g/><clipPath id="b19a32f4fa"><path d="M 55.492188 190.523438 L 187.492188 190.523438 L 187.492188 198 L 55.492188 198 Z M 55.492188 190.523438 " clip-rule="nonzero"/></clipPath><clipPath id="4d64628f1c"><path d="M 55.492188 201 L 187.492188 201 L 187.492188 208 L 55.492188 208 Z M 55.492188 201 " clip-rule="nonzero"/></clipPath><clipPath id="897ffd56ab"><path d="M 55.492188 211 L 187.492188 211 L 187.492188 219 L 55.492188 219 Z M 55.492188 211 " clip-rule="nonzero"/></clipPath><clipPath id="7d92893c22"><path d="M 55.492188 222 L 187.492188 222 L 187.492188 228.773438 L 55.492188 228.773438 Z M 55.492188 222 " clip-rule="nonzero"/></clipPath></defs><g clip-path="url(#b19a32f4fa)"><path fill="#545454" d="M 187.269531 190.523438 L 187.269531 197.101562 L 55.734375 197.101562 L 55.734375 190.523438 Z M 187.269531 190.523438 " fill-opacity="1" fill-rule="nonzero"/></g><g clip-path="url(#4d64628f1c)"><path fill="#737373" d="M 187.269531 201.054688 L 187.269531 207.632812 L 55.734375 207.632812 L 55.734375 201.054688 Z M 187.269531 201.054688 " fill-opacity="1" fill-rule="nonzero"/></g><g clip-path="url(#897ffd56ab)"><path fill="#a6a6a6" d="M 187.269531 211.570312 L 187.269531 218.148438 L 55.734375 218.148438 L 55.734375 211.570312 Z M 187.269531 211.570312 " fill-opacity="1" fill-rule="nonzero"/></g><g clip-path="url(#7d92893c22)"><path fill="#d9d9d9" d="M 187.269531 222.097656 L 187.269531 228.675781 L 55.734375 228.675781 L 55.734375 222.097656 Z M 187.269531 222.097656 " fill-opacity="1" fill-rule="nonzero"/></g><g fill="#545454" fill-opacity="1"><g transform="translate(53.621115, 184.008579)"><g><path d="M 0.828125 -1.5625 C 0.828125 -2.164062 0.960938 -2.617188 1.234375 -2.921875 C 1.503906 -3.222656 1.832031 -3.601562 2.21875 -4.0625 C 2.601562 -4.53125 2.929688 -5.257812 3.203125 -6.25 C 3.472656 -7.238281 3.609375 -8.691406 3.609375 -10.609375 C 3.609375 -13.128906 3.625 -14.945312 3.65625 -16.0625 C 3.6875 -17.1875 3.703125 -18.007812 3.703125 -18.53125 C 3.703125 -19.050781 3.703125 -19.640625 3.703125 -20.296875 C 3.703125 -21.785156 3.46875 -22.816406 3 -23.390625 C 2.53125 -23.960938 2.0625 -24.410156 1.59375 -24.734375 C 1.132812 -25.066406 0.90625 -25.59375 0.90625 -26.3125 C 0.90625 -27.125 1.175781 -27.679688 1.71875 -27.984375 C 2.269531 -28.285156 3.050781 -28.546875 4.0625 -28.765625 C 5.082031 -28.984375 6.304688 -29.34375 7.734375 -29.84375 C 9.484375 -30.5 10.6875 -31.085938 11.34375 -31.609375 C 12 -32.128906 12.488281 -32.550781 12.8125 -32.875 C 13.144531 -33.207031 13.671875 -33.375 14.390625 -33.375 C 15.367188 -33.375 16.023438 -32.9375 16.359375 -32.0625 C 16.691406 -31.1875 16.859375 -30.144531 16.859375 -28.9375 L 16.859375 -28.609375 C 16.859375 -27.234375 16.882812 -26.5625 16.9375 -26.59375 C 16.988281 -26.625 17.367188 -27.238281 18.078125 -28.4375 C 19.015625 -30.03125 20.316406 -31.25 21.984375 -32.09375 C 23.660156 -32.945312 25.265625 -33.375 26.796875 -33.375 C 29.804688 -33.375 31.75 -32.726562 32.625 -31.4375 C 33.507812 -30.15625 33.539062 -28.28125 32.71875 -25.8125 C 32.0625 -23.84375 31.472656 -22.488281 30.953125 -21.75 C 30.429688 -21.007812 29.921875 -20.640625 29.421875 -20.640625 C 28.878906 -20.640625 28.28125 -20.96875 27.625 -21.625 C 26.96875 -22.28125 26.238281 -22.921875 25.4375 -23.546875 C 24.644531 -24.179688 23.675781 -24.5 22.53125 -24.5 C 21.863281 -24.5 21.078125 -24.28125 20.171875 -23.84375 C 19.273438 -23.40625 18.5 -22.609375 17.84375 -21.453125 C 17.1875 -20.304688 16.859375 -18.691406 16.859375 -16.609375 L 16.859375 -10.609375 C 16.859375 -8.691406 16.992188 -7.238281 17.265625 -6.25 C 17.535156 -5.257812 17.863281 -4.53125 18.25 -4.0625 C 18.632812 -3.601562 18.960938 -3.222656 19.234375 -2.921875 C 19.503906 -2.617188 19.640625 -2.164062 19.640625 -1.5625 C 19.640625 -0.738281 19.320312 -0.191406 18.6875 0.078125 C 18.0625 0.359375 17.285156 0.5 16.359375 0.5 C 15.316406 0.5 14.234375 0.414062 13.109375 0.25 C 11.984375 0.0820312 11.007812 0 10.1875 0 C 9.363281 0 8.390625 0.0820312 7.265625 0.25 C 6.148438 0.414062 5.097656 0.5 4.109375 0.5 C 3.179688 0.5 2.398438 0.359375 1.765625 0.078125 C 1.140625 -0.191406 0.828125 -0.738281 0.828125 -1.5625 Z M 0.828125 -1.5625 "/></g></g></g><g fill="#545454" fill-opacity="1"><g transform="translate(85.510792, 184.008579)"><g><path d="M 19.8125 0.5 C 16.90625 0.5 14.050781 -0.0703125 11.25 -1.21875 C 8.457031 -2.375 6.15625 -4.1875 4.34375 -6.65625 C 2.539062 -9.125 1.640625 -12.359375 1.640625 -16.359375 C 1.640625 -19.753906 2.378906 -22.722656 3.859375 -25.265625 C 5.335938 -27.816406 7.390625 -29.804688 10.015625 -31.234375 C 12.648438 -32.660156 15.695312 -33.375 19.15625 -33.375 C 22.550781 -33.375 25.316406 -32.960938 27.453125 -32.140625 C 29.585938 -31.316406 31.242188 -30.257812 32.421875 -28.96875 C 33.609375 -27.6875 34.421875 -26.375 34.859375 -25.03125 C 35.296875 -23.6875 35.515625 -22.519531 35.515625 -21.53125 C 35.515625 -18.789062 34.664062 -16.554688 32.96875 -14.828125 C 31.269531 -13.109375 29.101562 -11.847656 26.46875 -11.046875 C 23.84375 -10.253906 21.15625 -9.859375 18.40625 -9.859375 C 17.644531 -9.859375 17.082031 -9.582031 16.71875 -9.03125 C 16.363281 -8.488281 16.253906 -7.859375 16.390625 -7.140625 C 16.535156 -6.429688 16.976562 -5.800781 17.71875 -5.25 C 18.457031 -4.707031 19.507812 -4.4375 20.875 -4.4375 C 22.851562 -4.4375 24.414062 -4.789062 25.5625 -5.5 C 26.71875 -6.21875 27.632812 -7.039062 28.3125 -7.96875 C 29 -8.90625 29.65625 -9.726562 30.28125 -10.4375 C 30.914062 -11.15625 31.753906 -11.515625 32.796875 -11.515625 C 33.734375 -11.515625 34.429688 -11.222656 34.890625 -10.640625 C 35.359375 -10.066406 35.59375 -9.425781 35.59375 -8.71875 C 35.59375 -6.851562 34.863281 -5.234375 33.40625 -3.859375 C 31.957031 -2.492188 30.023438 -1.425781 27.609375 -0.65625 C 25.203125 0.113281 22.601562 0.5 19.8125 0.5 Z M 19.15625 -29.1875 C 18 -29.1875 17.078125 -28.5 16.390625 -27.125 C 15.710938 -25.757812 15.375 -23.925781 15.375 -21.625 C 15.375 -19.320312 15.710938 -17.484375 16.390625 -16.109375 C 17.078125 -14.742188 18 -14.0625 19.15625 -14.0625 C 20.300781 -14.0625 21.21875 -14.742188 21.90625 -16.109375 C 22.59375 -17.484375 22.9375 -19.320312 22.9375 -21.625 C 22.9375 -23.925781 22.59375 -25.757812 21.90625 -27.125 C 21.21875 -28.5 20.300781 -29.1875 19.15625 -29.1875 Z M 19.15625 -29.1875 "/></g></g></g><g fill="#545454" fill-opacity="1"><g transform="translate(120.112759, 184.008579)"><g><path d="M 0.828125 -30.90625 C 0.828125 -31.726562 1.097656 -32.273438 1.640625 -32.546875 C 2.191406 -32.828125 2.957031 -33.101562 3.9375 -33.375 C 4.925781 -33.644531 6.078125 -34.191406 7.390625 -35.015625 C 9.148438 -36.109375 10.410156 -37.160156 11.171875 -38.171875 C 11.941406 -39.191406 12.546875 -40.015625 12.984375 -40.640625 C 13.421875 -41.273438 14 -41.59375 14.71875 -41.59375 C 15.695312 -41.59375 16.28125 -41.097656 16.46875 -40.109375 C 16.664062 -39.128906 16.765625 -38.035156 16.765625 -36.828125 L 16.765625 -33.78125 C 16.765625 -33.175781 17.066406 -32.875 17.671875 -32.875 L 18.984375 -32.875 C 20.359375 -32.875 21.046875 -32.191406 21.046875 -30.828125 C 21.046875 -29.398438 20.359375 -28.6875 18.984375 -28.6875 L 17.671875 -28.6875 C 17.066406 -28.6875 16.765625 -28.382812 16.765625 -27.78125 L 16.765625 -18.171875 C 16.765625 -14.660156 16.804688 -12.109375 16.890625 -10.515625 C 16.972656 -8.929688 17.398438 -7.753906 18.171875 -6.984375 C 18.660156 -6.546875 19.066406 -6.269531 19.390625 -6.15625 C 19.722656 -6.050781 19.972656 -5.914062 20.140625 -5.75 C 20.304688 -5.582031 20.390625 -5.203125 20.390625 -4.609375 C 20.390625 -3.566406 19.800781 -2.453125 18.625 -1.265625 C 17.445312 -0.0859375 15.375 0.5 12.40625 0.5 C 8.957031 0.5 6.613281 -0.742188 5.375 -3.234375 C 4.144531 -5.734375 3.53125 -8.984375 3.53125 -12.984375 L 3.609375 -24.90625 C 3.609375 -26.382812 3.375 -27.410156 2.90625 -27.984375 C 2.445312 -28.566406 1.984375 -29.019531 1.515625 -29.34375 C 1.054688 -29.675781 0.828125 -30.195312 0.828125 -30.90625 Z M 0.828125 -30.90625 "/></g></g></g><g fill="#545454" fill-opacity="1"><g transform="translate(138.934123, 184.008579)"><g><path d="M 0.828125 -1.5625 C 0.828125 -2.164062 0.960938 -2.617188 1.234375 -2.921875 C 1.503906 -3.222656 1.832031 -3.601562 2.21875 -4.0625 C 2.601562 -4.53125 2.929688 -5.257812 3.203125 -6.25 C 3.472656 -7.238281 3.609375 -8.691406 3.609375 -10.609375 C 3.609375 -13.128906 3.625 -14.945312 3.65625 -16.0625 C 3.6875 -17.1875 3.703125 -18.007812 3.703125 -18.53125 C 3.703125 -19.050781 3.703125 -19.640625 3.703125 -20.296875 C 3.703125 -21.785156 3.46875 -22.816406 3 -23.390625 C 2.53125 -23.960938 2.0625 -24.410156 1.59375 -24.734375 C 1.132812 -25.066406 0.90625 -25.59375 0.90625 -26.3125 C 0.90625 -27.125 1.175781 -27.679688 1.71875 -27.984375 C 2.269531 -28.285156 3.050781 -28.546875 4.0625 -28.765625 C 5.082031 -28.984375 6.304688 -29.34375 7.734375 -29.84375 C 9.484375 -30.5 10.6875 -31.085938 11.34375 -31.609375 C 12 -32.128906 12.488281 -32.550781 12.8125 -32.875 C 13.144531 -33.207031 13.671875 -33.375 14.390625 -33.375 C 15.367188 -33.375 16.023438 -32.9375 16.359375 -32.0625 C 16.691406 -31.1875 16.859375 -30.144531 16.859375 -28.9375 L 16.859375 -28.609375 C 16.859375 -27.234375 16.882812 -26.5625 16.9375 -26.59375 C 16.988281 -26.625 17.367188 -27.238281 18.078125 -28.4375 C 19.015625 -30.03125 20.316406 -31.25 21.984375 -32.09375 C 23.660156 -32.945312 25.265625 -33.375 26.796875 -33.375 C 29.804688 -33.375 31.75 -32.726562 32.625 -31.4375 C 33.507812 -30.15625 33.539062 -28.28125 32.71875 -25.8125 C 32.0625 -23.84375 31.472656 -22.488281 30.953125 -21.75 C 30.429688 -21.007812 29.921875 -20.640625 29.421875 -20.640625 C 28.878906 -20.640625 28.28125 -20.96875 27.625 -21.625 C 26.96875 -22.28125 26.238281 -22.921875 25.4375 -23.546875 C 24.644531 -24.179688 23.675781 -24.5 22.53125 -24.5 C 21.863281 -24.5 21.078125 -24.28125 20.171875 -23.84375 C 19.273438 -23.40625 18.5 -22.609375 17.84375 -21.453125 C 17.1875 -20.304688 16.859375 -18.691406 16.859375 -16.609375 L 16.859375 -10.609375 C 16.859375 -8.691406 16.992188 -7.238281 17.265625 -6.25 C 17.535156 -5.257812 17.863281 -4.53125 18.25 -4.0625 C 18.632812 -3.601562 18.960938 -3.222656 19.234375 -2.921875 C 19.503906 -2.617188 19.640625 -2.164062 19.640625 -1.5625 C 19.640625 -0.738281 19.320312 -0.191406 18.6875 0.078125 C 18.0625 0.359375 17.285156 0.5 16.359375 0.5 C 15.316406 0.5 14.234375 0.414062 13.109375 0.25 C 11.984375 0.0820312 11.007812 0 10.1875 0 C 9.363281 0 8.390625 0.0820312 7.265625 0.25 C 6.148438 0.414062 5.097656 0.5 4.109375 0.5 C 3.179688 0.5 2.398438 0.359375 1.765625 0.078125 C 1.140625 -0.191406 0.828125 -0.738281 0.828125 -1.5625 Z M 0.828125 -1.5625 "/></g></g></g><g fill="#545454" fill-opacity="1"><g transform="translate(170.823796, 184.008579)"><g><path d="M 19.484375 0.5 C 14.003906 0.5 9.660156 -0.992188 6.453125 -3.984375 C 3.242188 -6.972656 1.640625 -11.125 1.640625 -16.4375 C 1.640625 -21.8125 3.242188 -25.976562 6.453125 -28.9375 C 9.660156 -31.894531 14.003906 -33.375 19.484375 -33.375 C 24.960938 -33.375 29.300781 -31.894531 32.5 -28.9375 C 35.707031 -25.976562 37.3125 -21.8125 37.3125 -16.4375 C 37.3125 -11.125 35.707031 -6.972656 32.5 -3.984375 C 29.300781 -0.992188 24.960938 0.5 19.484375 0.5 Z M 15.203125 -16.4375 C 15.203125 -14.1875 15.328125 -12.113281 15.578125 -10.21875 C 15.828125 -8.332031 16.265625 -6.84375 16.890625 -5.75 C 17.523438 -4.65625 18.390625 -4.109375 19.484375 -4.109375 C 20.628906 -4.109375 21.515625 -4.65625 22.140625 -5.75 C 22.773438 -6.84375 23.203125 -8.332031 23.421875 -10.21875 C 23.640625 -12.113281 23.75 -14.1875 23.75 -16.4375 C 23.75 -18.738281 23.640625 -20.820312 23.421875 -22.6875 C 23.203125 -24.550781 22.773438 -26.03125 22.140625 -27.125 C 21.515625 -28.21875 20.628906 -28.765625 19.484375 -28.765625 C 18.390625 -28.765625 17.523438 -28.21875 16.890625 -27.125 C 16.265625 -26.03125 15.828125 -24.550781 15.578125 -22.6875 C 15.328125 -20.820312 15.203125 -18.738281 15.203125 -16.4375 Z M 15.203125 -16.4375 "/></g></g></g><g fill="#545454" fill-opacity="1"><g transform="translate(166.44231, 227.753472)"><g><path d="M 0.46875 -35.484375 C 0.46875 -36.421875 0.835938 -37.039062 1.578125 -37.34375 C 2.328125 -37.65625 3.226562 -37.8125 4.28125 -37.8125 C 5.457031 -37.8125 6.695312 -37.71875 8 -37.53125 C 9.3125 -37.34375 10.429688 -37.25 11.359375 -37.25 C 12.546875 -37.25 13.851562 -37.34375 15.28125 -37.53125 C 16.707031 -37.71875 18.007812 -37.8125 19.1875 -37.8125 C 20.300781 -37.8125 21.226562 -37.65625 21.96875 -37.34375 C 22.71875 -37.039062 23.09375 -36.421875 23.09375 -35.484375 C 23.09375 -34.617188 22.828125 -34 22.296875 -33.625 C 21.773438 -33.25 21.515625 -32.503906 21.515625 -31.390625 C 21.515625 -29.835938 21.914062 -27.957031 22.71875 -25.75 C 23.53125 -23.550781 24.335938 -21.550781 25.140625 -19.75 C 25.703125 -18.382812 26.296875 -18.414062 26.921875 -19.84375 C 27.785156 -21.820312 28.632812 -23.914062 29.46875 -26.125 C 30.3125 -28.332031 30.734375 -30.085938 30.734375 -31.390625 C 30.734375 -32.503906 30.421875 -33.296875 29.796875 -33.765625 C 29.179688 -34.234375 28.90625 -34.898438 28.96875 -35.765625 C 28.96875 -36.578125 29.179688 -37.117188 29.609375 -37.390625 C 30.046875 -37.671875 30.578125 -37.8125 31.203125 -37.8125 C 31.890625 -37.8125 32.617188 -37.71875 33.390625 -37.53125 C 34.171875 -37.34375 34.835938 -37.25 35.390625 -37.25 C 35.953125 -37.25 36.632812 -37.34375 37.4375 -37.53125 C 38.25 -37.71875 38.992188 -37.8125 39.671875 -37.8125 C 40.296875 -37.8125 40.804688 -37.6875 41.203125 -37.4375 C 41.609375 -37.1875 41.8125 -36.691406 41.8125 -35.953125 C 41.8125 -35.140625 41.578125 -34.5 41.109375 -34.03125 C 40.648438 -33.570312 40.03125 -33.015625 39.25 -32.359375 C 38.476562 -31.710938 37.578125 -30.675781 36.546875 -29.25 C 35.523438 -27.820312 34.425781 -25.675781 33.25 -22.8125 C 31.882812 -19.40625 30.363281 -16.039062 28.6875 -12.71875 C 27.007812 -9.394531 25.425781 -6.054688 23.9375 -2.703125 C 23.007812 -0.523438 21.921875 0.5625 20.671875 0.5625 C 19.492188 0.5625 18.378906 -0.523438 17.328125 -2.703125 C 16.515625 -4.566406 15.625 -6.535156 14.65625 -8.609375 C 13.695312 -10.691406 12.785156 -12.710938 11.921875 -14.671875 C 11.054688 -16.628906 10.296875 -18.320312 9.640625 -19.75 C 8.984375 -21.175781 8.535156 -22.140625 8.296875 -22.640625 C 7.109375 -25.367188 6.03125 -27.429688 5.0625 -28.828125 C 4.101562 -30.222656 3.28125 -31.257812 2.59375 -31.9375 C 1.914062 -32.625 1.390625 -33.203125 1.015625 -33.671875 C 0.648438 -34.140625 0.46875 -34.742188 0.46875 -35.484375 Z M 0.46875 -35.484375 "/></g></g></g><g fill="#545454" fill-opacity="1"><g transform="translate(205.747877, 227.753472)"><g><path d="M 11.828125 0 C 10.898438 0 9.796875 0.09375 8.515625 0.28125 C 7.242188 0.46875 6.050781 0.5625 4.9375 0.5625 C 3.882812 0.5625 3 0.40625 2.28125 0.09375 C 1.5625 -0.21875 1.203125 -0.835938 1.203125 -1.765625 C 1.203125 -2.453125 1.359375 -2.960938 1.671875 -3.296875 C 1.984375 -3.640625 2.359375 -4.078125 2.796875 -4.609375 C 3.234375 -5.140625 3.601562 -5.960938 3.90625 -7.078125 C 4.21875 -8.191406 4.375 -9.835938 4.375 -12.015625 C 4.375 -14.867188 4.390625 -16.929688 4.421875 -18.203125 C 4.453125 -19.484375 4.46875 -20.414062 4.46875 -21 C 4.46875 -21.59375 4.46875 -22.257812 4.46875 -23 C 4.46875 -24.675781 4.203125 -25.835938 3.671875 -26.484375 C 3.148438 -27.140625 2.625 -27.65625 2.09375 -28.03125 C 1.5625 -28.40625 1.296875 -29 1.296875 -29.8125 C 1.296875 -30.738281 1.609375 -31.375 2.234375 -31.71875 C 2.859375 -32.0625 3.742188 -32.351562 4.890625 -32.59375 C 6.035156 -32.84375 7.414062 -33.25 9.03125 -33.8125 C 11.019531 -34.550781 12.382812 -35.21875 13.125 -35.8125 C 13.875 -36.40625 14.4375 -36.882812 14.8125 -37.25 C 15.1875 -37.625 15.773438 -37.8125 16.578125 -37.8125 C 17.691406 -37.8125 18.4375 -37.3125 18.8125 -36.3125 C 19.1875 -35.320312 19.375 -34.144531 19.375 -32.78125 L 19.375 -12.015625 C 19.375 -9.835938 19.523438 -8.191406 19.828125 -7.078125 C 20.140625 -5.960938 20.515625 -5.140625 20.953125 -4.609375 C 21.390625 -4.078125 21.765625 -3.640625 22.078125 -3.296875 C 22.390625 -2.960938 22.546875 -2.453125 22.546875 -1.765625 C 22.546875 -0.835938 22.1875 -0.21875 21.46875 0.09375 C 20.75 0.40625 19.863281 0.5625 18.8125 0.5625 C 17.632812 0.5625 16.40625 0.46875 15.125 0.28125 C 13.851562 0.09375 12.753906 0 11.828125 0 Z M 1.203125 -40.421875 C 0.585938 -42.285156 0.914062 -44.300781 2.1875 -46.46875 C 3.457031 -48.644531 5.398438 -50.414062 8.015625 -51.78125 C 10.179688 -52.90625 12.164062 -53.46875 13.96875 -53.46875 C 16.695312 -53.46875 18.46875 -52.347656 19.28125 -50.109375 C 19.957031 -48.179688 19.660156 -46.160156 18.390625 -44.046875 C 17.117188 -41.941406 15.179688 -40.175781 12.578125 -38.75 C 10.335938 -37.625 8.316406 -37.0625 6.515625 -37.0625 C 3.847656 -37.0625 2.078125 -38.179688 1.203125 -40.421875 Z M 1.203125 -40.421875 "/></g></g></g><g fill="#545454" fill-opacity="1"><g transform="translate(226.145628, 227.753472)"><g><path d="M 11.546875 0 C 10.617188 0 9.515625 0.09375 8.234375 0.28125 C 6.960938 0.46875 5.769531 0.5625 4.65625 0.5625 C 3.601562 0.5625 2.71875 0.40625 2 0.09375 C 1.289062 -0.21875 0.9375 -0.835938 0.9375 -1.765625 C 0.9375 -2.453125 1.085938 -2.960938 1.390625 -3.296875 C 1.703125 -3.640625 2.078125 -4.078125 2.515625 -4.609375 C 2.953125 -5.140625 3.320312 -5.960938 3.625 -7.078125 C 3.9375 -8.191406 4.09375 -9.835938 4.09375 -12.015625 C 4.09375 -14.128906 4.09375 -16.582031 4.09375 -19.375 C 4.09375 -22.164062 4.109375 -24.941406 4.140625 -27.703125 C 4.171875 -30.472656 4.1875 -32.863281 4.1875 -34.875 C 4.1875 -36.894531 4.1875 -38.1875 4.1875 -38.75 C 4.1875 -40.425781 3.921875 -41.554688 3.390625 -42.140625 C 2.867188 -42.734375 2.34375 -43.21875 1.8125 -43.59375 C 1.289062 -43.96875 1.03125 -44.617188 1.03125 -45.546875 C 1.03125 -46.472656 1.335938 -47.109375 1.953125 -47.453125 C 2.578125 -47.796875 3.460938 -48.09375 4.609375 -48.34375 C 5.753906 -48.59375 7.132812 -48.992188 8.75 -49.546875 C 10.738281 -50.296875 12.101562 -50.960938 12.84375 -51.546875 C 13.59375 -52.140625 14.15625 -52.625 14.53125 -53 C 14.90625 -53.375 15.492188 -53.5625 16.296875 -53.5625 C 17.410156 -53.5625 18.15625 -53.0625 18.53125 -52.0625 C 18.90625 -51.070312 19.09375 -49.894531 19.09375 -48.53125 L 19.09375 -32.6875 C 19.09375 -31.695312 19.171875 -31.21875 19.328125 -31.25 C 19.484375 -31.28125 19.789062 -31.617188 20.25 -32.265625 C 20.71875 -32.921875 21.335938 -33.679688 22.109375 -34.546875 C 22.890625 -35.421875 23.898438 -36.179688 25.140625 -36.828125 C 26.390625 -37.484375 27.914062 -37.8125 29.71875 -37.8125 C 32.882812 -37.8125 35.519531 -36.878906 37.625 -35.015625 C 39.738281 -33.160156 41.320312 -30.785156 42.375 -27.890625 C 43.4375 -25.003906 43.953125 -21.914062 43.921875 -18.625 C 43.890625 -15.332031 43.3125 -12.242188 42.1875 -9.359375 C 41.070312 -6.472656 39.363281 -4.097656 37.0625 -2.234375 C 34.769531 -0.367188 31.914062 0.5625 28.5 0.5625 C 25.769531 0.5625 23.675781 0.53125 22.21875 0.46875 C 20.757812 0.40625 19.59375 0.34375 18.71875 0.28125 C 17.851562 0.21875 16.90625 0.15625 15.875 0.09375 C 14.851562 0.03125 13.410156 0 11.546875 0 Z M 23.65625 -27.296875 C 21.914062 -27.296875 20.640625 -26.238281 19.828125 -24.125 C 19.023438 -22.007812 18.625 -19.554688 18.625 -16.765625 C 18.625 -13.972656 19.039062 -11.582031 19.875 -9.59375 C 20.71875 -7.601562 21.976562 -6.609375 23.65625 -6.609375 C 25.332031 -6.609375 26.585938 -7.617188 27.421875 -9.640625 C 28.265625 -11.660156 28.6875 -14.066406 28.6875 -16.859375 C 28.6875 -19.648438 28.265625 -22.085938 27.421875 -24.171875 C 26.585938 -26.253906 25.332031 -27.296875 23.65625 -27.296875 Z M 23.65625 -27.296875 "/></g></g></g><g fill="#545454" fill-opacity="1"><g transform="translate(268.990586, 227.753472)"><g><path d="M 22.453125 0.5625 C 19.160156 0.5625 15.929688 -0.0859375 12.765625 -1.390625 C 9.597656 -2.703125 6.988281 -4.753906 4.9375 -7.546875 C 2.882812 -10.335938 1.859375 -14 1.859375 -18.53125 C 1.859375 -22.382812 2.695312 -25.753906 4.375 -28.640625 C 6.050781 -31.523438 8.378906 -33.773438 11.359375 -35.390625 C 14.335938 -37.003906 17.785156 -37.8125 21.703125 -37.8125 C 25.546875 -37.8125 28.675781 -37.34375 31.09375 -36.40625 C 33.519531 -35.476562 35.398438 -34.285156 36.734375 -32.828125 C 38.078125 -31.367188 38.992188 -29.878906 39.484375 -28.359375 C 39.984375 -26.835938 40.234375 -25.519531 40.234375 -24.40625 C 40.234375 -21.300781 39.269531 -18.769531 37.34375 -16.8125 C 35.425781 -14.851562 32.972656 -13.421875 29.984375 -12.515625 C 27.003906 -11.617188 23.960938 -11.171875 20.859375 -11.171875 C 19.992188 -11.171875 19.359375 -10.859375 18.953125 -10.234375 C 18.546875 -9.617188 18.421875 -8.90625 18.578125 -8.09375 C 18.734375 -7.289062 19.226562 -6.578125 20.0625 -5.953125 C 20.90625 -5.335938 22.101562 -5.03125 23.65625 -5.03125 C 25.894531 -5.03125 27.664062 -5.429688 28.96875 -6.234375 C 30.269531 -7.046875 31.304688 -7.976562 32.078125 -9.03125 C 32.859375 -10.09375 33.601562 -11.023438 34.3125 -11.828125 C 35.03125 -12.640625 35.976562 -13.046875 37.15625 -13.046875 C 38.21875 -13.046875 39.007812 -12.71875 39.53125 -12.0625 C 40.0625 -11.40625 40.328125 -10.675781 40.328125 -9.875 C 40.328125 -7.757812 39.503906 -5.925781 37.859375 -4.375 C 36.210938 -2.820312 34.023438 -1.609375 31.296875 -0.734375 C 28.566406 0.128906 25.617188 0.5625 22.453125 0.5625 Z M 21.703125 -33.0625 C 20.398438 -33.0625 19.359375 -32.285156 18.578125 -30.734375 C 17.804688 -29.179688 17.421875 -27.101562 17.421875 -24.5 C 17.421875 -21.882812 17.804688 -19.800781 18.578125 -18.25 C 19.359375 -16.695312 20.398438 -15.921875 21.703125 -15.921875 C 23.003906 -15.921875 24.039062 -16.695312 24.8125 -18.25 C 25.59375 -19.800781 25.984375 -21.882812 25.984375 -24.5 C 25.984375 -27.101562 25.59375 -29.179688 24.8125 -30.734375 C 24.039062 -32.285156 23.003906 -33.0625 21.703125 -33.0625 Z M 21.703125 -33.0625 "/></g></g></g><g fill="#545454" fill-opacity="1"><g transform="translate(308.203004, 227.753472)"><g><path d="M 1.859375 -8.9375 C 1.859375 -10.175781 2.210938 -11.171875 2.921875 -11.921875 C 3.640625 -12.671875 4.679688 -13.046875 6.046875 -13.046875 C 7.234375 -13.046875 8.195312 -12.609375 8.9375 -11.734375 C 9.6875 -10.867188 10.460938 -9.875 11.265625 -8.75 C 12.078125 -7.632812 13.101562 -6.640625 14.34375 -5.765625 C 15.582031 -4.898438 17.257812 -4.46875 19.375 -4.46875 C 20.988281 -4.46875 22.257812 -4.640625 23.1875 -4.984375 C 24.125 -5.328125 24.59375 -6.117188 24.59375 -7.359375 C 24.59375 -8.347656 24.046875 -9.15625 22.953125 -9.78125 C 21.867188 -10.40625 20.488281 -10.976562 18.8125 -11.5 C 17.132812 -12.03125 15.347656 -12.617188 13.453125 -13.265625 C 11.566406 -13.921875 9.785156 -14.742188 8.109375 -15.734375 C 6.429688 -16.734375 5.046875 -18.023438 3.953125 -19.609375 C 2.867188 -21.191406 2.328125 -23.191406 2.328125 -25.609375 C 2.328125 -28.347656 2.945312 -30.535156 4.1875 -32.171875 C 5.425781 -33.816406 6.976562 -35.039062 8.84375 -35.84375 C 10.707031 -36.65625 12.554688 -37.1875 14.390625 -37.4375 C 16.222656 -37.6875 17.726562 -37.8125 18.90625 -37.8125 C 22.070312 -37.8125 25.019531 -37.4375 27.75 -36.6875 C 30.488281 -35.945312 32.695312 -34.847656 34.375 -33.390625 C 36.050781 -31.929688 36.890625 -30.144531 36.890625 -28.03125 C 36.890625 -26.976562 36.5 -26.078125 35.71875 -25.328125 C 34.945312 -24.585938 34.03125 -24.21875 32.96875 -24.21875 C 31.351562 -24.21875 30.046875 -24.664062 29.046875 -25.5625 C 28.054688 -26.46875 27.15625 -27.492188 26.34375 -28.640625 C 25.539062 -29.785156 24.613281 -30.804688 23.5625 -31.703125 C 22.507812 -32.609375 21.144531 -33.0625 19.46875 -33.0625 C 17.789062 -33.0625 16.6875 -32.671875 16.15625 -31.890625 C 15.632812 -31.117188 15.375 -30.332031 15.375 -29.53125 C 15.375 -28.34375 15.898438 -27.4375 16.953125 -26.8125 C 18.003906 -26.195312 19.367188 -25.6875 21.046875 -25.28125 C 22.722656 -24.882812 24.492188 -24.4375 26.359375 -23.9375 C 28.222656 -23.4375 29.992188 -22.765625 31.671875 -21.921875 C 33.347656 -21.085938 34.710938 -19.910156 35.765625 -18.390625 C 36.816406 -16.867188 37.34375 -14.867188 37.34375 -12.390625 C 37.34375 -9.222656 36.425781 -6.691406 34.59375 -4.796875 C 32.769531 -2.898438 30.425781 -1.53125 27.5625 -0.6875 C 24.707031 0.144531 21.695312 0.5625 18.53125 0.5625 C 17.226562 0.5625 15.644531 0.40625 13.78125 0.09375 C 11.914062 -0.21875 10.066406 -0.726562 8.234375 -1.4375 C 6.410156 -2.15625 4.890625 -3.117188 3.671875 -4.328125 C 2.460938 -5.535156 1.859375 -7.070312 1.859375 -8.9375 Z M 1.859375 -8.9375 "/></g></g></g></svg>