<svg xmlns="http://www.w3.org/2000/svg" xmlns:xlink="http://www.w3.org/1999/xlink" width="500" zoomAndPan="magnify" viewBox="0 0 375 374.999991" height="500" preserveAspectRatio="xMidYMid meet" version="1.0"><defs><g/><clipPath id="32ed19a402"><path d="M 76.640625 126.910156 L 161.214844 126.910156 L 161.214844 234.03125 L 76.640625 234.03125 Z M 76.640625 126.910156 " clip-rule="nonzero"/></clipPath><clipPath id="acab8c1a9f"><path d="M 252.417969 180.535156 L 293.792969 180.535156 L 293.792969 221.910156 L 252.417969 221.910156 Z M 252.417969 180.535156 " clip-rule="nonzero"/></clipPath><clipPath id="567b611bef"><path d="M 259.917969 180.535156 L 286.292969 180.535156 C 288.28125 180.535156 290.191406 181.328125 291.597656 182.734375 C 293.003906 184.140625 293.792969 186.046875 293.792969 188.035156 L 293.792969 214.410156 C 293.792969 216.398438 293.003906 218.308594 291.597656 219.714844 C 290.191406 221.121094 288.28125 221.910156 286.292969 221.910156 L 259.917969 221.910156 C 257.929688 221.910156 256.019531 221.121094 254.613281 219.714844 C 253.207031 218.308594 252.417969 216.398438 252.417969 214.410156 L 252.417969 188.035156 C 252.417969 186.046875 253.207031 184.140625 254.613281 182.734375 C 256.019531 181.328125 257.929688 180.535156 259.917969 180.535156 Z M 259.917969 180.535156 " clip-rule="nonzero"/></clipPath></defs><g clip-path="url(#32ed19a402)"><path fill="#292929" d="M 93.324219 133.75 L 99.960938 146.933594 L 107.1875 161.285156 L 115.46875 160.269531 L 131.4375 158.308594 L 136.753906 147.753906 L 143.394531 134.570312 C 142.203125 133.980469 141.386719 132.753906 141.386719 131.335938 C 141.386719 129.34375 143 127.730469 144.992188 127.730469 C 146.984375 127.730469 148.601562 129.34375 148.601562 131.335938 C 148.601562 133.328125 146.984375 134.945312 144.992188 134.945312 C 144.609375 134.945312 144.238281 134.882812 143.890625 134.773438 L 138.652344 148.128906 L 134.820312 157.894531 L 143.734375 156.800781 C 149.617188 156.082031 155.03125 158.160156 158.910156 162.09375 C 159.757812 162.953125 160.527344 163.898438 161.214844 164.917969 C 159.0625 164.359375 156.765625 164.195312 154.390625 164.488281 C 144.539062 165.695312 135.125 166.851562 126.125 167.953125 C 117.503906 169.011719 109.234375 170.023438 101.300781 170.996094 C 96.859375 171.539062 93.085938 174.296875 90.589844 178.210938 C 88.160156 182.027344 86.929688 186.953125 87.398438 192.105469 C 87.917969 197.816406 88.425781 203.429688 88.925781 208.921875 C 89.417969 214.328125 89.902344 219.636719 90.375 224.847656 C 90.679688 228.230469 91.816406 231.382812 93.519531 234.03125 C 90.21875 233.375 87.203125 231.527344 84.835938 228.929688 C 82.054688 225.875 80.128906 221.726562 79.714844 217.160156 C 79.242188 211.953125 78.757812 206.644531 78.265625 201.238281 C 77.765625 195.742188 77.257812 190.132812 76.738281 184.421875 C 76.269531 179.265625 77.5 174.34375 79.929688 170.527344 C 82.425781 166.609375 86.203125 163.855469 90.640625 163.3125 L 103.714844 161.710938 L 98.066406 147.308594 L 92.828125 133.953125 C 92.480469 134.0625 92.109375 134.125 91.722656 134.125 C 89.730469 134.125 88.117188 132.507812 88.117188 130.515625 C 88.117188 128.523438 89.730469 126.910156 91.722656 126.910156 C 93.714844 126.910156 95.332031 128.523438 95.332031 130.515625 C 95.332031 131.933594 94.511719 133.160156 93.324219 133.75 " fill-opacity="1" fill-rule="evenodd"/></g><g fill="#292929" fill-opacity="1"><g transform="translate(99.149492, 219.55232)"><g><path d="M 12.015625 -29.796875 L 0.21875 -29.796875 L 0.21875 -38.40625 L 34.625 -38.40625 L 34.625 -29.796875 L 22.890625 -29.796875 L 22.890625 0 L 12.015625 0 Z M 12.015625 -29.796875 "/></g></g></g><g fill="#292929" fill-opacity="1"><g transform="translate(129.877208, 219.55232)"><g><path d="M 21.5625 0.765625 C 15.851562 0.765625 11.414062 -0.785156 8.25 -3.890625 C 5.09375 -7.003906 3.515625 -11.414062 3.515625 -17.125 L 3.515625 -38.40625 L 14.375 -38.40625 L 14.375 -17.453125 C 14.375 -11.304688 16.804688 -8.234375 21.671875 -8.234375 C 26.503906 -8.234375 28.921875 -11.304688 28.921875 -17.453125 L 28.921875 -38.40625 L 39.625 -38.40625 L 39.625 -17.125 C 39.625 -11.414062 38.039062 -7.003906 34.875 -3.890625 C 31.707031 -0.785156 27.269531 0.765625 21.5625 0.765625 Z M 21.5625 0.765625 "/></g></g></g><g fill="#292929" fill-opacity="1"><g transform="translate(168.890734, 219.55232)"><g><path d="M 40.390625 -38.40625 L 40.390625 0 L 31.4375 0 L 14.484375 -20.46875 L 14.484375 0 L 3.84375 0 L 3.84375 -38.40625 L 12.78125 -38.40625 L 29.75 -17.9375 L 29.75 -38.40625 Z M 40.390625 -38.40625 "/></g></g></g><g fill="#292929" fill-opacity="1"><g transform="translate(209.001717, 219.55232)"><g><path d="M 34.6875 -8.390625 L 34.6875 0 L 3.84375 0 L 3.84375 -38.40625 L 33.96875 -38.40625 L 33.96875 -30.015625 L 14.59375 -30.015625 L 14.59375 -23.546875 L 31.65625 -23.546875 L 31.65625 -15.421875 L 14.59375 -15.421875 L 14.59375 -8.390625 Z M 34.6875 -8.390625 "/></g></g></g><g clip-path="url(#acab8c1a9f)"><g clip-path="url(#567b611bef)"><path fill="#24282b" d="M 252.417969 180.535156 L 293.792969 180.535156 L 293.792969 221.910156 L 252.417969 221.910156 Z M 252.417969 180.535156 " fill-opacity="1" fill-rule="nonzero"/></g></g><g fill="#ffffff" fill-opacity="1"><g transform="translate(260.651208, 208.994883)"><g><path d="M 1.625 -16.28125 L 6.234375 -16.28125 L 6.234375 0 L 1.625 0 Z M 1.625 -16.28125 "/></g></g></g><g fill="#ffffff" fill-opacity="1"><g transform="translate(266.792829, 208.994883)"><g><path d="M 17.125 -16.28125 L 17.125 0 L 13.328125 0 L 6.140625 -8.671875 L 6.140625 0 L 1.625 0 L 1.625 -16.28125 L 5.421875 -16.28125 L 12.609375 -7.609375 L 12.609375 -16.28125 Z M 17.125 -16.28125 "/></g></g></g></svg>