<svg xmlns="http://www.w3.org/2000/svg" xmlns:xlink="http://www.w3.org/1999/xlink" width="500" zoomAndPan="magnify" viewBox="0 0 375 374.999991" height="500" preserveAspectRatio="xMidYMid meet" version="1.0"><defs><g/><clipPath id="e2c5207de0"><path d="M 76 164 L 150.273438 164 L 150.273438 238.3125 L 76 238.3125 Z M 76 164 " clip-rule="nonzero"/></clipPath><clipPath id="e1e436afd5"><path d="M 96 136.3125 L 144 136.3125 L 144 169 L 96 169 Z M 96 136.3125 " clip-rule="nonzero"/></clipPath></defs><g clip-path="url(#e2c5207de0)"><path fill="#34353a" d="M 113.890625 230.320312 C 76.421875 208.554688 80.699219 190.558594 80.699219 190.558594 C 81.894531 178.417969 95.769531 169.84375 111.695312 171.410156 C 127.621094 172.972656 139.5625 184.085938 138.371094 196.230469 C 137.175781 208.375 123.296875 216.949219 107.375 215.382812 C 107.113281 215.355469 106.851562 215.328125 106.59375 215.296875 C 109.03125 223.769531 113.890625 230.320312 113.890625 230.320312 Z M 150.25 192.746094 C 150.25 177.316406 133.84375 164.808594 113.609375 164.808594 C 93.375 164.808594 76.96875 177.316406 76.96875 192.746094 C 76.96875 192.746094 73.8125 215.917969 123.660156 238.675781 C 123.660156 238.675781 116.734375 231.03125 112.617188 220.671875 C 112.945312 220.679688 113.277344 220.683594 113.609375 220.683594 C 133.84375 220.683594 150.25 208.175781 150.25 192.746094 " fill-opacity="1" fill-rule="nonzero"/></g><g clip-path="url(#e1e436afd5)"><path fill="#34353a" d="M 139.46875 136.3125 C 137.203125 136.3125 135.367188 138.152344 135.367188 140.417969 C 135.367188 141.203125 135.585938 141.9375 135.972656 142.5625 L 113.609375 163.457031 L 102.34375 153.730469 C 102.722656 153.179688 102.945312 152.515625 102.945312 151.796875 C 102.945312 149.914062 101.421875 148.386719 99.539062 148.386719 C 97.65625 148.386719 96.128906 149.914062 96.128906 151.796875 C 96.128906 153.679688 97.65625 155.203125 99.539062 155.203125 C 100.050781 155.203125 100.53125 155.089844 100.96875 154.890625 L 113.609375 168.8125 L 137.0625 143.738281 C 137.738281 144.226562 138.570312 144.519531 139.46875 144.519531 C 141.730469 144.519531 143.570312 142.679688 143.570312 140.417969 C 143.570312 138.152344 141.730469 136.3125 139.46875 136.3125 " fill-opacity="1" fill-rule="nonzero"/></g><g fill="#292929" fill-opacity="1"><g transform="translate(156.901297, 205.412703)"><g><path d="M 18.234375 -28.625 L 20.765625 -28.625 L 20.765625 -21.34375 L 17.453125 -21.34375 C 15.273438 -21.34375 13.71875 -20.832031 12.78125 -19.8125 C 11.851562 -18.800781 11.390625 -17.132812 11.390625 -14.8125 L 11.390625 0 L 3.6875 0 L 3.6875 -28.46875 L 8.640625 -28.46875 L 10.015625 -24.984375 C 11.953125 -27.410156 14.691406 -28.625 18.234375 -28.625 Z M 18.234375 -28.625 "/></g></g></g><g fill="#292929" fill-opacity="1"><g transform="translate(178.885435, 205.412703)"><g><path d="M 26.9375 -28.515625 L 32.6875 -28.515625 L 32.6875 -0.046875 L 26.625 -0.046875 L 25.984375 -2.578125 C 24.753906 -1.523438 23.359375 -0.695312 21.796875 -0.09375 C 20.234375 0.5 18.554688 0.796875 16.765625 0.796875 C 13.921875 0.796875 11.375 0.140625 9.125 -1.171875 C 6.875 -2.492188 5.097656 -4.289062 3.796875 -6.5625 C 2.492188 -8.832031 1.84375 -11.40625 1.84375 -14.28125 C 1.84375 -17.132812 2.492188 -19.691406 3.796875 -21.953125 C 5.097656 -24.222656 6.875 -26.007812 9.125 -27.3125 C 11.375 -28.613281 13.921875 -29.265625 16.765625 -29.265625 C 18.585938 -29.265625 20.289062 -28.953125 21.875 -28.328125 C 23.457031 -27.710938 24.863281 -26.863281 26.09375 -25.78125 Z M 17.390625 -6.484375 C 18.867188 -6.484375 20.195312 -6.816406 21.375 -7.484375 C 22.550781 -8.148438 23.472656 -9.070312 24.140625 -10.25 C 24.804688 -11.425781 25.140625 -12.769531 25.140625 -14.28125 C 25.140625 -15.757812 24.804688 -17.085938 24.140625 -18.265625 C 23.472656 -19.441406 22.550781 -20.375 21.375 -21.0625 C 20.195312 -21.75 18.867188 -22.09375 17.390625 -22.09375 C 15.878906 -22.09375 14.546875 -21.75 13.390625 -21.0625 C 12.234375 -20.375 11.316406 -19.441406 10.640625 -18.265625 C 9.972656 -17.085938 9.640625 -15.757812 9.640625 -14.28125 C 9.640625 -12.769531 9.972656 -11.4375 10.640625 -10.28125 C 11.316406 -9.125 12.234375 -8.203125 13.390625 -7.515625 C 14.546875 -6.828125 15.878906 -6.484375 17.390625 -6.484375 Z M 17.390625 -6.484375 "/></g></g></g><g fill="#292929" fill-opacity="1"><g transform="translate(215.789253, 205.412703)"><g><path d="M 24.625 -38.75 L 32.3125 -38.75 L 32.3125 0 L 26.625 0 L 25.734375 -2.375 C 24.535156 -1.351562 23.179688 -0.5625 21.671875 0 C 20.160156 0.5625 18.539062 0.84375 16.8125 0.84375 C 13.9375 0.84375 11.363281 0.1875 9.09375 -1.125 C 6.820312 -2.445312 5.046875 -4.238281 3.765625 -6.5 C 2.484375 -8.769531 1.84375 -11.347656 1.84375 -14.234375 C 1.84375 -17.117188 2.484375 -19.691406 3.765625 -21.953125 C 5.046875 -24.222656 6.820312 -26.007812 9.09375 -27.3125 C 11.363281 -28.613281 13.9375 -29.265625 16.8125 -29.265625 C 18.257812 -29.265625 19.640625 -29.0625 20.953125 -28.65625 C 22.273438 -28.25 23.5 -27.675781 24.625 -26.9375 Z M 17.390625 -6.4375 C 18.898438 -6.4375 20.234375 -6.773438 21.390625 -7.453125 C 22.554688 -8.140625 23.484375 -9.070312 24.171875 -10.25 C 24.859375 -11.425781 25.203125 -12.753906 25.203125 -14.234375 C 25.203125 -15.710938 24.859375 -17.039062 24.171875 -18.21875 C 23.484375 -19.394531 22.554688 -20.320312 21.390625 -21 C 20.234375 -21.6875 18.898438 -22.03125 17.390625 -22.03125 C 15.921875 -22.03125 14.601562 -21.6875 13.4375 -21 C 12.28125 -20.320312 11.359375 -19.394531 10.671875 -18.21875 C 9.984375 -17.039062 9.640625 -15.710938 9.640625 -14.234375 C 9.640625 -12.753906 9.984375 -11.425781 10.671875 -10.25 C 11.359375 -9.070312 12.28125 -8.140625 13.4375 -7.453125 C 14.601562 -6.773438 15.921875 -6.4375 17.390625 -6.4375 Z M 17.390625 -6.4375 "/></g></g></g><g fill="#292929" fill-opacity="1"><g transform="translate(252.324038, 205.412703)"><g><path d="M 3.6875 -32.265625 L 3.6875 -39.4375 L 11.390625 -39.4375 L 11.390625 -32.265625 Z M 3.6875 0 L 3.6875 -28.46875 L 11.390625 -28.46875 L 11.390625 0 Z M 3.6875 0 "/></g></g></g><g fill="#292929" fill-opacity="1"><g transform="translate(267.929084, 205.412703)"><g><path d="M 17.234375 0.796875 C 14.285156 0.796875 11.648438 0.140625 9.328125 -1.171875 C 7.015625 -2.492188 5.1875 -4.289062 3.84375 -6.5625 C 2.507812 -8.832031 1.84375 -11.390625 1.84375 -14.234375 C 1.84375 -17.117188 2.507812 -19.691406 3.84375 -21.953125 C 5.1875 -24.222656 7.015625 -26.007812 9.328125 -27.3125 C 11.648438 -28.613281 14.285156 -29.265625 17.234375 -29.265625 C 20.148438 -29.265625 22.769531 -28.613281 25.09375 -27.3125 C 27.414062 -26.007812 29.242188 -24.222656 30.578125 -21.953125 C 31.910156 -19.691406 32.578125 -17.117188 32.578125 -14.234375 C 32.578125 -11.390625 31.910156 -8.832031 30.578125 -6.5625 C 29.242188 -4.289062 27.414062 -2.492188 25.09375 -1.171875 C 22.769531 0.140625 20.148438 0.796875 17.234375 0.796875 Z M 17.234375 -6.4375 C 19.453125 -6.4375 21.265625 -7.15625 22.671875 -8.59375 C 24.078125 -10.03125 24.78125 -11.910156 24.78125 -14.234375 C 24.78125 -16.554688 24.078125 -18.4375 22.671875 -19.875 C 21.265625 -21.3125 19.453125 -22.03125 17.234375 -22.03125 C 14.984375 -22.03125 13.15625 -21.3125 11.75 -19.875 C 10.34375 -18.4375 9.640625 -16.554688 9.640625 -14.234375 C 9.640625 -11.910156 10.34375 -10.03125 11.75 -8.59375 C 13.15625 -7.15625 14.984375 -6.4375 17.234375 -6.4375 Z M 17.234375 -6.4375 "/></g></g></g><g fill="#292929" fill-opacity="1"><g transform="translate(159.961693, 220.245031)"><g><path d="M 4.359375 -3.265625 C 4.648438 -3.140625 4.878906 -2.9375 5.046875 -2.65625 C 5.210938 -2.382812 5.296875 -2.078125 5.296875 -1.734375 C 5.296875 -1.410156 5.210938 -1.113281 5.046875 -0.84375 C 4.878906 -0.582031 4.648438 -0.375 4.359375 -0.21875 C 4.078125 -0.0703125 3.753906 0 3.390625 0 L 0.859375 0 L 0.859375 -6.3125 L 3.359375 -6.3125 C 3.703125 -6.3125 4.003906 -6.238281 4.265625 -6.09375 C 4.535156 -5.957031 4.742188 -5.765625 4.890625 -5.515625 C 5.046875 -5.273438 5.125 -5.003906 5.125 -4.703125 C 5.125 -4.410156 5.054688 -4.132812 4.921875 -3.875 C 4.785156 -3.613281 4.597656 -3.410156 4.359375 -3.265625 Z M 4.328125 -4.59375 C 4.328125 -4.863281 4.226562 -5.085938 4.03125 -5.265625 C 3.84375 -5.441406 3.609375 -5.53125 3.328125 -5.53125 L 1.640625 -5.53125 L 1.640625 -3.640625 L 3.34375 -3.640625 C 3.625 -3.640625 3.859375 -3.734375 4.046875 -3.921875 C 4.234375 -4.109375 4.328125 -4.332031 4.328125 -4.59375 Z M 3.375 -0.78125 C 3.6875 -0.78125 3.945312 -0.878906 4.15625 -1.078125 C 4.375 -1.273438 4.484375 -1.523438 4.484375 -1.828125 C 4.484375 -2.117188 4.375 -2.363281 4.15625 -2.5625 C 3.945312 -2.757812 3.6875 -2.859375 3.375 -2.859375 L 1.640625 -2.859375 L 1.640625 -0.78125 Z M 3.375 -0.78125 "/></g></g></g><g fill="#292929" fill-opacity="1"><g transform="translate(169.475481, 220.245031)"><g><path d="M 4.53125 0 L 3.09375 -2.46875 L 1.65625 -2.46875 L 1.65625 0 L 0.859375 0 L 0.859375 -6.3125 L 3.25 -6.3125 C 3.644531 -6.3125 4 -6.226562 4.3125 -6.0625 C 4.625 -5.894531 4.867188 -5.664062 5.046875 -5.375 C 5.222656 -5.082031 5.3125 -4.75 5.3125 -4.375 C 5.3125 -3.9375 5.179688 -3.550781 4.921875 -3.21875 C 4.671875 -2.894531 4.335938 -2.675781 3.921875 -2.5625 L 5.421875 0 Z M 1.65625 -5.5625 L 1.65625 -3.21875 L 3.21875 -3.21875 C 3.601562 -3.21875 3.910156 -3.328125 4.140625 -3.546875 C 4.378906 -3.765625 4.5 -4.046875 4.5 -4.390625 C 4.5 -4.722656 4.378906 -5 4.140625 -5.21875 C 3.910156 -5.445312 3.601562 -5.5625 3.21875 -5.5625 Z M 1.65625 -5.5625 "/></g></g></g><g fill="#292929" fill-opacity="1"><g transform="translate(178.980256, 220.245031)"><g><path d="M 3.734375 0.109375 C 3.253906 0.109375 2.8125 0.0234375 2.40625 -0.140625 C 2.007812 -0.304688 1.660156 -0.535156 1.359375 -0.828125 C 1.066406 -1.117188 0.835938 -1.460938 0.671875 -1.859375 C 0.515625 -2.253906 0.4375 -2.6875 0.4375 -3.15625 C 0.4375 -3.613281 0.515625 -4.039062 0.671875 -4.4375 C 0.835938 -4.84375 1.066406 -5.191406 1.359375 -5.484375 C 1.660156 -5.773438 2.007812 -6.003906 2.40625 -6.171875 C 2.8125 -6.335938 3.253906 -6.421875 3.734375 -6.421875 C 4.210938 -6.421875 4.648438 -6.335938 5.046875 -6.171875 C 5.453125 -6.003906 5.800781 -5.773438 6.09375 -5.484375 C 6.394531 -5.191406 6.628906 -4.847656 6.796875 -4.453125 C 6.960938 -4.054688 7.046875 -3.625 7.046875 -3.15625 C 7.046875 -2.6875 6.960938 -2.253906 6.796875 -1.859375 C 6.628906 -1.460938 6.394531 -1.117188 6.09375 -0.828125 C 5.800781 -0.535156 5.453125 -0.304688 5.046875 -0.140625 C 4.648438 0.0234375 4.210938 0.109375 3.734375 0.109375 Z M 3.734375 -0.671875 C 4.210938 -0.671875 4.640625 -0.773438 5.015625 -0.984375 C 5.390625 -1.203125 5.6875 -1.5 5.90625 -1.875 C 6.125 -2.25 6.234375 -2.675781 6.234375 -3.15625 C 6.234375 -3.632812 6.125 -4.0625 5.90625 -4.4375 C 5.6875 -4.8125 5.390625 -5.101562 5.015625 -5.3125 C 4.640625 -5.53125 4.210938 -5.640625 3.734375 -5.640625 C 3.253906 -5.640625 2.828125 -5.53125 2.453125 -5.3125 C 2.078125 -5.09375 1.78125 -4.796875 1.5625 -4.421875 C 1.351562 -4.046875 1.25 -3.625 1.25 -3.15625 C 1.25 -2.675781 1.351562 -2.25 1.5625 -1.875 C 1.78125 -1.507812 2.078125 -1.21875 2.453125 -1 C 2.828125 -0.78125 3.253906 -0.671875 3.734375 -0.671875 Z M 3.734375 -0.671875 "/></g></g></g><g fill="#292929" fill-opacity="1"><g transform="translate(190.153333, 220.245031)"><g><path d="M 5.28125 0 L 4.640625 -1.515625 L 1.609375 -1.515625 L 0.984375 0 L 0.15625 0 L 2.734375 -6.3125 L 3.46875 -6.3125 L 6.125 0 Z M 3.125 -5.21875 L 1.90625 -2.234375 L 4.34375 -2.234375 Z M 3.125 -5.21875 "/></g></g></g><g fill="#292929" fill-opacity="1"><g transform="translate(200.13605, 220.245031)"><g><path d="M 2.96875 -6.3125 C 3.425781 -6.3125 3.847656 -6.234375 4.234375 -6.078125 C 4.628906 -5.921875 4.96875 -5.703125 5.25 -5.421875 C 5.539062 -5.140625 5.765625 -4.804688 5.921875 -4.421875 C 6.085938 -4.035156 6.171875 -3.613281 6.171875 -3.15625 C 6.171875 -2.695312 6.085938 -2.273438 5.921875 -1.890625 C 5.765625 -1.503906 5.539062 -1.171875 5.25 -0.890625 C 4.96875 -0.609375 4.628906 -0.390625 4.234375 -0.234375 C 3.847656 -0.078125 3.425781 0 2.96875 0 L 0.859375 0 L 0.859375 -6.3125 Z M 2.9375 -0.734375 C 3.414062 -0.734375 3.832031 -0.835938 4.1875 -1.046875 C 4.550781 -1.265625 4.835938 -1.554688 5.046875 -1.921875 C 5.253906 -2.285156 5.359375 -2.695312 5.359375 -3.15625 C 5.359375 -3.625 5.253906 -4.035156 5.046875 -4.390625 C 4.835938 -4.753906 4.550781 -5.039062 4.1875 -5.25 C 3.832031 -5.46875 3.414062 -5.578125 2.9375 -5.578125 L 1.65625 -5.578125 L 1.65625 -0.734375 Z M 2.9375 -0.734375 "/></g></g></g><g fill="#292929" fill-opacity="1"><g transform="translate(210.443411, 220.245031)"><g><path d="M 3.671875 0.09375 C 3.203125 0.09375 2.769531 0.015625 2.375 -0.140625 C 1.976562 -0.296875 1.632812 -0.519531 1.34375 -0.8125 C 1.050781 -1.101562 0.828125 -1.445312 0.671875 -1.84375 C 0.515625 -2.238281 0.4375 -2.675781 0.4375 -3.15625 C 0.4375 -3.632812 0.515625 -4.070312 0.671875 -4.46875 C 0.828125 -4.863281 1.050781 -5.207031 1.34375 -5.5 C 1.632812 -5.789062 1.976562 -6.015625 2.375 -6.171875 C 2.769531 -6.328125 3.203125 -6.40625 3.671875 -6.40625 C 4.160156 -6.40625 4.601562 -6.3125 5 -6.125 C 5.40625 -5.945312 5.75 -5.691406 6.03125 -5.359375 C 6.320312 -5.023438 6.53125 -4.628906 6.65625 -4.171875 L 5.84375 -4.171875 C 5.675781 -4.628906 5.398438 -4.988281 5.015625 -5.25 C 4.628906 -5.507812 4.179688 -5.640625 3.671875 -5.640625 C 3.203125 -5.640625 2.78125 -5.53125 2.40625 -5.3125 C 2.039062 -5.101562 1.753906 -4.8125 1.546875 -4.4375 C 1.347656 -4.0625 1.25 -3.632812 1.25 -3.15625 C 1.25 -2.664062 1.347656 -2.234375 1.546875 -1.859375 C 1.753906 -1.492188 2.039062 -1.203125 2.40625 -0.984375 C 2.78125 -0.773438 3.203125 -0.671875 3.671875 -0.671875 C 4.203125 -0.671875 4.660156 -0.804688 5.046875 -1.078125 C 5.441406 -1.359375 5.71875 -1.742188 5.875 -2.234375 L 6.6875 -2.234375 C 6.570312 -1.753906 6.367188 -1.335938 6.078125 -0.984375 C 5.785156 -0.640625 5.429688 -0.375 5.015625 -0.1875 C 4.609375 0 4.160156 0.09375 3.671875 0.09375 Z M 3.671875 0.09375 "/></g></g></g><g fill="#292929" fill-opacity="1"><g transform="translate(221.138542, 220.245031)"><g><path d="M 5.28125 0 L 4.640625 -1.515625 L 1.609375 -1.515625 L 0.984375 0 L 0.15625 0 L 2.734375 -6.3125 L 3.46875 -6.3125 L 6.125 0 Z M 3.125 -5.21875 L 1.90625 -2.234375 L 4.34375 -2.234375 Z M 3.125 -5.21875 "/></g></g></g><g fill="#292929" fill-opacity="1"><g transform="translate(231.121259, 220.245031)"><g><path d="M 2.734375 0.078125 C 2.273438 0.078125 1.867188 -0.00390625 1.515625 -0.171875 C 1.171875 -0.335938 0.898438 -0.570312 0.703125 -0.875 C 0.515625 -1.175781 0.421875 -1.535156 0.421875 -1.953125 L 1.21875 -1.953125 C 1.21875 -1.554688 1.359375 -1.242188 1.640625 -1.015625 C 1.929688 -0.796875 2.296875 -0.6875 2.734375 -0.6875 C 2.992188 -0.6875 3.234375 -0.726562 3.453125 -0.8125 C 3.671875 -0.90625 3.84375 -1.035156 3.96875 -1.203125 C 4.09375 -1.367188 4.15625 -1.5625 4.15625 -1.78125 C 4.15625 -2.03125 4.082031 -2.222656 3.9375 -2.359375 C 3.789062 -2.492188 3.597656 -2.597656 3.359375 -2.671875 C 3.117188 -2.753906 2.863281 -2.828125 2.59375 -2.890625 C 2.34375 -2.941406 2.097656 -3.003906 1.859375 -3.078125 C 1.617188 -3.148438 1.394531 -3.25 1.1875 -3.375 C 0.988281 -3.5 0.828125 -3.660156 0.703125 -3.859375 C 0.585938 -4.066406 0.53125 -4.328125 0.53125 -4.640625 C 0.53125 -5.179688 0.722656 -5.609375 1.109375 -5.921875 C 1.503906 -6.234375 2.023438 -6.390625 2.671875 -6.390625 C 3.328125 -6.390625 3.84375 -6.21875 4.21875 -5.875 C 4.59375 -5.539062 4.78125 -5.09375 4.78125 -4.53125 L 4 -4.53125 C 4 -4.875 3.875 -5.144531 3.625 -5.34375 C 3.375 -5.539062 3.054688 -5.640625 2.671875 -5.640625 C 2.285156 -5.640625 1.960938 -5.550781 1.703125 -5.375 C 1.453125 -5.207031 1.328125 -4.972656 1.328125 -4.671875 C 1.328125 -4.429688 1.398438 -4.25 1.546875 -4.125 C 1.691406 -4 1.878906 -3.894531 2.109375 -3.8125 C 2.335938 -3.738281 2.585938 -3.671875 2.859375 -3.609375 C 3.109375 -3.554688 3.351562 -3.488281 3.59375 -3.40625 C 3.84375 -3.332031 4.070312 -3.226562 4.28125 -3.09375 C 4.488281 -2.96875 4.65625 -2.800781 4.78125 -2.59375 C 4.90625 -2.382812 4.96875 -2.117188 4.96875 -1.796875 C 4.96875 -1.398438 4.867188 -1.0625 4.671875 -0.78125 C 4.472656 -0.5 4.207031 -0.285156 3.875 -0.140625 C 3.539062 0.00390625 3.160156 0.078125 2.734375 0.078125 Z M 2.734375 0.078125 "/></g></g></g><g fill="#292929" fill-opacity="1"><g transform="translate(240.202189, 220.245031)"><g><path d="M 4.828125 -6.3125 L 4.828125 -5.578125 L 2.90625 -5.578125 L 2.90625 0 L 2.109375 0 L 2.109375 -5.578125 L 0.1875 -5.578125 L 0.1875 -6.3125 Z M 4.828125 -6.3125 "/></g></g></g><g fill="#292929" fill-opacity="1"><g transform="translate(248.913388, 220.245031)"><g><path d="M 0.859375 0 L 0.859375 -6.3125 L 1.65625 -6.3125 L 1.65625 0 Z M 0.859375 0 "/></g></g></g><g fill="#292929" fill-opacity="1"><g transform="translate(255.126648, 220.245031)"><g><path d="M 5.125 -6.3125 L 5.890625 -6.3125 L 5.890625 0 L 5.234375 0 L 1.625 -4.921875 L 1.625 0 L 0.859375 0 L 0.859375 -6.3125 L 1.578125 -6.3125 L 5.125 -1.4375 Z M 5.125 -6.3125 "/></g></g></g><g fill="#292929" fill-opacity="1"><g transform="translate(265.578301, 220.245031)"><g><path d="M 3.40625 -3.125 L 6.78125 -3.125 C 6.769531 -2.5 6.628906 -1.941406 6.359375 -1.453125 C 6.085938 -0.960938 5.71875 -0.578125 5.25 -0.296875 C 4.78125 -0.0234375 4.242188 0.109375 3.640625 0.109375 C 3.171875 0.109375 2.738281 0.03125 2.34375 -0.125 C 1.957031 -0.289062 1.617188 -0.519531 1.328125 -0.8125 C 1.046875 -1.113281 0.828125 -1.460938 0.671875 -1.859375 C 0.515625 -2.253906 0.4375 -2.6875 0.4375 -3.15625 C 0.4375 -3.625 0.515625 -4.054688 0.671875 -4.453125 C 0.828125 -4.847656 1.046875 -5.191406 1.328125 -5.484375 C 1.617188 -5.773438 1.957031 -6 2.34375 -6.15625 C 2.738281 -6.320312 3.160156 -6.40625 3.609375 -6.40625 C 4.117188 -6.40625 4.585938 -6.304688 5.015625 -6.109375 C 5.453125 -5.910156 5.816406 -5.640625 6.109375 -5.296875 C 6.398438 -4.953125 6.59375 -4.554688 6.6875 -4.109375 L 5.875 -4.109375 C 5.789062 -4.410156 5.632812 -4.675781 5.40625 -4.90625 C 5.1875 -5.132812 4.925781 -5.3125 4.625 -5.4375 C 4.320312 -5.570312 3.992188 -5.640625 3.640625 -5.640625 C 3.171875 -5.640625 2.753906 -5.53125 2.390625 -5.3125 C 2.035156 -5.101562 1.753906 -4.8125 1.546875 -4.4375 C 1.347656 -4.0625 1.25 -3.632812 1.25 -3.15625 C 1.25 -2.664062 1.347656 -2.234375 1.546875 -1.859375 C 1.742188 -1.484375 2.019531 -1.191406 2.375 -0.984375 C 2.738281 -0.773438 3.160156 -0.671875 3.640625 -0.671875 C 4.023438 -0.671875 4.375 -0.738281 4.6875 -0.875 C 5.007812 -1.019531 5.273438 -1.21875 5.484375 -1.46875 C 5.703125 -1.726562 5.851562 -2.03125 5.9375 -2.375 L 3.40625 -2.375 Z M 3.40625 -3.125 "/></g></g></g></svg>