<svg xmlns="http://www.w3.org/2000/svg" xmlns:xlink="http://www.w3.org/1999/xlink" width="500" zoomAndPan="magnify" viewBox="0 0 375 374.999991" height="500" preserveAspectRatio="xMidYMid meet" version="1.0"><defs><g/><clipPath id="f3d28dcdda"><path d="M 105.632812 133.113281 L 243 133.113281 L 243 191 L 105.632812 191 Z M 105.632812 133.113281 " clip-rule="nonzero"/></clipPath><clipPath id="46650d50f1"><path d="M 226 192 L 243.632812 192 L 243.632812 201 L 226 201 Z M 226 192 " clip-rule="nonzero"/></clipPath></defs><g clip-path="url(#f3d28dcdda)"><path fill="#34353a" d="M 200.300781 173.007812 C 191.933594 171.671875 183.976562 168.386719 181.496094 159.804688 C 179.988281 154.585938 178.945312 145 184.496094 141.609375 C 188.914062 138.910156 195.234375 139.605469 200.167969 139.59375 C 208.429688 139.574219 216.6875 140.78125 224.59375 143.167969 C 228.519531 144.351562 231.722656 145.4375 234.445312 147.71875 C 235.023438 148.203125 236.269531 149.363281 237.503906 151.117188 C 239.847656 154.449219 240.761719 158.035156 241.148438 160.378906 C 241.226562 162.203125 241.335938 166.261719 239.3125 169.8125 C 238.789062 170.722656 238.167969 171.550781 237.253906 172.226562 C 235.789062 173.308594 233.972656 173.707031 231.84375 173.769531 C 221.519531 174.078125 210.53125 174.640625 200.300781 173.007812 Z M 239.5 187.367188 C 241.433594 185.453125 241.878906 182.890625 242.136719 178.859375 C 242.761719 169.003906 241.746094 161.273438 241.300781 159.699219 C 241.132812 158.347656 240.855469 156.617188 240.410156 154.589844 C 239.632812 151.070312 238.066406 147.167969 237.191406 144.246094 C 235.183594 137.519531 219.054688 136.488281 212.960938 135.414062 C 200.636719 133.246094 191.425781 133.113281 187.351562 133.144531 C 182.515625 133.183594 179.53125 133.484375 177.300781 133.792969 C 171.671875 134.574219 167.242188 135.910156 163.035156 137.359375 C 151.484375 141.34375 142.554688 145.90625 140.769531 146.804688 C 118.523438 158.03125 105.757812 166.136719 105.980469 166.535156 C 106.183594 166.898438 116.644531 159.796875 131.914062 158.433594 C 135.179688 158.140625 142.925781 157.449219 143.910156 160.050781 C 145.308594 163.75 132.179688 171.695312 131.589844 172.046875 C 124.296875 176.410156 117.726562 178.113281 115.890625 178.464844 C 119.175781 178.152344 137.628906 176.582031 149.097656 163.941406 C 151.628906 161.148438 154.785156 156.757812 158.820312 157.136719 C 160.730469 157.3125 162.410156 158.527344 166.601562 163.941406 C 173.140625 172.390625 175.921875 178.390625 176.328125 178.207031 C 176.800781 177.992188 174.578125 169.207031 168.546875 160.375 C 164.210938 154.027344 159.320312 149.734375 155.753906 147.050781 C 158.058594 145.902344 161.410156 144.546875 165.628906 143.84375 C 168.347656 143.390625 170.796875 143.308594 172.839844 143.394531 C 171.613281 143.910156 170.753906 145.121094 170.753906 146.535156 L 170.753906 159.910156 C 170.753906 161.789062 172.277344 163.316406 174.15625 163.316406 C 175.15625 163.316406 176.054688 162.882812 176.675781 162.199219 C 177.09375 165.910156 177.527344 169.621094 177.976562 173.328125 C 178.488281 177.546875 179.019531 181.769531 179.570312 185.984375 C 180.085938 189.988281 199.5 189.59375 202.1875 189.714844 C 212.074219 190.144531 221.984375 190.140625 231.871094 189.699219 C 235.722656 189.527344 238.042969 188.8125 239.5 187.367188 " fill-opacity="1" fill-rule="nonzero"/></g><path fill="#34353a" d="M 115.382812 178.53125 C 115.386719 178.546875 115.566406 178.527344 115.890625 178.464844 C 115.554688 178.496094 115.378906 178.515625 115.382812 178.53125 " fill-opacity="1" fill-rule="nonzero"/><path fill="#34353a" d="M 201.019531 194.371094 C 200.878906 193.941406 200.484375 193.644531 200.035156 193.617188 C 194.59375 193.320312 189.445312 192.855469 184.621094 192.273438 C 182.609375 192.03125 180.835938 193.597656 180.835938 195.625 L 180.835938 196.433594 C 180.835938 198.167969 182.144531 199.617188 183.867188 199.792969 C 189.398438 200.359375 195.34375 200.78125 201.652344 200.980469 C 202.417969 201.003906 202.976562 200.261719 202.734375 199.535156 L 201.019531 194.371094 " fill-opacity="1" fill-rule="nonzero"/><g clip-path="url(#46650d50f1)"><path fill="#34353a" d="M 243.609375 195.707031 C 243.609375 195.683594 243.605469 195.660156 243.605469 195.636719 C 243.511719 193.691406 241.792969 192.222656 239.855469 192.445312 C 236.324219 192.847656 232.613281 193.191406 228.738281 193.449219 C 228.253906 193.480469 227.84375 193.828125 227.738281 194.304688 L 226.664062 199.125 C 226.503906 199.84375 227.082031 200.511719 227.816406 200.460938 C 232.304688 200.140625 236.589844 199.714844 240.648438 199.21875 C 242.40625 199.003906 243.695312 197.472656 243.609375 195.707031 " fill-opacity="1" fill-rule="nonzero"/></g><path fill="#34353a" d="M 228.980469 149.554688 L 195.265625 165.441406 C 195.265625 165.441406 206.289062 161.226562 228.980469 149.554688 " fill-opacity="1" fill-rule="nonzero"/><path fill="#34353a" d="M 190.195312 165.441406 C 190.195312 165.441406 201.21875 161.226562 223.910156 149.554688 L 190.195312 165.441406 " fill-opacity="1" fill-rule="nonzero"/><g fill="#34353a" fill-opacity="1"><g transform="translate(59.234144, 235.484399)"><g><path d="M 12.375 0.53125 C 10.15625 0.53125 8.25 0.164062 6.65625 -0.5625 C 5.0625 -1.289062 3.828125 -2.328125 2.953125 -3.671875 C 2.085938 -5.023438 1.65625 -6.601562 1.65625 -8.40625 L 7.546875 -8.40625 C 7.546875 -7.15625 7.976562 -6.175781 8.84375 -5.46875 C 9.707031 -4.757812 10.867188 -4.40625 12.328125 -4.40625 C 13.585938 -4.40625 14.582031 -4.648438 15.3125 -5.140625 C 16.039062 -5.640625 16.40625 -6.328125 16.40625 -7.203125 C 16.40625 -8.128906 15.960938 -8.878906 15.078125 -9.453125 C 14.203125 -10.035156 12.832031 -10.53125 10.96875 -10.9375 C 7.882812 -11.59375 5.597656 -12.585938 4.109375 -13.921875 C 2.628906 -15.253906 1.890625 -16.988281 1.890625 -19.125 C 1.890625 -21.539062 2.769531 -23.445312 4.53125 -24.84375 C 6.289062 -26.238281 8.691406 -26.9375 11.734375 -26.9375 C 13.816406 -26.9375 15.625 -26.578125 17.15625 -25.859375 C 18.695312 -25.140625 19.882812 -24.128906 20.71875 -22.828125 C 21.5625 -21.535156 21.984375 -20 21.984375 -18.21875 L 16.21875 -18.21875 C 16.21875 -19.394531 15.828125 -20.320312 15.046875 -21 C 14.265625 -21.6875 13.1875 -22.03125 11.8125 -22.03125 C 10.550781 -22.03125 9.554688 -21.785156 8.828125 -21.296875 C 8.097656 -20.804688 7.734375 -20.117188 7.734375 -19.234375 C 7.734375 -18.429688 8.132812 -17.753906 8.9375 -17.203125 C 9.738281 -16.648438 11.144531 -16.132812 13.15625 -15.65625 C 16.457031 -14.875 18.835938 -13.828125 20.296875 -12.515625 C 21.753906 -11.210938 22.484375 -9.519531 22.484375 -7.4375 C 22.484375 -4.945312 21.582031 -2.992188 19.78125 -1.578125 C 17.988281 -0.171875 15.519531 0.53125 12.375 0.53125 Z M 12.375 0.53125 "/></g></g></g><g fill="#34353a" fill-opacity="1"><g transform="translate(83.414318, 235.484399)"><g><path d="M 9.46875 0.375 C 7.125 0.375 5.273438 -0.171875 3.921875 -1.265625 C 2.566406 -2.359375 1.890625 -3.859375 1.890625 -5.765625 C 1.890625 -7.609375 2.5 -9.078125 3.71875 -10.171875 C 4.9375 -11.265625 6.578125 -11.8125 8.640625 -11.8125 L 15.796875 -11.8125 L 15.796875 -12.71875 C 15.796875 -13.695312 15.441406 -14.476562 14.734375 -15.0625 C 14.035156 -15.65625 13.125 -15.953125 12 -15.953125 C 11.0625 -15.953125 10.265625 -15.738281 9.609375 -15.3125 C 8.960938 -14.882812 8.550781 -14.316406 8.375 -13.609375 L 2.859375 -13.609375 C 3.210938 -15.773438 4.1875 -17.4375 5.78125 -18.59375 C 7.382812 -19.75 9.441406 -20.328125 11.953125 -20.328125 C 14.921875 -20.328125 17.238281 -19.578125 18.90625 -18.078125 C 20.582031 -16.585938 21.421875 -14.535156 21.421875 -11.921875 L 21.421875 0 L 17.15625 0 L 16.515625 -2.296875 C 14.785156 -0.515625 12.4375 0.375 9.46875 0.375 Z M 7.546875 -6 C 7.546875 -5.320312 7.835938 -4.773438 8.421875 -4.359375 C 9.015625 -3.941406 9.800781 -3.734375 10.78125 -3.734375 C 12.21875 -3.734375 13.40625 -4.144531 14.34375 -4.96875 C 15.289062 -5.800781 15.789062 -6.882812 15.84375 -8.21875 L 10.40625 -8.21875 C 9.550781 -8.21875 8.859375 -8.015625 8.328125 -7.609375 C 7.804688 -7.210938 7.546875 -6.675781 7.546875 -6 Z M 7.546875 -6 "/></g></g></g><g fill="#34353a" fill-opacity="1"><g transform="translate(107.330442, 235.484399)"><g><path d="M 2.859375 0 L 2.859375 -27.90625 L 8.59375 -27.90625 L 8.59375 0 Z M 2.859375 0 "/></g></g></g><g fill="#34353a" fill-opacity="1"><g transform="translate(118.798108, 235.484399)"><g><path d="M 4.828125 -21.390625 C 4.828125 -23.722656 5.460938 -25.507812 6.734375 -26.75 C 8.003906 -28 9.820312 -28.625 12.1875 -28.625 L 16.5625 -28.625 L 16.5625 -24.109375 L 13.421875 -24.109375 C 12.390625 -24.109375 11.632812 -23.859375 11.15625 -23.359375 C 10.6875 -22.867188 10.453125 -22.109375 10.453125 -21.078125 L 10.453125 -19.796875 L 16.375 -19.796875 L 16.375 -15.125 L 10.5625 -15.125 L 10.5625 0 L 4.828125 0 L 4.828125 -15.125 L 0.875 -15.125 L 0.875 -19.796875 L 4.828125 -19.796875 Z M 4.828125 -21.390625 "/></g></g></g><g fill="#34353a" fill-opacity="1"><g transform="translate(135.735546, 235.484399)"><g><path d="M 12.59375 0.53125 C 10.40625 0.53125 8.472656 0.09375 6.796875 -0.78125 C 5.128906 -1.664062 3.820312 -2.894531 2.875 -4.46875 C 1.9375 -6.039062 1.46875 -7.859375 1.46875 -9.921875 C 1.46875 -11.984375 1.9375 -13.789062 2.875 -15.34375 C 3.820312 -16.90625 5.128906 -18.125 6.796875 -19 C 8.472656 -19.882812 10.40625 -20.328125 12.59375 -20.328125 C 14.78125 -20.328125 16.707031 -19.882812 18.375 -19 C 20.050781 -18.125 21.351562 -16.90625 22.28125 -15.34375 C 23.21875 -13.789062 23.6875 -11.984375 23.6875 -9.921875 C 23.6875 -7.859375 23.21875 -6.039062 22.28125 -4.46875 C 21.351562 -2.894531 20.050781 -1.664062 18.375 -0.78125 C 16.707031 0.09375 14.78125 0.53125 12.59375 0.53125 Z M 7.125 -9.921875 C 7.125 -8.304688 7.632812 -6.984375 8.65625 -5.953125 C 9.675781 -4.921875 10.988281 -4.40625 12.59375 -4.40625 C 14.207031 -4.40625 15.515625 -4.921875 16.515625 -5.953125 C 17.523438 -6.984375 18.03125 -8.304688 18.03125 -9.921875 C 18.03125 -11.554688 17.523438 -12.878906 16.515625 -13.890625 C 15.515625 -14.910156 14.207031 -15.421875 12.59375 -15.421875 C 10.988281 -15.421875 9.675781 -14.910156 8.65625 -13.890625 C 7.632812 -12.878906 7.125 -11.554688 7.125 -9.921875 Z M 7.125 -9.921875 "/></g></g></g><g fill="#34353a" fill-opacity="1"><g transform="translate(160.896513, 235.484399)"><g><path d="M 2.859375 0 L 2.859375 -19.796875 L 7.125 -19.796875 L 7.890625 -17.15625 C 8.535156 -18.09375 9.335938 -18.765625 10.296875 -19.171875 C 11.253906 -19.585938 12.460938 -19.796875 13.921875 -19.796875 L 16.0625 -19.796875 L 16.0625 -14.59375 L 13.875 -14.59375 C 12.238281 -14.59375 10.945312 -14.148438 10 -13.265625 C 9.0625 -12.390625 8.59375 -10.882812 8.59375 -8.75 L 8.59375 0 Z M 2.859375 0 "/></g></g></g><g fill="#34353a" fill-opacity="1"><g transform="translate(178.248901, 235.484399)"><g><path d="M 11.546875 0.53125 C 9.578125 0.53125 7.835938 0.0820312 6.328125 -0.8125 C 4.828125 -1.707031 3.640625 -2.9375 2.765625 -4.5 C 1.898438 -6.070312 1.46875 -7.878906 1.46875 -9.921875 C 1.46875 -11.953125 1.898438 -13.75 2.765625 -15.3125 C 3.640625 -16.875 4.828125 -18.097656 6.328125 -18.984375 C 7.835938 -19.878906 9.578125 -20.328125 11.546875 -20.328125 C 12.773438 -20.328125 13.914062 -20.144531 14.96875 -19.78125 C 16.03125 -19.414062 16.988281 -18.90625 17.84375 -18.25 L 17.84375 -27.90625 L 23.578125 -27.90625 L 23.578125 0 L 19.3125 0 L 18.640625 -2.265625 C 17.753906 -1.378906 16.707031 -0.691406 15.5 -0.203125 C 14.289062 0.285156 12.972656 0.53125 11.546875 0.53125 Z M 7.125 -9.921875 C 7.125 -8.304688 7.632812 -6.984375 8.65625 -5.953125 C 9.675781 -4.921875 10.988281 -4.40625 12.59375 -4.40625 C 14.207031 -4.40625 15.515625 -4.921875 16.515625 -5.953125 C 17.523438 -6.984375 18.03125 -8.304688 18.03125 -9.921875 C 18.03125 -11.523438 17.523438 -12.84375 16.515625 -13.875 C 15.515625 -14.90625 14.207031 -15.421875 12.59375 -15.421875 C 10.988281 -15.421875 9.675781 -14.90625 8.65625 -13.875 C 7.632812 -12.84375 7.125 -11.523438 7.125 -9.921875 Z M 7.125 -9.921875 "/></g></g></g><g fill="#34353a" fill-opacity="1"><g transform="translate(204.692431, 235.484399)"><g/></g></g><g fill="#34353a" fill-opacity="1"><g transform="translate(213.557241, 235.484399)"><g><path d="M 11.203125 0.53125 C 8.210938 0.53125 5.835938 -0.128906 4.078125 -1.453125 C 2.316406 -2.773438 1.4375 -4.566406 1.4375 -6.828125 C 1.4375 -9.890625 3.09375 -12.300781 6.40625 -14.0625 C 5.40625 -15.21875 4.664062 -16.285156 4.1875 -17.265625 C 3.707031 -18.253906 3.46875 -19.265625 3.46875 -20.296875 C 3.46875 -21.628906 3.816406 -22.789062 4.515625 -23.78125 C 5.222656 -24.769531 6.21875 -25.539062 7.5 -26.09375 C 8.789062 -26.65625 10.273438 -26.9375 11.953125 -26.9375 C 13.691406 -26.9375 15.203125 -26.644531 16.484375 -26.0625 C 17.765625 -25.488281 18.765625 -24.675781 19.484375 -23.625 C 20.203125 -22.582031 20.5625 -21.359375 20.5625 -19.953125 C 20.5625 -16.679688 18.625 -14.164062 14.75 -12.40625 L 18.59375 -8.375 C 19.269531 -9.65625 19.625 -11.101562 19.65625 -12.71875 L 24.59375 -12.71875 C 24.570312 -11.15625 24.34375 -9.703125 23.90625 -8.359375 C 23.476562 -7.015625 22.890625 -5.800781 22.140625 -4.71875 L 26.625 0 L 20.296875 0 L 18.78125 -1.546875 C 17.75 -0.890625 16.597656 -0.378906 15.328125 -0.015625 C 14.054688 0.347656 12.679688 0.53125 11.203125 0.53125 Z M 7.046875 -7.203125 C 7.046875 -6.273438 7.421875 -5.539062 8.171875 -5 C 8.929688 -4.457031 10.003906 -4.1875 11.390625 -4.1875 C 12.742188 -4.1875 14 -4.460938 15.15625 -5.015625 L 9.734375 -10.5625 C 7.941406 -9.726562 7.046875 -8.609375 7.046875 -7.203125 Z M 8.859375 -19.953125 C 8.859375 -19.472656 9.035156 -18.941406 9.390625 -18.359375 C 9.742188 -17.785156 10.410156 -16.984375 11.390625 -15.953125 C 12.703125 -16.453125 13.65625 -17.007812 14.25 -17.625 C 14.851562 -18.25 15.15625 -18.953125 15.15625 -19.734375 C 15.15625 -20.535156 14.863281 -21.15625 14.28125 -21.59375 C 13.707031 -22.03125 12.921875 -22.25 11.921875 -22.25 C 10.992188 -22.25 10.25 -22.046875 9.6875 -21.640625 C 9.132812 -21.242188 8.859375 -20.679688 8.859375 -19.953125 Z M 8.859375 -19.953125 "/></g></g></g><g fill="#34353a" fill-opacity="1"><g transform="translate(241.207893, 235.484399)"><g/></g></g><g fill="#34353a" fill-opacity="1"><g transform="translate(250.072703, 235.484399)"><g><path d="M 15.28125 0.53125 C 12.613281 0.53125 10.25 -0.0507812 8.1875 -1.21875 C 6.125 -2.394531 4.515625 -4.015625 3.359375 -6.078125 C 2.203125 -8.140625 1.625 -10.515625 1.625 -13.203125 C 1.625 -15.890625 2.203125 -18.265625 3.359375 -20.328125 C 4.515625 -22.390625 6.113281 -24.003906 8.15625 -25.171875 C 10.207031 -26.347656 12.566406 -26.9375 15.234375 -26.9375 C 17.472656 -26.9375 19.519531 -26.503906 21.375 -25.640625 C 23.238281 -24.785156 24.804688 -23.578125 26.078125 -22.015625 C 27.347656 -20.460938 28.234375 -18.628906 28.734375 -16.515625 L 22.5625 -16.515625 C 22.050781 -17.972656 21.15625 -19.125 19.875 -19.96875 C 18.59375 -20.8125 17.109375 -21.234375 15.421875 -21.234375 C 13.941406 -21.234375 12.613281 -20.894531 11.4375 -20.21875 C 10.269531 -19.539062 9.359375 -18.597656 8.703125 -17.390625 C 8.054688 -16.179688 7.734375 -14.785156 7.734375 -13.203125 C 7.734375 -11.617188 8.054688 -10.222656 8.703125 -9.015625 C 9.359375 -7.804688 10.265625 -6.863281 11.421875 -6.1875 C 12.578125 -5.507812 13.898438 -5.171875 15.390625 -5.171875 C 17.117188 -5.171875 18.640625 -5.613281 19.953125 -6.5 C 21.265625 -7.394531 22.195312 -8.597656 22.75 -10.109375 L 28.9375 -10.109375 C 28.507812 -7.972656 27.648438 -6.101562 26.359375 -4.5 C 25.078125 -2.90625 23.488281 -1.664062 21.59375 -0.78125 C 19.695312 0.09375 17.59375 0.53125 15.28125 0.53125 Z M 15.28125 0.53125 "/></g></g></g><g fill="#34353a" fill-opacity="1"><g transform="translate(280.514843, 235.484399)"><g><path d="M 12.59375 0.53125 C 10.40625 0.53125 8.472656 0.09375 6.796875 -0.78125 C 5.128906 -1.664062 3.820312 -2.894531 2.875 -4.46875 C 1.9375 -6.039062 1.46875 -7.859375 1.46875 -9.921875 C 1.46875 -11.984375 1.9375 -13.789062 2.875 -15.34375 C 3.820312 -16.90625 5.128906 -18.125 6.796875 -19 C 8.472656 -19.882812 10.40625 -20.328125 12.59375 -20.328125 C 14.78125 -20.328125 16.707031 -19.882812 18.375 -19 C 20.050781 -18.125 21.351562 -16.90625 22.28125 -15.34375 C 23.21875 -13.789062 23.6875 -11.984375 23.6875 -9.921875 C 23.6875 -7.859375 23.21875 -6.039062 22.28125 -4.46875 C 21.351562 -2.894531 20.050781 -1.664062 18.375 -0.78125 C 16.707031 0.09375 14.78125 0.53125 12.59375 0.53125 Z M 7.125 -9.921875 C 7.125 -8.304688 7.632812 -6.984375 8.65625 -5.953125 C 9.675781 -4.921875 10.988281 -4.40625 12.59375 -4.40625 C 14.207031 -4.40625 15.515625 -4.921875 16.515625 -5.953125 C 17.523438 -6.984375 18.03125 -8.304688 18.03125 -9.921875 C 18.03125 -11.554688 17.523438 -12.878906 16.515625 -13.890625 C 15.515625 -14.910156 14.207031 -15.421875 12.59375 -15.421875 C 10.988281 -15.421875 9.675781 -14.910156 8.65625 -13.890625 C 7.632812 -12.878906 7.125 -11.554688 7.125 -9.921875 Z M 7.125 -9.921875 "/></g></g></g><g fill="#34353a" fill-opacity="1"><g transform="translate(305.675822, 235.484399)"><g><path d="M 5.046875 0.421875 C 4.023438 0.421875 3.1875 0.0976562 2.53125 -0.546875 C 1.875 -1.191406 1.546875 -2.003906 1.546875 -2.984375 C 1.546875 -3.960938 1.875 -4.773438 2.53125 -5.421875 C 3.1875 -6.078125 4.023438 -6.40625 5.046875 -6.40625 C 6.078125 -6.40625 6.921875 -6.078125 7.578125 -5.421875 C 8.234375 -4.773438 8.5625 -3.960938 8.5625 -2.984375 C 8.5625 -2.003906 8.234375 -1.191406 7.578125 -0.546875 C 6.921875 0.0976562 6.078125 0.421875 5.046875 0.421875 Z M 5.046875 0.421875 "/></g></g></g><g fill="#34353a" fill-opacity="1"><g transform="translate(101.675697, 257.314006)"><g><path d="M 4.453125 0 L 3.671875 0 L 3.671875 -10.359375 L 0.078125 -10.359375 L 0.078125 -11.09375 L 8.0625 -11.09375 L 8.0625 -10.359375 L 4.453125 -10.359375 Z M 4.453125 0 "/></g></g><g transform="translate(109.815152, 257.314006)"><g><path d="M 4.625 -8.40625 C 4.976562 -8.40625 5.351562 -8.367188 5.75 -8.296875 L 5.609375 -7.578125 C 5.265625 -7.660156 4.90625 -7.703125 4.53125 -7.703125 C 3.832031 -7.703125 3.253906 -7.40625 2.796875 -6.8125 C 2.347656 -6.21875 2.125 -5.460938 2.125 -4.546875 L 2.125 0 L 1.375 0 L 1.375 -8.25 L 2.015625 -8.25 L 2.09375 -6.75 L 2.140625 -6.75 C 2.484375 -7.363281 2.847656 -7.789062 3.234375 -8.03125 C 3.617188 -8.28125 4.082031 -8.40625 4.625 -8.40625 Z M 4.625 -8.40625 "/></g></g><g transform="translate(115.860955, 257.314006)"><g><path d="M 6.390625 0 L 6.203125 -1.296875 L 6.140625 -1.296875 C 5.722656 -0.773438 5.296875 -0.398438 4.859375 -0.171875 C 4.421875 0.046875 3.90625 0.15625 3.3125 0.15625 C 2.5 0.15625 1.867188 -0.0507812 1.421875 -0.46875 C 0.972656 -0.882812 0.75 -1.457031 0.75 -2.1875 C 0.75 -2.988281 1.082031 -3.613281 1.75 -4.0625 C 2.414062 -4.507812 3.382812 -4.742188 4.65625 -4.765625 L 6.21875 -4.8125 L 6.21875 -5.359375 C 6.21875 -6.140625 6.054688 -6.726562 5.734375 -7.125 C 5.421875 -7.53125 4.910156 -7.734375 4.203125 -7.734375 C 3.441406 -7.734375 2.648438 -7.519531 1.828125 -7.09375 L 1.546875 -7.75 C 2.453125 -8.175781 3.347656 -8.390625 4.234375 -8.390625 C 5.140625 -8.390625 5.816406 -8.15625 6.265625 -7.6875 C 6.710938 -7.21875 6.9375 -6.484375 6.9375 -5.484375 L 6.9375 0 Z M 3.359375 -0.53125 C 4.234375 -0.53125 4.925781 -0.78125 5.4375 -1.28125 C 5.945312 -1.789062 6.203125 -2.488281 6.203125 -3.375 L 6.203125 -4.1875 L 4.75 -4.140625 C 3.59375 -4.078125 2.769531 -3.890625 2.28125 -3.578125 C 1.789062 -3.273438 1.546875 -2.800781 1.546875 -2.15625 C 1.546875 -1.644531 1.703125 -1.242188 2.015625 -0.953125 C 2.328125 -0.671875 2.773438 -0.53125 3.359375 -0.53125 Z M 3.359375 -0.53125 "/></g></g><g transform="translate(124.091439, 257.314006)"><g><path d="M 7.125 0 L 7.125 -5.34375 C 7.125 -6.175781 6.945312 -6.78125 6.59375 -7.15625 C 6.25 -7.53125 5.710938 -7.71875 4.984375 -7.71875 C 3.992188 -7.71875 3.269531 -7.46875 2.8125 -6.96875 C 2.351562 -6.46875 2.125 -5.660156 2.125 -4.546875 L 2.125 0 L 1.375 0 L 1.375 -8.25 L 2.015625 -8.25 L 2.15625 -7.109375 L 2.203125 -7.109375 C 2.742188 -7.972656 3.695312 -8.40625 5.0625 -8.40625 C 6.9375 -8.40625 7.875 -7.398438 7.875 -5.390625 L 7.875 0 Z M 7.125 0 "/></g></g><g transform="translate(133.254964, 257.314006)"><g><path d="M 6.484375 -2.140625 C 6.484375 -1.398438 6.203125 -0.832031 5.640625 -0.4375 C 5.085938 -0.0390625 4.296875 0.15625 3.265625 0.15625 C 2.160156 0.15625 1.285156 -0.015625 0.640625 -0.359375 L 0.640625 -1.171875 C 1.460938 -0.753906 2.335938 -0.546875 3.265625 -0.546875 C 4.078125 -0.546875 4.691406 -0.679688 5.109375 -0.953125 C 5.535156 -1.222656 5.75 -1.582031 5.75 -2.03125 C 5.75 -2.445312 5.578125 -2.796875 5.234375 -3.078125 C 4.898438 -3.359375 4.351562 -3.632812 3.59375 -3.90625 C 2.757812 -4.207031 2.175781 -4.460938 1.84375 -4.671875 C 1.507812 -4.890625 1.257812 -5.132812 1.09375 -5.40625 C 0.925781 -5.675781 0.84375 -6.007812 0.84375 -6.40625 C 0.84375 -7.019531 1.097656 -7.503906 1.609375 -7.859375 C 2.128906 -8.222656 2.859375 -8.40625 3.796875 -8.40625 C 4.679688 -8.40625 5.523438 -8.238281 6.328125 -7.90625 L 6.046875 -7.21875 C 5.234375 -7.550781 4.484375 -7.71875 3.796875 -7.71875 C 3.117188 -7.71875 2.582031 -7.601562 2.1875 -7.375 C 1.789062 -7.15625 1.59375 -6.851562 1.59375 -6.46875 C 1.59375 -6.03125 1.742188 -5.679688 2.046875 -5.421875 C 2.359375 -5.171875 2.960938 -4.882812 3.859375 -4.5625 C 4.597656 -4.289062 5.132812 -4.046875 5.46875 -3.828125 C 5.8125 -3.617188 6.066406 -3.378906 6.234375 -3.109375 C 6.398438 -2.835938 6.484375 -2.515625 6.484375 -2.140625 Z M 6.484375 -2.140625 "/></g></g><g transform="translate(140.491722, 257.314006)"><g><path d="M 4.90625 0.15625 C 3.632812 0.15625 2.707031 -0.320312 2.125 -1.28125 L 2.078125 -1.28125 L 2.09375 -0.640625 C 2.113281 -0.265625 2.125 0.144531 2.125 0.59375 L 2.125 3.734375 L 1.375 3.734375 L 1.375 -8.25 L 2.015625 -8.25 L 2.15625 -7.0625 L 2.203125 -7.0625 C 2.773438 -7.957031 3.679688 -8.40625 4.921875 -8.40625 C 6.035156 -8.40625 6.882812 -8.039062 7.46875 -7.3125 C 8.050781 -6.582031 8.34375 -5.519531 8.34375 -4.125 C 8.34375 -2.757812 8.035156 -1.703125 7.421875 -0.953125 C 6.804688 -0.210938 5.96875 0.15625 4.90625 0.15625 Z M 4.890625 -0.515625 C 5.734375 -0.515625 6.382812 -0.828125 6.84375 -1.453125 C 7.3125 -2.078125 7.546875 -2.957031 7.546875 -4.09375 C 7.546875 -6.507812 6.671875 -7.71875 4.921875 -7.71875 C 3.960938 -7.71875 3.253906 -7.453125 2.796875 -6.921875 C 2.347656 -6.398438 2.125 -5.539062 2.125 -4.34375 L 2.125 -4.109375 C 2.125 -2.816406 2.335938 -1.894531 2.765625 -1.34375 C 3.203125 -0.789062 3.910156 -0.515625 4.890625 -0.515625 Z M 4.890625 -0.515625 "/></g></g><g transform="translate(149.738689, 257.314006)"><g><path d="M 8.203125 -4.140625 C 8.203125 -2.785156 7.875 -1.726562 7.21875 -0.96875 C 6.5625 -0.21875 5.660156 0.15625 4.515625 0.15625 C 3.796875 0.15625 3.160156 -0.015625 2.609375 -0.359375 C 2.054688 -0.710938 1.632812 -1.210938 1.34375 -1.859375 C 1.050781 -2.515625 0.90625 -3.273438 0.90625 -4.140625 C 0.90625 -5.484375 1.226562 -6.53125 1.875 -7.28125 C 2.53125 -8.03125 3.425781 -8.40625 4.5625 -8.40625 C 5.695312 -8.40625 6.585938 -8.023438 7.234375 -7.265625 C 7.878906 -6.503906 8.203125 -5.460938 8.203125 -4.140625 Z M 1.6875 -4.140625 C 1.6875 -3.003906 1.9375 -2.117188 2.4375 -1.484375 C 2.9375 -0.847656 3.640625 -0.53125 4.546875 -0.53125 C 5.460938 -0.53125 6.164062 -0.847656 6.65625 -1.484375 C 7.15625 -2.117188 7.40625 -3.003906 7.40625 -4.140625 C 7.40625 -5.273438 7.15625 -6.15625 6.65625 -6.78125 C 6.15625 -7.40625 5.445312 -7.71875 4.53125 -7.71875 C 3.625 -7.71875 2.921875 -7.40625 2.421875 -6.78125 C 1.929688 -6.15625 1.6875 -5.273438 1.6875 -4.140625 Z M 1.6875 -4.140625 "/></g></g><g transform="translate(158.841529, 257.314006)"><g><path d="M 4.625 -8.40625 C 4.976562 -8.40625 5.351562 -8.367188 5.75 -8.296875 L 5.609375 -7.578125 C 5.265625 -7.660156 4.90625 -7.703125 4.53125 -7.703125 C 3.832031 -7.703125 3.253906 -7.40625 2.796875 -6.8125 C 2.347656 -6.21875 2.125 -5.460938 2.125 -4.546875 L 2.125 0 L 1.375 0 L 1.375 -8.25 L 2.015625 -8.25 L 2.09375 -6.75 L 2.140625 -6.75 C 2.484375 -7.363281 2.847656 -7.789062 3.234375 -8.03125 C 3.617188 -8.28125 4.082031 -8.40625 4.625 -8.40625 Z M 4.625 -8.40625 "/></g></g><g transform="translate(164.887331, 257.314006)"><g><path d="M 3.5625 -0.515625 C 4.03125 -0.515625 4.441406 -0.554688 4.796875 -0.640625 L 4.796875 -0.03125 C 4.429688 0.09375 4.015625 0.15625 3.546875 0.15625 C 2.816406 0.15625 2.273438 -0.0351562 1.921875 -0.421875 C 1.578125 -0.816406 1.40625 -1.429688 1.40625 -2.265625 L 1.40625 -7.59375 L 0.1875 -7.59375 L 0.1875 -8.03125 L 1.40625 -8.375 L 1.796875 -10.234375 L 2.171875 -10.234375 L 2.171875 -8.25 L 4.59375 -8.25 L 4.59375 -7.59375 L 2.171875 -7.59375 L 2.171875 -2.375 C 2.171875 -1.738281 2.28125 -1.269531 2.5 -0.96875 C 2.726562 -0.664062 3.082031 -0.515625 3.5625 -0.515625 Z M 3.5625 -0.515625 "/></g></g><g transform="translate(170.091121, 257.314006)"><g><path d="M 6.390625 0 L 6.203125 -1.296875 L 6.140625 -1.296875 C 5.722656 -0.773438 5.296875 -0.398438 4.859375 -0.171875 C 4.421875 0.046875 3.90625 0.15625 3.3125 0.15625 C 2.5 0.15625 1.867188 -0.0507812 1.421875 -0.46875 C 0.972656 -0.882812 0.75 -1.457031 0.75 -2.1875 C 0.75 -2.988281 1.082031 -3.613281 1.75 -4.0625 C 2.414062 -4.507812 3.382812 -4.742188 4.65625 -4.765625 L 6.21875 -4.8125 L 6.21875 -5.359375 C 6.21875 -6.140625 6.054688 -6.726562 5.734375 -7.125 C 5.421875 -7.53125 4.910156 -7.734375 4.203125 -7.734375 C 3.441406 -7.734375 2.648438 -7.519531 1.828125 -7.09375 L 1.546875 -7.75 C 2.453125 -8.175781 3.347656 -8.390625 4.234375 -8.390625 C 5.140625 -8.390625 5.816406 -8.15625 6.265625 -7.6875 C 6.710938 -7.21875 6.9375 -6.484375 6.9375 -5.484375 L 6.9375 0 Z M 3.359375 -0.53125 C 4.234375 -0.53125 4.925781 -0.78125 5.4375 -1.28125 C 5.945312 -1.789062 6.203125 -2.488281 6.203125 -3.375 L 6.203125 -4.1875 L 4.75 -4.140625 C 3.59375 -4.078125 2.769531 -3.890625 2.28125 -3.578125 C 1.789062 -3.273438 1.546875 -2.800781 1.546875 -2.15625 C 1.546875 -1.644531 1.703125 -1.242188 2.015625 -0.953125 C 2.328125 -0.671875 2.773438 -0.53125 3.359375 -0.53125 Z M 3.359375 -0.53125 "/></g></g><g transform="translate(178.321605, 257.314006)"><g><path d="M 3.5625 -0.515625 C 4.03125 -0.515625 4.441406 -0.554688 4.796875 -0.640625 L 4.796875 -0.03125 C 4.429688 0.09375 4.015625 0.15625 3.546875 0.15625 C 2.816406 0.15625 2.273438 -0.0351562 1.921875 -0.421875 C 1.578125 -0.816406 1.40625 -1.429688 1.40625 -2.265625 L 1.40625 -7.59375 L 0.1875 -7.59375 L 0.1875 -8.03125 L 1.40625 -8.375 L 1.796875 -10.234375 L 2.171875 -10.234375 L 2.171875 -8.25 L 4.59375 -8.25 L 4.59375 -7.59375 L 2.171875 -7.59375 L 2.171875 -2.375 C 2.171875 -1.738281 2.28125 -1.269531 2.5 -0.96875 C 2.726562 -0.664062 3.082031 -0.515625 3.5625 -0.515625 Z M 3.5625 -0.515625 "/></g></g><g transform="translate(183.525395, 257.314006)"><g><path d="M 2.125 0 L 1.375 0 L 1.375 -8.25 L 2.125 -8.25 Z M 1.28125 -10.53125 C 1.28125 -11.019531 1.4375 -11.265625 1.75 -11.265625 C 1.90625 -11.265625 2.023438 -11.195312 2.109375 -11.0625 C 2.203125 -10.9375 2.25 -10.757812 2.25 -10.53125 C 2.25 -10.300781 2.203125 -10.117188 2.109375 -9.984375 C 2.023438 -9.859375 1.90625 -9.796875 1.75 -9.796875 C 1.4375 -9.796875 1.28125 -10.039062 1.28125 -10.53125 Z M 1.28125 -10.53125 "/></g></g><g transform="translate(187.037574, 257.314006)"><g><path d="M 8.203125 -4.140625 C 8.203125 -2.785156 7.875 -1.726562 7.21875 -0.96875 C 6.5625 -0.21875 5.660156 0.15625 4.515625 0.15625 C 3.796875 0.15625 3.160156 -0.015625 2.609375 -0.359375 C 2.054688 -0.710938 1.632812 -1.210938 1.34375 -1.859375 C 1.050781 -2.515625 0.90625 -3.273438 0.90625 -4.140625 C 0.90625 -5.484375 1.226562 -6.53125 1.875 -7.28125 C 2.53125 -8.03125 3.425781 -8.40625 4.5625 -8.40625 C 5.695312 -8.40625 6.585938 -8.023438 7.234375 -7.265625 C 7.878906 -6.503906 8.203125 -5.460938 8.203125 -4.140625 Z M 1.6875 -4.140625 C 1.6875 -3.003906 1.9375 -2.117188 2.4375 -1.484375 C 2.9375 -0.847656 3.640625 -0.53125 4.546875 -0.53125 C 5.460938 -0.53125 6.164062 -0.847656 6.65625 -1.484375 C 7.15625 -2.117188 7.40625 -3.003906 7.40625 -4.140625 C 7.40625 -5.273438 7.15625 -6.15625 6.65625 -6.78125 C 6.15625 -7.40625 5.445312 -7.71875 4.53125 -7.71875 C 3.625 -7.71875 2.921875 -7.40625 2.421875 -6.78125 C 1.929688 -6.15625 1.6875 -5.273438 1.6875 -4.140625 Z M 1.6875 -4.140625 "/></g></g><g transform="translate(196.140414, 257.314006)"><g><path d="M 7.125 0 L 7.125 -5.34375 C 7.125 -6.175781 6.945312 -6.78125 6.59375 -7.15625 C 6.25 -7.53125 5.710938 -7.71875 4.984375 -7.71875 C 3.992188 -7.71875 3.269531 -7.46875 2.8125 -6.96875 C 2.351562 -6.46875 2.125 -5.660156 2.125 -4.546875 L 2.125 0 L 1.375 0 L 1.375 -8.25 L 2.015625 -8.25 L 2.15625 -7.109375 L 2.203125 -7.109375 C 2.742188 -7.972656 3.695312 -8.40625 5.0625 -8.40625 C 6.9375 -8.40625 7.875 -7.398438 7.875 -5.390625 L 7.875 0 Z M 7.125 0 "/></g></g><g transform="translate(205.303939, 257.314006)"><g/></g><g transform="translate(209.339531, 257.314006)"><g><path d="M 4.671875 0.15625 C 3.492188 0.15625 2.570312 -0.210938 1.90625 -0.953125 C 1.238281 -1.703125 0.90625 -2.742188 0.90625 -4.078125 C 0.90625 -5.441406 1.25 -6.503906 1.9375 -7.265625 C 2.632812 -8.023438 3.582031 -8.40625 4.78125 -8.40625 C 5.5 -8.40625 6.179688 -8.28125 6.828125 -8.03125 L 6.625 -7.359375 C 5.914062 -7.597656 5.296875 -7.71875 4.765625 -7.71875 C 3.753906 -7.71875 2.988281 -7.40625 2.46875 -6.78125 C 1.945312 -6.15625 1.6875 -5.257812 1.6875 -4.09375 C 1.6875 -2.976562 1.945312 -2.101562 2.46875 -1.46875 C 2.988281 -0.84375 3.71875 -0.53125 4.65625 -0.53125 C 5.40625 -0.53125 6.097656 -0.664062 6.734375 -0.9375 L 6.734375 -0.234375 C 6.210938 0.0234375 5.523438 0.15625 4.671875 0.15625 Z M 4.671875 0.15625 "/></g></g><g transform="translate(216.720417, 257.314006)"><g><path d="M 8.203125 -4.140625 C 8.203125 -2.785156 7.875 -1.726562 7.21875 -0.96875 C 6.5625 -0.21875 5.660156 0.15625 4.515625 0.15625 C 3.796875 0.15625 3.160156 -0.015625 2.609375 -0.359375 C 2.054688 -0.710938 1.632812 -1.210938 1.34375 -1.859375 C 1.050781 -2.515625 0.90625 -3.273438 0.90625 -4.140625 C 0.90625 -5.484375 1.226562 -6.53125 1.875 -7.28125 C 2.53125 -8.03125 3.425781 -8.40625 4.5625 -8.40625 C 5.695312 -8.40625 6.585938 -8.023438 7.234375 -7.265625 C 7.878906 -6.503906 8.203125 -5.460938 8.203125 -4.140625 Z M 1.6875 -4.140625 C 1.6875 -3.003906 1.9375 -2.117188 2.4375 -1.484375 C 2.9375 -0.847656 3.640625 -0.53125 4.546875 -0.53125 C 5.460938 -0.53125 6.164062 -0.847656 6.65625 -1.484375 C 7.15625 -2.117188 7.40625 -3.003906 7.40625 -4.140625 C 7.40625 -5.273438 7.15625 -6.15625 6.65625 -6.78125 C 6.15625 -7.40625 5.445312 -7.71875 4.53125 -7.71875 C 3.625 -7.71875 2.921875 -7.40625 2.421875 -6.78125 C 1.929688 -6.15625 1.6875 -5.273438 1.6875 -4.140625 Z M 1.6875 -4.140625 "/></g></g><g transform="translate(225.823256, 257.314006)"><g><path d="M 11.671875 0 L 11.671875 -5.40625 C 11.671875 -6.207031 11.515625 -6.789062 11.203125 -7.15625 C 10.890625 -7.53125 10.410156 -7.71875 9.765625 -7.71875 C 8.921875 -7.71875 8.296875 -7.484375 7.890625 -7.015625 C 7.484375 -6.554688 7.28125 -5.828125 7.28125 -4.828125 L 7.28125 0 L 6.515625 0 L 6.515625 -5.640625 C 6.515625 -7.023438 5.878906 -7.71875 4.609375 -7.71875 C 3.742188 -7.71875 3.113281 -7.46875 2.71875 -6.96875 C 2.320312 -6.46875 2.125 -5.660156 2.125 -4.546875 L 2.125 0 L 1.375 0 L 1.375 -8.25 L 2 -8.25 L 2.15625 -7.109375 L 2.203125 -7.109375 C 2.429688 -7.523438 2.753906 -7.84375 3.171875 -8.0625 C 3.597656 -8.289062 4.0625 -8.40625 4.5625 -8.40625 C 5.863281 -8.40625 6.695312 -7.914062 7.0625 -6.9375 L 7.09375 -6.9375 C 7.363281 -7.40625 7.722656 -7.765625 8.171875 -8.015625 C 8.628906 -8.273438 9.144531 -8.40625 9.71875 -8.40625 C 10.625 -8.40625 11.300781 -8.164062 11.75 -7.6875 C 12.195312 -7.207031 12.421875 -6.441406 12.421875 -5.390625 L 12.421875 0 Z M 11.671875 0 "/></g></g><g transform="translate(239.538201, 257.314006)"><g><path d="M 4.90625 0.15625 C 3.632812 0.15625 2.707031 -0.320312 2.125 -1.28125 L 2.078125 -1.28125 L 2.09375 -0.640625 C 2.113281 -0.265625 2.125 0.144531 2.125 0.59375 L 2.125 3.734375 L 1.375 3.734375 L 1.375 -8.25 L 2.015625 -8.25 L 2.15625 -7.0625 L 2.203125 -7.0625 C 2.773438 -7.957031 3.679688 -8.40625 4.921875 -8.40625 C 6.035156 -8.40625 6.882812 -8.039062 7.46875 -7.3125 C 8.050781 -6.582031 8.34375 -5.519531 8.34375 -4.125 C 8.34375 -2.757812 8.035156 -1.703125 7.421875 -0.953125 C 6.804688 -0.210938 5.96875 0.15625 4.90625 0.15625 Z M 4.890625 -0.515625 C 5.734375 -0.515625 6.382812 -0.828125 6.84375 -1.453125 C 7.3125 -2.078125 7.546875 -2.957031 7.546875 -4.09375 C 7.546875 -6.507812 6.671875 -7.71875 4.921875 -7.71875 C 3.960938 -7.71875 3.253906 -7.453125 2.796875 -6.921875 C 2.347656 -6.398438 2.125 -5.539062 2.125 -4.34375 L 2.125 -4.109375 C 2.125 -2.816406 2.335938 -1.894531 2.765625 -1.34375 C 3.203125 -0.789062 3.910156 -0.515625 4.890625 -0.515625 Z M 4.890625 -0.515625 "/></g></g><g transform="translate(248.785169, 257.314006)"><g><path d="M 6.390625 0 L 6.203125 -1.296875 L 6.140625 -1.296875 C 5.722656 -0.773438 5.296875 -0.398438 4.859375 -0.171875 C 4.421875 0.046875 3.90625 0.15625 3.3125 0.15625 C 2.5 0.15625 1.867188 -0.0507812 1.421875 -0.46875 C 0.972656 -0.882812 0.75 -1.457031 0.75 -2.1875 C 0.75 -2.988281 1.082031 -3.613281 1.75 -4.0625 C 2.414062 -4.507812 3.382812 -4.742188 4.65625 -4.765625 L 6.21875 -4.8125 L 6.21875 -5.359375 C 6.21875 -6.140625 6.054688 -6.726562 5.734375 -7.125 C 5.421875 -7.53125 4.910156 -7.734375 4.203125 -7.734375 C 3.441406 -7.734375 2.648438 -7.519531 1.828125 -7.09375 L 1.546875 -7.75 C 2.453125 -8.175781 3.347656 -8.390625 4.234375 -8.390625 C 5.140625 -8.390625 5.816406 -8.15625 6.265625 -7.6875 C 6.710938 -7.21875 6.9375 -6.484375 6.9375 -5.484375 L 6.9375 0 Z M 3.359375 -0.53125 C 4.234375 -0.53125 4.925781 -0.78125 5.4375 -1.28125 C 5.945312 -1.789062 6.203125 -2.488281 6.203125 -3.375 L 6.203125 -4.1875 L 4.75 -4.140625 C 3.59375 -4.078125 2.769531 -3.890625 2.28125 -3.578125 C 1.789062 -3.273438 1.546875 -2.800781 1.546875 -2.15625 C 1.546875 -1.644531 1.703125 -1.242188 2.015625 -0.953125 C 2.328125 -0.671875 2.773438 -0.53125 3.359375 -0.53125 Z M 3.359375 -0.53125 "/></g></g><g transform="translate(257.015653, 257.314006)"><g><path d="M 7.125 0 L 7.125 -5.34375 C 7.125 -6.175781 6.945312 -6.78125 6.59375 -7.15625 C 6.25 -7.53125 5.710938 -7.71875 4.984375 -7.71875 C 3.992188 -7.71875 3.269531 -7.46875 2.8125 -6.96875 C 2.351562 -6.46875 2.125 -5.660156 2.125 -4.546875 L 2.125 0 L 1.375 0 L 1.375 -8.25 L 2.015625 -8.25 L 2.15625 -7.109375 L 2.203125 -7.109375 C 2.742188 -7.972656 3.695312 -8.40625 5.0625 -8.40625 C 6.9375 -8.40625 7.875 -7.398438 7.875 -5.390625 L 7.875 0 Z M 7.125 0 "/></g></g><g transform="translate(266.179178, 257.314006)"><g><path d="M 0 -8.25 L 0.78125 -8.25 L 2.515625 -3.625 C 3.046875 -2.195312 3.382812 -1.238281 3.53125 -0.75 L 3.578125 -0.75 C 3.785156 -1.394531 4.128906 -2.363281 4.609375 -3.65625 L 6.359375 -8.25 L 7.125 -8.25 L 3.4375 1.328125 C 3.132812 2.109375 2.878906 2.632812 2.671875 2.90625 C 2.472656 3.1875 2.238281 3.394531 1.96875 3.53125 C 1.695312 3.664062 1.375 3.734375 1 3.734375 C 0.707031 3.734375 0.382812 3.679688 0.03125 3.578125 L 0.03125 2.921875 C 0.320312 3.003906 0.640625 3.046875 0.984375 3.046875 C 1.234375 3.046875 1.457031 2.984375 1.65625 2.859375 C 1.851562 2.734375 2.03125 2.539062 2.1875 2.28125 C 2.351562 2.03125 2.539062 1.628906 2.75 1.078125 C 2.957031 0.523438 3.09375 0.164062 3.15625 0 Z M 0 -8.25 "/></g></g></g></svg>