<svg xmlns="http://www.w3.org/2000/svg" xmlns:xlink="http://www.w3.org/1999/xlink" width="500" zoomAndPan="magnify" viewBox="0 0 375 374.999991" height="500" preserveAspectRatio="xMidYMid meet" version="1.0"><defs><g/></defs><g fill="#000000" fill-opacity="1"><g transform="translate(92.72077, 173.890761)"><g><path d="M 37.125 -15.421875 C 37.125 -15.515625 37.078125 -15.660156 36.984375 -15.859375 C 36.742188 -16.585938 36.453125 -17.144531 36.109375 -17.53125 C 35.765625 -17.925781 35.203125 -18.171875 34.421875 -18.265625 L 33.921875 -18.265625 C 33.867188 -18.316406 33.796875 -18.34375 33.703125 -18.34375 C 32.773438 -18.34375 32.03125 -17.925781 31.46875 -17.09375 C 30.90625 -16.269531 30.453125 -15.1875 30.109375 -13.84375 C 29.773438 -12.507812 29.445312 -11.085938 29.125 -9.578125 C 28.8125 -8.066406 28.410156 -6.613281 27.921875 -5.21875 C 27.429688 -3.832031 26.769531 -2.675781 25.9375 -1.75 C 25.113281 -0.820312 24.019531 -0.285156 22.65625 -0.140625 C 21.34375 0.00390625 19.976562 0.078125 18.5625 0.078125 C 18.070312 0.078125 17.570312 0.0507812 17.0625 0 C 16.550781 -0.0507812 16.050781 -0.171875 15.5625 -0.359375 C 14.539062 -0.753906 13.710938 -1.523438 13.078125 -2.671875 C 12.453125 -3.816406 11.941406 -5.054688 11.546875 -6.390625 C 11.160156 -7.734375 10.820312 -8.867188 10.53125 -9.796875 C 9.601562 -12.765625 8.625 -15.75 7.59375 -18.75 C 6.570312 -21.75 5.503906 -24.707031 4.390625 -27.625 C 3.898438 -28.988281 3.265625 -30.378906 2.484375 -31.796875 C 1.703125 -33.210938 1.054688 -34.648438 0.546875 -36.109375 C 0.0351562 -37.566406 -0.117188 -39.050781 0.078125 -40.5625 C 0.171875 -41.632812 0.609375 -42.171875 1.390625 -42.171875 C 2.171875 -42.171875 3.097656 -42.195312 4.171875 -42.25 C 5.140625 -42.300781 6.097656 -42.300781 7.046875 -42.25 C 8.003906 -42.195312 8.945312 -42.023438 9.875 -41.734375 C 10.113281 -41.679688 10.488281 -41.328125 11 -40.671875 C 11.507812 -40.015625 11.910156 -39.273438 12.203125 -38.453125 C 12.492188 -37.671875 12.773438 -36.910156 13.046875 -36.171875 C 13.316406 -35.441406 13.570312 -34.691406 13.8125 -33.921875 C 14.5 -31.960938 15.226562 -29.960938 16 -27.921875 C 16.78125 -25.878906 17.6875 -23.859375 18.71875 -21.859375 C 19.15625 -21.171875 19.710938 -20.828125 20.390625 -20.828125 C 20.441406 -20.828125 20.476562 -20.828125 20.5 -20.828125 C 20.53125 -20.828125 20.566406 -20.828125 20.609375 -20.828125 C 21.441406 -20.929688 21.976562 -21.367188 22.21875 -22.140625 C 22.507812 -22.972656 22.800781 -23.816406 23.09375 -24.671875 C 23.382812 -25.523438 23.675781 -26.363281 23.96875 -27.1875 C 24.65625 -29.1875 25.351562 -31.222656 26.0625 -33.296875 C 26.769531 -35.367188 27.4375 -37.453125 28.0625 -39.546875 C 28.351562 -40.566406 28.726562 -41.234375 29.1875 -41.546875 C 29.65625 -41.867188 30.5 -42.03125 31.71875 -42.03125 L 32.09375 -42.03125 C 33.644531 -42.03125 34.992188 -41.976562 36.140625 -41.875 C 37.285156 -41.78125 38.257812 -41.414062 39.0625 -40.78125 C 39.875 -40.15625 40.546875 -38.988281 41.078125 -37.28125 C 41.910156 -34.789062 42.75 -32.316406 43.59375 -29.859375 C 44.445312 -27.398438 45.265625 -24.925781 46.046875 -22.4375 C 46.242188 -21.945312 46.609375 -21.394531 47.140625 -20.78125 C 47.679688 -20.175781 48.269531 -19.972656 48.90625 -20.171875 C 49.34375 -20.265625 49.707031 -20.59375 50 -21.15625 C 50.289062 -21.71875 50.546875 -22.316406 50.765625 -22.953125 C 50.984375 -23.585938 51.164062 -24.070312 51.3125 -24.40625 C 52.1875 -26.457031 53 -28.53125 53.75 -30.625 C 54.507812 -32.71875 55.234375 -34.8125 55.921875 -36.90625 C 56.503906 -38.613281 57.171875 -39.941406 57.921875 -40.890625 C 58.679688 -41.847656 60.035156 -42.328125 61.984375 -42.328125 C 62.515625 -42.328125 63.242188 -42.335938 64.171875 -42.359375 C 65.097656 -42.378906 65.988281 -42.316406 66.84375 -42.171875 C 67.695312 -42.023438 68.222656 -41.6875 68.421875 -41.15625 C 68.609375 -40.664062 68.554688 -39.90625 68.265625 -38.875 C 67.972656 -37.851562 67.617188 -36.84375 67.203125 -35.84375 C 66.796875 -34.851562 66.492188 -34.085938 66.296875 -33.546875 C 65.078125 -29.742188 63.710938 -25.988281 62.203125 -22.28125 C 60.691406 -18.582031 59.328125 -14.8125 58.109375 -10.96875 C 57.867188 -10.082031 57.613281 -8.910156 57.34375 -7.453125 C 57.070312 -5.992188 56.703125 -4.601562 56.234375 -3.28125 C 55.773438 -1.96875 55.082031 -1.066406 54.15625 -0.578125 C 53.863281 -0.429688 53.5625 -0.332031 53.25 -0.28125 C 52.9375 -0.238281 52.609375 -0.191406 52.265625 -0.140625 C 50.796875 0.00390625 49.316406 0.0625 47.828125 0.03125 C 46.347656 0.0078125 45 -0.289062 43.78125 -0.875 C 42.5625 -1.457031 41.585938 -2.53125 40.859375 -4.09375 C 40.078125 -5.945312 39.429688 -7.832031 38.921875 -9.75 C 38.410156 -11.675781 37.8125 -13.566406 37.125 -15.421875 Z M 37.125 -15.421875 "/></g></g></g><g fill="#000000" fill-opacity="1"><g transform="translate(161.420283, 173.890761)"><g><path d="M 38.671875 -26.453125 C 38.960938 -24.023438 39.09375 -21.566406 39.0625 -19.078125 C 39.039062 -16.585938 39.03125 -14.296875 39.03125 -12.203125 C 39.03125 -11.710938 39.078125 -10.847656 39.171875 -9.609375 C 39.273438 -8.367188 39.328125 -7.066406 39.328125 -5.703125 C 39.328125 -4.335938 39.21875 -3.15625 39 -2.15625 C 38.78125 -1.15625 38.378906 -0.609375 37.796875 -0.515625 C 37.015625 -0.410156 36 -0.257812 34.75 -0.0625 C 33.507812 0.125 32.316406 0.164062 31.171875 0.0625 C 30.023438 -0.03125 29.160156 -0.441406 28.578125 -1.171875 C 27.898438 -2.046875 27.632812 -3.148438 27.78125 -4.484375 C 27.925781 -5.828125 27.972656 -6.988281 27.921875 -7.96875 C 27.921875 -10.695312 27.90625 -13.398438 27.875 -16.078125 C 27.851562 -18.753906 27.867188 -21.4375 27.921875 -24.125 C 27.921875 -26.65625 27.3125 -28.675781 26.09375 -30.1875 C 24.875 -31.695312 23.117188 -32.597656 20.828125 -32.890625 C 20.679688 -32.941406 20.535156 -32.96875 20.390625 -32.96875 C 20.242188 -32.96875 20.097656 -32.96875 19.953125 -32.96875 C 18.535156 -32.96875 17.207031 -32.585938 15.96875 -31.828125 C 14.726562 -31.078125 13.703125 -30.078125 12.890625 -28.828125 C 12.085938 -27.585938 11.613281 -26.210938 11.46875 -24.703125 C 11.320312 -22.898438 11.238281 -21.109375 11.21875 -19.328125 C 11.195312 -17.554688 11.207031 -15.789062 11.25 -14.03125 C 11.25 -12.082031 11.238281 -10.109375 11.21875 -8.109375 C 11.195312 -6.109375 11.1875 -4.113281 11.1875 -2.125 C 11.1875 -1.382812 10.804688 -0.867188 10.046875 -0.578125 C 9.296875 -0.285156 8.367188 -0.140625 7.265625 -0.140625 C 6.171875 -0.140625 5.125 -0.1875 4.125 -0.28125 C 3.125 -0.382812 2.359375 -0.4375 1.828125 -0.4375 C 1.097656 -0.4375 0.597656 -0.789062 0.328125 -1.5 C 0.0546875 -2.207031 -0.0507812 -3.046875 0 -4.015625 C 0.0507812 -4.992188 0.132812 -5.929688 0.25 -6.828125 C 0.375 -7.734375 0.4375 -8.429688 0.4375 -8.921875 C 0.488281 -10.328125 0.523438 -11.738281 0.546875 -13.15625 C 0.566406 -14.570312 0.578125 -15.984375 0.578125 -17.390625 C 0.578125 -23.484375 0.515625 -29.578125 0.390625 -35.671875 C 0.273438 -41.765625 0.21875 -47.832031 0.21875 -53.875 C 0.21875 -54.65625 0.3125 -55.375 0.5 -56.03125 C 0.695312 -56.6875 1.238281 -57.113281 2.125 -57.3125 C 3.195312 -57.550781 4.316406 -57.609375 5.484375 -57.484375 C 6.648438 -57.367188 7.769531 -57.285156 8.84375 -57.234375 C 10.15625 -57.179688 11.03125 -56.71875 11.46875 -55.84375 C 11.914062 -54.96875 12.101562 -53.882812 12.03125 -52.59375 C 11.957031 -51.300781 11.796875 -50.03125 11.546875 -48.78125 C 11.304688 -47.539062 11.1875 -46.53125 11.1875 -45.75 L 11.1875 -42.03125 C 11.1875 -41.488281 11.40625 -41.023438 11.84375 -40.640625 C 12.132812 -40.347656 12.546875 -40.203125 13.078125 -40.203125 C 13.128906 -40.203125 13.164062 -40.203125 13.1875 -40.203125 C 13.21875 -40.203125 13.253906 -40.203125 13.296875 -40.203125 C 14.078125 -40.296875 14.820312 -40.40625 15.53125 -40.53125 C 16.238281 -40.65625 16.910156 -40.765625 17.546875 -40.859375 C 18.804688 -41.097656 20.019531 -41.289062 21.1875 -41.4375 C 22.363281 -41.582031 23.488281 -41.65625 24.5625 -41.65625 C 27.875 -41.65625 30.488281 -40.945312 32.40625 -39.53125 C 34.332031 -38.125 35.769531 -36.265625 36.71875 -33.953125 C 37.675781 -31.640625 38.328125 -29.140625 38.671875 -26.453125 Z M 38.671875 -26.453125 "/></g></g></g><g fill="#000000" fill-opacity="1"><g transform="translate(200.885531, 173.890761)"><g><path d="M 2.78125 -46.046875 C 1.707031 -46.734375 0.925781 -47.695312 0.4375 -48.9375 C -0.0507812 -50.175781 -0.078125 -51.53125 0.359375 -53 C 1.191406 -55.875 3.144531 -57.359375 6.21875 -57.453125 L 6.359375 -57.453125 C 7.867188 -57.453125 9.132812 -57.050781 10.15625 -56.25 C 11.175781 -55.445312 11.859375 -54.335938 12.203125 -52.921875 C 12.640625 -51.160156 12.46875 -49.550781 11.6875 -48.09375 C 10.914062 -46.632812 9.601562 -45.6875 7.75 -45.25 C 6.820312 -45.050781 5.929688 -45.023438 5.078125 -45.171875 C 4.222656 -45.316406 3.457031 -45.609375 2.78125 -46.046875 Z M 1.75 -38.734375 C 2.4375 -39.171875 3.410156 -39.367188 4.671875 -39.328125 C 5.410156 -39.328125 6.21875 -39.347656 7.09375 -39.390625 C 7.96875 -39.441406 8.78125 -39.359375 9.53125 -39.140625 C 10.289062 -38.921875 10.789062 -38.421875 11.03125 -37.640625 C 11.46875 -36.421875 11.613281 -34.945312 11.46875 -33.21875 C 11.320312 -31.488281 11.25 -29.988281 11.25 -28.71875 C 11.300781 -25.75 11.328125 -22.800781 11.328125 -19.875 C 11.328125 -16.957031 11.351562 -14.007812 11.40625 -11.03125 C 11.40625 -10.550781 11.460938 -9.738281 11.578125 -8.59375 C 11.703125 -7.445312 11.773438 -6.210938 11.796875 -4.890625 C 11.828125 -3.578125 11.695312 -2.457031 11.40625 -1.53125 C 11.113281 -0.601562 10.523438 -0.117188 9.640625 -0.078125 C 8.523438 -0.0234375 7.359375 0.0078125 6.140625 0.03125 C 4.921875 0.0625 3.75 0.00390625 2.625 -0.140625 C 1.851562 -0.242188 1.316406 -0.671875 1.015625 -1.421875 C 0.722656 -2.179688 0.566406 -3.097656 0.546875 -4.171875 C 0.523438 -5.242188 0.5625 -6.265625 0.65625 -7.234375 C 0.75 -8.210938 0.796875 -8.96875 0.796875 -9.5 C 0.753906 -11.5 0.71875 -13.507812 0.6875 -15.53125 C 0.664062 -17.550781 0.65625 -19.5625 0.65625 -21.5625 C 0.601562 -23.269531 0.578125 -24.972656 0.578125 -26.671875 C 0.578125 -28.378906 0.554688 -30.0625 0.515625 -31.71875 C 0.515625 -33.132812 0.488281 -34.5 0.4375 -35.8125 C 0.382812 -37.132812 0.820312 -38.109375 1.75 -38.734375 Z M 1.75 -38.734375 "/></g></g></g><g fill="#000000" fill-opacity="1"><g transform="translate(213.528333, 173.890761)"><g><path d="M 11.84375 -1.90625 C 9.164062 -3.457031 7.398438 -5.523438 6.546875 -8.109375 C 5.691406 -10.691406 5.285156 -13.445312 5.328125 -16.375 C 5.378906 -18.082031 5.390625 -19.785156 5.359375 -21.484375 C 5.335938 -23.191406 5.328125 -24.875 5.328125 -26.53125 C 5.328125 -27.695312 5.335938 -28.878906 5.359375 -30.078125 C 5.390625 -31.273438 4.941406 -32.332031 4.015625 -33.25 C 3.535156 -33.789062 2.925781 -34.144531 2.1875 -34.3125 C 1.457031 -34.488281 0.921875 -34.941406 0.578125 -35.671875 C 0.429688 -36.015625 0.332031 -36.351562 0.28125 -36.6875 C 0.238281 -37.03125 0.191406 -37.375 0.140625 -37.71875 C 0.0976562 -38.5 0.0976562 -39.265625 0.140625 -40.015625 C 0.191406 -40.773438 0.507812 -41.445312 1.09375 -42.03125 C 1.582031 -42.46875 2.15625 -42.742188 2.8125 -42.859375 C 3.46875 -42.984375 4.015625 -43.316406 4.453125 -43.859375 C 5.285156 -44.828125 5.703125 -45.894531 5.703125 -47.0625 C 5.703125 -48.238281 5.65625 -49.363281 5.5625 -50.4375 C 5.457031 -51.257812 5.390625 -51.925781 5.359375 -52.4375 C 5.335938 -52.957031 5.71875 -53.4375 6.5 -53.875 C 7.082031 -54.207031 7.828125 -54.375 8.734375 -54.375 C 9.640625 -54.375 10.539062 -54.328125 11.4375 -54.234375 C 12.34375 -54.140625 13.109375 -54.039062 13.734375 -53.9375 C 15.003906 -53.789062 15.6875 -53.316406 15.78125 -52.515625 C 15.882812 -51.710938 15.882812 -50.800781 15.78125 -49.78125 C 15.59375 -46.945312 16.109375 -44.847656 17.328125 -43.484375 C 17.910156 -42.859375 18.566406 -42.484375 19.296875 -42.359375 C 20.023438 -42.234375 20.765625 -42.195312 21.515625 -42.25 C 22.273438 -42.300781 22.992188 -42.300781 23.671875 -42.25 C 24.359375 -42.195312 24.945312 -41.925781 25.4375 -41.4375 C 25.96875 -40.90625 26.195312 -40.085938 26.125 -38.984375 C 26.050781 -37.890625 25.96875 -37.003906 25.875 -36.328125 C 25.78125 -35.398438 25.378906 -34.738281 24.671875 -34.34375 C 23.960938 -33.957031 23.132812 -33.664062 22.1875 -33.46875 C 21.238281 -33.28125 20.3125 -33.050781 19.40625 -32.78125 C 18.5 -32.507812 17.804688 -32.0625 17.328125 -31.4375 C 16.785156 -30.75 16.332031 -29.585938 15.96875 -27.953125 C 15.601562 -26.328125 15.394531 -24.5 15.34375 -22.46875 C 15.300781 -20.445312 15.4375 -18.507812 15.75 -16.65625 C 16.070312 -14.8125 16.644531 -13.28125 17.46875 -12.0625 C 18.300781 -10.84375 19.398438 -10.234375 20.765625 -10.234375 C 21.347656 -10.234375 21.96875 -10.351562 22.625 -10.59375 C 23.28125 -10.84375 23.925781 -11.050781 24.5625 -11.21875 C 25.195312 -11.382812 25.753906 -11.347656 26.234375 -11.109375 C 26.921875 -10.867188 27.503906 -10.222656 27.984375 -9.171875 C 28.472656 -8.128906 28.867188 -7.3125 29.171875 -6.71875 C 29.460938 -6.1875 29.65625 -5.648438 29.75 -5.109375 C 29.800781 -4.378906 29.507812 -3.804688 28.875 -3.390625 C 28.238281 -2.984375 27.65625 -2.632812 27.125 -2.34375 C 24.726562 -0.976562 22.191406 -0.207031 19.515625 -0.03125 C 16.835938 0.132812 14.28125 -0.488281 11.84375 -1.90625 Z M 11.84375 -1.90625 "/></g></g></g><g fill="#000000" fill-opacity="1"><g transform="translate(243.492442, 173.890761)"><g><path d="M 41 -18.5625 C 40.414062 -18.070312 39.550781 -17.742188 38.40625 -17.578125 C 37.257812 -17.410156 36.039062 -17.328125 34.75 -17.328125 C 33.457031 -17.328125 32.25 -17.347656 31.125 -17.390625 C 30.007812 -17.441406 29.160156 -17.46875 28.578125 -17.46875 C 26.046875 -17.414062 23.535156 -17.378906 21.046875 -17.359375 C 18.566406 -17.335938 16.054688 -17.328125 13.515625 -17.328125 C 12.742188 -17.328125 12.242188 -17.082031 12.015625 -16.59375 C 11.796875 -16.101562 11.769531 -15.550781 11.9375 -14.9375 C 12.113281 -14.332031 12.347656 -13.8125 12.640625 -13.375 C 13.671875 -12.0625 14.953125 -11 16.484375 -10.1875 C 18.015625 -9.382812 19.609375 -8.890625 21.265625 -8.703125 C 23.117188 -8.503906 24.664062 -8.757812 25.90625 -9.46875 C 27.15625 -10.175781 28.554688 -10.914062 30.109375 -11.6875 C 30.847656 -12.082031 31.347656 -12.328125 31.609375 -12.421875 C 31.878906 -12.523438 32.332031 -12.304688 32.96875 -11.765625 C 33.644531 -11.234375 34.285156 -10.503906 34.890625 -9.578125 C 35.503906 -8.648438 36.101562 -7.84375 36.6875 -7.15625 C 37.320312 -6.332031 37.296875 -5.554688 36.609375 -4.828125 C 35.929688 -4.097656 34.882812 -3.425781 33.46875 -2.8125 C 32.0625 -2.207031 30.53125 -1.679688 28.875 -1.234375 C 27.21875 -0.796875 25.71875 -0.457031 24.375 -0.21875 C 23.03125 0.0195312 22.117188 0.140625 21.640625 0.140625 C 18.367188 0.140625 15.359375 -0.503906 12.609375 -1.796875 C 9.859375 -3.085938 7.503906 -4.835938 5.546875 -7.046875 C 3.597656 -9.265625 2.132812 -11.765625 1.15625 -14.546875 C 0.1875 -17.328125 -0.1875 -20.238281 0.03125 -23.28125 C 0.25 -26.320312 1.1875 -29.28125 2.84375 -32.15625 C 4.113281 -34.40625 5.804688 -36.304688 7.921875 -37.859375 C 10.046875 -39.421875 12.382812 -40.578125 14.9375 -41.328125 C 17.5 -42.085938 20.117188 -42.429688 22.796875 -42.359375 C 25.484375 -42.285156 28.03125 -41.75 30.4375 -40.75 C 32.851562 -39.75 34.960938 -38.25 36.765625 -36.25 C 37.597656 -35.320312 38.390625 -34.164062 39.140625 -32.78125 C 39.898438 -31.394531 40.546875 -29.894531 41.078125 -28.28125 C 41.609375 -26.675781 41.9375 -25.101562 42.0625 -23.5625 C 42.1875 -22.03125 42.03125 -20.632812 41.59375 -19.375 C 41.488281 -19.082031 41.289062 -18.8125 41 -18.5625 Z M 29.96875 -26.171875 C 30.113281 -26.503906 30.160156 -26.867188 30.109375 -27.265625 C 30.066406 -27.847656 29.800781 -28.40625 29.3125 -28.9375 C 28 -30.789062 26.289062 -32.15625 24.1875 -33.03125 C 22.09375 -33.914062 19.953125 -33.867188 17.765625 -32.890625 C 16.785156 -32.453125 15.867188 -31.890625 15.015625 -31.203125 C 14.160156 -30.523438 13.367188 -29.796875 12.640625 -29.015625 C 12.453125 -28.816406 12.257812 -28.597656 12.0625 -28.359375 C 11.863281 -28.117188 11.71875 -27.851562 11.625 -27.5625 C 11.425781 -26.96875 11.519531 -26.425781 11.90625 -25.9375 C 12.300781 -25.457031 12.789062 -25.21875 13.375 -25.21875 L 28.28125 -25.21875 C 29.113281 -25.21875 29.675781 -25.535156 29.96875 -26.171875 Z M 29.96875 -26.171875 "/></g></g></g><g fill="#000000" fill-opacity="1"><g transform="translate(90.677222, 217.448327)"><g><path d="M 37.34375 -0.359375 C 36.082031 -0.410156 34.804688 -0.421875 33.515625 -0.390625 C 32.222656 -0.367188 30.921875 -0.359375 29.609375 -0.359375 C 29.316406 -0.359375 29.082031 -0.867188 28.90625 -1.890625 C 28.738281 -2.921875 28.628906 -4.265625 28.578125 -5.921875 C 28.523438 -7.578125 28.5 -9.367188 28.5 -11.296875 C 28.5 -13.222656 28.523438 -15.085938 28.578125 -16.890625 C 28.628906 -18.691406 28.664062 -20.25 28.6875 -21.5625 C 28.707031 -22.875 28.71875 -23.726562 28.71875 -24.125 C 28.675781 -26.851562 28.25 -28.921875 27.4375 -30.328125 C 26.632812 -31.742188 25.632812 -32.71875 24.4375 -33.25 C 23.25 -33.789062 22.070312 -34.0625 20.90625 -34.0625 L 20.765625 -34.0625 C 17.984375 -34.0625 15.726562 -33.125 14 -31.25 C 12.269531 -29.375 11.351562 -26.925781 11.25 -23.90625 C 11.207031 -21.957031 11.1875 -20.003906 11.1875 -18.046875 C 11.1875 -16.097656 11.1875 -14.148438 11.1875 -12.203125 C 11.226562 -10.691406 11.359375 -9.019531 11.578125 -7.1875 C 11.804688 -5.363281 11.769531 -3.695312 11.46875 -2.1875 C 11.28125 -1.070312 10.832031 -0.476562 10.125 -0.40625 C 9.414062 -0.332031 8.625 -0.269531 7.75 -0.21875 C 7.164062 -0.164062 6.394531 -0.101562 5.4375 -0.03125 C 4.488281 0.0390625 3.5625 0.00390625 2.65625 -0.140625 C 1.757812 -0.285156 1.09375 -0.65625 0.65625 -1.25 C 0.125 -2.019531 -0.0664062 -2.953125 0.078125 -4.046875 C 0.222656 -5.148438 0.316406 -6.113281 0.359375 -6.9375 C 0.554688 -9.625 0.703125 -12.351562 0.796875 -15.125 C 0.941406 -20.394531 0.796875 -25.632812 0.359375 -30.84375 C 0.265625 -31.863281 0.191406 -33.054688 0.140625 -34.421875 C 0.0976562 -35.785156 0.207031 -37.085938 0.46875 -38.328125 C 0.738281 -39.578125 1.273438 -40.554688 2.078125 -41.265625 C 2.890625 -41.972656 4.097656 -42.175781 5.703125 -41.875 C 7.015625 -41.632812 8.300781 -41.332031 9.5625 -40.96875 C 10.832031 -40.601562 12.128906 -40.300781 13.453125 -40.0625 C 13.546875 -40.0625 13.648438 -40.0625 13.765625 -40.0625 C 13.890625 -40.0625 13.976562 -40.0625 14.03125 -40.0625 C 14.957031 -40.0625 15.882812 -40.242188 16.8125 -40.609375 C 17.738281 -40.972656 18.6875 -41.347656 19.65625 -41.734375 C 20.632812 -42.128906 21.613281 -42.347656 22.59375 -42.390625 C 25.414062 -42.640625 28.09375 -42.15625 30.625 -40.9375 C 32.820312 -39.90625 34.515625 -38.5625 35.703125 -36.90625 C 36.898438 -35.25 37.765625 -33.421875 38.296875 -31.421875 C 38.835938 -29.429688 39.179688 -27.363281 39.328125 -25.21875 C 39.472656 -23.070312 39.59375 -20.953125 39.6875 -18.859375 C 39.6875 -18.421875 39.734375 -17.519531 39.828125 -16.15625 C 39.929688 -14.789062 39.992188 -13.21875 40.015625 -11.4375 C 40.046875 -9.65625 40.007812 -7.925781 39.90625 -6.25 C 39.8125 -4.570312 39.582031 -3.171875 39.21875 -2.046875 C 38.851562 -0.921875 38.300781 -0.359375 37.5625 -0.359375 C 37.519531 -0.359375 37.484375 -0.359375 37.453125 -0.359375 C 37.429688 -0.359375 37.394531 -0.359375 37.34375 -0.359375 Z M 37.34375 -0.359375 "/></g></g></g><g fill="#000000" fill-opacity="1"><g transform="translate(130.873323, 217.448327)"><g><path d="M 0.078125 -21.203125 C 0.0234375 -23.929688 0.554688 -26.644531 1.671875 -29.34375 C 2.796875 -32.050781 4.359375 -34.425781 6.359375 -36.46875 C 8.253906 -38.414062 10.421875 -39.898438 12.859375 -40.921875 C 15.296875 -41.953125 17.804688 -42.46875 20.390625 -42.46875 C 20.640625 -42.46875 20.894531 -42.46875 21.15625 -42.46875 C 21.425781 -42.46875 21.679688 -42.46875 21.921875 -42.46875 C 21.921875 -42.46875 21.929688 -42.46875 21.953125 -42.46875 C 21.984375 -42.46875 22 -42.46875 22 -42.46875 C 26.238281 -42.46875 29.976562 -41.585938 33.21875 -39.828125 C 36.457031 -38.078125 39.003906 -35.640625 40.859375 -32.515625 C 42.710938 -29.398438 43.640625 -25.796875 43.640625 -21.703125 C 43.640625 -15.328125 41.640625 -10.140625 37.640625 -6.140625 C 35.691406 -4.191406 33.363281 -2.691406 30.65625 -1.640625 C 27.957031 -0.597656 25.023438 -0.078125 21.859375 -0.078125 C 18.835938 -0.078125 16.019531 -0.625 13.40625 -1.71875 C 10.800781 -2.8125 8.507812 -4.320312 6.53125 -6.25 C 4.5625 -8.175781 3.003906 -10.414062 1.859375 -12.96875 C 0.710938 -15.53125 0.117188 -18.273438 0.078125 -21.203125 Z M 21.640625 -33.765625 C 19.929688 -33.765625 18.269531 -33.21875 16.65625 -32.125 C 15.050781 -31.03125 13.722656 -29.617188 12.671875 -27.890625 C 11.628906 -26.160156 11.082031 -24.34375 11.03125 -22.4375 C 10.988281 -20.34375 11.332031 -18.320312 12.0625 -16.375 C 12.789062 -14.425781 13.910156 -12.789062 15.421875 -11.46875 C 16.929688 -10.15625 18.804688 -9.378906 21.046875 -9.140625 C 23.535156 -8.890625 25.628906 -9.273438 27.328125 -10.296875 C 29.035156 -11.328125 30.351562 -12.726562 31.28125 -14.5 C 32.207031 -16.28125 32.71875 -18.226562 32.8125 -20.34375 C 32.914062 -22.46875 32.597656 -24.503906 31.859375 -26.453125 C 31.128906 -28.410156 29.960938 -30.054688 28.359375 -31.390625 C 26.753906 -32.734375 24.707031 -33.523438 22.21875 -33.765625 C 22.125 -33.765625 22.023438 -33.765625 21.921875 -33.765625 C 21.828125 -33.765625 21.734375 -33.765625 21.640625 -33.765625 Z M 21.640625 -33.765625 "/></g></g></g><g fill="#000000" fill-opacity="1"><g transform="translate(174.650622, 217.448327)"><g><path d="M 2.78125 -46.046875 C 1.707031 -46.734375 0.925781 -47.695312 0.4375 -48.9375 C -0.0507812 -50.175781 -0.078125 -51.53125 0.359375 -53 C 1.191406 -55.875 3.144531 -57.359375 6.21875 -57.453125 L 6.359375 -57.453125 C 7.867188 -57.453125 9.132812 -57.050781 10.15625 -56.25 C 11.175781 -55.445312 11.859375 -54.335938 12.203125 -52.921875 C 12.640625 -51.160156 12.46875 -49.550781 11.6875 -48.09375 C 10.914062 -46.632812 9.601562 -45.6875 7.75 -45.25 C 6.820312 -45.050781 5.929688 -45.023438 5.078125 -45.171875 C 4.222656 -45.316406 3.457031 -45.609375 2.78125 -46.046875 Z M 1.75 -38.734375 C 2.4375 -39.171875 3.410156 -39.367188 4.671875 -39.328125 C 5.410156 -39.328125 6.21875 -39.347656 7.09375 -39.390625 C 7.96875 -39.441406 8.78125 -39.359375 9.53125 -39.140625 C 10.289062 -38.921875 10.789062 -38.421875 11.03125 -37.640625 C 11.46875 -36.421875 11.613281 -34.945312 11.46875 -33.21875 C 11.320312 -31.488281 11.25 -29.988281 11.25 -28.71875 C 11.300781 -25.75 11.328125 -22.800781 11.328125 -19.875 C 11.328125 -16.957031 11.351562 -14.007812 11.40625 -11.03125 C 11.40625 -10.550781 11.460938 -9.738281 11.578125 -8.59375 C 11.703125 -7.445312 11.773438 -6.210938 11.796875 -4.890625 C 11.828125 -3.578125 11.695312 -2.457031 11.40625 -1.53125 C 11.113281 -0.601562 10.523438 -0.117188 9.640625 -0.078125 C 8.523438 -0.0234375 7.359375 0.0078125 6.140625 0.03125 C 4.921875 0.0625 3.75 0.00390625 2.625 -0.140625 C 1.851562 -0.242188 1.316406 -0.671875 1.015625 -1.421875 C 0.722656 -2.179688 0.566406 -3.097656 0.546875 -4.171875 C 0.523438 -5.242188 0.5625 -6.265625 0.65625 -7.234375 C 0.75 -8.210938 0.796875 -8.96875 0.796875 -9.5 C 0.753906 -11.5 0.71875 -13.507812 0.6875 -15.53125 C 0.664062 -17.550781 0.65625 -19.5625 0.65625 -21.5625 C 0.601562 -23.269531 0.578125 -24.972656 0.578125 -26.671875 C 0.578125 -28.378906 0.554688 -30.0625 0.515625 -31.71875 C 0.515625 -33.132812 0.488281 -34.5 0.4375 -35.8125 C 0.382812 -37.132812 0.820312 -38.109375 1.75 -38.734375 Z M 1.75 -38.734375 "/></g></g></g><g fill="#000000" fill-opacity="1"><g transform="translate(187.293417, 217.448327)"><g><path d="M 25.140625 -1.90625 C 22.460938 -0.632812 19.757812 0 17.03125 0 C 15.46875 0 13.75 -0.21875 11.875 -0.65625 C 10 -1.09375 8.171875 -1.648438 6.390625 -2.328125 C 4.617188 -3.015625 3.050781 -3.75 1.6875 -4.53125 C 0.65625 -5.113281 0.113281 -5.707031 0.0625 -6.3125 C 0.0195312 -6.925781 0.242188 -7.5625 0.734375 -8.21875 C 1.222656 -8.875 1.6875 -9.59375 2.125 -10.375 C 2.269531 -10.625 2.425781 -10.859375 2.59375 -11.078125 C 2.757812 -11.296875 2.941406 -11.476562 3.140625 -11.625 C 3.679688 -12.007812 4.242188 -12.128906 4.828125 -11.984375 C 5.410156 -11.835938 5.976562 -11.59375 6.53125 -11.25 C 7.09375 -10.914062 7.597656 -10.625 8.046875 -10.375 C 9.554688 -9.550781 11.210938 -8.941406 13.015625 -8.546875 C 14.816406 -8.160156 16.566406 -8.015625 18.265625 -8.109375 C 19.535156 -8.210938 20.707031 -8.492188 21.78125 -8.953125 C 22.851562 -9.410156 23.484375 -10.054688 23.671875 -10.890625 C 23.867188 -11.722656 23.285156 -12.695312 21.921875 -13.8125 C 20.117188 -15.226562 18.207031 -16.398438 16.1875 -17.328125 C 14.164062 -18.253906 12.082031 -19.054688 9.9375 -19.734375 C 7.9375 -20.367188 6.328125 -21.316406 5.109375 -22.578125 C 3.898438 -23.847656 3.035156 -25.265625 2.515625 -26.828125 C 2.003906 -28.390625 1.847656 -29.898438 2.046875 -31.359375 C 2.285156 -32.921875 2.890625 -34.40625 3.859375 -35.8125 C 4.835938 -37.226562 6.054688 -38.472656 7.515625 -39.546875 C 8.984375 -40.617188 10.570312 -41.347656 12.28125 -41.734375 C 13.25 -41.984375 14.195312 -42.164062 15.125 -42.28125 C 16.050781 -42.40625 16.976562 -42.46875 17.90625 -42.46875 C 19.664062 -42.46875 21.394531 -42.257812 23.09375 -41.84375 C 24.800781 -41.425781 26.4375 -40.851562 28 -40.125 C 29.40625 -39.488281 30.410156 -38.890625 31.015625 -38.328125 C 31.628906 -37.773438 31.851562 -37.109375 31.6875 -36.328125 C 31.519531 -35.546875 30.945312 -34.445312 29.96875 -33.03125 C 29.238281 -31.96875 28.410156 -31.375 27.484375 -31.25 C 26.554688 -31.125 25.554688 -31.253906 24.484375 -31.640625 C 23.410156 -32.035156 22.328125 -32.515625 21.234375 -33.078125 C 20.140625 -33.640625 19.066406 -34.113281 18.015625 -34.5 C 16.972656 -34.882812 16.007812 -35.003906 15.125 -34.859375 C 14.25 -34.710938 13.472656 -34.101562 12.796875 -33.03125 C 12.160156 -31.96875 11.972656 -31.03125 12.234375 -30.21875 C 12.503906 -29.414062 13.050781 -28.722656 13.875 -28.140625 C 14.707031 -27.554688 15.671875 -27.066406 16.765625 -26.671875 C 17.867188 -26.285156 18.929688 -25.945312 19.953125 -25.65625 C 20.972656 -25.363281 21.800781 -25.097656 22.4375 -24.859375 C 24.289062 -24.171875 26.09375 -23.335938 27.84375 -22.359375 C 29.601562 -21.390625 31.019531 -20.023438 32.09375 -18.265625 C 33.550781 -15.835938 34.070312 -13.5625 33.65625 -11.4375 C 33.238281 -9.320312 32.25 -7.445312 30.6875 -5.8125 C 29.132812 -4.175781 27.285156 -2.875 25.140625 -1.90625 Z M 25.140625 -1.90625 "/></g></g></g><g fill="#000000" fill-opacity="1"><g transform="translate(221.20415, 217.448327)"><g><path d="M 41 -18.5625 C 40.414062 -18.070312 39.550781 -17.742188 38.40625 -17.578125 C 37.257812 -17.410156 36.039062 -17.328125 34.75 -17.328125 C 33.457031 -17.328125 32.25 -17.347656 31.125 -17.390625 C 30.007812 -17.441406 29.160156 -17.46875 28.578125 -17.46875 C 26.046875 -17.414062 23.535156 -17.378906 21.046875 -17.359375 C 18.566406 -17.335938 16.054688 -17.328125 13.515625 -17.328125 C 12.742188 -17.328125 12.242188 -17.082031 12.015625 -16.59375 C 11.796875 -16.101562 11.769531 -15.550781 11.9375 -14.9375 C 12.113281 -14.332031 12.347656 -13.8125 12.640625 -13.375 C 13.671875 -12.0625 14.953125 -11 16.484375 -10.1875 C 18.015625 -9.382812 19.609375 -8.890625 21.265625 -8.703125 C 23.117188 -8.503906 24.664062 -8.757812 25.90625 -9.46875 C 27.15625 -10.175781 28.554688 -10.914062 30.109375 -11.6875 C 30.847656 -12.082031 31.347656 -12.328125 31.609375 -12.421875 C 31.878906 -12.523438 32.332031 -12.304688 32.96875 -11.765625 C 33.644531 -11.234375 34.285156 -10.503906 34.890625 -9.578125 C 35.503906 -8.648438 36.101562 -7.84375 36.6875 -7.15625 C 37.320312 -6.332031 37.296875 -5.554688 36.609375 -4.828125 C 35.929688 -4.097656 34.882812 -3.425781 33.46875 -2.8125 C 32.0625 -2.207031 30.53125 -1.679688 28.875 -1.234375 C 27.21875 -0.796875 25.71875 -0.457031 24.375 -0.21875 C 23.03125 0.0195312 22.117188 0.140625 21.640625 0.140625 C 18.367188 0.140625 15.359375 -0.503906 12.609375 -1.796875 C 9.859375 -3.085938 7.503906 -4.835938 5.546875 -7.046875 C 3.597656 -9.265625 2.132812 -11.765625 1.15625 -14.546875 C 0.1875 -17.328125 -0.1875 -20.238281 0.03125 -23.28125 C 0.25 -26.320312 1.1875 -29.28125 2.84375 -32.15625 C 4.113281 -34.40625 5.804688 -36.304688 7.921875 -37.859375 C 10.046875 -39.421875 12.382812 -40.578125 14.9375 -41.328125 C 17.5 -42.085938 20.117188 -42.429688 22.796875 -42.359375 C 25.484375 -42.285156 28.03125 -41.75 30.4375 -40.75 C 32.851562 -39.75 34.960938 -38.25 36.765625 -36.25 C 37.597656 -35.320312 38.390625 -34.164062 39.140625 -32.78125 C 39.898438 -31.394531 40.546875 -29.894531 41.078125 -28.28125 C 41.609375 -26.675781 41.9375 -25.101562 42.0625 -23.5625 C 42.1875 -22.03125 42.03125 -20.632812 41.59375 -19.375 C 41.488281 -19.082031 41.289062 -18.8125 41 -18.5625 Z M 29.96875 -26.171875 C 30.113281 -26.503906 30.160156 -26.867188 30.109375 -27.265625 C 30.066406 -27.847656 29.800781 -28.40625 29.3125 -28.9375 C 28 -30.789062 26.289062 -32.15625 24.1875 -33.03125 C 22.09375 -33.914062 19.953125 -33.867188 17.765625 -32.890625 C 16.785156 -32.453125 15.867188 -31.890625 15.015625 -31.203125 C 14.160156 -30.523438 13.367188 -29.796875 12.640625 -29.015625 C 12.453125 -28.816406 12.257812 -28.597656 12.0625 -28.359375 C 11.863281 -28.117188 11.71875 -27.851562 11.625 -27.5625 C 11.425781 -26.96875 11.519531 -26.425781 11.90625 -25.9375 C 12.300781 -25.457031 12.789062 -25.21875 13.375 -25.21875 L 28.28125 -25.21875 C 29.113281 -25.21875 29.675781 -25.535156 29.96875 -26.171875 Z M 29.96875 -26.171875 "/></g></g></g><g fill="#000000" fill-opacity="1"><g transform="translate(263.446636, 217.448327)"><g><path d="M 2.046875 -11.1875 C 2.878906 -12.007812 3.890625 -12.59375 5.078125 -12.9375 C 6.273438 -13.28125 7.457031 -13.253906 8.625 -12.859375 C 10.28125 -12.378906 11.554688 -11.394531 12.453125 -9.90625 C 13.359375 -8.414062 13.617188 -6.816406 13.234375 -5.109375 C 13.035156 -4.046875 12.546875 -3.0625 11.765625 -2.15625 C 10.984375 -1.25 10.054688 -0.601562 8.984375 -0.21875 C 7.429688 0.3125 5.921875 0.265625 4.453125 -0.359375 C 2.992188 -0.992188 1.835938 -1.992188 0.984375 -3.359375 C 0.128906 -4.722656 -0.148438 -6.210938 0.140625 -7.828125 C 0.429688 -9.191406 1.066406 -10.3125 2.046875 -11.1875 Z M 2.046875 -11.1875 "/></g></g></g><g fill="#000000" fill-opacity="1"><g transform="translate(172.647438, 237.516768)"><g><path d="M 0.34375 0 L 0.34375 -4.8125 L 2.140625 -4.8125 L 4.0625 -1.21875 L 4.078125 -1.21875 L 5.96875 -4.8125 L 7.796875 -4.8125 L 7.796875 0 L 6.5 0 L 6.5 -3.421875 L 6.484375 -3.421875 L 4.703125 0 L 3.46875 0 L 1.640625 -3.421875 L 1.625 -3.421875 L 1.625 0 Z M 0.34375 0 "/></g></g></g><g fill="#000000" fill-opacity="1"><g transform="translate(180.784425, 237.516768)"><g><path d="M 3.21875 0.140625 C 2.601562 0.140625 2.078125 0.0507812 1.640625 -0.125 C 1.203125 -0.3125 0.863281 -0.578125 0.625 -0.921875 C 0.382812 -1.273438 0.265625 -1.703125 0.265625 -2.203125 L 0.265625 -4.8125 L 1.640625 -4.8125 L 1.640625 -2.265625 C 1.640625 -1.796875 1.78125 -1.445312 2.0625 -1.21875 C 2.351562 -0.988281 2.738281 -0.875 3.21875 -0.875 C 3.695312 -0.875 4.078125 -0.988281 4.359375 -1.21875 C 4.648438 -1.445312 4.796875 -1.796875 4.796875 -2.265625 L 4.796875 -4.8125 L 6.15625 -4.8125 L 6.15625 -2.203125 C 6.15625 -1.703125 6.035156 -1.273438 5.796875 -0.921875 C 5.566406 -0.578125 5.234375 -0.3125 4.796875 -0.125 C 4.359375 0.0507812 3.832031 0.140625 3.21875 0.140625 Z M 3.21875 0.140625 "/></g></g></g><g fill="#000000" fill-opacity="1"><g transform="translate(187.222256, 237.516768)"><g><path d="M 3.140625 0.15625 C 2.722656 0.15625 2.316406 0.109375 1.921875 0.015625 C 1.535156 -0.078125 1.1875 -0.203125 0.875 -0.359375 C 0.5625 -0.523438 0.316406 -0.710938 0.140625 -0.921875 L 0.6875 -1.71875 C 0.832031 -1.53125 1.039062 -1.363281 1.3125 -1.21875 C 1.582031 -1.070312 1.878906 -0.957031 2.203125 -0.875 C 2.535156 -0.789062 2.867188 -0.75 3.203125 -0.75 C 3.609375 -0.75 3.929688 -0.800781 4.171875 -0.90625 C 4.410156 -1.019531 4.53125 -1.164062 4.53125 -1.34375 C 4.53125 -1.488281 4.4375 -1.609375 4.25 -1.703125 C 4.070312 -1.796875 3.773438 -1.867188 3.359375 -1.921875 L 2.34375 -2.046875 C 1.644531 -2.128906 1.132812 -2.28125 0.8125 -2.5 C 0.5 -2.71875 0.34375 -3.023438 0.34375 -3.421875 C 0.351562 -3.742188 0.46875 -4.019531 0.6875 -4.25 C 0.90625 -4.476562 1.210938 -4.65625 1.609375 -4.78125 C 2.003906 -4.90625 2.460938 -4.96875 2.984375 -4.96875 C 3.503906 -4.96875 3.984375 -4.894531 4.421875 -4.75 C 4.867188 -4.613281 5.222656 -4.425781 5.484375 -4.1875 L 5.015625 -3.40625 C 4.785156 -3.613281 4.488281 -3.78125 4.125 -3.90625 C 3.757812 -4.03125 3.378906 -4.09375 2.984375 -4.09375 C 2.609375 -4.09375 2.296875 -4.039062 2.046875 -3.9375 C 1.796875 -3.832031 1.671875 -3.691406 1.671875 -3.515625 C 1.671875 -3.390625 1.75 -3.285156 1.90625 -3.203125 C 2.0625 -3.117188 2.3125 -3.0625 2.65625 -3.03125 L 3.671875 -2.890625 C 4.429688 -2.804688 4.984375 -2.648438 5.328125 -2.421875 C 5.679688 -2.191406 5.859375 -1.875 5.859375 -1.46875 C 5.859375 -1.144531 5.742188 -0.859375 5.515625 -0.609375 C 5.296875 -0.367188 4.984375 -0.179688 4.578125 -0.046875 C 4.171875 0.0859375 3.691406 0.15625 3.140625 0.15625 Z M 3.140625 0.15625 "/></g></g></g><g fill="#000000" fill-opacity="1"><g transform="translate(193.220071, 237.516768)"><g><path d="M 0.34375 0 L 0.34375 -4.8125 L 1.6875 -4.8125 L 1.6875 0 Z M 0.34375 0 "/></g></g></g><g fill="#000000" fill-opacity="1"><g transform="translate(195.250931, 237.516768)"><g><path d="M 3.65625 0.140625 C 2.957031 0.140625 2.351562 0.0351562 1.84375 -0.171875 C 1.332031 -0.378906 0.9375 -0.671875 0.65625 -1.046875 C 0.375 -1.421875 0.234375 -1.875 0.234375 -2.40625 C 0.234375 -2.925781 0.363281 -3.375 0.625 -3.75 C 0.882812 -4.132812 1.253906 -4.429688 1.734375 -4.640625 C 2.222656 -4.847656 2.796875 -4.953125 3.453125 -4.953125 C 3.941406 -4.953125 4.382812 -4.882812 4.78125 -4.75 C 5.1875 -4.613281 5.523438 -4.414062 5.796875 -4.15625 C 6.078125 -3.90625 6.273438 -3.609375 6.390625 -3.265625 L 5.15625 -2.96875 C 5.0625 -3.28125 4.863281 -3.523438 4.5625 -3.703125 C 4.257812 -3.878906 3.898438 -3.96875 3.484375 -3.96875 C 3.097656 -3.96875 2.765625 -3.898438 2.484375 -3.765625 C 2.203125 -3.640625 1.984375 -3.460938 1.828125 -3.234375 C 1.671875 -3.003906 1.59375 -2.726562 1.59375 -2.40625 C 1.601562 -2.09375 1.691406 -1.816406 1.859375 -1.578125 C 2.035156 -1.347656 2.273438 -1.171875 2.578125 -1.046875 C 2.890625 -0.921875 3.257812 -0.859375 3.6875 -0.859375 C 4.1875 -0.859375 4.609375 -0.957031 4.953125 -1.15625 C 5.296875 -1.363281 5.515625 -1.644531 5.609375 -2 L 6.859375 -1.765625 C 6.765625 -1.367188 6.570312 -1.03125 6.28125 -0.75 C 5.988281 -0.46875 5.617188 -0.25 5.171875 -0.09375 C 4.722656 0.0625 4.21875 0.140625 3.65625 0.140625 Z M 3.65625 0.140625 "/></g></g></g><g fill="#000000" fill-opacity="1"><g transform="translate(177.539453, 244.28626)"><g><path d="M 0.015625 0 L 2.46875 -4.8125 L 4.046875 -4.8125 L 6.46875 0 L 5.046875 0 L 4.59375 -0.953125 L 1.890625 -0.953125 L 1.421875 0 Z M 2.1875 -1.765625 L 4.296875 -1.765625 L 3.25 -3.9375 L 3.234375 -3.9375 Z M 2.1875 -1.765625 "/></g></g></g><g fill="#000000" fill-opacity="1"><g transform="translate(184.031445, 244.28626)"><g><path d="M 0.34375 0 L 0.34375 -4.8125 L 2 -4.8125 L 5.015625 -1.3125 L 5.015625 -4.8125 L 6.3125 -4.8125 L 6.3125 0 L 4.65625 0 L 1.640625 -3.53125 L 1.625 -3.53125 L 1.625 0 Z M 0.34375 0 "/></g></g></g><g fill="#000000" fill-opacity="1"><g transform="translate(190.692676, 244.28626)"><g><path d="M 0.34375 0 L 0.34375 -4.8125 L 3.5625 -4.8125 C 4.488281 -4.8125 5.203125 -4.601562 5.703125 -4.1875 C 6.203125 -3.78125 6.453125 -3.1875 6.453125 -2.40625 C 6.453125 -1.632812 6.203125 -1.039062 5.703125 -0.625 C 5.203125 -0.207031 4.488281 0 3.5625 0 Z M 1.671875 -0.953125 L 3.390625 -0.953125 C 3.953125 -0.953125 4.378906 -1.078125 4.671875 -1.328125 C 4.972656 -1.585938 5.125 -1.945312 5.125 -2.40625 C 5.125 -2.875 4.972656 -3.234375 4.671875 -3.484375 C 4.378906 -3.734375 3.953125 -3.859375 3.390625 -3.859375 L 1.671875 -3.859375 Z M 1.671875 -0.953125 "/></g></g></g><g fill="#000000" fill-opacity="1"><g transform="translate(172.947129, 251.055752)"><g><path d="M 0.015625 0 L 2.46875 -4.8125 L 4.046875 -4.8125 L 6.46875 0 L 5.046875 0 L 4.59375 -0.953125 L 1.890625 -0.953125 L 1.421875 0 Z M 2.1875 -1.765625 L 4.296875 -1.765625 L 3.25 -3.9375 L 3.234375 -3.9375 Z M 2.1875 -1.765625 "/></g></g></g><g fill="#000000" fill-opacity="1"><g transform="translate(179.439121, 251.055752)"><g><path d="M 3.21875 0.140625 C 2.601562 0.140625 2.078125 0.0507812 1.640625 -0.125 C 1.203125 -0.3125 0.863281 -0.578125 0.625 -0.921875 C 0.382812 -1.273438 0.265625 -1.703125 0.265625 -2.203125 L 0.265625 -4.8125 L 1.640625 -4.8125 L 1.640625 -2.265625 C 1.640625 -1.796875 1.78125 -1.445312 2.0625 -1.21875 C 2.351562 -0.988281 2.738281 -0.875 3.21875 -0.875 C 3.695312 -0.875 4.078125 -0.988281 4.359375 -1.21875 C 4.648438 -1.445312 4.796875 -1.796875 4.796875 -2.265625 L 4.796875 -4.8125 L 6.15625 -4.8125 L 6.15625 -2.203125 C 6.15625 -1.703125 6.035156 -1.273438 5.796875 -0.921875 C 5.566406 -0.578125 5.234375 -0.3125 4.796875 -0.125 C 4.359375 0.0507812 3.832031 0.140625 3.21875 0.140625 Z M 3.21875 0.140625 "/></g></g></g><g fill="#000000" fill-opacity="1"><g transform="translate(185.876952, 251.055752)"><g><path d="M 0.34375 0 L 0.34375 -4.8125 L 3.5625 -4.8125 C 4.488281 -4.8125 5.203125 -4.601562 5.703125 -4.1875 C 6.203125 -3.78125 6.453125 -3.1875 6.453125 -2.40625 C 6.453125 -1.632812 6.203125 -1.039062 5.703125 -0.625 C 5.203125 -0.207031 4.488281 0 3.5625 0 Z M 1.671875 -0.953125 L 3.390625 -0.953125 C 3.953125 -0.953125 4.378906 -1.078125 4.671875 -1.328125 C 4.972656 -1.585938 5.125 -1.945312 5.125 -2.40625 C 5.125 -2.875 4.972656 -3.234375 4.671875 -3.484375 C 4.378906 -3.734375 3.953125 -3.859375 3.390625 -3.859375 L 1.671875 -3.859375 Z M 1.671875 -0.953125 "/></g></g></g><g fill="#000000" fill-opacity="1"><g transform="translate(192.565255, 251.055752)"><g><path d="M 0.34375 0 L 0.34375 -4.8125 L 1.6875 -4.8125 L 1.6875 0 Z M 0.34375 0 "/></g></g></g><g fill="#000000" fill-opacity="1"><g transform="translate(194.596114, 251.055752)"><g><path d="M 3.6875 0.171875 C 3.164062 0.171875 2.691406 0.109375 2.265625 -0.015625 C 1.847656 -0.140625 1.488281 -0.316406 1.1875 -0.546875 C 0.882812 -0.773438 0.648438 -1.046875 0.484375 -1.359375 C 0.316406 -1.671875 0.234375 -2.019531 0.234375 -2.40625 C 0.234375 -2.789062 0.316406 -3.140625 0.484375 -3.453125 C 0.648438 -3.773438 0.882812 -4.046875 1.1875 -4.265625 C 1.488281 -4.492188 1.847656 -4.671875 2.265625 -4.796875 C 2.691406 -4.921875 3.164062 -4.984375 3.6875 -4.984375 C 4.195312 -4.984375 4.660156 -4.921875 5.078125 -4.796875 C 5.503906 -4.671875 5.867188 -4.492188 6.171875 -4.265625 C 6.484375 -4.046875 6.71875 -3.773438 6.875 -3.453125 C 7.039062 -3.140625 7.125 -2.789062 7.125 -2.40625 C 7.125 -2.019531 7.039062 -1.671875 6.875 -1.359375 C 6.71875 -1.046875 6.484375 -0.773438 6.171875 -0.546875 C 5.867188 -0.316406 5.503906 -0.140625 5.078125 -0.015625 C 4.660156 0.109375 4.195312 0.171875 3.6875 0.171875 Z M 3.6875 -0.8125 C 4.09375 -0.8125 4.453125 -0.878906 4.765625 -1.015625 C 5.085938 -1.148438 5.332031 -1.335938 5.5 -1.578125 C 5.675781 -1.816406 5.765625 -2.09375 5.765625 -2.40625 C 5.765625 -2.71875 5.675781 -2.992188 5.5 -3.234375 C 5.332031 -3.472656 5.085938 -3.660156 4.765625 -3.796875 C 4.453125 -3.929688 4.09375 -4 3.6875 -4 C 3.269531 -4 2.90625 -3.929688 2.59375 -3.796875 C 2.28125 -3.660156 2.035156 -3.472656 1.859375 -3.234375 C 1.679688 -2.992188 1.59375 -2.71875 1.59375 -2.40625 C 1.59375 -2.09375 1.679688 -1.816406 1.859375 -1.578125 C 2.035156 -1.335938 2.28125 -1.148438 2.59375 -1.015625 C 2.90625 -0.878906 3.269531 -0.8125 3.6875 -0.8125 Z M 3.6875 -0.8125 "/></g></g></g><g fill="#000000" fill-opacity="1"><g transform="translate(119.537554, 244.556515)"><g><path d="M 0.34375 0 L 0.34375 -4.8125 L 5.28125 -4.8125 L 5.28125 -3.9375 L 1.65625 -3.9375 L 1.65625 -2.859375 L 5.015625 -2.859375 L 5.015625 -2.078125 L 1.65625 -2.078125 L 1.65625 -0.890625 L 5.359375 -0.890625 L 5.359375 0 Z M 0.34375 0 "/></g></g></g><g fill="#000000" fill-opacity="1"><g transform="translate(125.027652, 244.556515)"><g><path d="M 3.140625 0.15625 C 2.722656 0.15625 2.316406 0.109375 1.921875 0.015625 C 1.535156 -0.078125 1.1875 -0.203125 0.875 -0.359375 C 0.5625 -0.523438 0.316406 -0.710938 0.140625 -0.921875 L 0.6875 -1.71875 C 0.832031 -1.53125 1.039062 -1.363281 1.3125 -1.21875 C 1.582031 -1.070312 1.878906 -0.957031 2.203125 -0.875 C 2.535156 -0.789062 2.867188 -0.75 3.203125 -0.75 C 3.609375 -0.75 3.929688 -0.800781 4.171875 -0.90625 C 4.410156 -1.019531 4.53125 -1.164062 4.53125 -1.34375 C 4.53125 -1.488281 4.4375 -1.609375 4.25 -1.703125 C 4.070312 -1.796875 3.773438 -1.867188 3.359375 -1.921875 L 2.34375 -2.046875 C 1.644531 -2.128906 1.132812 -2.28125 0.8125 -2.5 C 0.5 -2.71875 0.34375 -3.023438 0.34375 -3.421875 C 0.351562 -3.742188 0.46875 -4.019531 0.6875 -4.25 C 0.90625 -4.476562 1.210938 -4.65625 1.609375 -4.78125 C 2.003906 -4.90625 2.460938 -4.96875 2.984375 -4.96875 C 3.503906 -4.96875 3.984375 -4.894531 4.421875 -4.75 C 4.867188 -4.613281 5.222656 -4.425781 5.484375 -4.1875 L 5.015625 -3.40625 C 4.785156 -3.613281 4.488281 -3.78125 4.125 -3.90625 C 3.757812 -4.03125 3.378906 -4.09375 2.984375 -4.09375 C 2.609375 -4.09375 2.296875 -4.039062 2.046875 -3.9375 C 1.796875 -3.832031 1.671875 -3.691406 1.671875 -3.515625 C 1.671875 -3.390625 1.75 -3.285156 1.90625 -3.203125 C 2.0625 -3.117188 2.3125 -3.0625 2.65625 -3.03125 L 3.671875 -2.890625 C 4.429688 -2.804688 4.984375 -2.648438 5.328125 -2.421875 C 5.679688 -2.191406 5.859375 -1.875 5.859375 -1.46875 C 5.859375 -1.144531 5.742188 -0.859375 5.515625 -0.609375 C 5.296875 -0.367188 4.984375 -0.179688 4.578125 -0.046875 C 4.171875 0.0859375 3.691406 0.15625 3.140625 0.15625 Z M 3.140625 0.15625 "/></g></g></g><g fill="#000000" fill-opacity="1"><g transform="translate(131.025467, 244.556515)"><g><path d="M 2.0625 0 L 2.0625 -3.828125 L 0.046875 -3.828125 L 0.046875 -4.8125 L 5.453125 -4.8125 L 5.453125 -3.828125 L 3.4375 -3.828125 L 3.4375 0 Z M 2.0625 0 "/></g></g></g><g fill="#000000" fill-opacity="1"><g transform="translate(136.522331, 244.556515)"><g><path d="M 0.34375 0 L 0.34375 -4.8125 L 3.5625 -4.8125 C 4.488281 -4.8125 5.203125 -4.601562 5.703125 -4.1875 C 6.203125 -3.78125 6.453125 -3.1875 6.453125 -2.40625 C 6.453125 -1.632812 6.203125 -1.039062 5.703125 -0.625 C 5.203125 -0.207031 4.488281 0 3.5625 0 Z M 1.671875 -0.953125 L 3.390625 -0.953125 C 3.953125 -0.953125 4.378906 -1.078125 4.671875 -1.328125 C 4.972656 -1.585938 5.125 -1.945312 5.125 -2.40625 C 5.125 -2.875 4.972656 -3.234375 4.671875 -3.484375 C 4.378906 -3.734375 3.953125 -3.859375 3.390625 -3.859375 L 1.671875 -3.859375 Z M 1.671875 -0.953125 "/></g></g></g><g fill="#000000" fill-opacity="1"><g transform="translate(232.30498, 242.991036)"><g><path d="M 0.171875 0 L 0.171875 -0.890625 L 2.0625 -0.890625 L 2.0625 -3.59375 L 2.046875 -3.59375 C 1.898438 -3.382812 1.703125 -3.21875 1.453125 -3.09375 C 1.210938 -2.96875 0.921875 -2.863281 0.578125 -2.78125 L 0.3125 -3.765625 C 0.738281 -3.847656 1.097656 -3.972656 1.390625 -4.140625 C 1.691406 -4.316406 1.9375 -4.539062 2.125 -4.8125 L 3.421875 -4.8125 L 3.421875 -0.890625 L 4.796875 -0.890625 L 4.796875 0 Z M 0.171875 0 "/></g></g></g><g fill="#000000" fill-opacity="1"><g transform="translate(237.172282, 242.991036)"><g><path d="M 3.078125 0.140625 C 2.410156 0.140625 1.820312 0.046875 1.3125 -0.140625 C 0.8125 -0.335938 0.410156 -0.597656 0.109375 -0.921875 L 0.71875 -1.6875 C 0.976562 -1.363281 1.304688 -1.125 1.703125 -0.96875 C 2.097656 -0.8125 2.535156 -0.734375 3.015625 -0.734375 C 3.535156 -0.734375 3.957031 -0.859375 4.28125 -1.109375 C 4.613281 -1.359375 4.785156 -1.722656 4.796875 -2.203125 C 4.597656 -2.015625 4.367188 -1.867188 4.109375 -1.765625 C 3.847656 -1.660156 3.503906 -1.609375 3.078125 -1.609375 C 2.566406 -1.609375 2.125 -1.675781 1.75 -1.8125 C 1.382812 -1.945312 1.097656 -2.140625 0.890625 -2.390625 C 0.691406 -2.640625 0.59375 -2.925781 0.59375 -3.25 C 0.59375 -3.59375 0.707031 -3.890625 0.9375 -4.140625 C 1.175781 -4.398438 1.5 -4.597656 1.90625 -4.734375 C 2.3125 -4.878906 2.773438 -4.953125 3.296875 -4.953125 C 3.867188 -4.953125 4.363281 -4.875 4.78125 -4.71875 C 5.195312 -4.570312 5.515625 -4.332031 5.734375 -4 C 5.960938 -3.675781 6.078125 -3.257812 6.078125 -2.75 C 6.078125 -1.789062 5.820312 -1.066406 5.3125 -0.578125 C 4.800781 -0.0976562 4.054688 0.140625 3.078125 0.140625 Z M 3.328125 -2.359375 C 3.597656 -2.359375 3.835938 -2.394531 4.046875 -2.46875 C 4.253906 -2.539062 4.414062 -2.640625 4.53125 -2.765625 C 4.65625 -2.890625 4.71875 -3.039062 4.71875 -3.21875 C 4.71875 -3.394531 4.65625 -3.546875 4.53125 -3.671875 C 4.414062 -3.804688 4.253906 -3.910156 4.046875 -3.984375 C 3.835938 -4.054688 3.59375 -4.09375 3.3125 -4.09375 C 3.039062 -4.09375 2.800781 -4.054688 2.59375 -3.984375 C 2.394531 -3.910156 2.238281 -3.804688 2.125 -3.671875 C 2.007812 -3.546875 1.953125 -3.394531 1.953125 -3.21875 C 1.953125 -3.039062 2.007812 -2.890625 2.125 -2.765625 C 2.238281 -2.640625 2.398438 -2.539062 2.609375 -2.46875 C 2.816406 -2.394531 3.054688 -2.359375 3.328125 -2.359375 Z M 3.328125 -2.359375 "/></g></g></g><g fill="#000000" fill-opacity="1"><g transform="translate(243.542422, 242.991036)"><g><path d="M 3.078125 0.140625 C 2.410156 0.140625 1.820312 0.046875 1.3125 -0.140625 C 0.8125 -0.335938 0.410156 -0.597656 0.109375 -0.921875 L 0.71875 -1.6875 C 0.976562 -1.363281 1.304688 -1.125 1.703125 -0.96875 C 2.097656 -0.8125 2.535156 -0.734375 3.015625 -0.734375 C 3.535156 -0.734375 3.957031 -0.859375 4.28125 -1.109375 C 4.613281 -1.359375 4.785156 -1.722656 4.796875 -2.203125 C 4.597656 -2.015625 4.367188 -1.867188 4.109375 -1.765625 C 3.847656 -1.660156 3.503906 -1.609375 3.078125 -1.609375 C 2.566406 -1.609375 2.125 -1.675781 1.75 -1.8125 C 1.382812 -1.945312 1.097656 -2.140625 0.890625 -2.390625 C 0.691406 -2.640625 0.59375 -2.925781 0.59375 -3.25 C 0.59375 -3.59375 0.707031 -3.890625 0.9375 -4.140625 C 1.175781 -4.398438 1.5 -4.597656 1.90625 -4.734375 C 2.3125 -4.878906 2.773438 -4.953125 3.296875 -4.953125 C 3.867188 -4.953125 4.363281 -4.875 4.78125 -4.71875 C 5.195312 -4.570312 5.515625 -4.332031 5.734375 -4 C 5.960938 -3.675781 6.078125 -3.257812 6.078125 -2.75 C 6.078125 -1.789062 5.820312 -1.066406 5.3125 -0.578125 C 4.800781 -0.0976562 4.054688 0.140625 3.078125 0.140625 Z M 3.328125 -2.359375 C 3.597656 -2.359375 3.835938 -2.394531 4.046875 -2.46875 C 4.253906 -2.539062 4.414062 -2.640625 4.53125 -2.765625 C 4.65625 -2.890625 4.71875 -3.039062 4.71875 -3.21875 C 4.71875 -3.394531 4.65625 -3.546875 4.53125 -3.671875 C 4.414062 -3.804688 4.253906 -3.910156 4.046875 -3.984375 C 3.835938 -4.054688 3.59375 -4.09375 3.3125 -4.09375 C 3.039062 -4.09375 2.800781 -4.054688 2.59375 -3.984375 C 2.394531 -3.910156 2.238281 -3.804688 2.125 -3.671875 C 2.007812 -3.546875 1.953125 -3.394531 1.953125 -3.21875 C 1.953125 -3.039062 2.007812 -2.890625 2.125 -2.765625 C 2.238281 -2.640625 2.398438 -2.539062 2.609375 -2.46875 C 2.816406 -2.394531 3.054688 -2.359375 3.328125 -2.359375 Z M 3.328125 -2.359375 "/></g></g></g><g fill="#000000" fill-opacity="1"><g transform="translate(249.912561, 242.991036)"><g><path d="M 0.171875 0 L 0.171875 -0.890625 L 2.0625 -0.890625 L 2.0625 -3.59375 L 2.046875 -3.59375 C 1.898438 -3.382812 1.703125 -3.21875 1.453125 -3.09375 C 1.210938 -2.96875 0.921875 -2.863281 0.578125 -2.78125 L 0.3125 -3.765625 C 0.738281 -3.847656 1.097656 -3.972656 1.390625 -4.140625 C 1.691406 -4.316406 1.9375 -4.539062 2.125 -4.8125 L 3.421875 -4.8125 L 3.421875 -0.890625 L 4.796875 -0.890625 L 4.796875 0 Z M 0.171875 0 "/></g></g></g></svg>