<svg width="1200" height="500" viewBox="0 0 1200 500" fill="none" xmlns="http://www.w3.org/2000/svg">
<g clip-path="url(#clip0_582_102)">
<rect width="1200" height="500" fill="url(#paint0_radial_582_102)"/>
<mask id="mask0_582_102" style="mask-type:luminance" maskUnits="userSpaceOnUse" x="613" y="218" width="471" height="62">
<path d="M613.271 218.889H1083.56V279.333H613.271V218.889Z" fill="white"/>
</mask>
<g mask="url(#mask0_582_102)">
<path d="M1001.02 279.076C978.59 279.076 967.556 265.882 957.257 254.514C948.438 244.243 940.715 235.076 925.271 235.076C909.826 235.076 901.736 244.243 892.91 254.514C882.618 265.882 871.583 279.076 849.153 279.076C826.722 279.076 815.694 265.882 805.764 254.514C796.569 244.243 788.854 235.076 773.41 235.076C757.965 235.076 749.875 244.243 741.049 254.514C731.118 265.882 719.722 279.076 697.66 279.076C675.597 279.076 664.201 265.882 654.271 254.514C644.708 244.243 636.618 235.076 621.181 235.076C617.132 235.076 613.826 231.778 613.826 227.743C613.826 223.715 617.132 220.41 621.181 220.41C643.604 220.41 654.639 233.611 664.569 244.979C673.757 255.243 681.479 264.41 696.924 264.41C712.368 264.41 720.458 255.243 729.285 244.979C739.208 233.611 750.611 220.41 772.674 220.41C795.104 220.41 806.132 233.611 816.063 244.979C825.257 255.243 832.979 264.41 848.417 264.41C864.229 264.41 871.951 255.243 880.778 244.979C890.708 233.611 902.104 220.41 924.167 220.41C946.597 220.41 957.625 233.611 967.556 244.979C976.75 255.243 984.472 264.41 999.917 264.41C1015.72 264.41 1023.44 255.243 1032.27 244.979C1042.2 233.611 1053.6 220.41 1076.03 220.41C1080.08 220.41 1083.38 223.715 1083.38 227.743C1083.38 231.778 1080.08 235.076 1076.03 235.076C1060.22 235.076 1052.49 244.243 1043.67 254.514C1034.85 265.882 1023.44 279.076 1001.02 279.076Z" fill="#FFC857"/>
</g>
<mask id="mask1_582_102" style="mask-type:luminance" maskUnits="userSpaceOnUse" x="613" y="293" width="471" height="60">
<path d="M613.271 293.556H1083.56V352.41H613.271V293.556Z" fill="white"/>
</mask>
<g mask="url(#mask1_582_102)">
<path d="M1001.02 352.41C978.59 352.41 967.556 339.215 957.257 327.847C948.438 317.576 940.715 308.41 925.271 308.41C909.826 308.41 901.736 317.576 892.91 327.847C882.618 339.215 871.583 352.41 849.153 352.41C826.722 352.41 815.694 339.215 805.764 327.847C796.569 317.576 788.854 308.41 773.41 308.41C757.965 308.41 749.875 317.576 741.049 327.847C731.118 339.215 719.722 352.41 697.66 352.41C675.597 352.41 664.201 339.215 654.271 327.847C644.708 317.576 636.618 308.41 621.181 308.41C617.132 308.41 613.826 305.111 613.826 301.076C613.826 297.049 617.132 293.743 621.181 293.743C643.604 293.743 654.639 306.944 664.569 318.312C673.757 328.576 681.479 337.743 696.924 337.743C712.368 337.743 720.458 328.576 729.285 318.312C739.208 306.944 750.611 293.743 772.674 293.743C795.104 293.743 806.132 306.944 816.063 318.312C825.257 328.576 832.979 337.743 848.417 337.743C864.229 337.743 871.951 328.576 880.778 318.312C890.708 306.944 902.104 293.743 924.167 293.743C946.597 293.743 957.625 306.944 967.556 318.312C976.75 328.576 984.472 337.743 999.917 337.743C1015.72 337.743 1023.44 328.576 1032.27 318.312C1042.2 306.944 1053.6 293.743 1076.03 293.743C1080.08 293.743 1083.38 297.049 1083.38 301.076C1083.38 305.111 1080.08 308.41 1076.03 308.41C1060.22 308.41 1052.49 317.576 1043.67 327.847C1034.85 339.215 1023.44 352.41 1001.02 352.41Z" fill="#FFC857"/>
</g>
<mask id="mask2_582_102" style="mask-type:luminance" maskUnits="userSpaceOnUse" x="613" y="147" width="471" height="60">
<path d="M613.271 147.076H1083.56V206.444H613.271V147.076Z" fill="white"/>
</mask>
<g mask="url(#mask2_582_102)">
<path d="M1001.02 205.743C978.59 205.743 967.556 192.549 957.257 181.181C948.438 170.91 940.715 161.743 925.271 161.743C909.826 161.743 901.736 170.91 892.91 181.181C882.618 192.549 871.583 205.743 849.153 205.743C826.722 205.743 815.694 192.549 805.764 181.181C796.569 170.91 788.854 161.743 773.41 161.743C757.965 161.743 749.875 170.91 741.049 181.181C731.118 192.549 719.722 205.743 697.66 205.743C675.597 205.743 664.201 192.549 654.271 181.181C644.708 170.91 636.618 161.743 621.181 161.743C617.132 161.743 613.826 158.444 613.826 154.41C613.826 150.382 617.132 147.076 621.181 147.076C643.604 147.076 654.639 160.278 664.569 171.646C673.757 181.91 681.479 191.076 696.924 191.076C712.368 191.076 720.458 181.91 729.285 171.646C739.208 160.278 750.611 147.076 772.674 147.076C795.104 147.076 806.132 160.278 816.063 171.646C825.257 181.91 832.979 191.076 848.417 191.076C864.229 191.076 871.951 181.91 880.778 171.646C890.708 160.278 902.104 147.076 924.167 147.076C946.597 147.076 957.625 160.278 967.556 171.646C976.75 181.91 984.472 191.076 999.917 191.076C1015.72 191.076 1023.44 181.91 1032.27 171.646C1042.2 160.278 1053.6 147.076 1076.03 147.076C1080.08 147.076 1083.38 150.382 1083.38 154.41C1083.38 158.444 1080.08 161.743 1076.03 161.743C1060.22 161.743 1052.49 170.91 1043.67 181.181C1034.85 192.549 1023.44 205.743 1001.02 205.743Z" fill="#FFC857"/>
</g>
<path d="M153.069 163.542V174.875H133.264V186.125H151.569V197.431H133.264V220.153H120.347V163.542H153.069Z" fill="#FFC857"/>
<path d="M194.856 204.236H169.328C169.328 206.702 170.12 208.535 171.717 209.736C173.328 210.924 175.065 211.514 176.94 211.514C178.919 211.514 180.474 211.257 181.606 210.736C182.752 210.202 184.058 209.153 185.523 207.597L194.301 211.986C190.648 218.118 184.565 221.181 176.051 221.181C170.752 221.181 166.203 219.368 162.412 215.736C158.613 212.091 156.717 207.709 156.717 202.597C156.717 197.472 158.613 193.084 162.412 189.431C166.203 185.764 170.752 183.931 176.051 183.931C181.641 183.931 186.19 185.542 189.69 188.764C193.19 191.986 194.94 196.597 194.94 202.597C194.94 203.417 194.912 203.959 194.856 204.236ZM169.69 197.514H183.051C182.773 195.681 182.051 194.278 180.884 193.292C179.731 192.313 178.245 191.82 176.412 191.82C174.391 191.82 172.787 192.347 171.606 193.403C170.419 194.459 169.78 195.834 169.69 197.514Z" fill="#FFC857"/>
<path d="M236.224 204.236H210.696C210.696 206.702 211.488 208.535 213.085 209.736C214.696 210.924 216.432 211.514 218.307 211.514C220.286 211.514 221.842 211.257 222.974 210.736C224.12 210.202 225.425 209.153 226.891 207.597L235.668 211.986C232.016 218.118 225.932 221.181 217.418 221.181C212.12 221.181 207.571 219.368 203.779 215.736C199.981 212.091 198.085 207.709 198.085 202.597C198.085 197.472 199.981 193.084 203.779 189.431C207.571 185.764 212.12 183.931 217.418 183.931C223.009 183.931 227.557 185.542 231.057 188.764C234.557 191.986 236.307 196.597 236.307 202.597C236.307 203.417 236.279 203.959 236.224 204.236ZM211.057 197.514H224.418C224.141 195.681 223.418 194.278 222.252 193.292C221.099 192.313 219.613 191.82 217.779 191.82C215.759 191.82 214.154 192.347 212.974 193.403C211.786 194.459 211.147 195.834 211.057 197.514Z" fill="#FFC857"/>
<path d="M241.98 220.153V161.153H254.119V220.153H241.98Z" fill="#FFC857"/>
<path d="M283.14 184.959V171.847H295.279V184.959H302.695V194.209H295.279V205.403C295.279 208.646 296.195 210.264 298.029 210.264C298.487 210.264 298.973 210.181 299.473 210.014C299.973 209.834 300.362 209.646 300.64 209.459L301.056 209.181L304.084 218.986C301.473 220.445 298.501 221.181 295.168 221.181C292.869 221.181 290.897 220.778 289.251 219.986C287.598 219.195 286.348 218.118 285.501 216.764C284.668 215.417 284.063 214 283.695 212.514C283.32 211.014 283.14 209.424 283.14 207.736V194.209H278.084V184.959H283.14Z" fill="#FFC857"/>
<path d="M308.182 220.153V161.153H320.321V188.653H320.46C323.627 185.507 326.988 183.931 330.543 183.931C332.28 183.931 334.016 184.167 335.738 184.625C337.46 185.07 339.106 185.778 340.682 186.736C342.252 187.702 343.53 189.063 344.516 190.82C345.495 192.584 345.988 194.625 345.988 196.959V220.153H333.849V200.264C333.849 198.431 333.266 196.834 332.099 195.459C330.932 194.091 329.412 193.403 327.543 193.403C325.71 193.403 324.043 194.118 322.543 195.542C321.057 196.952 320.321 198.528 320.321 200.264V220.153H308.182Z" fill="#FFC857"/>
<path d="M389.14 204.236H363.612C363.612 206.702 364.404 208.535 366.001 209.736C367.612 210.924 369.348 211.514 371.223 211.514C373.203 211.514 374.758 211.257 375.89 210.736C377.036 210.202 378.341 209.153 379.807 207.597L388.585 211.986C384.932 218.118 378.848 221.181 370.335 221.181C365.036 221.181 360.487 219.368 356.696 215.736C352.897 212.091 351.001 207.709 351.001 202.597C351.001 197.472 352.897 193.084 356.696 189.431C360.487 185.764 365.036 183.931 370.335 183.931C375.925 183.931 380.473 185.542 383.973 188.764C387.473 191.986 389.223 196.597 389.223 202.597C389.223 203.417 389.196 203.959 389.14 204.236ZM363.973 197.514H377.335C377.057 195.681 376.335 194.278 375.168 193.292C374.015 192.313 372.529 191.82 370.696 191.82C368.675 191.82 367.071 192.347 365.89 193.403C364.703 194.459 364.064 195.834 363.973 197.514Z" fill="#FFC857"/>
<path d="M413.625 163.542H431.209C436.5 163.542 440.723 164.681 443.875 166.959C447.042 169.222 448.625 172.889 448.625 177.959C448.625 183.625 446.264 187.674 441.542 190.097C449.598 191.528 453.625 196.285 453.625 204.375C453.625 209.139 451.973 212.959 448.681 215.847C445.403 218.722 440.875 220.153 435.098 220.153H413.625V163.542ZM426.542 185.709H427.57C430.438 185.709 432.577 185.209 433.986 184.209C435.41 183.195 436.125 181.542 436.125 179.264C436.125 175.417 433.271 173.486 427.57 173.486H426.542V185.709ZM426.542 210.209H430.57C436.882 210.209 440.042 208.111 440.042 203.903C440.042 201.389 439.25 199.584 437.681 198.486C436.105 197.375 433.736 196.82 430.57 196.82H426.542V210.209Z" fill="#FFC857"/>
<path d="M494.926 204.236H469.398C469.398 206.702 470.19 208.535 471.787 209.736C473.398 210.924 475.134 211.514 477.009 211.514C478.989 211.514 480.544 211.257 481.676 210.736C482.822 210.202 484.128 209.153 485.593 207.597L494.371 211.986C490.718 218.118 484.634 221.181 476.121 221.181C470.822 221.181 466.273 219.368 462.482 215.736C458.683 212.091 456.787 207.709 456.787 202.597C456.787 197.472 458.683 193.084 462.482 189.431C466.273 185.764 470.822 183.931 476.121 183.931C481.711 183.931 486.259 185.542 489.759 188.764C493.259 191.986 495.009 196.597 495.009 202.597C495.009 203.417 494.982 203.959 494.926 204.236ZM469.759 197.514H483.121C482.843 195.681 482.121 194.278 480.954 193.292C479.801 192.313 478.315 191.82 476.482 191.82C474.461 191.82 472.857 192.347 471.676 193.403C470.489 194.459 469.85 195.834 469.759 197.514Z" fill="#FFC857"/>
<path d="M503.072 215.792C499.794 212.202 498.155 207.806 498.155 202.597C498.155 197.375 499.794 192.959 503.072 189.347C506.363 185.736 510.558 183.931 515.655 183.931C520.322 183.931 524.162 185.396 527.183 188.32V184.959H539.322V220.153H527.322V216.181H527.183C524.162 219.514 520.322 221.181 515.655 221.181C510.558 221.181 506.363 219.389 503.072 215.792ZM513.405 196.625C511.829 198.181 511.044 200.174 511.044 202.597C511.044 205.028 511.794 207.007 513.294 208.542C514.808 210.063 516.808 210.82 519.294 210.82C521.662 210.82 523.613 210.042 525.155 208.486C526.69 206.931 527.46 204.972 527.46 202.597C527.46 200.174 526.662 198.181 525.072 196.625C523.495 195.07 521.572 194.292 519.294 194.292C516.96 194.292 514.995 195.07 513.405 196.625Z" fill="#FFC857"/>
<path d="M549.594 184.959V171.847H561.733V184.959H569.15V194.209H561.733V205.403C561.733 208.646 562.65 210.264 564.483 210.264C564.941 210.264 565.428 210.181 565.928 210.014C566.428 209.834 566.816 209.646 567.094 209.459L567.511 209.181L570.539 218.986C567.928 220.445 564.955 221.181 561.622 221.181C559.323 221.181 557.351 220.778 555.705 219.986C554.053 219.195 552.803 218.118 551.955 216.764C551.122 215.417 550.518 214 550.15 212.514C549.775 211.014 549.594 209.424 549.594 207.736V194.209H544.539V184.959H549.594Z" fill="#FFC857"/>
<path d="M582.47 205.459C584.651 205.459 586.512 206.229 588.054 207.764C589.588 209.306 590.359 211.167 590.359 213.348C590.359 215.514 589.588 217.368 588.054 218.903C586.512 220.417 584.651 221.181 582.47 221.181C580.317 221.181 578.477 220.417 576.942 218.903C575.401 217.368 574.637 215.514 574.637 213.348C574.637 211.167 575.401 209.306 576.942 207.764C578.477 206.229 580.317 205.459 582.47 205.459Z" fill="#FFC857"/>
<path d="M133.264 259.258V304.536H152.736V315.869H120.347V259.258H133.264Z" fill="#FFC857"/>
<path d="M160.275 261.064C161.698 259.64 163.393 258.925 165.358 258.925C167.316 258.925 169.004 259.64 170.413 261.064C171.837 262.473 172.552 264.161 172.552 266.119C172.552 268.084 171.837 269.779 170.413 271.202C169.004 272.633 167.316 273.341 165.358 273.341C163.393 273.341 161.698 272.633 160.275 271.202C158.865 269.779 158.163 268.084 158.163 266.119C158.163 264.161 158.865 262.473 160.275 261.064ZM159.108 280.675V315.869H171.247V280.675H159.108Z" fill="#FFC857"/>
<path d="M188.743 280.675L197.326 299.814L205.909 280.675H220.326L201.437 315.869H193.215L174.354 280.675H188.743Z" fill="#FFC857"/>
<path d="M258.657 299.952H233.129C233.129 302.418 233.921 304.251 235.518 305.452C237.129 306.64 238.865 307.23 240.74 307.23C242.72 307.23 244.275 306.973 245.407 306.452C246.553 305.918 247.858 304.869 249.324 303.314L258.101 307.702C254.449 313.834 248.365 316.897 239.851 316.897C234.553 316.897 230.004 315.084 226.213 311.452C222.414 307.807 220.518 303.425 220.518 298.314C220.518 293.189 222.414 288.8 226.213 285.147C230.004 281.48 234.553 279.647 239.851 279.647C245.442 279.647 249.99 281.258 253.49 284.48C256.99 287.702 258.74 292.314 258.74 298.314C258.74 299.133 258.713 299.675 258.657 299.952ZM233.49 293.23H246.851C246.574 291.397 245.851 289.994 244.685 289.008C243.532 288.029 242.046 287.536 240.213 287.536C238.192 287.536 236.588 288.064 235.407 289.119C234.22 290.175 233.581 291.55 233.49 293.23Z" fill="#FFC857"/>
<path d="M285.198 280.675V267.564H297.337V280.675H304.753V289.925H297.337V301.119C297.337 304.362 298.253 305.98 300.087 305.98C300.545 305.98 301.031 305.897 301.531 305.73C302.031 305.55 302.42 305.362 302.698 305.175L303.114 304.897L306.142 314.702C303.531 316.161 300.559 316.897 297.226 316.897C294.927 316.897 292.955 316.494 291.309 315.702C289.656 314.911 288.406 313.834 287.559 312.48C286.726 311.133 286.121 309.716 285.753 308.23C285.378 306.73 285.198 305.14 285.198 303.452V289.925H280.142V280.675H285.198Z" fill="#FFC857"/>
<path d="M310.24 315.869V256.869H322.379V284.369H322.518C325.685 281.223 329.046 279.647 332.602 279.647C334.338 279.647 336.074 279.883 337.796 280.341C339.518 280.786 341.164 281.494 342.74 282.452C344.31 283.418 345.588 284.779 346.574 286.536C347.553 288.3 348.046 290.341 348.046 292.675V315.869H335.907V295.98C335.907 294.147 335.324 292.55 334.157 291.175C332.99 289.807 331.47 289.119 329.602 289.119C327.768 289.119 326.102 289.834 324.602 291.258C323.115 292.668 322.379 294.244 322.379 295.98V315.869H310.24Z" fill="#FFC857"/>
<path d="M391.198 299.952H365.67C365.67 302.418 366.462 304.251 368.059 305.452C369.67 306.64 371.407 307.23 373.282 307.23C375.261 307.23 376.816 306.973 377.948 306.452C379.094 305.918 380.4 304.869 381.865 303.314L390.643 307.702C386.99 313.834 380.907 316.897 372.393 316.897C367.094 316.897 362.545 315.084 358.754 311.452C354.955 307.807 353.059 303.425 353.059 298.314C353.059 293.189 354.955 288.8 358.754 285.147C362.545 281.48 367.094 279.647 372.393 279.647C377.983 279.647 382.532 281.258 386.032 284.48C389.532 287.702 391.282 292.314 391.282 298.314C391.282 299.133 391.254 299.675 391.198 299.952ZM366.032 293.23H379.393C379.115 291.397 378.393 289.994 377.226 289.008C376.073 288.029 374.587 287.536 372.754 287.536C370.733 287.536 369.129 288.064 367.948 289.119C366.761 290.175 366.122 291.55 366.032 293.23Z" fill="#FFC857"/>
<path d="M433.378 315.869L409.656 259.258H424.183L438.461 296.453L452.739 259.258H467.295L443.545 315.869H433.378Z" fill="#FFC857"/>
<path d="M470.635 261.064C472.059 259.64 473.753 258.925 475.718 258.925C477.677 258.925 479.364 259.64 480.774 261.064C482.197 262.473 482.913 264.161 482.913 266.119C482.913 268.084 482.197 269.779 480.774 271.202C479.364 272.633 477.677 273.341 475.718 273.341C473.753 273.341 472.059 272.633 470.635 271.202C469.225 269.779 468.524 268.084 468.524 266.119C468.524 264.161 469.225 262.473 470.635 261.064ZM469.468 280.675V315.869H481.607V280.675H469.468Z" fill="#FFC857"/>
<path d="M526.409 285.064C529.7 288.675 531.353 293.091 531.353 298.314C531.353 303.522 529.7 307.918 526.409 311.508C523.131 315.105 518.943 316.897 513.853 316.897C509.186 316.897 505.339 315.23 502.325 311.897H502.186V315.869H490.186V256.869H502.325V284.036C505.339 281.112 509.186 279.647 513.853 279.647C518.943 279.647 523.131 281.452 526.409 285.064ZM516.186 304.258C517.7 302.723 518.464 300.744 518.464 298.314C518.464 295.89 517.666 293.897 516.075 292.341C514.499 290.786 512.548 290.008 510.214 290.008C507.936 290.008 506.006 290.786 504.436 292.341C502.86 293.897 502.075 295.89 502.075 298.314C502.075 300.689 502.832 302.647 504.353 304.202C505.888 305.758 507.839 306.536 510.214 306.536C512.693 306.536 514.686 305.779 516.186 304.258Z" fill="#FFC857"/>
<path d="M572.653 299.952H547.126C547.126 302.418 547.917 304.251 549.515 305.452C551.126 306.64 552.862 307.23 554.737 307.23C556.716 307.23 558.271 306.973 559.403 306.452C560.549 305.918 561.855 304.869 563.32 303.314L572.098 307.702C568.445 313.834 562.362 316.897 553.848 316.897C548.549 316.897 544.001 315.084 540.209 311.452C536.41 307.807 534.515 303.425 534.515 298.314C534.515 293.189 536.41 288.8 540.209 285.147C544.001 281.48 548.549 279.647 553.848 279.647C559.438 279.647 563.987 281.258 567.487 284.48C570.987 287.702 572.737 292.314 572.737 298.314C572.737 299.133 572.709 299.675 572.653 299.952ZM547.487 293.23H560.848C560.57 291.397 559.848 289.994 558.681 289.008C557.528 288.029 556.042 287.536 554.209 287.536C552.188 287.536 550.584 288.064 549.403 289.119C548.216 290.175 547.577 291.55 547.487 293.23Z" fill="#FFC857"/>
<path d="M586.243 301.175C588.424 301.175 590.285 301.946 591.827 303.48C593.361 305.022 594.132 306.883 594.132 309.064C594.132 311.23 593.361 313.084 591.827 314.619C590.285 316.133 588.424 316.897 586.243 316.897C584.091 316.897 582.25 316.133 580.716 314.619C579.174 313.084 578.41 311.23 578.41 309.064C578.41 306.883 579.174 305.022 580.716 303.48C582.25 301.946 584.091 301.175 586.243 301.175Z" fill="#FFC857"/>
</g>
<defs>
<radialGradient id="paint0_radial_582_102" cx="0" cy="0" r="1" gradientUnits="userSpaceOnUse" gradientTransform="translate(600 250) scale(600 250)">
<stop stop-color="white" stop-opacity="0"/>
<stop offset="1" stop-color="#FFC857" stop-opacity="0.5"/>
</radialGradient>
<clipPath id="clip0_582_102">
<rect width="1200" height="500" fill="white"/>
</clipPath>
</defs>
</svg>
