<svg width="820" height="400" viewBox="0 0 820 400" fill="none" xmlns="http://www.w3.org/2000/svg">
<rect width="820" height="400" fill="url(#paint0_radial_586_432)"/>
<g clip-path="url(#clip0_586_432)">
<mask id="mask0_586_432" style="mask-type:luminance" maskUnits="userSpaceOnUse" x="417" y="177" width="354" height="46">
<path d="M417.953 177.667H770.667V223H417.953V177.667Z" fill="white"/>
</mask>
<g mask="url(#mask0_586_432)">
<path d="M708.766 222.807C691.943 222.807 683.667 212.911 675.943 204.385C669.328 196.682 663.536 189.807 651.953 189.807C640.37 189.807 634.302 196.682 627.682 204.385C619.964 212.911 611.687 222.807 594.865 222.807C578.042 222.807 569.771 212.911 562.323 204.385C555.427 196.682 549.641 189.807 538.057 189.807C526.474 189.807 520.406 196.682 513.786 204.385C506.339 212.911 497.792 222.807 481.245 222.807C464.698 222.807 456.151 212.911 448.703 204.385C441.531 196.682 435.464 189.807 423.885 189.807C420.849 189.807 418.37 187.333 418.37 184.307C418.37 181.286 420.849 178.807 423.885 178.807C440.703 178.807 448.979 188.708 456.427 197.234C463.318 204.932 469.109 211.807 480.693 211.807C492.276 211.807 498.344 204.932 504.964 197.234C512.406 188.708 520.958 178.807 537.505 178.807C554.328 178.807 562.599 188.708 570.047 197.234C576.943 204.932 582.734 211.807 594.312 211.807C606.172 211.807 611.964 204.932 618.583 197.234C626.031 188.708 634.578 178.807 651.125 178.807C667.948 178.807 676.219 188.708 683.667 197.234C690.562 204.932 696.354 211.807 707.937 211.807C719.792 211.807 725.583 204.932 732.203 197.234C739.651 188.708 748.198 178.807 765.021 178.807C768.057 178.807 770.536 181.286 770.536 184.307C770.536 187.333 768.057 189.807 765.021 189.807C753.161 189.807 747.37 196.682 740.755 204.385C734.135 212.911 725.583 222.807 708.766 222.807Z" fill="#FFC857"/>
</g>
<mask id="mask1_586_432" style="mask-type:luminance" maskUnits="userSpaceOnUse" x="417" y="233" width="354" height="45">
<path d="M417.953 233.667H770.667V277.807H417.953V233.667Z" fill="white"/>
</mask>
<g mask="url(#mask1_586_432)">
<path d="M708.766 277.807C691.943 277.807 683.667 267.911 675.943 259.385C669.328 251.682 663.536 244.807 651.953 244.807C640.37 244.807 634.302 251.682 627.682 259.385C619.964 267.911 611.687 277.807 594.865 277.807C578.042 277.807 569.771 267.911 562.323 259.385C555.427 251.682 549.641 244.807 538.057 244.807C526.474 244.807 520.406 251.682 513.786 259.385C506.339 267.911 497.792 277.807 481.245 277.807C464.698 277.807 456.151 267.911 448.703 259.385C441.531 251.682 435.464 244.807 423.885 244.807C420.849 244.807 418.37 242.333 418.37 239.307C418.37 236.286 420.849 233.807 423.885 233.807C440.703 233.807 448.979 243.708 456.427 252.234C463.318 259.932 469.109 266.807 480.693 266.807C492.276 266.807 498.344 259.932 504.964 252.234C512.406 243.708 520.958 233.807 537.505 233.807C554.328 233.807 562.599 243.708 570.047 252.234C576.943 259.932 582.734 266.807 594.312 266.807C606.172 266.807 611.964 259.932 618.583 252.234C626.031 243.708 634.578 233.807 651.125 233.807C667.948 233.807 676.219 243.708 683.667 252.234C690.562 259.932 696.354 266.807 707.937 266.807C719.792 266.807 725.583 259.932 732.203 252.234C739.651 243.708 748.198 233.807 765.021 233.807C768.057 233.807 770.536 236.286 770.536 239.307C770.536 242.333 768.057 244.807 765.021 244.807C753.161 244.807 747.37 251.682 740.755 259.385C734.135 267.911 725.583 277.807 708.766 277.807Z" fill="#FFC857"/>
</g>
<mask id="mask2_586_432" style="mask-type:luminance" maskUnits="userSpaceOnUse" x="417" y="123" width="354" height="46">
<path d="M417.953 123.807H770.667V168.333H417.953V123.807Z" fill="white"/>
</mask>
<g mask="url(#mask2_586_432)">
<path d="M708.766 167.807C691.943 167.807 683.667 157.911 675.943 149.385C669.328 141.682 663.536 134.807 651.953 134.807C640.37 134.807 634.302 141.682 627.682 149.385C619.964 157.911 611.687 167.807 594.865 167.807C578.042 167.807 569.771 157.911 562.323 149.385C555.427 141.682 549.641 134.807 538.057 134.807C526.474 134.807 520.406 141.682 513.786 149.385C506.339 157.911 497.792 167.807 481.245 167.807C464.698 167.807 456.151 157.911 448.703 149.385C441.531 141.682 435.464 134.807 423.885 134.807C420.849 134.807 418.37 132.333 418.37 129.307C418.37 126.286 420.849 123.807 423.885 123.807C440.703 123.807 448.979 133.708 456.427 142.234C463.318 149.932 469.109 156.807 480.693 156.807C492.276 156.807 498.344 149.932 504.964 142.234C512.406 133.708 520.958 123.807 537.505 123.807C554.328 123.807 562.599 133.708 570.047 142.234C576.943 149.932 582.734 156.807 594.312 156.807C606.172 156.807 611.964 149.932 618.583 142.234C626.031 133.708 634.578 123.807 651.125 123.807C667.948 123.807 676.219 133.708 683.667 142.234C690.562 149.932 696.354 156.807 707.937 156.807C719.792 156.807 725.583 149.932 732.203 142.234C739.651 133.708 748.198 123.807 765.021 123.807C768.057 123.807 770.536 126.286 770.536 129.307C770.536 132.333 768.057 134.807 765.021 134.807C753.161 134.807 747.37 141.682 740.755 149.385C734.135 157.911 725.583 167.807 708.766 167.807Z" fill="#FFC857"/>
</g>
<path d="M72.802 136.156V144.656H57.9479V153.094H71.677V161.573H57.9479V178.615H48.2604V136.156H72.802Z" fill="#FFC857"/>
<path d="M104.142 166.677H84.9963C84.9963 168.526 85.59 169.901 86.788 170.802C87.9963 171.693 89.2984 172.136 90.7046 172.136C92.189 172.136 93.3557 171.943 94.2046 171.552C95.064 171.151 96.0432 170.365 97.1421 169.198L103.725 172.49C100.986 177.089 96.4234 179.386 90.038 179.386C86.064 179.386 82.6525 178.026 79.8088 175.302C76.9598 172.568 75.538 169.281 75.538 165.448C75.538 161.604 76.9598 158.313 79.8088 155.573C82.6525 152.823 86.064 151.448 90.038 151.448C94.2307 151.448 97.6421 152.656 100.267 155.073C102.892 157.49 104.205 160.948 104.205 165.448C104.205 166.063 104.184 166.469 104.142 166.677ZM85.2671 161.636H95.288C95.0796 160.261 94.538 159.209 93.663 158.469C92.7984 157.735 91.6838 157.365 90.3088 157.365C88.7932 157.365 87.59 157.761 86.7046 158.552C85.814 159.344 85.3348 160.375 85.2671 161.636Z" fill="#FFC857"/>
<path d="M135.168 166.677H116.022C116.022 168.526 116.616 169.901 117.814 170.802C119.022 171.693 120.324 172.136 121.73 172.136C123.215 172.136 124.381 171.943 125.23 171.552C126.09 171.151 127.069 170.365 128.168 169.198L134.751 172.49C132.012 177.089 127.449 179.386 121.064 179.386C117.09 179.386 113.678 178.026 110.835 175.302C107.986 172.568 106.564 169.281 106.564 165.448C106.564 161.604 107.986 158.313 110.835 155.573C113.678 152.823 117.09 151.448 121.064 151.448C125.256 151.448 128.668 152.656 131.293 155.073C133.918 157.49 135.23 160.948 135.23 165.448C135.23 166.063 135.21 166.469 135.168 166.677ZM116.293 161.636H126.314C126.105 160.261 125.564 159.209 124.689 158.469C123.824 157.735 122.71 157.365 121.335 157.365C119.819 157.365 118.616 157.761 117.73 158.552C116.84 159.344 116.361 160.375 116.293 161.636Z" fill="#FFC857"/>
<path d="M139.485 178.615V134.365H148.59V178.615H139.485Z" fill="#FFC857"/>
<path d="M170.355 152.219V142.386H179.459V152.219H185.021V159.156H179.459V167.552C179.459 169.985 180.146 171.198 181.521 171.198C181.865 171.198 182.23 171.136 182.605 171.011C182.98 170.875 183.271 170.735 183.48 170.594L183.792 170.386L186.063 177.74C184.105 178.834 181.876 179.386 179.376 179.386C177.652 179.386 176.172 179.084 174.938 178.49C173.699 177.896 172.761 177.089 172.126 176.073C171.501 175.063 171.047 174 170.771 172.886C170.49 171.761 170.355 170.568 170.355 169.302V159.156H166.563V152.219H170.355Z" fill="#FFC857"/>
<path d="M189.137 178.615V134.365H198.241V154.99H198.345C200.72 152.63 203.241 151.448 205.908 151.448C207.21 151.448 208.512 151.625 209.803 151.969C211.095 152.302 212.329 152.833 213.512 153.552C214.689 154.276 215.647 155.297 216.387 156.615C217.121 157.938 217.491 159.469 217.491 161.219V178.615H208.387V163.698C208.387 162.323 207.949 161.125 207.074 160.094C206.199 159.068 205.059 158.552 203.658 158.552C202.283 158.552 201.033 159.089 199.908 160.156C198.793 161.214 198.241 162.396 198.241 163.698V178.615H189.137Z" fill="#FFC857"/>
<path d="M249.855 166.677H230.709C230.709 168.526 231.303 169.901 232.501 170.802C233.709 171.693 235.011 172.136 236.418 172.136C237.902 172.136 239.069 171.943 239.918 171.552C240.777 171.151 241.756 170.365 242.855 169.198L249.438 172.49C246.699 177.089 242.136 179.386 235.751 179.386C231.777 179.386 228.366 178.026 225.522 175.302C222.673 172.568 221.251 169.281 221.251 165.448C221.251 161.604 222.673 158.313 225.522 155.573C228.366 152.823 231.777 151.448 235.751 151.448C239.944 151.448 243.355 152.656 245.98 155.073C248.605 157.49 249.918 160.948 249.918 165.448C249.918 166.063 249.897 166.469 249.855 166.677ZM230.98 161.636H241.001C240.793 160.261 240.251 159.209 239.376 158.469C238.511 157.735 237.397 157.365 236.022 157.365C234.506 157.365 233.303 157.761 232.418 158.552C231.527 159.344 231.048 160.375 230.98 161.636Z" fill="#FFC857"/>
<path d="M268.219 136.156H281.406C285.375 136.156 288.542 137.011 290.906 138.719C293.281 140.417 294.469 143.167 294.469 146.969C294.469 151.219 292.698 154.255 289.156 156.073C295.198 157.146 298.219 160.714 298.219 166.781C298.219 170.354 296.979 173.219 294.511 175.386C292.052 177.542 288.656 178.615 284.323 178.615H268.219V136.156ZM277.906 152.781H278.677C280.828 152.781 282.433 152.406 283.49 151.656C284.558 150.896 285.094 149.656 285.094 147.948C285.094 145.063 282.953 143.615 278.677 143.615H277.906V152.781ZM277.906 171.156H280.927C285.662 171.156 288.031 169.584 288.031 166.427C288.031 164.542 287.438 163.188 286.261 162.365C285.078 161.531 283.302 161.115 280.927 161.115H277.906V171.156Z" fill="#FFC857"/>
<path d="M329.194 166.677H310.049C310.049 168.526 310.642 169.901 311.84 170.802C313.049 171.693 314.351 172.136 315.757 172.136C317.241 172.136 318.408 171.943 319.257 171.552C320.116 171.151 321.096 170.365 322.194 169.198L328.778 172.49C326.038 177.089 321.476 179.386 315.09 179.386C311.116 179.386 307.705 178.026 304.861 175.302C302.012 172.568 300.59 169.281 300.59 165.448C300.59 161.604 302.012 158.313 304.861 155.573C307.705 152.823 311.116 151.448 315.09 151.448C319.283 151.448 322.694 152.656 325.319 155.073C327.944 157.49 329.257 160.948 329.257 165.448C329.257 166.063 329.236 166.469 329.194 166.677ZM310.319 161.636H320.34C320.132 160.261 319.59 159.209 318.715 158.469C317.851 157.735 316.736 157.365 315.361 157.365C313.846 157.365 312.642 157.761 311.757 158.552C310.866 159.344 310.387 160.375 310.319 161.636Z" fill="#FFC857"/>
<path d="M335.304 175.344C332.845 172.651 331.616 169.354 331.616 165.448C331.616 161.531 332.845 158.219 335.304 155.511C337.772 152.802 340.918 151.448 344.741 151.448C348.241 151.448 351.121 152.547 353.387 154.74V152.219H362.491V178.615H353.491V175.636H353.387C351.121 178.136 348.241 179.386 344.741 179.386C340.918 179.386 337.772 178.042 335.304 175.344ZM343.054 160.969C341.871 162.136 341.283 163.63 341.283 165.448C341.283 167.271 341.845 168.755 342.97 169.906C344.106 171.047 345.606 171.615 347.47 171.615C349.246 171.615 350.71 171.031 351.866 169.865C353.017 168.698 353.595 167.229 353.595 165.448C353.595 163.63 352.996 162.136 351.804 160.969C350.621 159.802 349.179 159.219 347.47 159.219C345.72 159.219 344.246 159.802 343.054 160.969Z" fill="#FFC857"/>
<path d="M370.196 152.219V142.386H379.3V152.219H384.862V159.156H379.3V167.552C379.3 169.985 379.987 171.198 381.362 171.198C381.706 171.198 382.071 171.136 382.446 171.011C382.821 170.875 383.112 170.735 383.321 170.594L383.633 170.386L385.904 177.74C383.946 178.834 381.717 179.386 379.217 179.386C377.493 179.386 376.013 179.084 374.779 178.49C373.539 177.896 372.602 177.089 371.967 176.073C371.342 175.063 370.888 174 370.612 172.886C370.331 171.761 370.196 170.568 370.196 169.302V159.156H366.404V152.219H370.196Z" fill="#FFC857"/>
<path d="M394.853 167.594C396.488 167.594 397.884 168.172 399.04 169.323C400.191 170.479 400.769 171.875 400.769 173.511C400.769 175.136 400.191 176.526 399.04 177.677C397.884 178.813 396.488 179.386 394.853 179.386C393.238 179.386 391.858 178.813 390.707 177.677C389.55 176.526 388.978 175.136 388.978 173.511C388.978 171.875 389.55 170.479 390.707 169.323C391.858 168.172 393.238 167.594 394.853 167.594Z" fill="#FFC857"/>
<path d="M57.9479 207.944V241.902H72.552V250.402H48.2604V207.944H57.9479Z" fill="#FFC857"/>
<path d="M78.2059 209.298C79.2736 208.23 80.5444 207.694 82.0184 207.694C83.4871 207.694 84.7528 208.23 85.8101 209.298C86.8778 210.355 87.4142 211.621 87.4142 213.089C87.4142 214.563 86.8778 215.834 85.8101 216.902C84.7528 217.975 83.4871 218.506 82.0184 218.506C80.5444 218.506 79.2736 217.975 78.2059 216.902C77.1486 215.834 76.6226 214.563 76.6226 213.089C76.6226 211.621 77.1486 210.355 78.2059 209.298ZM77.3309 224.006V250.402H86.4351V224.006H77.3309Z" fill="#FFC857"/>
<path d="M99.557 224.006L105.995 238.36L112.432 224.006H123.245L109.078 250.402H102.911L88.7654 224.006H99.557Z" fill="#FFC857"/>
<path d="M151.993 238.464H132.847C132.847 240.313 133.441 241.688 134.639 242.589C135.847 243.48 137.149 243.923 138.555 243.923C140.04 243.923 141.206 243.73 142.055 243.339C142.915 242.938 143.894 242.152 144.993 240.985L151.576 244.277C148.837 248.876 144.274 251.173 137.889 251.173C133.915 251.173 130.503 249.813 127.66 247.089C124.811 244.355 123.389 241.069 123.389 237.235C123.389 233.391 124.811 230.1 127.66 227.36C130.503 224.61 133.915 223.235 137.889 223.235C142.081 223.235 145.493 224.444 148.118 226.86C150.743 229.277 152.055 232.735 152.055 237.235C152.055 237.85 152.035 238.256 151.993 238.464ZM133.118 233.423H143.139C142.93 232.048 142.389 230.996 141.514 230.256C140.649 229.522 139.535 229.152 138.16 229.152C136.644 229.152 135.441 229.548 134.555 230.339C133.665 231.131 133.186 232.162 133.118 233.423Z" fill="#FFC857"/>
<path d="M171.898 224.006V214.173H181.003V224.006H186.565V230.944H181.003V239.339C181.003 241.772 181.69 242.985 183.065 242.985C183.409 242.985 183.773 242.923 184.148 242.798C184.523 242.662 184.815 242.522 185.023 242.381L185.336 242.173L187.607 249.527C185.648 250.621 183.419 251.173 180.919 251.173C179.195 251.173 177.716 250.871 176.482 250.277C175.242 249.683 174.305 248.876 173.669 247.86C173.044 246.85 172.591 245.787 172.315 244.673C172.034 243.548 171.898 242.355 171.898 241.089V230.944H168.107V224.006H171.898Z" fill="#FFC857"/>
<path d="M190.68 250.402V206.152H199.785V226.777H199.889C202.264 224.417 204.785 223.235 207.451 223.235C208.753 223.235 210.055 223.412 211.347 223.756C212.639 224.089 213.873 224.621 215.055 225.339C216.233 226.063 217.191 227.084 217.93 228.402C218.665 229.725 219.035 231.256 219.035 233.006V250.402H209.93V235.485C209.93 234.11 209.493 232.912 208.618 231.881C207.743 230.855 206.602 230.339 205.201 230.339C203.826 230.339 202.576 230.876 201.451 231.944C200.337 233.001 199.785 234.183 199.785 235.485V250.402H190.68Z" fill="#FFC857"/>
<path d="M251.399 238.464H232.253C232.253 240.313 232.847 241.688 234.044 242.589C235.253 243.48 236.555 243.923 237.961 243.923C239.445 243.923 240.612 243.73 241.461 243.339C242.32 242.938 243.3 242.152 244.399 240.985L250.982 244.277C248.242 248.876 243.68 251.173 237.294 251.173C233.32 251.173 229.909 249.813 227.065 247.089C224.216 244.355 222.794 241.069 222.794 237.235C222.794 233.391 224.216 230.1 227.065 227.36C229.909 224.61 233.32 223.235 237.294 223.235C241.487 223.235 244.899 224.444 247.524 226.86C250.149 229.277 251.461 232.735 251.461 237.235C251.461 237.85 251.44 238.256 251.399 238.464ZM232.524 233.423H242.544C242.336 232.048 241.794 230.996 240.919 230.256C240.055 229.522 238.94 229.152 237.565 229.152C236.05 229.152 234.847 229.548 233.961 230.339C233.07 231.131 232.591 232.162 232.524 233.423Z" fill="#FFC857"/>
<path d="M283.033 250.402L265.242 207.944H276.138L286.846 235.839L297.554 207.944H308.471L290.658 250.402H283.033Z" fill="#FFC857"/>
<path d="M310.976 209.298C312.044 208.23 313.315 207.694 314.789 207.694C316.258 207.694 317.523 208.23 318.58 209.298C319.648 210.355 320.185 211.621 320.185 213.089C320.185 214.563 319.648 215.834 318.58 216.902C317.523 217.975 316.258 218.506 314.789 218.506C313.315 218.506 312.044 217.975 310.976 216.902C309.919 215.834 309.393 214.563 309.393 213.089C309.393 211.621 309.919 210.355 310.976 209.298ZM310.101 224.006V250.402H319.205V224.006H310.101Z" fill="#FFC857"/>
<path d="M352.807 227.298C355.275 230.006 356.515 233.319 356.515 237.235C356.515 241.141 355.275 244.438 352.807 247.131C350.348 249.829 347.208 251.173 343.39 251.173C339.89 251.173 337.004 249.923 334.744 247.423H334.64V250.402H325.64V206.152H334.744V226.527C337.004 224.334 339.89 223.235 343.39 223.235C347.208 223.235 350.348 224.589 352.807 227.298ZM345.14 241.694C346.275 240.542 346.848 239.058 346.848 237.235C346.848 235.417 346.249 233.923 345.057 232.756C343.874 231.589 342.411 231.006 340.661 231.006C338.952 231.006 337.504 231.589 336.327 232.756C335.145 233.923 334.557 235.417 334.557 237.235C334.557 239.016 335.124 240.485 336.265 241.652C337.416 242.819 338.879 243.402 340.661 243.402C342.52 243.402 344.015 242.834 345.14 241.694Z" fill="#FFC857"/>
<path d="M387.49 238.464H368.344C368.344 240.313 368.938 241.688 370.136 242.589C371.344 243.48 372.646 243.923 374.053 243.923C375.537 243.923 376.704 243.73 377.553 243.339C378.412 242.938 379.391 242.152 380.49 240.985L387.073 244.277C384.334 248.876 379.771 251.173 373.386 251.173C369.412 251.173 366.001 249.813 363.157 247.089C360.308 244.355 358.886 241.069 358.886 237.235C358.886 233.391 360.308 230.1 363.157 227.36C366.001 224.61 369.412 223.235 373.386 223.235C377.579 223.235 380.99 224.444 383.615 226.86C386.24 229.277 387.553 232.735 387.553 237.235C387.553 237.85 387.532 238.256 387.49 238.464ZM368.615 233.423H378.636C378.428 232.048 377.886 230.996 377.011 230.256C376.146 229.522 375.032 229.152 373.657 229.152C372.141 229.152 370.938 229.548 370.053 230.339C369.162 231.131 368.683 232.162 368.615 233.423Z" fill="#FFC857"/>
<path d="M397.683 239.381C399.318 239.381 400.714 239.959 401.87 241.11C403.021 242.266 403.599 243.662 403.599 245.298C403.599 246.923 403.021 248.313 401.87 249.464C400.714 250.6 399.318 251.173 397.683 251.173C396.068 251.173 394.688 250.6 393.537 249.464C392.381 248.313 391.808 246.923 391.808 245.298C391.808 243.662 392.381 242.266 393.537 241.11C394.688 239.959 396.068 239.381 397.683 239.381Z" fill="#FFC857"/>
</g>
<defs>
<radialGradient id="paint0_radial_586_432" cx="0" cy="0" r="1" gradientUnits="userSpaceOnUse" gradientTransform="translate(410 200) scale(410 200)">
<stop stop-color="white" stop-opacity="0"/>
<stop offset="1" stop-color="#FFC857" stop-opacity="0.5"/>
</radialGradient>
<clipPath id="clip0_586_432">
<rect width="723" height="155" fill="white" transform="translate(48 123)"/>
</clipPath>
</defs>
</svg>
