<svg width="600" height="300" viewBox="0 0 600 300" fill="none" xmlns="http://www.w3.org/2000/svg">
<rect width="600" height="300" fill="url(#paint0_radial_583_217)"/>
<g clip-path="url(#clip0_583_217)">
<path d="M127.89 86.9977V96.5899H111.186V106.111H126.625V115.68H111.186V134.911H100.293V86.9977H127.89Z" fill="#FFC857"/>
<path d="M163.132 121.44H141.602C141.602 123.527 142.27 125.078 143.617 126.095C144.976 127.1 146.44 127.6 148.021 127.6C149.69 127.6 151.002 127.382 151.957 126.941C152.923 126.489 154.024 125.601 155.26 124.285L162.663 127.999C159.583 133.189 154.452 135.781 147.272 135.781C142.803 135.781 138.967 134.247 135.769 131.173C132.565 128.088 130.966 124.379 130.966 120.053C130.966 115.715 132.565 112.001 135.769 108.909C138.967 105.806 142.803 104.254 147.272 104.254C151.986 104.254 155.823 105.618 158.774 108.345C161.726 111.072 163.202 114.975 163.202 120.053C163.202 120.746 163.179 121.205 163.132 121.44ZM141.907 115.751H153.175C152.941 114.199 152.332 113.012 151.348 112.177C150.376 111.348 149.122 110.931 147.576 110.931C145.872 110.931 144.519 111.378 143.523 112.271C142.522 113.164 141.983 114.328 141.907 115.751Z" fill="#FFC857"/>
<path d="M198.02 121.44H176.491C176.491 123.527 177.158 125.078 178.505 126.095C179.864 127.1 181.328 127.6 182.91 127.6C184.579 127.6 185.891 127.382 186.845 126.941C187.812 126.489 188.913 125.601 190.149 124.285L197.552 127.999C194.471 133.189 189.34 135.781 182.16 135.781C177.691 135.781 173.855 134.247 170.657 131.173C167.454 128.088 165.855 124.379 165.855 120.053C165.855 115.715 167.454 112.001 170.657 108.909C173.855 105.806 177.691 104.254 182.16 104.254C186.875 104.254 190.711 105.618 193.663 108.345C196.615 111.072 198.09 114.975 198.09 120.053C198.09 120.746 198.067 121.205 198.02 121.44ZM176.795 115.751H188.064C187.829 114.199 187.22 113.012 186.236 112.177C185.264 111.348 184.011 110.931 182.465 110.931C180.76 110.931 179.407 111.378 178.412 112.271C177.41 113.164 176.871 114.328 176.795 115.751Z" fill="#FFC857"/>
<path d="M202.875 134.911V84.9759H213.113V134.911H202.875Z" fill="#FFC857"/>
<path d="M237.588 105.124V94.0273H247.825V105.124H254.08V112.953H247.825V122.427C247.825 125.172 248.598 126.542 250.145 126.542C250.531 126.542 250.941 126.471 251.363 126.33C251.784 126.177 252.112 126.019 252.347 125.86L252.698 125.625L255.252 133.924C253.05 135.158 250.543 135.781 247.732 135.781C245.793 135.781 244.13 135.44 242.742 134.77C241.348 134.1 240.294 133.189 239.579 132.043C238.876 130.903 238.367 129.704 238.056 128.446C237.74 127.177 237.588 125.831 237.588 124.402V112.953H233.324V105.124H237.588Z" fill="#FFC857"/>
<path d="M258.708 134.911V84.9759H268.946V108.251H269.063C271.733 105.588 274.568 104.254 277.567 104.254C279.031 104.254 280.495 104.454 281.948 104.842C283.4 105.218 284.788 105.818 286.118 106.629C287.441 107.446 288.519 108.598 289.351 110.085C290.176 111.578 290.592 113.306 290.592 115.28V134.911H280.355V118.078C280.355 116.526 279.863 115.175 278.879 114.011C277.895 112.853 276.612 112.271 275.037 112.271C273.49 112.271 272.085 112.877 270.82 114.081C269.566 115.275 268.946 116.609 268.946 118.078V134.911H258.708Z" fill="#FFC857"/>
<path d="M326.986 121.44H305.456C305.456 123.527 306.124 125.078 307.471 126.095C308.83 127.1 310.294 127.6 311.875 127.6C313.544 127.6 314.856 127.382 315.811 126.941C316.777 126.489 317.878 125.601 319.114 124.285L326.517 127.999C323.436 133.189 318.306 135.781 311.126 135.781C306.657 135.781 302.821 134.247 299.623 131.173C296.419 128.088 294.82 124.379 294.82 120.053C294.82 115.715 296.419 112.001 299.623 108.909C302.821 105.806 306.657 104.254 311.126 104.254C315.84 104.254 319.676 105.618 322.628 108.345C325.58 111.072 327.056 114.975 327.056 120.053C327.056 120.746 327.032 121.205 326.986 121.44ZM305.761 115.751H317.029C316.795 114.199 316.186 113.012 315.202 112.177C314.23 111.348 312.976 110.931 311.43 110.931C309.726 110.931 308.373 111.378 307.377 112.271C306.376 113.164 305.837 114.328 305.761 115.751Z" fill="#FFC857"/>
<path d="M347.636 86.9977H362.465C366.928 86.9977 370.489 87.9617 373.148 89.8895C375.819 91.8056 377.154 94.9089 377.154 99.1995C377.154 103.996 375.163 107.422 371.18 109.473C377.974 110.684 381.371 114.71 381.371 121.558C381.371 125.59 379.977 128.822 377.201 131.267C374.436 133.701 370.618 134.911 365.745 134.911H347.636V86.9977ZM358.529 105.759H359.396C361.815 105.759 363.619 105.336 364.808 104.489C366.009 103.631 366.612 102.232 366.612 100.304C366.612 97.0483 364.205 95.4144 359.396 95.4144H358.529V105.759ZM358.529 126.495H361.926C367.25 126.495 369.915 124.72 369.915 121.158C369.915 119.03 369.247 117.502 367.924 116.573C366.594 115.633 364.597 115.163 361.926 115.163H358.529V126.495Z" fill="#FFC857"/>
<path d="M416.203 121.44H394.673C394.673 123.527 395.341 125.078 396.688 126.095C398.047 127.1 399.511 127.6 401.092 127.6C402.762 127.6 404.073 127.382 405.028 126.941C405.994 126.489 407.096 125.601 408.331 124.285L415.734 127.999C412.654 133.189 407.523 135.781 400.343 135.781C395.874 135.781 392.038 134.247 388.84 131.173C385.636 128.088 384.037 124.379 384.037 120.053C384.037 115.715 385.636 112.001 388.84 108.909C392.038 105.806 395.874 104.254 400.343 104.254C405.057 104.254 408.894 105.618 411.845 108.345C414.797 111.072 416.273 114.975 416.273 120.053C416.273 120.746 416.25 121.205 416.203 121.44ZM394.978 115.751H406.246C406.012 114.199 405.403 113.012 404.419 112.177C403.447 111.348 402.193 110.931 400.647 110.931C398.943 110.931 397.59 111.378 396.594 112.271C395.593 113.164 395.054 114.328 394.978 115.751Z" fill="#FFC857"/>
<path d="M423.072 131.22C420.308 128.182 418.926 124.461 418.926 120.053C418.926 115.633 420.308 111.895 423.072 108.839C425.848 105.782 429.386 104.254 433.685 104.254C437.621 104.254 440.859 105.494 443.407 107.969V105.124H453.645V134.911H443.524V131.549H443.407C440.859 134.371 437.621 135.781 433.685 135.781C429.386 135.781 425.848 134.265 423.072 131.22ZM431.787 114.998C430.458 116.315 429.796 118.002 429.796 120.053C429.796 122.11 430.428 123.785 431.694 125.084C432.97 126.371 434.657 127.012 436.754 127.012C438.751 127.012 440.397 126.354 441.697 125.037C442.991 123.721 443.641 122.063 443.641 120.053C443.641 118.002 442.968 116.315 441.627 114.998C440.297 113.682 438.675 113.023 436.754 113.023C434.786 113.023 433.128 113.682 431.787 114.998Z" fill="#FFC857"/>
<path d="M462.308 105.124V94.0273H472.546V105.124H478.801V112.953H472.546V122.427C472.546 125.172 473.319 126.542 474.865 126.542C475.252 126.542 475.662 126.471 476.084 126.33C476.505 126.177 476.833 126.019 477.067 125.86L477.419 125.625L479.972 133.924C477.77 135.158 475.264 135.781 472.452 135.781C470.514 135.781 468.85 135.44 467.462 134.77C466.068 134.1 465.014 133.189 464.3 132.043C463.597 130.903 463.087 129.704 462.777 128.446C462.461 127.177 462.308 125.831 462.308 124.402V112.953H458.045V105.124H462.308Z" fill="#FFC857"/>
<path d="M490.035 122.474C491.874 122.474 493.444 123.127 494.744 124.426C496.038 125.731 496.688 127.306 496.688 129.151C496.688 130.985 496.038 132.554 494.744 133.853C493.444 135.135 491.874 135.781 490.035 135.781C488.22 135.781 486.667 135.135 485.373 133.853C484.073 132.554 483.429 130.985 483.429 129.151C483.429 127.306 484.073 125.731 485.373 124.426C486.667 123.127 488.22 122.474 490.035 122.474Z" fill="#FFC857"/>
<path d="M111.186 168.008V206.33H127.609V215.922H100.293V168.008H111.186Z" fill="#FFC857"/>
<path d="M133.966 169.537C135.167 168.332 136.596 167.726 138.254 167.726C139.905 167.726 141.328 168.332 142.517 169.537C143.718 170.73 144.321 172.158 144.321 173.815C144.321 175.479 143.718 176.913 142.517 178.118C141.328 179.328 139.905 179.928 138.254 179.928C136.596 179.928 135.167 179.328 133.966 178.118C132.778 176.913 132.186 175.479 132.186 173.815C132.186 172.158 132.778 170.73 133.966 169.537ZM132.983 186.135V215.922H143.22V186.135H132.983Z" fill="#FFC857"/>
<path d="M157.976 186.135L165.215 202.333L172.454 186.135H184.612L168.682 215.922H161.748L145.841 186.135H157.976Z" fill="#FFC857"/>
<path d="M216.94 202.451H195.41C195.41 204.537 196.078 206.089 197.425 207.106C198.784 208.111 200.248 208.61 201.829 208.61C203.498 208.61 204.81 208.393 205.765 207.952C206.731 207.5 207.832 206.612 209.068 205.295L216.471 209.01C213.39 214.2 208.26 216.792 201.08 216.792C196.611 216.792 192.775 215.258 189.577 212.184C186.373 209.098 184.774 205.389 184.774 201.064C184.774 196.726 186.373 193.011 189.577 189.92C192.775 186.816 196.611 185.265 201.08 185.265C205.794 185.265 209.63 186.628 212.582 189.356C215.534 192.083 217.01 195.985 217.01 201.064C217.01 201.757 216.986 202.216 216.94 202.451ZM195.715 196.761H206.983C206.749 195.21 206.14 194.022 205.156 193.188C204.184 192.359 202.93 191.942 201.384 191.942C199.68 191.942 198.327 192.388 197.331 193.282C196.33 194.175 195.791 195.339 195.715 196.761Z" fill="#FFC857"/>
<path d="M239.324 186.135V175.038H249.561V186.135H255.816V193.964H249.561V203.438C249.561 206.183 250.334 207.552 251.88 207.552C252.267 207.552 252.677 207.482 253.099 207.341C253.52 207.188 253.848 207.029 254.083 206.871L254.434 206.635L256.988 214.935C254.785 216.169 252.279 216.792 249.467 216.792C247.529 216.792 245.866 216.451 244.477 215.781C243.084 215.111 242.029 214.2 241.315 213.054C240.612 211.913 240.102 210.714 239.792 209.457C239.476 208.187 239.324 206.841 239.324 205.413V193.964H235.06V186.135H239.324Z" fill="#FFC857"/>
<path d="M260.444 215.922V165.987H270.681V189.262H270.798C273.469 186.599 276.304 185.265 279.302 185.265C280.767 185.265 282.231 185.465 283.683 185.853C285.136 186.229 286.524 186.828 287.853 187.639C289.177 188.456 290.255 189.608 291.086 191.095C291.912 192.588 292.328 194.316 292.328 196.291V215.922H282.09V199.089C282.09 197.537 281.598 196.185 280.614 195.021C279.63 193.864 278.348 193.282 276.772 193.282C275.226 193.282 273.821 193.887 272.556 195.092C271.302 196.285 270.681 197.619 270.681 199.089V215.922H260.444Z" fill="#FFC857"/>
<path d="M328.721 202.451H307.192C307.192 204.537 307.86 206.089 309.207 207.106C310.565 208.111 312.03 208.61 313.611 208.61C315.28 208.61 316.592 208.393 317.547 207.952C318.513 207.5 319.614 206.612 320.85 205.295L328.253 209.01C325.172 214.2 320.042 216.792 312.861 216.792C308.393 216.792 304.556 215.258 301.359 212.184C298.155 209.098 296.556 205.389 296.556 201.064C296.556 196.726 298.155 193.011 301.359 189.92C304.556 186.816 308.393 185.265 312.861 185.265C317.576 185.265 321.412 186.628 324.364 189.356C327.316 192.083 328.792 195.985 328.792 201.064C328.792 201.757 328.768 202.216 328.721 202.451ZM307.496 196.761H318.765C318.531 195.21 317.921 194.022 316.938 193.188C315.965 192.359 314.712 191.942 313.166 191.942C311.461 191.942 310.109 192.388 309.113 193.282C308.111 194.175 307.573 195.339 307.496 196.761Z" fill="#FFC857"/>
<path d="M364.295 215.922L344.288 168.008H356.54L368.582 199.488L380.623 168.008H392.899L372.869 215.922H364.295Z" fill="#FFC857"/>
<path d="M395.716 169.537C396.917 168.332 398.346 167.726 400.003 167.726C401.655 167.726 403.078 168.332 404.267 169.537C405.468 170.73 406.071 172.158 406.071 173.815C406.071 175.479 405.468 176.913 404.267 178.118C403.078 179.328 401.655 179.928 400.003 179.928C398.346 179.928 396.917 179.328 395.716 178.118C394.527 176.913 393.936 175.479 393.936 173.815C393.936 172.158 394.527 170.73 395.716 169.537ZM394.732 186.135V215.922H404.97V186.135H394.732Z" fill="#FFC857"/>
<path d="M442.754 189.849C445.53 192.906 446.924 196.644 446.924 201.064C446.924 205.472 445.53 209.192 442.754 212.231C439.99 215.275 436.458 216.792 432.165 216.792C428.23 216.792 424.985 215.381 422.443 212.56H422.326V215.922H412.205V165.987H422.443V188.979C424.985 186.505 428.23 185.265 432.165 185.265C436.458 185.265 439.99 186.793 442.754 189.849ZM434.133 206.095C435.41 204.796 436.054 203.121 436.054 201.064C436.054 199.012 435.381 197.325 434.039 196.009C432.71 194.692 431.064 194.034 429.096 194.034C427.175 194.034 425.547 194.692 424.224 196.009C422.894 197.325 422.232 199.012 422.232 201.064C422.232 203.074 422.871 204.731 424.153 206.048C425.448 207.364 427.093 208.023 429.096 208.023C431.187 208.023 432.868 207.382 434.133 206.095Z" fill="#FFC857"/>
<path d="M481.756 202.451H460.226C460.226 204.537 460.894 206.089 462.241 207.106C463.6 208.111 465.064 208.61 466.645 208.61C468.315 208.61 469.627 208.393 470.581 207.952C471.548 207.5 472.649 206.612 473.884 205.295L481.287 209.01C478.207 214.2 473.076 216.792 465.896 216.792C461.427 216.792 457.591 215.258 454.393 212.184C451.189 209.098 449.591 205.389 449.591 201.064C449.591 196.726 451.189 193.011 454.393 189.92C457.591 186.816 461.427 185.265 465.896 185.265C470.61 185.265 474.447 186.628 477.398 189.356C480.35 192.083 481.826 195.985 481.826 201.064C481.826 201.757 481.803 202.216 481.756 202.451ZM460.531 196.761H471.799C471.565 195.21 470.956 194.022 469.972 193.188C469 192.359 467.747 191.942 466.2 191.942C464.496 191.942 463.143 192.388 462.147 193.282C461.146 194.175 460.607 195.339 460.531 196.761Z" fill="#FFC857"/>
<path d="M493.217 203.485C495.056 203.485 496.626 204.138 497.926 205.437C499.22 206.741 499.871 208.316 499.871 210.162C499.871 211.996 499.22 213.565 497.926 214.864C496.626 216.145 495.056 216.792 493.217 216.792C491.402 216.792 489.85 216.145 488.555 214.864C487.255 213.565 486.611 211.996 486.611 210.162C486.611 208.316 487.255 206.741 488.555 205.437C489.85 204.138 491.402 203.485 493.217 203.485Z" fill="#FFC857"/>
</g>
<defs>
<radialGradient id="paint0_radial_583_217" cx="0" cy="0" r="1" gradientUnits="userSpaceOnUse" gradientTransform="translate(300 150) scale(300 150)">
<stop stop-color="white" stop-opacity="0"/>
<stop offset="1" stop-color="#FFC857" stop-opacity="0.5"/>
</radialGradient>
<clipPath id="clip0_583_217">
<rect width="400" height="133" fill="white" transform="translate(100 84)"/>
</clipPath>
</defs>
</svg>
