<svg width="430" height="309" viewBox="0 0 430 309" fill="none" xmlns="http://www.w3.org/2000/svg">
<rect width="430" height="309" fill="url(#paint0_radial_676_3)"/>
<g clip-path="url(#clip0_676_3)">
<path d="M86.8338 107.231V114.371H74.3563V121.459H85.8888V128.581H74.3563V142.896H66.2188V107.231H86.8338Z" fill="#FFC857"/>
<path d="M113.159 132.869H97.0768C97.0768 134.422 97.5756 135.577 98.5818 136.334C99.5968 137.082 100.691 137.454 101.872 137.454C103.119 137.454 104.099 137.292 104.812 136.964C105.534 136.627 106.356 135.966 107.279 134.986L112.809 137.751C110.508 141.615 106.676 143.544 101.312 143.544C97.9737 143.544 95.1081 142.402 92.7193 140.114C90.3262 137.817 89.1318 135.056 89.1318 131.836C89.1318 128.608 90.3262 125.843 92.7193 123.541C95.1081 121.231 97.9737 120.076 101.312 120.076C104.834 120.076 107.699 121.091 109.904 123.121C112.109 125.151 113.212 128.056 113.212 131.836C113.212 132.353 113.194 132.694 113.159 132.869ZM97.3043 128.634H105.722C105.547 127.479 105.092 126.595 104.357 125.974C103.631 125.357 102.694 125.046 101.539 125.046C100.266 125.046 99.2556 125.379 98.5118 126.044C97.7637 126.709 97.3612 127.575 97.3043 128.634Z" fill="#FFC857"/>
<path d="M139.221 132.869H123.139C123.139 134.422 123.637 135.577 124.644 136.334C125.659 137.082 126.752 137.454 127.934 137.454C129.18 137.454 130.16 137.292 130.874 136.964C131.595 136.627 132.418 135.966 133.341 134.986L138.871 137.751C136.57 141.615 132.737 143.544 127.374 143.544C124.035 143.544 121.17 142.402 118.781 140.114C116.388 137.817 115.194 135.056 115.194 131.836C115.194 128.608 116.388 125.843 118.781 123.541C121.17 121.231 124.035 120.076 127.374 120.076C130.895 120.076 133.761 121.091 135.966 123.121C138.171 125.151 139.274 128.056 139.274 131.836C139.274 132.353 139.256 132.694 139.221 132.869ZM123.366 128.634H131.784C131.609 127.479 131.154 126.595 130.419 125.974C129.692 125.357 128.756 125.046 127.601 125.046C126.328 125.046 125.317 125.379 124.574 126.044C123.825 126.709 123.423 127.575 123.366 128.634Z" fill="#FFC857"/>
<path d="M142.848 142.896V105.726H150.495V142.896H142.848Z" fill="#FFC857"/>
<path d="M168.778 120.724V112.464H176.426V120.724H181.098V126.551H176.426V133.604C176.426 135.647 177.003 136.666 178.158 136.666C178.447 136.666 178.753 136.614 179.068 136.509C179.383 136.395 179.628 136.277 179.803 136.159L180.066 135.984L181.973 142.161C180.328 143.08 178.456 143.544 176.356 143.544C174.907 143.544 173.665 143.29 172.628 142.791C171.587 142.293 170.799 141.615 170.266 140.761C169.741 139.913 169.36 139.02 169.128 138.084C168.892 137.139 168.778 136.137 168.778 135.074V126.551H165.593V120.724H168.778Z" fill="#FFC857"/>
<path d="M184.555 142.896V105.726H192.202V123.051H192.29C194.285 121.07 196.402 120.076 198.642 120.076C199.736 120.076 200.83 120.225 201.915 120.514C203 120.794 204.037 121.24 205.03 121.844C206.019 122.452 206.824 123.31 207.445 124.416C208.062 125.528 208.372 126.814 208.372 128.284V142.896H200.725V130.366C200.725 129.211 200.357 128.205 199.622 127.339C198.887 126.477 197.929 126.044 196.752 126.044C195.597 126.044 194.547 126.495 193.602 127.391C192.666 128.28 192.202 129.273 192.202 130.366V142.896H184.555Z" fill="#FFC857"/>
<path d="M235.558 132.869H219.476C219.476 134.422 219.975 135.577 220.981 136.334C221.996 137.082 223.09 137.454 224.271 137.454C225.518 137.454 226.498 137.292 227.211 136.964C227.933 136.627 228.755 135.966 229.678 134.986L235.208 137.751C232.907 141.615 229.075 143.544 223.711 143.544C220.373 143.544 217.507 142.402 215.118 140.114C212.725 137.817 211.531 135.056 211.531 131.836C211.531 128.608 212.725 125.843 215.118 123.541C217.507 121.231 220.373 120.076 223.711 120.076C227.233 120.076 230.098 121.091 232.303 123.121C234.508 125.151 235.611 128.056 235.611 131.836C235.611 132.353 235.593 132.694 235.558 132.869ZM219.703 128.634H228.121C227.946 127.479 227.491 126.595 226.756 125.974C226.03 125.357 225.093 125.046 223.938 125.046C222.665 125.046 221.655 125.379 220.911 126.044C220.163 126.709 219.76 127.575 219.703 128.634Z" fill="#FFC857"/>
<path d="M250.984 107.231H262.061C265.395 107.231 268.055 107.949 270.041 109.384C272.036 110.81 273.034 113.12 273.034 116.314C273.034 119.884 271.546 122.435 268.571 123.961C273.646 124.863 276.184 127.86 276.184 132.956C276.184 135.958 275.143 138.364 273.069 140.184C271.004 141.995 268.151 142.896 264.511 142.896H250.984V107.231ZM259.121 121.196H259.769C261.576 121.196 262.923 120.881 263.811 120.251C264.708 119.613 265.159 118.571 265.159 117.136C265.159 114.713 263.361 113.496 259.769 113.496H259.121V121.196ZM259.121 136.631H261.659C265.636 136.631 267.626 135.31 267.626 132.659C267.626 131.075 267.128 129.938 266.139 129.246C265.146 128.546 263.654 128.196 261.659 128.196H259.121V136.631Z" fill="#FFC857"/>
<path d="M302.204 132.869H286.121C286.121 134.422 286.62 135.577 287.626 136.334C288.641 137.082 289.735 137.454 290.916 137.454C292.163 137.454 293.143 137.292 293.856 136.964C294.578 136.627 295.4 135.966 296.324 134.986L301.854 137.751C299.552 141.615 295.72 143.544 290.356 143.544C287.018 143.544 284.152 142.402 281.764 140.114C279.37 137.817 278.176 135.056 278.176 131.836C278.176 128.608 279.37 125.843 281.764 123.541C284.152 121.231 287.018 120.076 290.356 120.076C293.878 120.076 296.744 121.091 298.949 123.121C301.154 125.151 302.256 128.056 302.256 131.836C302.256 132.353 302.239 132.694 302.204 132.869ZM286.349 128.634H294.766C294.591 127.479 294.136 126.595 293.401 125.974C292.675 125.357 291.739 125.046 290.584 125.046C289.31 125.046 288.3 125.379 287.556 126.044C286.808 126.709 286.405 127.575 286.349 128.634Z" fill="#FFC857"/>
<path d="M307.335 140.149C305.27 137.887 304.238 135.118 304.238 131.836C304.238 128.546 305.27 125.764 307.335 123.489C309.409 121.214 312.051 120.076 315.263 120.076C318.203 120.076 320.622 121 322.525 122.841V120.724H330.173V142.896H322.613V140.394H322.525C320.622 142.494 318.203 143.544 315.263 143.544C312.051 143.544 309.409 142.415 307.335 140.149ZM313.845 128.074C312.852 129.054 312.358 130.31 312.358 131.836C312.358 133.368 312.83 134.615 313.775 135.581C314.729 136.54 315.989 137.016 317.555 137.016C319.047 137.016 320.276 136.526 321.248 135.546C322.214 134.566 322.7 133.333 322.7 131.836C322.7 130.31 322.197 129.054 321.195 128.074C320.202 127.094 318.99 126.604 317.555 126.604C316.085 126.604 314.847 127.094 313.845 128.074Z" fill="#FFC857"/>
<path d="M336.644 120.724V112.464H344.292V120.724H348.964V126.551H344.292V133.604C344.292 135.647 344.869 136.666 346.024 136.666C346.313 136.666 346.619 136.614 346.934 136.509C347.249 136.395 347.494 136.277 347.669 136.159L347.932 135.984L349.839 142.161C348.194 143.08 346.322 143.544 344.222 143.544C342.774 143.544 341.531 143.29 340.494 142.791C339.453 142.293 338.665 141.615 338.132 140.761C337.607 139.913 337.226 139.02 336.994 138.084C336.758 137.139 336.644 136.137 336.644 135.074V126.551H333.459V120.724H336.644Z" fill="#FFC857"/>
<path d="M357.356 133.639C358.73 133.639 359.902 134.125 360.874 135.091C361.841 136.063 362.326 137.235 362.326 138.609C362.326 139.974 361.841 141.142 360.874 142.109C359.902 143.063 358.73 143.544 357.356 143.544C356 143.544 354.841 143.063 353.874 142.109C352.902 141.142 352.421 139.974 352.421 138.609C352.421 137.235 352.902 136.063 353.874 135.091C354.841 134.125 356 133.639 357.356 133.639Z" fill="#FFC857"/>
<path d="M74.3563 167.533V196.058H86.6238V203.198H66.2188V167.533H74.3563Z" fill="#FFC857"/>
<path d="M91.373 168.67C92.2698 167.773 93.3373 167.323 94.5755 167.323C95.8092 167.323 96.8723 167.773 97.7605 168.67C98.6573 169.558 99.108 170.621 99.108 171.855C99.108 173.093 98.6573 174.161 97.7605 175.058C96.8723 175.959 95.8092 176.405 94.5755 176.405C93.3373 176.405 92.2698 175.959 91.373 175.058C90.4848 174.161 90.043 173.093 90.043 171.855C90.043 170.621 90.4848 169.558 91.373 168.67ZM90.638 181.025V203.198H98.2855V181.025H90.638Z" fill="#FFC857"/>
<path d="M109.308 181.025L114.715 193.083L120.123 181.025H129.205L117.305 203.198H112.125L100.243 181.025H109.308Z" fill="#FFC857"/>
<path d="M153.354 193.17H137.271C137.271 194.723 137.77 195.878 138.776 196.635C139.791 197.383 140.885 197.755 142.066 197.755C143.313 197.755 144.293 197.593 145.006 197.265C145.728 196.928 146.551 196.268 147.474 195.288L153.004 198.053C150.703 201.916 146.87 203.845 141.506 203.845C138.168 203.845 135.303 202.703 132.914 200.415C130.521 198.118 129.326 195.358 129.326 192.138C129.326 188.909 130.521 186.144 132.914 183.843C135.303 181.533 138.168 180.378 141.506 180.378C145.028 180.378 147.894 181.393 150.099 183.423C152.304 185.453 153.406 188.358 153.406 192.138C153.406 192.654 153.389 192.995 153.354 193.17ZM137.499 188.935H145.916C145.741 187.78 145.286 186.896 144.551 186.275C143.825 185.658 142.889 185.348 141.734 185.348C140.461 185.348 139.45 185.68 138.706 186.345C137.958 187.01 137.556 187.876 137.499 188.935Z" fill="#FFC857"/>
<path d="M170.075 181.025V172.765H177.722V181.025H182.395V186.853H177.722V193.905C177.722 195.948 178.3 196.968 179.455 196.968C179.743 196.968 180.05 196.915 180.365 196.81C180.68 196.696 180.925 196.578 181.1 196.46L181.362 196.285L183.27 202.463C181.625 203.381 179.752 203.845 177.652 203.845C176.204 203.845 174.962 203.591 173.925 203.093C172.883 202.594 172.096 201.916 171.562 201.063C171.037 200.214 170.657 199.321 170.425 198.385C170.188 197.44 170.075 196.438 170.075 195.375V186.853H166.89V181.025H170.075Z" fill="#FFC857"/>
<path d="M185.852 203.198V166.028H193.499V183.353H193.587C195.582 181.371 197.699 180.378 199.939 180.378C201.033 180.378 202.127 180.526 203.212 180.815C204.297 181.095 205.333 181.541 206.327 182.145C207.315 182.753 208.12 183.611 208.742 184.718C209.358 185.829 209.669 187.115 209.669 188.585V203.198H202.022V190.668C202.022 189.513 201.654 188.506 200.919 187.64C200.184 186.778 199.226 186.345 198.049 186.345C196.894 186.345 195.844 186.796 194.899 187.693C193.963 188.581 193.499 189.574 193.499 190.668V203.198H185.852Z" fill="#FFC857"/>
<path d="M236.855 193.17H220.772C220.772 194.723 221.271 195.878 222.277 196.635C223.292 197.383 224.386 197.755 225.567 197.755C226.814 197.755 227.794 197.593 228.507 197.265C229.229 196.928 230.052 196.268 230.975 195.288L236.505 198.053C234.204 201.916 230.371 203.845 225.007 203.845C221.669 203.845 218.804 202.703 216.415 200.415C214.022 198.118 212.827 195.358 212.827 192.138C212.827 188.909 214.022 186.144 216.415 183.843C218.804 181.533 221.669 180.378 225.007 180.378C228.529 180.378 231.395 181.393 233.6 183.423C235.805 185.453 236.907 188.358 236.907 192.138C236.907 192.654 236.89 192.995 236.855 193.17ZM221 188.935H229.417C229.242 187.78 228.787 186.896 228.052 186.275C227.326 185.658 226.39 185.348 225.235 185.348C223.962 185.348 222.951 185.68 222.207 186.345C221.459 187.01 221.057 187.876 221 188.935Z" fill="#FFC857"/>
<path d="M263.428 203.198L248.483 167.533H257.636L266.631 190.965L275.626 167.533H284.796L269.833 203.198H263.428Z" fill="#FFC857"/>
<path d="M286.9 168.67C287.797 167.773 288.864 167.323 290.103 167.323C291.336 167.323 292.399 167.773 293.288 168.67C294.184 169.558 294.635 170.621 294.635 171.855C294.635 173.093 294.184 174.161 293.288 175.058C292.399 175.959 291.336 176.405 290.103 176.405C288.864 176.405 287.797 175.959 286.9 175.058C286.012 174.161 285.57 173.093 285.57 171.855C285.57 170.621 286.012 169.558 286.9 168.67ZM286.165 181.025V203.198H293.813V181.025H286.165Z" fill="#FFC857"/>
<path d="M322.038 183.79C324.111 186.065 325.153 188.848 325.153 192.138C325.153 195.419 324.111 198.188 322.038 200.45C319.973 202.716 317.334 203.845 314.128 203.845C311.188 203.845 308.764 202.795 306.865 200.695H306.778V203.198H299.218V166.028H306.865V183.143C308.764 181.301 311.188 180.378 314.128 180.378C317.334 180.378 319.973 181.515 322.038 183.79ZM315.598 195.883C316.551 194.916 317.033 193.669 317.033 192.138C317.033 190.611 316.529 189.355 315.528 188.375C314.534 187.395 313.305 186.905 311.835 186.905C310.4 186.905 309.184 187.395 308.195 188.375C307.202 189.355 306.708 190.611 306.708 192.138C306.708 193.634 307.184 194.868 308.143 195.848C309.109 196.828 310.339 197.318 311.835 197.318C313.397 197.318 314.653 196.841 315.598 195.883Z" fill="#FFC857"/>
<path d="M351.172 193.17H335.089C335.089 194.723 335.588 195.878 336.594 196.635C337.609 197.383 338.703 197.755 339.884 197.755C341.131 197.755 342.111 197.593 342.824 197.265C343.546 196.928 344.369 196.268 345.292 195.288L350.822 198.053C348.521 201.916 344.688 203.845 339.324 203.845C335.986 203.845 333.121 202.703 330.732 200.415C328.339 198.118 327.144 195.358 327.144 192.138C327.144 188.909 328.339 186.144 330.732 183.843C333.121 181.533 335.986 180.378 339.324 180.378C342.846 180.378 345.712 181.393 347.917 183.423C350.122 185.453 351.224 188.358 351.224 192.138C351.224 192.654 351.207 192.995 351.172 193.17ZM335.317 188.935H343.734C343.559 187.78 343.104 186.896 342.369 186.275C341.643 185.658 340.707 185.348 339.552 185.348C338.279 185.348 337.268 185.68 336.524 186.345C335.776 187.01 335.374 187.876 335.317 188.935Z" fill="#FFC857"/>
<path d="M359.733 193.94C361.107 193.94 362.28 194.426 363.251 195.393C364.218 196.364 364.703 197.536 364.703 198.91C364.703 200.275 364.218 201.443 363.251 202.41C362.28 203.364 361.107 203.845 359.733 203.845C358.377 203.845 357.218 203.364 356.251 202.41C355.28 201.443 354.798 200.275 354.798 198.91C354.798 197.536 355.28 196.364 356.251 195.393C357.218 194.426 358.377 193.94 359.733 193.94Z" fill="#FFC857"/>
</g>
<defs>
<radialGradient id="paint0_radial_676_3" cx="0" cy="0" r="1" gradientUnits="userSpaceOnUse" gradientTransform="translate(215 154.5) scale(215 154.5)">
<stop stop-color="white" stop-opacity="0"/>
<stop offset="1" stop-color="#FFC857" stop-opacity="0.5"/>
</radialGradient>
<clipPath id="clip0_676_3">
<rect width="298.8" height="99" fill="white" transform="translate(66 105)"/>
</clipPath>
</defs>
</svg>
