<svg width="390" height="280" viewBox="0 0 390 280" fill="none" xmlns="http://www.w3.org/2000/svg">
<rect width="390" height="280" fill="url(#paint0_radial_583_332)"/>
<g clip-path="url(#clip0_583_332)">
<path d="M65.9174 93.2314V100.371H53.3898V107.459H64.9686V114.581H53.3898V128.896H45.2196V93.2314H65.9174Z" fill="#FFC857"/>
<path d="M92.3488 118.869H76.2018C76.2018 120.422 76.7025 121.577 77.7128 122.334C78.7319 123.082 79.83 123.454 81.016 123.454C82.2679 123.454 83.2518 123.292 83.9678 122.964C84.6926 122.627 85.5184 121.966 86.4452 120.986L91.9974 123.751C89.687 127.615 85.8391 129.544 80.4538 129.544C77.1022 129.544 74.2251 128.402 71.8268 126.114C69.424 123.817 68.2249 121.056 68.2249 117.836C68.2249 114.608 69.424 111.843 71.8268 109.541C74.2251 107.231 77.1022 106.076 80.4538 106.076C83.9898 106.076 86.8669 107.091 89.0808 109.121C91.2946 111.151 92.4016 114.056 92.4016 117.836C92.4016 118.353 92.384 118.694 92.3488 118.869ZM76.4302 114.634H84.8815C84.7058 113.479 84.249 112.595 83.511 111.974C82.7818 111.357 81.8418 111.046 80.6822 111.046C79.4039 111.046 78.3893 111.379 77.6425 112.044C76.8914 112.709 76.4873 113.575 76.4302 114.634Z" fill="#FFC857"/>
<path d="M118.515 118.869H102.368C102.368 120.422 102.869 121.577 103.879 122.334C104.898 123.082 105.996 123.454 107.182 123.454C108.434 123.454 109.418 123.292 110.134 122.964C110.859 122.627 111.685 121.966 112.611 120.986L118.164 123.751C115.853 127.615 112.005 129.544 106.62 129.544C103.268 129.544 100.391 128.402 97.993 126.114C95.5903 123.817 94.3911 121.056 94.3911 117.836C94.3911 114.608 95.5903 111.843 97.993 109.541C100.391 107.231 103.268 106.076 106.62 106.076C110.156 106.076 113.033 107.091 115.247 109.121C117.461 111.151 118.568 114.056 118.568 117.836C118.568 118.353 118.55 118.694 118.515 118.869ZM102.596 114.634H111.048C110.872 113.479 110.415 112.595 109.677 111.974C108.948 111.357 108.008 111.046 106.848 111.046C105.57 111.046 104.556 111.379 103.809 112.044C103.058 112.709 102.654 113.575 102.596 114.634Z" fill="#FFC857"/>
<path d="M122.156 128.896V91.7264H129.834V128.896H122.156Z" fill="#FFC857"/>
<path d="M148.191 106.724V98.4639H155.869V106.724H160.56V112.551H155.869V119.604C155.869 121.647 156.449 122.666 157.609 122.666C157.898 122.666 158.206 122.614 158.522 122.509C158.838 122.395 159.084 122.277 159.26 122.159L159.524 121.984L161.439 128.161C159.787 129.08 157.907 129.544 155.799 129.544C154.345 129.544 153.097 129.29 152.056 128.791C151.011 128.293 150.22 127.615 149.684 126.761C149.157 125.913 148.775 125.02 148.542 124.084C148.305 123.139 148.191 122.137 148.191 121.074V112.551H144.993V106.724H148.191Z" fill="#FFC857"/>
<path d="M164.031 128.896V91.7264H171.709V109.051H171.797C173.8 107.07 175.926 106.076 178.175 106.076C179.273 106.076 180.371 106.225 181.461 106.514C182.55 106.794 183.591 107.24 184.588 107.844C185.581 108.452 186.389 109.31 187.013 110.416C187.632 111.528 187.944 112.814 187.944 114.284V128.896H180.266V116.366C180.266 115.211 179.897 114.205 179.159 113.339C178.421 112.477 177.459 112.044 176.277 112.044C175.118 112.044 174.064 112.495 173.115 113.391C172.175 114.28 171.709 115.273 171.709 116.366V128.896H164.031Z" fill="#FFC857"/>
<path d="M215.239 118.869H199.092C199.092 120.422 199.593 121.577 200.603 122.334C201.622 123.082 202.72 123.454 203.906 123.454C205.158 123.454 206.142 123.292 206.858 122.964C207.583 122.627 208.409 121.966 209.336 120.986L214.888 123.751C212.577 127.615 208.729 129.544 203.344 129.544C199.993 129.544 197.115 128.402 194.717 126.114C192.314 123.817 191.115 121.056 191.115 117.836C191.115 114.608 192.314 111.843 194.717 109.541C197.115 107.231 199.993 106.076 203.344 106.076C206.88 106.076 209.757 107.091 211.971 109.121C214.185 111.151 215.292 114.056 215.292 117.836C215.292 118.353 215.274 118.694 215.239 118.869ZM199.321 114.634H207.772C207.596 113.479 207.139 112.595 206.401 111.974C205.672 111.357 204.732 111.046 203.573 111.046C202.294 111.046 201.28 111.379 200.533 112.044C199.782 112.709 199.378 113.575 199.321 114.634Z" fill="#FFC857"/>
<path d="M230.727 93.2314H241.849C245.196 93.2314 247.867 93.9489 249.861 95.3839C251.864 96.8101 252.865 99.1201 252.865 102.314C252.865 105.884 251.372 108.435 248.385 109.961C253.48 110.863 256.028 113.86 256.028 118.956C256.028 121.958 254.983 124.364 252.901 126.184C250.827 127.995 247.963 128.896 244.309 128.896H230.727V93.2314ZM238.897 107.196H239.547C241.361 107.196 242.714 106.881 243.606 106.251C244.506 105.613 244.959 104.571 244.959 103.136C244.959 100.713 243.154 99.4964 239.547 99.4964H238.897V107.196ZM238.897 122.631H241.445C245.438 122.631 247.436 121.31 247.436 118.659C247.436 117.075 246.936 115.938 245.943 115.246C244.946 114.546 243.448 114.196 241.445 114.196H238.897V122.631Z" fill="#FFC857"/>
<path d="M282.152 118.869H266.005C266.005 120.422 266.506 121.577 267.516 122.334C268.535 123.082 269.633 123.454 270.819 123.454C272.071 123.454 273.055 123.292 273.771 122.964C274.496 122.627 275.322 121.966 276.248 120.986L281.801 123.751C279.49 127.615 275.642 129.544 270.257 129.544C266.905 129.544 264.028 128.402 261.63 126.114C259.227 123.817 258.028 121.056 258.028 117.836C258.028 114.608 259.227 111.843 261.63 109.541C264.028 107.231 266.905 106.076 270.257 106.076C273.793 106.076 276.67 107.091 278.884 109.121C281.098 111.151 282.205 114.056 282.205 117.836C282.205 118.353 282.187 118.694 282.152 118.869ZM266.233 114.634H274.685C274.509 113.479 274.052 112.595 273.314 111.974C272.585 111.357 271.645 111.046 270.485 111.046C269.207 111.046 268.192 111.379 267.446 112.044C266.695 112.709 266.291 113.575 266.233 114.634Z" fill="#FFC857"/>
<path d="M287.304 126.149C285.231 123.887 284.194 121.118 284.194 117.836C284.194 114.546 285.231 111.764 287.304 109.489C289.386 107.214 292.039 106.076 295.264 106.076C298.215 106.076 300.645 107 302.555 108.841V106.724H310.233V128.896H302.643V126.394H302.555C300.645 128.494 298.215 129.544 295.264 129.544C292.039 129.544 289.386 128.415 287.304 126.149ZM293.84 114.074C292.843 115.054 292.347 116.31 292.347 117.836C292.347 119.368 292.821 120.615 293.77 121.581C294.728 122.54 295.993 123.016 297.565 123.016C299.063 123.016 300.297 122.526 301.273 121.546C302.243 120.566 302.731 119.333 302.731 117.836C302.731 116.31 302.226 115.054 301.22 114.074C300.223 113.094 299.006 112.604 297.565 112.604C296.089 112.604 294.846 113.094 293.84 114.074Z" fill="#FFC857"/>
<path d="M316.731 106.724V98.4639H324.409V106.724H329.101V112.551H324.409V119.604C324.409 121.647 324.989 122.666 326.149 122.666C326.439 122.666 326.746 122.614 327.063 122.509C327.379 122.395 327.625 122.277 327.801 122.159L328.064 121.984L329.979 128.161C328.328 129.08 326.448 129.544 324.339 129.544C322.885 129.544 321.638 129.29 320.597 128.791C319.551 128.293 318.761 127.615 318.225 126.761C317.698 125.913 317.315 125.02 317.083 124.084C316.845 123.139 316.731 122.137 316.731 121.074V112.551H313.533V106.724H316.731Z" fill="#FFC857"/>
<path d="M337.526 119.639C338.906 119.639 340.083 120.125 341.058 121.091C342.029 122.063 342.516 123.235 342.516 124.609C342.516 125.974 342.029 127.142 341.058 128.109C340.083 129.063 338.906 129.544 337.526 129.544C336.165 129.544 335.001 129.063 334.03 128.109C333.055 127.142 332.572 125.974 332.572 124.609C332.572 123.235 333.055 122.063 334.03 121.091C335.001 120.125 336.165 119.639 337.526 119.639Z" fill="#FFC857"/>
<path d="M53.3898 153.533V182.058H65.7066V189.198H45.2196V153.533H53.3898Z" fill="#FFC857"/>
<path d="M70.4749 154.67C71.3753 153.773 72.4471 153.323 73.6902 153.323C74.9289 153.323 75.9963 153.773 76.888 154.67C77.7885 155.558 78.2409 156.621 78.2409 157.855C78.2409 159.093 77.7885 160.161 76.888 161.058C75.9963 161.959 74.9289 162.405 73.6902 162.405C72.4471 162.405 71.3753 161.959 70.4749 161.058C69.5832 160.161 69.1395 159.093 69.1395 157.855C69.1395 156.621 69.5832 155.558 70.4749 154.67ZM69.7369 167.025V189.198H77.4151V167.025H69.7369Z" fill="#FFC857"/>
<path d="M88.4818 167.025L93.911 179.083L99.3402 167.025H108.459L96.5114 189.198H91.3106L79.3804 167.025H88.4818Z" fill="#FFC857"/>
<path d="M132.705 179.17H116.558C116.558 180.723 117.058 181.878 118.069 182.635C119.088 183.383 120.186 183.755 121.372 183.755C122.624 183.755 123.608 183.593 124.324 183.265C125.049 182.928 125.874 182.268 126.801 181.288L132.353 184.053C130.043 187.916 126.195 189.845 120.81 189.845C117.458 189.845 114.581 188.703 112.183 186.415C109.78 184.118 108.581 181.358 108.581 178.138C108.581 174.909 109.78 172.144 112.183 169.843C114.581 167.533 117.458 166.378 120.81 166.378C124.346 166.378 127.223 167.393 129.437 169.423C131.651 171.453 132.758 174.358 132.758 178.138C132.758 178.654 132.74 178.995 132.705 179.17ZM116.786 174.935H125.237C125.062 173.78 124.605 172.896 123.867 172.275C123.138 171.658 122.198 171.348 121.038 171.348C119.76 171.348 118.745 171.68 117.998 172.345C117.247 173.01 116.843 173.876 116.786 174.935Z" fill="#FFC857"/>
<path d="M149.493 167.025V158.765H157.171V167.025H161.862V172.853H157.171V179.905C157.171 181.948 157.751 182.968 158.91 182.968C159.2 182.968 159.508 182.915 159.824 182.81C160.14 182.696 160.386 182.578 160.562 182.46L160.825 182.285L162.741 188.463C161.089 189.381 159.209 189.845 157.101 189.845C155.647 189.845 154.399 189.591 153.358 189.093C152.313 188.594 151.522 187.916 150.986 187.063C150.459 186.214 150.077 185.321 149.844 184.385C149.607 183.44 149.493 182.438 149.493 181.375V172.853H146.295V167.025H149.493Z" fill="#FFC857"/>
<path d="M165.333 189.198V152.028H173.011V169.353H173.099C175.102 167.371 177.228 166.378 179.477 166.378C180.575 166.378 181.673 166.526 182.762 166.815C183.852 167.095 184.893 167.541 185.89 168.145C186.883 168.753 187.691 169.611 188.315 170.718C188.934 171.829 189.246 173.115 189.246 174.585V189.198H181.568V176.668C181.568 175.513 181.199 174.506 180.461 173.64C179.723 172.778 178.761 172.345 177.579 172.345C176.42 172.345 175.365 172.796 174.417 173.693C173.477 174.581 173.011 175.574 173.011 176.668V189.198H165.333Z" fill="#FFC857"/>
<path d="M216.541 179.17H200.394C200.394 180.723 200.895 181.878 201.905 182.635C202.924 183.383 204.022 183.755 205.208 183.755C206.46 183.755 207.444 183.593 208.16 183.265C208.885 182.928 209.711 182.268 210.637 181.288L216.19 184.053C213.879 187.916 210.031 189.845 204.646 189.845C201.294 189.845 198.417 188.703 196.019 186.415C193.616 184.118 192.417 181.358 192.417 178.138C192.417 174.909 193.616 172.144 196.019 169.843C198.417 167.533 201.294 166.378 204.646 166.378C208.182 166.378 211.059 167.393 213.273 169.423C215.487 171.453 216.594 174.358 216.594 178.138C216.594 178.654 216.576 178.995 216.541 179.17ZM200.622 174.935H209.074C208.898 173.78 208.441 172.896 207.703 172.275C206.974 171.658 206.034 171.348 204.874 171.348C203.596 171.348 202.581 171.68 201.835 172.345C201.084 173.01 200.679 173.876 200.622 174.935Z" fill="#FFC857"/>
<path d="M243.221 189.198L228.216 153.533H237.405L246.436 176.965L255.467 153.533H264.674L249.652 189.198H243.221Z" fill="#FFC857"/>
<path d="M266.787 154.67C267.688 153.773 268.76 153.323 270.003 153.323C271.241 153.323 272.309 153.773 273.2 154.67C274.101 155.558 274.553 156.621 274.553 157.855C274.553 159.093 274.101 160.161 273.2 161.058C272.309 161.959 271.241 162.405 270.003 162.405C268.76 162.405 267.688 161.959 266.787 161.058C265.896 160.161 265.452 159.093 265.452 157.855C265.452 156.621 265.896 155.558 266.787 154.67ZM266.049 167.025V189.198H273.728V167.025H266.049Z" fill="#FFC857"/>
<path d="M302.066 169.79C304.148 172.065 305.193 174.848 305.193 178.138C305.193 181.419 304.148 184.188 302.066 186.45C299.992 188.716 297.344 189.845 294.124 189.845C291.172 189.845 288.739 188.795 286.832 186.695H286.744V189.198H279.154V152.028H286.832V169.143C288.739 167.301 291.172 166.378 294.124 166.378C297.344 166.378 299.992 167.515 302.066 169.79ZM295.6 181.883C296.557 180.916 297.041 179.669 297.041 178.138C297.041 176.611 296.535 175.355 295.53 174.375C294.532 173.395 293.298 172.905 291.822 172.905C290.381 172.905 289.16 173.395 288.168 174.375C287.17 175.355 286.674 176.611 286.674 178.138C286.674 179.634 287.153 180.868 288.115 181.848C289.086 182.828 290.32 183.318 291.822 183.318C293.39 183.318 294.651 182.841 295.6 181.883Z" fill="#FFC857"/>
<path d="M331.317 179.17H315.17C315.17 180.723 315.671 181.878 316.681 182.635C317.7 183.383 318.798 183.755 319.984 183.755C321.236 183.755 322.22 183.593 322.936 183.265C323.661 182.928 324.486 182.268 325.413 181.288L330.965 184.053C328.655 187.916 324.807 189.845 319.422 189.845C316.07 189.845 313.193 188.703 310.795 186.415C308.392 184.118 307.193 181.358 307.193 178.138C307.193 174.909 308.392 172.144 310.795 169.843C313.193 167.533 316.07 166.378 319.422 166.378C322.958 166.378 325.835 167.393 328.049 169.423C330.263 171.453 331.37 174.358 331.37 178.138C331.37 178.654 331.352 178.995 331.317 179.17ZM315.398 174.935H323.849C323.674 173.78 323.217 172.896 322.479 172.275C321.75 171.658 320.81 171.348 319.65 171.348C318.372 171.348 317.357 171.68 316.611 172.345C315.859 173.01 315.455 173.876 315.398 174.935Z" fill="#FFC857"/>
<path d="M339.913 179.94C341.292 179.94 342.47 180.426 343.445 181.393C344.415 182.364 344.903 183.536 344.903 184.91C344.903 186.275 344.415 187.443 343.445 188.41C342.47 189.364 341.292 189.845 339.913 189.845C338.551 189.845 337.387 189.364 336.417 188.41C335.441 187.443 334.958 186.275 334.958 184.91C334.958 183.536 335.441 182.364 336.417 181.393C337.387 180.426 338.551 179.94 339.913 179.94Z" fill="#FFC857"/>
</g>
<defs>
<radialGradient id="paint0_radial_583_332" cx="0" cy="0" r="1" gradientUnits="userSpaceOnUse" gradientTransform="translate(195 140) scale(195 140)">
<stop stop-color="white" stop-opacity="0"/>
<stop offset="1" stop-color="#FFC857" stop-opacity="0.5"/>
</radialGradient>
<clipPath id="clip0_583_332">
<rect width="300" height="99" fill="white" transform="translate(45 91)"/>
</clipPath>
</defs>
</svg>
