<svg xmlns="http://www.w3.org/2000/svg" xmlns:xlink="http://www.w3.org/1999/xlink" width="1200" zoomAndPan="magnify" viewBox="0 0 900 74.999997" height="100" preserveAspectRatio="xMidYMid meet" version="1.0"><defs><g/></defs><g fill="#0077b6" fill-opacity="1"><g transform="translate(1.248679, 54.973248)"><g><path d="M 36.25 -20.78125 L 36.25 -12.71875 C 35.289062 -8.3125 33.191406 -4.976562 29.953125 -2.71875 C 26.710938 -0.457031 23.097656 0.671875 19.109375 0.671875 C 14.109375 0.671875 9.84375 -1.195312 6.3125 -4.9375 C 2.789062 -8.6875 1.03125 -13.21875 1.03125 -18.53125 C 1.03125 -23.925781 2.753906 -28.484375 6.203125 -32.203125 C 9.648438 -35.921875 13.953125 -37.78125 19.109375 -37.78125 C 25.140625 -37.78125 29.90625 -35.664062 33.40625 -31.4375 L 27.875 -25.359375 C 25.894531 -28.535156 23.140625 -30.125 19.609375 -30.125 C 16.992188 -30.125 14.765625 -28.992188 12.921875 -26.734375 C 11.078125 -24.472656 10.15625 -21.738281 10.15625 -18.53125 C 10.15625 -15.382812 11.078125 -12.691406 12.921875 -10.453125 C 14.765625 -8.222656 16.992188 -7.109375 19.609375 -7.109375 C 21.765625 -7.109375 23.644531 -7.757812 25.25 -9.0625 C 26.851562 -10.363281 27.65625 -12.09375 27.65625 -14.25 L 19.109375 -14.25 L 19.109375 -20.78125 Z M 36.25 -20.78125 "/></g></g></g><g fill="#0077b6" fill-opacity="1"><g transform="translate(35.325477, 54.973248)"><g><path d="M 4.875 -2.734375 C 2.3125 -5.015625 1.03125 -7.9375 1.03125 -11.5 C 1.03125 -15.070312 2.363281 -18.003906 5.03125 -20.296875 C 7.695312 -22.597656 10.992188 -23.75 14.921875 -23.75 C 18.796875 -23.75 22.054688 -22.59375 24.703125 -20.28125 C 27.359375 -17.96875 28.6875 -15.039062 28.6875 -11.5 C 28.6875 -7.96875 27.390625 -5.054688 24.796875 -2.765625 C 22.203125 -0.472656 18.910156 0.671875 14.921875 0.671875 C 10.785156 0.671875 7.4375 -0.460938 4.875 -2.734375 Z M 11.03125 -15.421875 C 10 -14.398438 9.484375 -13.09375 9.484375 -11.5 C 9.484375 -9.914062 9.976562 -8.617188 10.96875 -7.609375 C 11.957031 -6.609375 13.265625 -6.109375 14.890625 -6.109375 C 16.441406 -6.109375 17.71875 -6.617188 18.71875 -7.640625 C 19.726562 -8.660156 20.234375 -9.953125 20.234375 -11.515625 C 20.234375 -13.097656 19.71875 -14.398438 18.6875 -15.421875 C 17.65625 -16.441406 16.390625 -16.953125 14.890625 -16.953125 C 13.359375 -16.953125 12.070312 -16.441406 11.03125 -15.421875 Z M 11.03125 -15.421875 "/></g></g></g><g fill="#0077b6" fill-opacity="1"><g transform="translate(61.84949, 54.973248)"><g><path d="M 4.875 -2.734375 C 2.3125 -5.015625 1.03125 -7.9375 1.03125 -11.5 C 1.03125 -15.070312 2.363281 -18.003906 5.03125 -20.296875 C 7.695312 -22.597656 10.992188 -23.75 14.921875 -23.75 C 18.796875 -23.75 22.054688 -22.59375 24.703125 -20.28125 C 27.359375 -17.96875 28.6875 -15.039062 28.6875 -11.5 C 28.6875 -7.96875 27.390625 -5.054688 24.796875 -2.765625 C 22.203125 -0.472656 18.910156 0.671875 14.921875 0.671875 C 10.785156 0.671875 7.4375 -0.460938 4.875 -2.734375 Z M 11.03125 -15.421875 C 10 -14.398438 9.484375 -13.09375 9.484375 -11.5 C 9.484375 -9.914062 9.976562 -8.617188 10.96875 -7.609375 C 11.957031 -6.609375 13.265625 -6.109375 14.890625 -6.109375 C 16.441406 -6.109375 17.71875 -6.617188 18.71875 -7.640625 C 19.726562 -8.660156 20.234375 -9.953125 20.234375 -11.515625 C 20.234375 -13.097656 19.71875 -14.398438 18.6875 -15.421875 C 17.65625 -16.441406 16.390625 -16.953125 14.890625 -16.953125 C 13.359375 -16.953125 12.070312 -16.441406 11.03125 -15.421875 Z M 11.03125 -15.421875 "/></g></g></g><g fill="#0077b6" fill-opacity="1"><g transform="translate(88.373499, 54.973248)"><g><path d="M 4.265625 -2.859375 C 2.109375 -5.210938 1.03125 -8.097656 1.03125 -11.515625 C 1.03125 -14.929688 2.109375 -17.820312 4.265625 -20.1875 C 6.429688 -22.5625 9.175781 -23.75 12.5 -23.75 C 15.5625 -23.75 18.082031 -22.785156 20.0625 -20.859375 L 20.0625 -38.671875 L 28.015625 -38.671875 L 28.015625 0 L 20.140625 0 L 20.140625 -2.609375 L 20.0625 -2.609375 C 18.082031 -0.421875 15.5625 0.671875 12.5 0.671875 C 9.175781 0.671875 6.429688 -0.503906 4.265625 -2.859375 Z M 11.03125 -15.421875 C 10 -14.398438 9.484375 -13.09375 9.484375 -11.5 C 9.484375 -9.914062 9.976562 -8.617188 10.96875 -7.609375 C 11.957031 -6.609375 13.265625 -6.109375 14.890625 -6.109375 C 16.441406 -6.109375 17.71875 -6.617188 18.71875 -7.640625 C 19.726562 -8.660156 20.234375 -9.953125 20.234375 -11.515625 C 20.234375 -13.097656 19.71875 -14.398438 18.6875 -15.421875 C 17.65625 -16.441406 16.390625 -16.953125 14.890625 -16.953125 C 13.359375 -16.953125 12.070312 -16.441406 11.03125 -15.421875 Z M 11.03125 -15.421875 "/></g></g></g><g fill="#0077b6" fill-opacity="1"><g transform="translate(115.886562, 54.973248)"><g/></g></g><g fill="#0077b6" fill-opacity="1"><g transform="translate(124.967218, 54.973248)"><g><path d="M 14.296875 0 L -1.265625 -37.09375 L 8.28125 -37.09375 L 17.625 -12.71875 L 26.984375 -37.09375 L 36.515625 -37.09375 L 20.953125 0 Z M 14.296875 0 "/></g></g></g><g fill="#0077b6" fill-opacity="1"><g transform="translate(157.020961, 54.973248)"><g><path d="M 3.453125 -35.921875 C 4.390625 -36.859375 5.5 -37.328125 6.78125 -37.328125 C 8.070312 -37.328125 9.179688 -36.859375 10.109375 -35.921875 C 11.046875 -34.992188 11.515625 -33.882812 11.515625 -32.59375 C 11.515625 -31.3125 11.046875 -30.203125 10.109375 -29.265625 C 9.179688 -28.335938 8.070312 -27.875 6.78125 -27.875 C 5.5 -27.875 4.390625 -28.335938 3.453125 -29.265625 C 2.523438 -30.203125 2.0625 -31.3125 2.0625 -32.59375 C 2.0625 -33.882812 2.523438 -34.992188 3.453125 -35.921875 Z M 2.703125 -23.0625 L 2.703125 0 L 10.65625 0 L 10.65625 -23.0625 Z M 2.703125 -23.0625 "/></g></g></g><g fill="#0077b6" fill-opacity="1"><g transform="translate(167.405369, 54.973248)"><g><path d="M 26.4375 -20.1875 C 28.59375 -17.820312 29.671875 -14.929688 29.671875 -11.515625 C 29.671875 -8.097656 28.59375 -5.210938 26.4375 -2.859375 C 24.28125 -0.503906 21.539062 0.671875 18.21875 0.671875 C 15.15625 0.671875 12.632812 -0.421875 10.65625 -2.609375 L 10.5625 -2.609375 L 10.5625 0 L 2.703125 0 L 2.703125 -38.671875 L 10.65625 -38.671875 L 10.65625 -20.859375 C 12.632812 -22.785156 15.15625 -23.75 18.21875 -23.75 C 21.539062 -23.75 24.28125 -22.5625 26.4375 -20.1875 Z M 19.734375 -7.609375 C 20.722656 -8.617188 21.21875 -9.914062 21.21875 -11.5 C 21.21875 -13.09375 20.703125 -14.398438 19.671875 -15.421875 C 18.640625 -16.441406 17.359375 -16.953125 15.828125 -16.953125 C 14.328125 -16.953125 13.0625 -16.441406 12.03125 -15.421875 C 11 -14.398438 10.484375 -13.097656 10.484375 -11.515625 C 10.484375 -9.953125 10.984375 -8.660156 11.984375 -7.640625 C 12.984375 -6.617188 14.265625 -6.109375 15.828125 -6.109375 C 17.441406 -6.109375 18.742188 -6.609375 19.734375 -7.609375 Z M 19.734375 -7.609375 "/></g></g></g><g fill="#0077b6" fill-opacity="1"><g transform="translate(194.918431, 54.973248)"><g><path d="M 26.03125 -10.4375 L 9.3125 -10.4375 C 9.3125 -8.8125 9.832031 -7.609375 10.875 -6.828125 C 11.925781 -6.054688 13.066406 -5.671875 14.296875 -5.671875 C 15.585938 -5.671875 16.609375 -5.84375 17.359375 -6.1875 C 18.109375 -6.53125 18.960938 -7.210938 19.921875 -8.234375 L 25.671875 -5.34375 C 23.273438 -1.332031 19.289062 0.671875 13.71875 0.671875 C 10.238281 0.671875 7.253906 -0.515625 4.765625 -2.890625 C 2.273438 -5.273438 1.03125 -8.144531 1.03125 -11.5 C 1.03125 -14.863281 2.273438 -17.742188 4.765625 -20.140625 C 7.253906 -22.546875 10.238281 -23.75 13.71875 -23.75 C 17.375 -23.75 20.347656 -22.691406 22.640625 -20.578125 C 24.929688 -18.460938 26.078125 -15.441406 26.078125 -11.515625 C 26.078125 -10.972656 26.0625 -10.613281 26.03125 -10.4375 Z M 9.53125 -14.84375 L 18.296875 -14.84375 C 18.117188 -16.039062 17.644531 -16.960938 16.875 -17.609375 C 16.113281 -18.253906 15.132812 -18.578125 13.9375 -18.578125 C 12.625 -18.578125 11.578125 -18.226562 10.796875 -17.53125 C 10.015625 -16.84375 9.59375 -15.945312 9.53125 -14.84375 Z M 9.53125 -14.84375 "/></g></g></g><g fill="#ffc857" fill-opacity="1"><g transform="translate(227.197286, 54.973248)"><g><path d="M 36.25 -20.78125 L 36.25 -12.71875 C 35.289062 -8.3125 33.191406 -4.976562 29.953125 -2.71875 C 26.710938 -0.457031 23.097656 0.671875 19.109375 0.671875 C 14.109375 0.671875 9.84375 -1.195312 6.3125 -4.9375 C 2.789062 -8.6875 1.03125 -13.21875 1.03125 -18.53125 C 1.03125 -23.925781 2.753906 -28.484375 6.203125 -32.203125 C 9.648438 -35.921875 13.953125 -37.78125 19.109375 -37.78125 C 25.140625 -37.78125 29.90625 -35.664062 33.40625 -31.4375 L 27.875 -25.359375 C 25.894531 -28.535156 23.140625 -30.125 19.609375 -30.125 C 16.992188 -30.125 14.765625 -28.992188 12.921875 -26.734375 C 11.078125 -24.472656 10.15625 -21.738281 10.15625 -18.53125 C 10.15625 -15.382812 11.078125 -12.691406 12.921875 -10.453125 C 14.765625 -8.222656 16.992188 -7.109375 19.609375 -7.109375 C 21.765625 -7.109375 23.644531 -7.757812 25.25 -9.0625 C 26.851562 -10.363281 27.65625 -12.09375 27.65625 -14.25 L 19.109375 -14.25 L 19.109375 -20.78125 Z M 36.25 -20.78125 "/></g></g></g><g fill="#ffc857" fill-opacity="1"><g transform="translate(261.274084, 54.973248)"><g><path d="M 4.875 -2.734375 C 2.3125 -5.015625 1.03125 -7.9375 1.03125 -11.5 C 1.03125 -15.070312 2.363281 -18.003906 5.03125 -20.296875 C 7.695312 -22.597656 10.992188 -23.75 14.921875 -23.75 C 18.796875 -23.75 22.054688 -22.59375 24.703125 -20.28125 C 27.359375 -17.96875 28.6875 -15.039062 28.6875 -11.5 C 28.6875 -7.96875 27.390625 -5.054688 24.796875 -2.765625 C 22.203125 -0.472656 18.910156 0.671875 14.921875 0.671875 C 10.785156 0.671875 7.4375 -0.460938 4.875 -2.734375 Z M 11.03125 -15.421875 C 10 -14.398438 9.484375 -13.09375 9.484375 -11.5 C 9.484375 -9.914062 9.976562 -8.617188 10.96875 -7.609375 C 11.957031 -6.609375 13.265625 -6.109375 14.890625 -6.109375 C 16.441406 -6.109375 17.71875 -6.617188 18.71875 -7.640625 C 19.726562 -8.660156 20.234375 -9.953125 20.234375 -11.515625 C 20.234375 -13.097656 19.71875 -14.398438 18.6875 -15.421875 C 17.65625 -16.441406 16.390625 -16.953125 14.890625 -16.953125 C 13.359375 -16.953125 12.070312 -16.441406 11.03125 -15.421875 Z M 11.03125 -15.421875 "/></g></g></g><g fill="#ffc857" fill-opacity="1"><g transform="translate(287.798097, 54.973248)"><g><path d="M 4.875 -2.734375 C 2.3125 -5.015625 1.03125 -7.9375 1.03125 -11.5 C 1.03125 -15.070312 2.363281 -18.003906 5.03125 -20.296875 C 7.695312 -22.597656 10.992188 -23.75 14.921875 -23.75 C 18.796875 -23.75 22.054688 -22.59375 24.703125 -20.28125 C 27.359375 -17.96875 28.6875 -15.039062 28.6875 -11.5 C 28.6875 -7.96875 27.390625 -5.054688 24.796875 -2.765625 C 22.203125 -0.472656 18.910156 0.671875 14.921875 0.671875 C 10.785156 0.671875 7.4375 -0.460938 4.875 -2.734375 Z M 11.03125 -15.421875 C 10 -14.398438 9.484375 -13.09375 9.484375 -11.5 C 9.484375 -9.914062 9.976562 -8.617188 10.96875 -7.609375 C 11.957031 -6.609375 13.265625 -6.109375 14.890625 -6.109375 C 16.441406 -6.109375 17.71875 -6.617188 18.71875 -7.640625 C 19.726562 -8.660156 20.234375 -9.953125 20.234375 -11.515625 C 20.234375 -13.097656 19.71875 -14.398438 18.6875 -15.421875 C 17.65625 -16.441406 16.390625 -16.953125 14.890625 -16.953125 C 13.359375 -16.953125 12.070312 -16.441406 11.03125 -15.421875 Z M 11.03125 -15.421875 "/></g></g></g><g fill="#ffc857" fill-opacity="1"><g transform="translate(314.322107, 54.973248)"><g><path d="M 4.265625 -2.859375 C 2.109375 -5.210938 1.03125 -8.097656 1.03125 -11.515625 C 1.03125 -14.929688 2.109375 -17.820312 4.265625 -20.1875 C 6.429688 -22.5625 9.175781 -23.75 12.5 -23.75 C 15.5625 -23.75 18.082031 -22.785156 20.0625 -20.859375 L 20.0625 -38.671875 L 28.015625 -38.671875 L 28.015625 0 L 20.140625 0 L 20.140625 -2.609375 L 20.0625 -2.609375 C 18.082031 -0.421875 15.5625 0.671875 12.5 0.671875 C 9.175781 0.671875 6.429688 -0.503906 4.265625 -2.859375 Z M 11.03125 -15.421875 C 10 -14.398438 9.484375 -13.09375 9.484375 -11.5 C 9.484375 -9.914062 9.976562 -8.617188 10.96875 -7.609375 C 11.957031 -6.609375 13.265625 -6.109375 14.890625 -6.109375 C 16.441406 -6.109375 17.71875 -6.617188 18.71875 -7.640625 C 19.726562 -8.660156 20.234375 -9.953125 20.234375 -11.515625 C 20.234375 -13.097656 19.71875 -14.398438 18.6875 -15.421875 C 17.65625 -16.441406 16.390625 -16.953125 14.890625 -16.953125 C 13.359375 -16.953125 12.070312 -16.441406 11.03125 -15.421875 Z M 11.03125 -15.421875 "/></g></g></g><g fill="#ffc857" fill-opacity="1"><g transform="translate(341.835169, 54.973248)"><g/></g></g><g fill="#ffc857" fill-opacity="1"><g transform="translate(350.915825, 54.973248)"><g><path d="M 14.296875 0 L -1.265625 -37.09375 L 8.28125 -37.09375 L 17.625 -12.71875 L 26.984375 -37.09375 L 36.515625 -37.09375 L 20.953125 0 Z M 14.296875 0 "/></g></g></g><g fill="#ffc857" fill-opacity="1"><g transform="translate(382.969569, 54.973248)"><g><path d="M 3.453125 -35.921875 C 4.390625 -36.859375 5.5 -37.328125 6.78125 -37.328125 C 8.070312 -37.328125 9.179688 -36.859375 10.109375 -35.921875 C 11.046875 -34.992188 11.515625 -33.882812 11.515625 -32.59375 C 11.515625 -31.3125 11.046875 -30.203125 10.109375 -29.265625 C 9.179688 -28.335938 8.070312 -27.875 6.78125 -27.875 C 5.5 -27.875 4.390625 -28.335938 3.453125 -29.265625 C 2.523438 -30.203125 2.0625 -31.3125 2.0625 -32.59375 C 2.0625 -33.882812 2.523438 -34.992188 3.453125 -35.921875 Z M 2.703125 -23.0625 L 2.703125 0 L 10.65625 0 L 10.65625 -23.0625 Z M 2.703125 -23.0625 "/></g></g></g><g fill="#ffc857" fill-opacity="1"><g transform="translate(393.353976, 54.973248)"><g><path d="M 26.4375 -20.1875 C 28.59375 -17.820312 29.671875 -14.929688 29.671875 -11.515625 C 29.671875 -8.097656 28.59375 -5.210938 26.4375 -2.859375 C 24.28125 -0.503906 21.539062 0.671875 18.21875 0.671875 C 15.15625 0.671875 12.632812 -0.421875 10.65625 -2.609375 L 10.5625 -2.609375 L 10.5625 0 L 2.703125 0 L 2.703125 -38.671875 L 10.65625 -38.671875 L 10.65625 -20.859375 C 12.632812 -22.785156 15.15625 -23.75 18.21875 -23.75 C 21.539062 -23.75 24.28125 -22.5625 26.4375 -20.1875 Z M 19.734375 -7.609375 C 20.722656 -8.617188 21.21875 -9.914062 21.21875 -11.5 C 21.21875 -13.09375 20.703125 -14.398438 19.671875 -15.421875 C 18.640625 -16.441406 17.359375 -16.953125 15.828125 -16.953125 C 14.328125 -16.953125 13.0625 -16.441406 12.03125 -15.421875 C 11 -14.398438 10.484375 -13.097656 10.484375 -11.515625 C 10.484375 -9.953125 10.984375 -8.660156 11.984375 -7.640625 C 12.984375 -6.617188 14.265625 -6.109375 15.828125 -6.109375 C 17.441406 -6.109375 18.742188 -6.609375 19.734375 -7.609375 Z M 19.734375 -7.609375 "/></g></g></g><g fill="#ffc857" fill-opacity="1"><g transform="translate(420.867039, 54.973248)"><g><path d="M 26.03125 -10.4375 L 9.3125 -10.4375 C 9.3125 -8.8125 9.832031 -7.609375 10.875 -6.828125 C 11.925781 -6.054688 13.066406 -5.671875 14.296875 -5.671875 C 15.585938 -5.671875 16.609375 -5.84375 17.359375 -6.1875 C 18.109375 -6.53125 18.960938 -7.210938 19.921875 -8.234375 L 25.671875 -5.34375 C 23.273438 -1.332031 19.289062 0.671875 13.71875 0.671875 C 10.238281 0.671875 7.253906 -0.515625 4.765625 -2.890625 C 2.273438 -5.273438 1.03125 -8.144531 1.03125 -11.5 C 1.03125 -14.863281 2.273438 -17.742188 4.765625 -20.140625 C 7.253906 -22.546875 10.238281 -23.75 13.71875 -23.75 C 17.375 -23.75 20.347656 -22.691406 22.640625 -20.578125 C 24.929688 -18.460938 26.078125 -15.441406 26.078125 -11.515625 C 26.078125 -10.972656 26.0625 -10.613281 26.03125 -10.4375 Z M 9.53125 -14.84375 L 18.296875 -14.84375 C 18.117188 -16.039062 17.644531 -16.960938 16.875 -17.609375 C 16.113281 -18.253906 15.132812 -18.578125 13.9375 -18.578125 C 12.625 -18.578125 11.578125 -18.226562 10.796875 -17.53125 C 10.015625 -16.84375 9.59375 -15.945312 9.53125 -14.84375 Z M 9.53125 -14.84375 "/></g></g></g><g fill="#0077b6" fill-opacity="1"><g transform="translate(453.511107, 54.973248)"><g><path d="M 36.25 -20.78125 L 36.25 -12.71875 C 35.289062 -8.3125 33.191406 -4.976562 29.953125 -2.71875 C 26.710938 -0.457031 23.097656 0.671875 19.109375 0.671875 C 14.109375 0.671875 9.84375 -1.195312 6.3125 -4.9375 C 2.789062 -8.6875 1.03125 -13.21875 1.03125 -18.53125 C 1.03125 -23.925781 2.753906 -28.484375 6.203125 -32.203125 C 9.648438 -35.921875 13.953125 -37.78125 19.109375 -37.78125 C 25.140625 -37.78125 29.90625 -35.664062 33.40625 -31.4375 L 27.875 -25.359375 C 25.894531 -28.535156 23.140625 -30.125 19.609375 -30.125 C 16.992188 -30.125 14.765625 -28.992188 12.921875 -26.734375 C 11.078125 -24.472656 10.15625 -21.738281 10.15625 -18.53125 C 10.15625 -15.382812 11.078125 -12.691406 12.921875 -10.453125 C 14.765625 -8.222656 16.992188 -7.109375 19.609375 -7.109375 C 21.765625 -7.109375 23.644531 -7.757812 25.25 -9.0625 C 26.851562 -10.363281 27.65625 -12.09375 27.65625 -14.25 L 19.109375 -14.25 L 19.109375 -20.78125 Z M 36.25 -20.78125 "/></g></g></g><g fill="#0077b6" fill-opacity="1"><g transform="translate(487.587905, 54.973248)"><g><path d="M 4.875 -2.734375 C 2.3125 -5.015625 1.03125 -7.9375 1.03125 -11.5 C 1.03125 -15.070312 2.363281 -18.003906 5.03125 -20.296875 C 7.695312 -22.597656 10.992188 -23.75 14.921875 -23.75 C 18.796875 -23.75 22.054688 -22.59375 24.703125 -20.28125 C 27.359375 -17.96875 28.6875 -15.039062 28.6875 -11.5 C 28.6875 -7.96875 27.390625 -5.054688 24.796875 -2.765625 C 22.203125 -0.472656 18.910156 0.671875 14.921875 0.671875 C 10.785156 0.671875 7.4375 -0.460938 4.875 -2.734375 Z M 11.03125 -15.421875 C 10 -14.398438 9.484375 -13.09375 9.484375 -11.5 C 9.484375 -9.914062 9.976562 -8.617188 10.96875 -7.609375 C 11.957031 -6.609375 13.265625 -6.109375 14.890625 -6.109375 C 16.441406 -6.109375 17.71875 -6.617188 18.71875 -7.640625 C 19.726562 -8.660156 20.234375 -9.953125 20.234375 -11.515625 C 20.234375 -13.097656 19.71875 -14.398438 18.6875 -15.421875 C 17.65625 -16.441406 16.390625 -16.953125 14.890625 -16.953125 C 13.359375 -16.953125 12.070312 -16.441406 11.03125 -15.421875 Z M 11.03125 -15.421875 "/></g></g></g><g fill="#0077b6" fill-opacity="1"><g transform="translate(514.111918, 54.973248)"><g><path d="M 4.875 -2.734375 C 2.3125 -5.015625 1.03125 -7.9375 1.03125 -11.5 C 1.03125 -15.070312 2.363281 -18.003906 5.03125 -20.296875 C 7.695312 -22.597656 10.992188 -23.75 14.921875 -23.75 C 18.796875 -23.75 22.054688 -22.59375 24.703125 -20.28125 C 27.359375 -17.96875 28.6875 -15.039062 28.6875 -11.5 C 28.6875 -7.96875 27.390625 -5.054688 24.796875 -2.765625 C 22.203125 -0.472656 18.910156 0.671875 14.921875 0.671875 C 10.785156 0.671875 7.4375 -0.460938 4.875 -2.734375 Z M 11.03125 -15.421875 C 10 -14.398438 9.484375 -13.09375 9.484375 -11.5 C 9.484375 -9.914062 9.976562 -8.617188 10.96875 -7.609375 C 11.957031 -6.609375 13.265625 -6.109375 14.890625 -6.109375 C 16.441406 -6.109375 17.71875 -6.617188 18.71875 -7.640625 C 19.726562 -8.660156 20.234375 -9.953125 20.234375 -11.515625 C 20.234375 -13.097656 19.71875 -14.398438 18.6875 -15.421875 C 17.65625 -16.441406 16.390625 -16.953125 14.890625 -16.953125 C 13.359375 -16.953125 12.070312 -16.441406 11.03125 -15.421875 Z M 11.03125 -15.421875 "/></g></g></g><g fill="#0077b6" fill-opacity="1"><g transform="translate(540.635927, 54.973248)"><g><path d="M 4.265625 -2.859375 C 2.109375 -5.210938 1.03125 -8.097656 1.03125 -11.515625 C 1.03125 -14.929688 2.109375 -17.820312 4.265625 -20.1875 C 6.429688 -22.5625 9.175781 -23.75 12.5 -23.75 C 15.5625 -23.75 18.082031 -22.785156 20.0625 -20.859375 L 20.0625 -38.671875 L 28.015625 -38.671875 L 28.015625 0 L 20.140625 0 L 20.140625 -2.609375 L 20.0625 -2.609375 C 18.082031 -0.421875 15.5625 0.671875 12.5 0.671875 C 9.175781 0.671875 6.429688 -0.503906 4.265625 -2.859375 Z M 11.03125 -15.421875 C 10 -14.398438 9.484375 -13.09375 9.484375 -11.5 C 9.484375 -9.914062 9.976562 -8.617188 10.96875 -7.609375 C 11.957031 -6.609375 13.265625 -6.109375 14.890625 -6.109375 C 16.441406 -6.109375 17.71875 -6.617188 18.71875 -7.640625 C 19.726562 -8.660156 20.234375 -9.953125 20.234375 -11.515625 C 20.234375 -13.097656 19.71875 -14.398438 18.6875 -15.421875 C 17.65625 -16.441406 16.390625 -16.953125 14.890625 -16.953125 C 13.359375 -16.953125 12.070312 -16.441406 11.03125 -15.421875 Z M 11.03125 -15.421875 "/></g></g></g><g fill="#0077b6" fill-opacity="1"><g transform="translate(568.14899, 54.973248)"><g/></g></g><g fill="#0077b6" fill-opacity="1"><g transform="translate(577.229646, 54.973248)"><g><path d="M 14.296875 0 L -1.265625 -37.09375 L 8.28125 -37.09375 L 17.625 -12.71875 L 26.984375 -37.09375 L 36.515625 -37.09375 L 20.953125 0 Z M 14.296875 0 "/></g></g></g><g fill="#0077b6" fill-opacity="1"><g transform="translate(609.283389, 54.973248)"><g><path d="M 3.453125 -35.921875 C 4.390625 -36.859375 5.5 -37.328125 6.78125 -37.328125 C 8.070312 -37.328125 9.179688 -36.859375 10.109375 -35.921875 C 11.046875 -34.992188 11.515625 -33.882812 11.515625 -32.59375 C 11.515625 -31.3125 11.046875 -30.203125 10.109375 -29.265625 C 9.179688 -28.335938 8.070312 -27.875 6.78125 -27.875 C 5.5 -27.875 4.390625 -28.335938 3.453125 -29.265625 C 2.523438 -30.203125 2.0625 -31.3125 2.0625 -32.59375 C 2.0625 -33.882812 2.523438 -34.992188 3.453125 -35.921875 Z M 2.703125 -23.0625 L 2.703125 0 L 10.65625 0 L 10.65625 -23.0625 Z M 2.703125 -23.0625 "/></g></g></g><g fill="#0077b6" fill-opacity="1"><g transform="translate(619.667797, 54.973248)"><g><path d="M 26.4375 -20.1875 C 28.59375 -17.820312 29.671875 -14.929688 29.671875 -11.515625 C 29.671875 -8.097656 28.59375 -5.210938 26.4375 -2.859375 C 24.28125 -0.503906 21.539062 0.671875 18.21875 0.671875 C 15.15625 0.671875 12.632812 -0.421875 10.65625 -2.609375 L 10.5625 -2.609375 L 10.5625 0 L 2.703125 0 L 2.703125 -38.671875 L 10.65625 -38.671875 L 10.65625 -20.859375 C 12.632812 -22.785156 15.15625 -23.75 18.21875 -23.75 C 21.539062 -23.75 24.28125 -22.5625 26.4375 -20.1875 Z M 19.734375 -7.609375 C 20.722656 -8.617188 21.21875 -9.914062 21.21875 -11.5 C 21.21875 -13.09375 20.703125 -14.398438 19.671875 -15.421875 C 18.640625 -16.441406 17.359375 -16.953125 15.828125 -16.953125 C 14.328125 -16.953125 13.0625 -16.441406 12.03125 -15.421875 C 11 -14.398438 10.484375 -13.097656 10.484375 -11.515625 C 10.484375 -9.953125 10.984375 -8.660156 11.984375 -7.640625 C 12.984375 -6.617188 14.265625 -6.109375 15.828125 -6.109375 C 17.441406 -6.109375 18.742188 -6.609375 19.734375 -7.609375 Z M 19.734375 -7.609375 "/></g></g></g><g fill="#0077b6" fill-opacity="1"><g transform="translate(647.180859, 54.973248)"><g><path d="M 26.03125 -10.4375 L 9.3125 -10.4375 C 9.3125 -8.8125 9.832031 -7.609375 10.875 -6.828125 C 11.925781 -6.054688 13.066406 -5.671875 14.296875 -5.671875 C 15.585938 -5.671875 16.609375 -5.84375 17.359375 -6.1875 C 18.109375 -6.53125 18.960938 -7.210938 19.921875 -8.234375 L 25.671875 -5.34375 C 23.273438 -1.332031 19.289062 0.671875 13.71875 0.671875 C 10.238281 0.671875 7.253906 -0.515625 4.765625 -2.890625 C 2.273438 -5.273438 1.03125 -8.144531 1.03125 -11.5 C 1.03125 -14.863281 2.273438 -17.742188 4.765625 -20.140625 C 7.253906 -22.546875 10.238281 -23.75 13.71875 -23.75 C 17.375 -23.75 20.347656 -22.691406 22.640625 -20.578125 C 24.929688 -18.460938 26.078125 -15.441406 26.078125 -11.515625 C 26.078125 -10.972656 26.0625 -10.613281 26.03125 -10.4375 Z M 9.53125 -14.84375 L 18.296875 -14.84375 C 18.117188 -16.039062 17.644531 -16.960938 16.875 -17.609375 C 16.113281 -18.253906 15.132812 -18.578125 13.9375 -18.578125 C 12.625 -18.578125 11.578125 -18.226562 10.796875 -17.53125 C 10.015625 -16.84375 9.59375 -15.945312 9.53125 -14.84375 Z M 9.53125 -14.84375 "/></g></g></g><g fill="#ffc857" fill-opacity="1"><g transform="translate(679.459737, 54.973248)"><g><path d="M 36.25 -20.78125 L 36.25 -12.71875 C 35.289062 -8.3125 33.191406 -4.976562 29.953125 -2.71875 C 26.710938 -0.457031 23.097656 0.671875 19.109375 0.671875 C 14.109375 0.671875 9.84375 -1.195312 6.3125 -4.9375 C 2.789062 -8.6875 1.03125 -13.21875 1.03125 -18.53125 C 1.03125 -23.925781 2.753906 -28.484375 6.203125 -32.203125 C 9.648438 -35.921875 13.953125 -37.78125 19.109375 -37.78125 C 25.140625 -37.78125 29.90625 -35.664062 33.40625 -31.4375 L 27.875 -25.359375 C 25.894531 -28.535156 23.140625 -30.125 19.609375 -30.125 C 16.992188 -30.125 14.765625 -28.992188 12.921875 -26.734375 C 11.078125 -24.472656 10.15625 -21.738281 10.15625 -18.53125 C 10.15625 -15.382812 11.078125 -12.691406 12.921875 -10.453125 C 14.765625 -8.222656 16.992188 -7.109375 19.609375 -7.109375 C 21.765625 -7.109375 23.644531 -7.757812 25.25 -9.0625 C 26.851562 -10.363281 27.65625 -12.09375 27.65625 -14.25 L 19.109375 -14.25 L 19.109375 -20.78125 Z M 36.25 -20.78125 "/></g></g></g><g fill="#ffc857" fill-opacity="1"><g transform="translate(713.536534, 54.973248)"><g><path d="M 4.875 -2.734375 C 2.3125 -5.015625 1.03125 -7.9375 1.03125 -11.5 C 1.03125 -15.070312 2.363281 -18.003906 5.03125 -20.296875 C 7.695312 -22.597656 10.992188 -23.75 14.921875 -23.75 C 18.796875 -23.75 22.054688 -22.59375 24.703125 -20.28125 C 27.359375 -17.96875 28.6875 -15.039062 28.6875 -11.5 C 28.6875 -7.96875 27.390625 -5.054688 24.796875 -2.765625 C 22.203125 -0.472656 18.910156 0.671875 14.921875 0.671875 C 10.785156 0.671875 7.4375 -0.460938 4.875 -2.734375 Z M 11.03125 -15.421875 C 10 -14.398438 9.484375 -13.09375 9.484375 -11.5 C 9.484375 -9.914062 9.976562 -8.617188 10.96875 -7.609375 C 11.957031 -6.609375 13.265625 -6.109375 14.890625 -6.109375 C 16.441406 -6.109375 17.71875 -6.617188 18.71875 -7.640625 C 19.726562 -8.660156 20.234375 -9.953125 20.234375 -11.515625 C 20.234375 -13.097656 19.71875 -14.398438 18.6875 -15.421875 C 17.65625 -16.441406 16.390625 -16.953125 14.890625 -16.953125 C 13.359375 -16.953125 12.070312 -16.441406 11.03125 -15.421875 Z M 11.03125 -15.421875 "/></g></g></g><g fill="#ffc857" fill-opacity="1"><g transform="translate(740.060547, 54.973248)"><g><path d="M 4.875 -2.734375 C 2.3125 -5.015625 1.03125 -7.9375 1.03125 -11.5 C 1.03125 -15.070312 2.363281 -18.003906 5.03125 -20.296875 C 7.695312 -22.597656 10.992188 -23.75 14.921875 -23.75 C 18.796875 -23.75 22.054688 -22.59375 24.703125 -20.28125 C 27.359375 -17.96875 28.6875 -15.039062 28.6875 -11.5 C 28.6875 -7.96875 27.390625 -5.054688 24.796875 -2.765625 C 22.203125 -0.472656 18.910156 0.671875 14.921875 0.671875 C 10.785156 0.671875 7.4375 -0.460938 4.875 -2.734375 Z M 11.03125 -15.421875 C 10 -14.398438 9.484375 -13.09375 9.484375 -11.5 C 9.484375 -9.914062 9.976562 -8.617188 10.96875 -7.609375 C 11.957031 -6.609375 13.265625 -6.109375 14.890625 -6.109375 C 16.441406 -6.109375 17.71875 -6.617188 18.71875 -7.640625 C 19.726562 -8.660156 20.234375 -9.953125 20.234375 -11.515625 C 20.234375 -13.097656 19.71875 -14.398438 18.6875 -15.421875 C 17.65625 -16.441406 16.390625 -16.953125 14.890625 -16.953125 C 13.359375 -16.953125 12.070312 -16.441406 11.03125 -15.421875 Z M 11.03125 -15.421875 "/></g></g></g><g fill="#ffc857" fill-opacity="1"><g transform="translate(766.584557, 54.973248)"><g><path d="M 4.265625 -2.859375 C 2.109375 -5.210938 1.03125 -8.097656 1.03125 -11.515625 C 1.03125 -14.929688 2.109375 -17.820312 4.265625 -20.1875 C 6.429688 -22.5625 9.175781 -23.75 12.5 -23.75 C 15.5625 -23.75 18.082031 -22.785156 20.0625 -20.859375 L 20.0625 -38.671875 L 28.015625 -38.671875 L 28.015625 0 L 20.140625 0 L 20.140625 -2.609375 L 20.0625 -2.609375 C 18.082031 -0.421875 15.5625 0.671875 12.5 0.671875 C 9.175781 0.671875 6.429688 -0.503906 4.265625 -2.859375 Z M 11.03125 -15.421875 C 10 -14.398438 9.484375 -13.09375 9.484375 -11.5 C 9.484375 -9.914062 9.976562 -8.617188 10.96875 -7.609375 C 11.957031 -6.609375 13.265625 -6.109375 14.890625 -6.109375 C 16.441406 -6.109375 17.71875 -6.617188 18.71875 -7.640625 C 19.726562 -8.660156 20.234375 -9.953125 20.234375 -11.515625 C 20.234375 -13.097656 19.71875 -14.398438 18.6875 -15.421875 C 17.65625 -16.441406 16.390625 -16.953125 14.890625 -16.953125 C 13.359375 -16.953125 12.070312 -16.441406 11.03125 -15.421875 Z M 11.03125 -15.421875 "/></g></g></g><g fill="#ffc857" fill-opacity="1"><g transform="translate(794.097619, 54.973248)"><g/></g></g><g fill="#ffc857" fill-opacity="1"><g transform="translate(803.178276, 54.973248)"><g><path d="M 14.296875 0 L -1.265625 -37.09375 L 8.28125 -37.09375 L 17.625 -12.71875 L 26.984375 -37.09375 L 36.515625 -37.09375 L 20.953125 0 Z M 14.296875 0 "/></g></g></g><g fill="#ffc857" fill-opacity="1"><g transform="translate(835.232019, 54.973248)"><g><path d="M 3.453125 -35.921875 C 4.390625 -36.859375 5.5 -37.328125 6.78125 -37.328125 C 8.070312 -37.328125 9.179688 -36.859375 10.109375 -35.921875 C 11.046875 -34.992188 11.515625 -33.882812 11.515625 -32.59375 C 11.515625 -31.3125 11.046875 -30.203125 10.109375 -29.265625 C 9.179688 -28.335938 8.070312 -27.875 6.78125 -27.875 C 5.5 -27.875 4.390625 -28.335938 3.453125 -29.265625 C 2.523438 -30.203125 2.0625 -31.3125 2.0625 -32.59375 C 2.0625 -33.882812 2.523438 -34.992188 3.453125 -35.921875 Z M 2.703125 -23.0625 L 2.703125 0 L 10.65625 0 L 10.65625 -23.0625 Z M 2.703125 -23.0625 "/></g></g></g><g fill="#ffc857" fill-opacity="1"><g transform="translate(845.616427, 54.973248)"><g><path d="M 26.4375 -20.1875 C 28.59375 -17.820312 29.671875 -14.929688 29.671875 -11.515625 C 29.671875 -8.097656 28.59375 -5.210938 26.4375 -2.859375 C 24.28125 -0.503906 21.539062 0.671875 18.21875 0.671875 C 15.15625 0.671875 12.632812 -0.421875 10.65625 -2.609375 L 10.5625 -2.609375 L 10.5625 0 L 2.703125 0 L 2.703125 -38.671875 L 10.65625 -38.671875 L 10.65625 -20.859375 C 12.632812 -22.785156 15.15625 -23.75 18.21875 -23.75 C 21.539062 -23.75 24.28125 -22.5625 26.4375 -20.1875 Z M 19.734375 -7.609375 C 20.722656 -8.617188 21.21875 -9.914062 21.21875 -11.5 C 21.21875 -13.09375 20.703125 -14.398438 19.671875 -15.421875 C 18.640625 -16.441406 17.359375 -16.953125 15.828125 -16.953125 C 14.328125 -16.953125 13.0625 -16.441406 12.03125 -15.421875 C 11 -14.398438 10.484375 -13.097656 10.484375 -11.515625 C 10.484375 -9.953125 10.984375 -8.660156 11.984375 -7.640625 C 12.984375 -6.617188 14.265625 -6.109375 15.828125 -6.109375 C 17.441406 -6.109375 18.742188 -6.609375 19.734375 -7.609375 Z M 19.734375 -7.609375 "/></g></g></g><g fill="#ffc857" fill-opacity="1"><g transform="translate(873.129489, 54.973248)"><g><path d="M 26.03125 -10.4375 L 9.3125 -10.4375 C 9.3125 -8.8125 9.832031 -7.609375 10.875 -6.828125 C 11.925781 -6.054688 13.066406 -5.671875 14.296875 -5.671875 C 15.585938 -5.671875 16.609375 -5.84375 17.359375 -6.1875 C 18.109375 -6.53125 18.960938 -7.210938 19.921875 -8.234375 L 25.671875 -5.34375 C 23.273438 -1.332031 19.289062 0.671875 13.71875 0.671875 C 10.238281 0.671875 7.253906 -0.515625 4.765625 -2.890625 C 2.273438 -5.273438 1.03125 -8.144531 1.03125 -11.5 C 1.03125 -14.863281 2.273438 -17.742188 4.765625 -20.140625 C 7.253906 -22.546875 10.238281 -23.75 13.71875 -23.75 C 17.375 -23.75 20.347656 -22.691406 22.640625 -20.578125 C 24.929688 -18.460938 26.078125 -15.441406 26.078125 -11.515625 C 26.078125 -10.972656 26.0625 -10.613281 26.03125 -10.4375 Z M 9.53125 -14.84375 L 18.296875 -14.84375 C 18.117188 -16.039062 17.644531 -16.960938 16.875 -17.609375 C 16.113281 -18.253906 15.132812 -18.578125 13.9375 -18.578125 C 12.625 -18.578125 11.578125 -18.226562 10.796875 -17.53125 C 10.015625 -16.84375 9.59375 -15.945312 9.53125 -14.84375 Z M 9.53125 -14.84375 "/></g></g></g></svg>