<svg xmlns="http://www.w3.org/2000/svg" xmlns:xlink="http://www.w3.org/1999/xlink" width="250" zoomAndPan="magnify" viewBox="0 0 187.5 89.999999" height="120" preserveAspectRatio="xMidYMid meet" version="1.0"><defs><g/><clipPath id="4c5ebdab0b"><path d="M 149 25 L 187 25 L 187 48 L 149 48 Z M 149 25 " clip-rule="nonzero"/></clipPath><clipPath id="57ec99134a"><path d="M 61.882812 63.0625 L 73.359375 63.0625 L 73.359375 74.542969 L 61.882812 74.542969 Z M 61.882812 63.0625 " clip-rule="nonzero"/></clipPath><clipPath id="6a8281f40a"><path d="M 67.621094 63.0625 C 64.453125 63.0625 61.882812 65.632812 61.882812 68.804688 C 61.882812 71.972656 64.453125 74.542969 67.621094 74.542969 C 70.792969 74.542969 73.359375 71.972656 73.359375 68.804688 C 73.359375 65.632812 70.792969 63.0625 67.621094 63.0625 Z M 67.621094 63.0625 " clip-rule="nonzero"/></clipPath><clipPath id="2377362cd9"><path d="M 14.886719 63.0625 L 26.367188 63.0625 L 26.367188 74.542969 L 14.886719 74.542969 Z M 14.886719 63.0625 " clip-rule="nonzero"/></clipPath><clipPath id="03bc164285"><path d="M 20.625 63.0625 C 17.457031 63.0625 14.886719 65.632812 14.886719 68.804688 C 14.886719 71.972656 17.457031 74.542969 20.625 74.542969 C 23.796875 74.542969 26.367188 71.972656 26.367188 68.804688 C 26.367188 65.632812 23.796875 63.0625 20.625 63.0625 Z M 20.625 63.0625 " clip-rule="nonzero"/></clipPath><clipPath id="f4e1d53aea"><path d="M 38.335938 63.0625 L 49.8125 63.0625 L 49.8125 74.542969 L 38.335938 74.542969 Z M 38.335938 63.0625 " clip-rule="nonzero"/></clipPath><clipPath id="6b1f7b8a25"><path d="M 44.074219 63.0625 C 40.902344 63.0625 38.335938 65.632812 38.335938 68.804688 C 38.335938 71.972656 40.902344 74.542969 44.074219 74.542969 C 47.242188 74.542969 49.8125 71.972656 49.8125 68.804688 C 49.8125 65.632812 47.242188 63.0625 44.074219 63.0625 Z M 44.074219 63.0625 " clip-rule="nonzero"/></clipPath></defs><g fill="#0077b6" fill-opacity="1"><g transform="translate(-3.566873, 55.597558)"><g><path d="M 12.53125 -41.65625 L 12.53125 0 L 3.03125 0 L 3.03125 -41.65625 Z M 12.53125 -41.65625 "/></g></g></g><g fill="#0077b6" fill-opacity="1"><g transform="translate(8.398697, 55.597558)"><g><path d="M 3.03125 0 L 3.03125 -25.90625 L 11.96875 -25.90625 L 11.96875 -23.171875 L 12.0625 -23.171875 C 14.382812 -25.492188 16.863281 -26.65625 19.5 -26.65625 C 20.769531 -26.65625 22.035156 -26.488281 23.296875 -26.15625 C 24.566406 -25.820312 25.78125 -25.300781 26.9375 -24.59375 C 28.101562 -23.882812 29.046875 -22.878906 29.765625 -21.578125 C 30.492188 -20.285156 30.859375 -18.78125 30.859375 -17.0625 L 30.859375 0 L 21.921875 0 L 21.921875 -14.640625 C 21.921875 -15.992188 21.488281 -17.171875 20.625 -18.171875 C 19.769531 -19.179688 18.648438 -19.6875 17.265625 -19.6875 C 15.921875 -19.6875 14.703125 -19.164062 13.609375 -18.125 C 12.515625 -17.082031 11.96875 -15.921875 11.96875 -14.640625 L 11.96875 0 Z M 3.03125 0 "/></g></g></g><g fill="#0077b6" fill-opacity="1"><g transform="translate(38.187383, 55.597558)"><g><path d="M 16.0625 0 L -1.40625 -41.65625 L 9.296875 -41.65625 L 19.796875 -14.296875 L 30.296875 -41.65625 L 41 -41.65625 L 23.53125 0 Z M 16.0625 0 "/></g></g></g><g fill="#0077b6" fill-opacity="1"><g transform="translate(74.186398, 55.597558)"><g><path d="M 3.890625 -40.34375 C 4.929688 -41.394531 6.175781 -41.921875 7.625 -41.921875 C 9.070312 -41.921875 10.316406 -41.394531 11.359375 -40.34375 C 12.398438 -39.300781 12.921875 -38.054688 12.921875 -36.609375 C 12.921875 -35.160156 12.398438 -33.914062 11.359375 -32.875 C 10.316406 -31.832031 9.070312 -31.3125 7.625 -31.3125 C 6.175781 -31.3125 4.929688 -31.832031 3.890625 -32.875 C 2.847656 -33.914062 2.328125 -35.160156 2.328125 -36.609375 C 2.328125 -38.054688 2.847656 -39.300781 3.890625 -40.34375 Z M 3.03125 -25.90625 L 3.03125 0 L 11.96875 0 L 11.96875 -25.90625 Z M 3.03125 -25.90625 "/></g></g></g><g fill="#0077b6" fill-opacity="1"><g transform="translate(85.849025, 55.597558)"><g><path d="M 29.6875 -22.671875 C 32.113281 -20.015625 33.328125 -16.765625 33.328125 -12.921875 C 33.328125 -9.085938 32.113281 -5.847656 29.6875 -3.203125 C 27.269531 -0.566406 24.191406 0.75 20.453125 0.75 C 17.015625 0.75 14.1875 -0.472656 11.96875 -2.921875 L 11.875 -2.921875 L 11.875 0 L 3.03125 0 L 3.03125 -43.4375 L 11.96875 -43.4375 L 11.96875 -23.4375 C 14.1875 -25.582031 17.015625 -26.65625 20.453125 -26.65625 C 24.191406 -26.65625 27.269531 -25.328125 29.6875 -22.671875 Z M 22.171875 -8.5625 C 23.285156 -9.6875 23.84375 -11.140625 23.84375 -12.921875 C 23.84375 -14.710938 23.257812 -16.175781 22.09375 -17.3125 C 20.925781 -18.457031 19.488281 -19.03125 17.78125 -19.03125 C 16.09375 -19.03125 14.664062 -18.457031 13.5 -17.3125 C 12.34375 -16.175781 11.765625 -14.710938 11.765625 -12.921875 C 11.765625 -11.171875 12.328125 -9.722656 13.453125 -8.578125 C 14.585938 -7.441406 16.03125 -6.875 17.78125 -6.875 C 19.59375 -6.875 21.054688 -7.4375 22.171875 -8.5625 Z M 22.171875 -8.5625 "/></g></g></g><g fill="#0077b6" fill-opacity="1"><g transform="translate(116.748506, 55.597558)"><g><path d="M 29.234375 -11.71875 L 10.453125 -11.71875 C 10.453125 -9.894531 11.039062 -8.546875 12.21875 -7.671875 C 13.394531 -6.796875 14.675781 -6.359375 16.0625 -6.359375 C 17.507812 -6.359375 18.648438 -6.550781 19.484375 -6.9375 C 20.328125 -7.332031 21.289062 -8.097656 22.375 -9.234375 L 28.828125 -6.015625 C 26.140625 -1.503906 21.664062 0.75 15.40625 0.75 C 11.5 0.75 8.144531 -0.582031 5.34375 -3.25 C 2.550781 -5.925781 1.15625 -9.148438 1.15625 -12.921875 C 1.15625 -16.691406 2.550781 -19.921875 5.34375 -22.609375 C 8.144531 -25.304688 11.5 -26.65625 15.40625 -26.65625 C 19.507812 -26.65625 22.847656 -25.46875 25.421875 -23.09375 C 28.003906 -20.726562 29.296875 -17.335938 29.296875 -12.921875 C 29.296875 -12.316406 29.273438 -11.914062 29.234375 -11.71875 Z M 10.703125 -16.671875 L 20.546875 -16.671875 C 20.347656 -18.015625 19.816406 -19.046875 18.953125 -19.765625 C 18.097656 -20.492188 17 -20.859375 15.65625 -20.859375 C 14.175781 -20.859375 13 -20.46875 12.125 -19.6875 C 11.25 -18.914062 10.773438 -17.910156 10.703125 -16.671875 Z M 10.703125 -16.671875 "/></g></g></g><g clip-path="url(#4c5ebdab0b)"><g fill="#0077b6" fill-opacity="1"><g transform="translate(143.608763, 55.597558)"><g><path d="M 17.828125 -17.875 C 13.234375 -17.875 9.09375 -15.25 6.359375 -10.65625 L 9.234375 -8.578125 C 11.3125 -12.375 14.59375 -14.4375 17.828125 -14.4375 C 20.34375 -14.4375 22.171875 -13.234375 24.390625 -11.671875 C 26.96875 -9.890625 29.390625 -8.578125 32.578125 -8.578125 C 37.171875 -8.578125 41.265625 -11.21875 43.984375 -15.859375 L 41.15625 -17.875 C 39.09375 -14.140625 35.796875 -12.0625 32.578125 -12.0625 C 30 -12.0625 28.171875 -13.28125 25.953125 -14.796875 C 23.4375 -16.609375 20.953125 -17.875 17.828125 -17.875 Z M 17.828125 -29.796875 C 13.234375 -29.796875 9.09375 -27.171875 6.359375 -22.515625 L 9.234375 -20.5 C 11.3125 -24.234375 14.59375 -26.3125 17.828125 -26.3125 C 20.34375 -26.3125 22.171875 -25.09375 24.390625 -23.578125 C 26.96875 -21.765625 29.390625 -20.5 32.578125 -20.5 C 37.171875 -20.5 41.265625 -23.125 43.984375 -27.71875 L 41.15625 -29.796875 C 39.09375 -26 35.796875 -23.9375 32.578125 -23.9375 C 30 -23.9375 28.171875 -25.15625 25.953125 -26.71875 C 23.4375 -28.484375 20.953125 -29.796875 17.828125 -29.796875 Z M 17.828125 -29.796875 "/></g></g></g></g><g clip-path="url(#57ec99134a)"><g clip-path="url(#6a8281f40a)"><path fill="#ffc857" d="M 61.882812 63.0625 L 73.359375 63.0625 L 73.359375 74.542969 L 61.882812 74.542969 Z M 61.882812 63.0625 " fill-opacity="1" fill-rule="nonzero"/></g></g><g fill="#0077b6" fill-opacity="1"><g transform="translate(87.643539, 77.73206)"><g><path d="M 12.859375 -19.75 L 12.859375 -15.796875 L 5.9375 -15.796875 L 5.9375 -11.875 L 12.328125 -11.875 L 12.328125 -7.921875 L 5.9375 -7.921875 L 5.9375 0 L 1.4375 0 L 1.4375 -19.75 Z M 12.859375 -19.75 "/></g></g></g><g fill="#0077b6" fill-opacity="1"><g transform="translate(100.01857, 77.73206)"><g><path d="M 13.859375 -5.546875 L 4.953125 -5.546875 C 4.953125 -4.691406 5.226562 -4.054688 5.78125 -3.640625 C 6.34375 -3.222656 6.953125 -3.015625 7.609375 -3.015625 C 8.296875 -3.015625 8.835938 -3.101562 9.234375 -3.28125 C 9.640625 -3.46875 10.097656 -3.832031 10.609375 -4.375 L 13.671875 -2.84375 C 12.390625 -0.707031 10.265625 0.359375 7.296875 0.359375 C 5.453125 0.359375 3.863281 -0.273438 2.53125 -1.546875 C 1.207031 -2.816406 0.546875 -4.34375 0.546875 -6.125 C 0.546875 -7.914062 1.207031 -9.445312 2.53125 -10.71875 C 3.863281 -12 5.453125 -12.640625 7.296875 -12.640625 C 9.242188 -12.640625 10.828125 -12.078125 12.046875 -10.953125 C 13.273438 -9.828125 13.890625 -8.21875 13.890625 -6.125 C 13.890625 -5.84375 13.878906 -5.648438 13.859375 -5.546875 Z M 5.078125 -7.90625 L 9.75 -7.90625 C 9.644531 -8.539062 9.390625 -9.03125 8.984375 -9.375 C 8.578125 -9.71875 8.054688 -9.890625 7.421875 -9.890625 C 6.722656 -9.890625 6.164062 -9.703125 5.75 -9.328125 C 5.332031 -8.960938 5.109375 -8.488281 5.078125 -7.90625 Z M 5.078125 -7.90625 "/></g></g></g><g fill="#0077b6" fill-opacity="1"><g transform="translate(113.255298, 77.73206)"><g><path d="M 6.78125 -12.640625 C 7.476562 -12.640625 8.171875 -12.554688 8.859375 -12.390625 C 9.546875 -12.234375 10.054688 -12.078125 10.390625 -11.921875 L 10.890625 -11.6875 L 9.5 -8.90625 C 8.539062 -9.414062 7.632812 -9.671875 6.78125 -9.671875 C 6.300781 -9.671875 5.957031 -9.617188 5.75 -9.515625 C 5.550781 -9.410156 5.453125 -9.210938 5.453125 -8.921875 C 5.453125 -8.859375 5.457031 -8.796875 5.46875 -8.734375 C 5.488281 -8.671875 5.523438 -8.609375 5.578125 -8.546875 C 5.628906 -8.492188 5.671875 -8.445312 5.703125 -8.40625 C 5.742188 -8.375 5.8125 -8.332031 5.90625 -8.28125 C 6.007812 -8.226562 6.085938 -8.191406 6.140625 -8.171875 C 6.191406 -8.148438 6.28125 -8.113281 6.40625 -8.0625 C 6.539062 -8.019531 6.640625 -7.984375 6.703125 -7.953125 C 6.765625 -7.929688 6.867188 -7.894531 7.015625 -7.84375 C 7.171875 -7.800781 7.289062 -7.769531 7.375 -7.75 C 7.863281 -7.613281 8.289062 -7.457031 8.65625 -7.28125 C 9.03125 -7.101562 9.421875 -6.863281 9.828125 -6.5625 C 10.234375 -6.257812 10.546875 -5.875 10.765625 -5.40625 C 10.992188 -4.945312 11.109375 -4.421875 11.109375 -3.828125 C 11.109375 -1.035156 9.171875 0.359375 5.296875 0.359375 C 4.410156 0.359375 3.570312 0.222656 2.78125 -0.046875 C 2 -0.316406 1.429688 -0.585938 1.078125 -0.859375 L 0.546875 -1.296875 L 2.28125 -4.1875 C 2.40625 -4.070312 2.570312 -3.9375 2.78125 -3.78125 C 2.988281 -3.632812 3.363281 -3.429688 3.90625 -3.171875 C 4.445312 -2.910156 4.914062 -2.78125 5.3125 -2.78125 C 6.1875 -2.78125 6.625 -3.070312 6.625 -3.65625 C 6.625 -3.925781 6.507812 -4.140625 6.28125 -4.296875 C 6.0625 -4.453125 5.6875 -4.625 5.15625 -4.8125 C 4.625 -5 4.207031 -5.175781 3.90625 -5.34375 C 3.132812 -5.738281 2.523438 -6.1875 2.078125 -6.6875 C 1.628906 -7.1875 1.40625 -7.851562 1.40625 -8.6875 C 1.40625 -9.9375 1.890625 -10.90625 2.859375 -11.59375 C 3.828125 -12.289062 5.132812 -12.640625 6.78125 -12.640625 Z M 6.78125 -12.640625 "/></g></g></g><g fill="#0077b6" fill-opacity="1"><g transform="translate(123.835108, 77.73206)"><g><path d="M 2.15625 -12.28125 L 2.15625 -16.859375 L 6.390625 -16.859375 L 6.390625 -12.28125 L 8.96875 -12.28125 L 8.96875 -9.046875 L 6.390625 -9.046875 L 6.390625 -5.140625 C 6.390625 -4.015625 6.707031 -3.453125 7.34375 -3.453125 C 7.507812 -3.453125 7.675781 -3.484375 7.84375 -3.546875 C 8.019531 -3.609375 8.160156 -3.671875 8.265625 -3.734375 L 8.40625 -3.828125 L 9.453125 -0.40625 C 8.546875 0.101562 7.507812 0.359375 6.34375 0.359375 C 5.539062 0.359375 4.851562 0.21875 4.28125 -0.0625 C 3.707031 -0.34375 3.269531 -0.71875 2.96875 -1.1875 C 2.675781 -1.65625 2.46875 -2.148438 2.34375 -2.671875 C 2.21875 -3.191406 2.15625 -3.742188 2.15625 -4.328125 L 2.15625 -9.046875 L 0.390625 -9.046875 L 0.390625 -12.28125 Z M 2.15625 -12.28125 "/></g></g></g><g fill="#0077b6" fill-opacity="1"><g transform="translate(132.09311, 77.73206)"><g><path d="M 1.828125 -19.125 C 2.328125 -19.625 2.921875 -19.875 3.609375 -19.875 C 4.296875 -19.875 4.882812 -19.625 5.375 -19.125 C 5.875 -18.632812 6.125 -18.046875 6.125 -17.359375 C 6.125 -16.671875 5.875 -16.078125 5.375 -15.578125 C 4.882812 -15.085938 4.296875 -14.84375 3.609375 -14.84375 C 2.921875 -14.84375 2.328125 -15.085938 1.828125 -15.578125 C 1.335938 -16.078125 1.09375 -16.671875 1.09375 -17.359375 C 1.09375 -18.046875 1.335938 -18.632812 1.828125 -19.125 Z M 1.4375 -12.28125 L 1.4375 0 L 5.671875 0 L 5.671875 -12.28125 Z M 1.4375 -12.28125 "/></g></g></g><g fill="#0077b6" fill-opacity="1"><g transform="translate(138.125038, 77.73206)"><g><path d="M 4.546875 -12.28125 L 7.546875 -5.59375 L 10.53125 -12.28125 L 15.5625 -12.28125 L 8.96875 0 L 6.109375 0 L -0.484375 -12.28125 Z M 4.546875 -12.28125 "/></g></g></g><g fill="#0077b6" fill-opacity="1"><g transform="translate(152.008044, 77.73206)"><g><path d="M 2.265625 -1.515625 C 1.117188 -2.773438 0.546875 -4.3125 0.546875 -6.125 C 0.546875 -7.945312 1.117188 -9.488281 2.265625 -10.75 C 3.421875 -12.007812 4.882812 -12.640625 6.65625 -12.640625 C 8.28125 -12.640625 9.617188 -12.128906 10.671875 -11.109375 L 10.671875 -12.28125 L 14.90625 -12.28125 L 14.90625 0 L 10.71875 0 L 10.71875 -1.390625 L 10.671875 -1.390625 C 9.617188 -0.222656 8.28125 0.359375 6.65625 0.359375 C 4.882812 0.359375 3.421875 -0.265625 2.265625 -1.515625 Z M 5.875 -8.203125 C 5.320312 -7.660156 5.046875 -6.96875 5.046875 -6.125 C 5.046875 -5.28125 5.304688 -4.585938 5.828125 -4.046875 C 6.359375 -3.515625 7.054688 -3.25 7.921875 -3.25 C 8.753906 -3.25 9.4375 -3.519531 9.96875 -4.0625 C 10.5 -4.613281 10.765625 -5.300781 10.765625 -6.125 C 10.765625 -6.96875 10.488281 -7.660156 9.9375 -8.203125 C 9.394531 -8.753906 8.722656 -9.03125 7.921875 -9.03125 C 7.109375 -9.03125 6.425781 -8.753906 5.875 -8.203125 Z M 5.875 -8.203125 "/></g></g></g><g fill="#0077b6" fill-opacity="1"><g transform="translate(167.159676, 77.73206)"><g><path d="M 1.4375 0 L 1.4375 -20.59375 L 5.671875 -20.59375 L 5.671875 0 Z M 1.4375 0 "/></g></g></g><g clip-path="url(#2377362cd9)"><g clip-path="url(#03bc164285)"><path fill="#ffc857" d="M 14.886719 63.0625 L 26.367188 63.0625 L 26.367188 74.542969 L 14.886719 74.542969 Z M 14.886719 63.0625 " fill-opacity="1" fill-rule="nonzero"/></g></g><g clip-path="url(#f4e1d53aea)"><g clip-path="url(#6b1f7b8a25)"><path fill="#0077b6" d="M 38.335938 63.0625 L 49.8125 63.0625 L 49.8125 74.542969 L 38.335938 74.542969 Z M 38.335938 63.0625 " fill-opacity="1" fill-rule="nonzero"/></g></g></svg>