<svg xmlns="http://www.w3.org/2000/svg" xmlns:xlink="http://www.w3.org/1999/xlink" width="200" zoomAndPan="magnify" viewBox="0 0 150 149.999998" height="200" preserveAspectRatio="xMidYMid meet" version="1.0"><defs><g/><clipPath id="b5b42590d3"><path d="M 15 93.644531 L 25.605469 93.644531 L 25.605469 104.25 L 15 104.25 Z M 15 93.644531 " clip-rule="nonzero"/></clipPath><clipPath id="f9f076e31c"><path d="M 20.304688 93.644531 C 17.375 93.644531 15 96.019531 15 98.949219 C 15 101.875 17.375 104.25 20.304688 104.25 C 23.234375 104.25 25.605469 101.875 25.605469 98.949219 C 25.605469 96.019531 23.234375 93.644531 20.304688 93.644531 Z M 20.304688 93.644531 " clip-rule="nonzero"/></clipPath><clipPath id="233d81cfb9"><path d="M 32.171875 93.644531 L 42.777344 93.644531 L 42.777344 104.25 L 32.171875 104.25 Z M 32.171875 93.644531 " clip-rule="nonzero"/></clipPath><clipPath id="9a84158dd3"><path d="M 37.472656 93.644531 C 34.546875 93.644531 32.171875 96.019531 32.171875 98.949219 C 32.171875 101.875 34.546875 104.25 37.472656 104.25 C 40.402344 104.25 42.777344 101.875 42.777344 98.949219 C 42.777344 96.019531 40.402344 93.644531 37.472656 93.644531 Z M 37.472656 93.644531 " clip-rule="nonzero"/></clipPath><clipPath id="eab3fa9822"><path d="M 49.527344 93.644531 L 60.136719 93.644531 L 60.136719 104.25 L 49.527344 104.25 Z M 49.527344 93.644531 " clip-rule="nonzero"/></clipPath><clipPath id="9bb5fca35b"><path d="M 54.832031 93.644531 C 51.902344 93.644531 49.527344 96.019531 49.527344 98.949219 C 49.527344 101.875 51.902344 104.25 54.832031 104.25 C 57.761719 104.25 60.136719 101.875 60.136719 98.949219 C 60.136719 96.019531 57.761719 93.644531 54.832031 93.644531 Z M 54.832031 93.644531 " clip-rule="nonzero"/></clipPath></defs><g fill="#0077b6" fill-opacity="1"><g transform="translate(0.750001, 85.70994)"><g><path d="M 15.78125 0 L -1.390625 -40.953125 L 9.140625 -40.953125 L 19.453125 -14.046875 L 29.78125 -40.953125 L 40.3125 -40.953125 L 23.125 0 Z M 15.78125 0 "/></g></g></g><g fill="#0077b6" fill-opacity="1"><g transform="translate(36.132947, 85.70994)"><g><path d="M 3.8125 -39.65625 C 4.84375 -40.6875 6.066406 -41.203125 7.484375 -41.203125 C 8.910156 -41.203125 10.132812 -40.6875 11.15625 -39.65625 C 12.1875 -38.632812 12.703125 -37.410156 12.703125 -35.984375 C 12.703125 -34.566406 12.1875 -33.34375 11.15625 -32.3125 C 10.132812 -31.289062 8.910156 -30.78125 7.484375 -30.78125 C 6.066406 -30.78125 4.84375 -31.289062 3.8125 -32.3125 C 2.789062 -33.34375 2.28125 -34.566406 2.28125 -35.984375 C 2.28125 -37.410156 2.789062 -38.632812 3.8125 -39.65625 Z M 2.984375 -25.46875 L 2.984375 0 L 11.765625 0 L 11.765625 -25.46875 Z M 2.984375 -25.46875 "/></g></g></g><g fill="#0077b6" fill-opacity="1"><g transform="translate(47.595986, 85.70994)"><g><path d="M 29.1875 -22.28125 C 31.570312 -19.664062 32.765625 -16.472656 32.765625 -12.703125 C 32.765625 -8.929688 31.570312 -5.742188 29.1875 -3.140625 C 26.800781 -0.546875 23.773438 0.75 20.109375 0.75 C 16.734375 0.75 13.953125 -0.457031 11.765625 -2.875 L 11.671875 -2.875 L 11.671875 0 L 2.984375 0 L 2.984375 -42.6875 L 11.765625 -42.6875 L 11.765625 -23.03125 C 13.953125 -25.144531 16.734375 -26.203125 20.109375 -26.203125 C 23.773438 -26.203125 26.800781 -24.894531 29.1875 -22.28125 Z M 21.796875 -8.40625 C 22.890625 -9.519531 23.4375 -10.953125 23.4375 -12.703125 C 23.4375 -14.460938 22.863281 -15.90625 21.71875 -17.03125 C 20.570312 -18.15625 19.15625 -18.71875 17.46875 -18.71875 C 15.8125 -18.71875 14.410156 -18.15625 13.265625 -17.03125 C 12.128906 -15.90625 11.5625 -14.460938 11.5625 -12.703125 C 11.5625 -10.984375 12.113281 -9.5625 13.21875 -8.4375 C 14.332031 -7.3125 15.75 -6.75 17.46875 -6.75 C 19.257812 -6.75 20.703125 -7.300781 21.796875 -8.40625 Z M 21.796875 -8.40625 "/></g></g></g><g fill="#0077b6" fill-opacity="1"><g transform="translate(77.966673, 85.70994)"><g><path d="M 3.8125 -39.65625 C 4.84375 -40.6875 6.066406 -41.203125 7.484375 -41.203125 C 8.910156 -41.203125 10.132812 -40.6875 11.15625 -39.65625 C 12.1875 -38.632812 12.703125 -37.410156 12.703125 -35.984375 C 12.703125 -34.566406 12.1875 -33.34375 11.15625 -32.3125 C 10.132812 -31.289062 8.910156 -30.78125 7.484375 -30.78125 C 6.066406 -30.78125 4.84375 -31.289062 3.8125 -32.3125 C 2.789062 -33.34375 2.28125 -34.566406 2.28125 -35.984375 C 2.28125 -37.410156 2.789062 -38.632812 3.8125 -39.65625 Z M 2.984375 -25.46875 L 2.984375 0 L 11.765625 0 L 11.765625 -25.46875 Z M 2.984375 -25.46875 "/></g></g></g><g fill="#0077b6" fill-opacity="1"><g transform="translate(89.429711, 85.70994)"><g><path d="M 2.984375 0 L 2.984375 -25.46875 L 11.765625 -25.46875 L 11.765625 -22.78125 L 11.859375 -22.78125 C 14.148438 -25.0625 16.582031 -26.203125 19.15625 -26.203125 C 20.414062 -26.203125 21.664062 -26.035156 22.90625 -25.703125 C 24.144531 -25.378906 25.335938 -24.867188 26.484375 -24.171875 C 27.628906 -23.472656 28.554688 -22.488281 29.265625 -21.21875 C 29.972656 -19.945312 30.328125 -18.46875 30.328125 -16.78125 L 30.328125 0 L 21.546875 0 L 21.546875 -14.390625 C 21.546875 -15.710938 21.125 -16.867188 20.28125 -17.859375 C 19.4375 -18.859375 18.335938 -19.359375 16.984375 -19.359375 C 15.648438 -19.359375 14.445312 -18.84375 13.375 -17.8125 C 12.300781 -16.789062 11.765625 -15.648438 11.765625 -14.390625 L 11.765625 0 Z M 2.984375 0 "/></g></g></g><g fill="#0077b6" fill-opacity="1"><g transform="translate(118.708603, 85.70994)"><g><path d="M 1.84375 6.25 L 9.03125 2.734375 C 10.351562 4.910156 12.65625 6 15.9375 6 C 17.457031 6 18.867188 5.507812 20.171875 4.53125 C 21.484375 3.5625 22.140625 2.066406 22.140625 0.046875 L 22.140625 -1.84375 C 20.585938 -0.113281 17.804688 0.75 13.796875 0.75 C 10.128906 0.75 7.101562 -0.546875 4.71875 -3.140625 C 2.332031 -5.742188 1.140625 -8.929688 1.140625 -12.703125 C 1.140625 -16.472656 2.332031 -19.664062 4.71875 -22.28125 C 7.101562 -24.894531 10.128906 -26.203125 13.796875 -26.203125 C 17.078125 -26.203125 19.804688 -25.195312 21.984375 -23.1875 L 22.140625 -23.1875 L 22.140625 -25.46875 L 30.921875 -25.46875 L 30.921875 0.6875 C 30.921875 4.832031 29.546875 8.03125 26.796875 10.28125 C 24.054688 12.53125 20.4375 13.65625 15.9375 13.65625 C 8.65625 13.65625 3.957031 11.1875 1.84375 6.25 Z M 12.1875 -17.03125 C 11.039062 -15.90625 10.46875 -14.460938 10.46875 -12.703125 C 10.46875 -10.953125 11.015625 -9.519531 12.109375 -8.40625 C 13.203125 -7.300781 14.644531 -6.75 16.4375 -6.75 C 18.15625 -6.75 19.566406 -7.3125 20.671875 -8.4375 C 21.785156 -9.5625 22.34375 -10.984375 22.34375 -12.703125 C 22.34375 -14.460938 21.769531 -15.90625 20.625 -17.03125 C 19.476562 -18.15625 18.082031 -18.71875 16.4375 -18.71875 C 14.75 -18.71875 13.332031 -18.15625 12.1875 -17.03125 Z M 12.1875 -17.03125 "/></g></g></g><g clip-path="url(#b5b42590d3)"><g clip-path="url(#f9f076e31c)"><path fill="#ffc857" d="M 15 93.644531 L 25.605469 93.644531 L 25.605469 104.25 L 15 104.25 Z M 15 93.644531 " fill-opacity="1" fill-rule="nonzero"/></g></g><g clip-path="url(#233d81cfb9)"><g clip-path="url(#9a84158dd3)"><path fill="#0077b6" d="M 32.171875 93.644531 L 42.777344 93.644531 L 42.777344 104.25 L 32.171875 104.25 Z M 32.171875 93.644531 " fill-opacity="1" fill-rule="nonzero"/></g></g><g clip-path="url(#eab3fa9822)"><g clip-path="url(#9bb5fca35b)"><path fill="#ffc857" d="M 49.527344 93.644531 L 60.136719 93.644531 L 60.136719 104.25 L 49.527344 104.25 Z M 49.527344 93.644531 " fill-opacity="1" fill-rule="nonzero"/></g></g><g fill="#0077b6" fill-opacity="1"><g transform="translate(92.608664, 64.993589)"><g><path d="M 20.265625 -20.3125 C 15.03125 -20.3125 10.328125 -17.328125 7.234375 -12.109375 L 10.5 -9.75 C 12.859375 -14.0625 16.578125 -16.40625 20.265625 -16.40625 C 23.125 -16.40625 25.1875 -15.03125 27.71875 -13.25 C 30.640625 -11.25 33.40625 -9.75 37.015625 -9.75 C 42.234375 -9.75 46.890625 -12.734375 49.984375 -18.015625 L 46.765625 -20.3125 C 44.421875 -16.0625 40.6875 -13.71875 37.015625 -13.71875 C 34.09375 -13.71875 32.03125 -15.09375 29.5 -16.8125 C 26.625 -18.875 23.8125 -20.3125 20.265625 -20.3125 Z M 20.265625 -33.859375 C 15.03125 -33.859375 10.328125 -30.875 7.234375 -25.59375 L 10.5 -23.296875 C 12.859375 -27.546875 16.578125 -29.90625 20.265625 -29.90625 C 23.125 -29.90625 25.1875 -28.515625 27.71875 -26.796875 C 30.640625 -24.734375 33.40625 -23.296875 37.015625 -23.296875 C 42.234375 -23.296875 46.890625 -26.28125 49.984375 -31.5 L 46.765625 -33.859375 C 44.421875 -29.5625 40.6875 -27.203125 37.015625 -27.203125 C 34.09375 -27.203125 32.03125 -28.578125 29.5 -30.359375 C 26.625 -32.375 23.8125 -33.859375 20.265625 -33.859375 Z M 20.265625 -33.859375 "/></g></g></g><g fill="#0077b6" fill-opacity="1"><g transform="translate(66.835442, 113.92386)"><g><path d="M 9 0 L 6.125 0 L -0.484375 -12.3125 L 4.421875 -12.3125 L 7.421875 -5.65625 L 10.375 -12.3125 L 13.296875 -12.3125 L 16.25 -5.65625 L 19.25 -12.3125 L 24.140625 -12.3125 L 17.546875 0 L 14.65625 0 L 11.828125 -6.359375 Z M 9 0 "/></g></g></g><g fill="#0077b6" fill-opacity="1"><g transform="translate(88.795489, 113.92386)"><g><path d="M 1.84375 -19.171875 C 2.34375 -19.671875 2.9375 -19.921875 3.625 -19.921875 C 4.3125 -19.921875 4.898438 -19.671875 5.390625 -19.171875 C 5.890625 -18.679688 6.140625 -18.09375 6.140625 -17.40625 C 6.140625 -16.71875 5.890625 -16.125 5.390625 -15.625 C 4.898438 -15.125 4.3125 -14.875 3.625 -14.875 C 2.9375 -14.875 2.34375 -15.125 1.84375 -15.625 C 1.351562 -16.125 1.109375 -16.71875 1.109375 -17.40625 C 1.109375 -18.09375 1.351562 -18.679688 1.84375 -19.171875 Z M 1.4375 -12.3125 L 1.4375 0 L 5.6875 0 L 5.6875 -12.3125 Z M 1.4375 -12.3125 "/></g></g></g><g fill="#0077b6" fill-opacity="1"><g transform="translate(94.339502, 113.92386)"><g><path d="M 2.15625 -12.3125 L 2.15625 -16.890625 L 6.40625 -16.890625 L 6.40625 -12.3125 L 9 -12.3125 L 9 -9.078125 L 6.40625 -9.078125 L 6.40625 -5.15625 C 6.40625 -4.019531 6.726562 -3.453125 7.375 -3.453125 C 7.53125 -3.453125 7.695312 -3.484375 7.875 -3.546875 C 8.050781 -3.609375 8.1875 -3.675781 8.28125 -3.75 L 8.421875 -3.84375 L 9.484375 -0.40625 C 8.566406 0.101562 7.523438 0.359375 6.359375 0.359375 C 5.554688 0.359375 4.867188 0.21875 4.296875 -0.0625 C 3.722656 -0.34375 3.285156 -0.71875 2.984375 -1.1875 C 2.691406 -1.65625 2.476562 -2.148438 2.34375 -2.671875 C 2.21875 -3.191406 2.15625 -3.75 2.15625 -4.34375 L 2.15625 -9.078125 L 0.390625 -9.078125 L 0.390625 -12.3125 Z M 2.15625 -12.3125 "/></g></g></g><g fill="#0077b6" fill-opacity="1"><g transform="translate(102.115524, 113.92386)"><g><path d="M 1.4375 0 L 1.4375 -20.640625 L 5.6875 -20.640625 L 5.6875 -11.015625 L 5.734375 -11.015625 C 6.835938 -12.117188 8.015625 -12.671875 9.265625 -12.671875 C 9.867188 -12.671875 10.46875 -12.585938 11.0625 -12.421875 C 11.664062 -12.265625 12.242188 -12.019531 12.796875 -11.6875 C 13.347656 -11.351562 13.796875 -10.878906 14.140625 -10.265625 C 14.484375 -9.648438 14.65625 -8.929688 14.65625 -8.109375 L 14.65625 0 L 10.421875 0 L 10.421875 -6.953125 C 10.421875 -7.597656 10.210938 -8.160156 9.796875 -8.640625 C 9.390625 -9.117188 8.859375 -9.359375 8.203125 -9.359375 C 7.566406 -9.359375 6.988281 -9.109375 6.46875 -8.609375 C 5.945312 -8.117188 5.6875 -7.566406 5.6875 -6.953125 L 5.6875 0 Z M 1.4375 0 "/></g></g></g><g fill="#0077b6" fill-opacity="1"><g transform="translate(116.275552, 113.92386)"><g/></g></g><g fill="#0077b6" fill-opacity="1"><g transform="translate(121.123567, 113.92386)"><g><path d="M 5.453125 -12.3125 L 5.453125 -6.453125 C 5.453125 -5.234375 5.632812 -4.367188 6 -3.859375 C 6.363281 -3.347656 6.984375 -3.09375 7.859375 -3.09375 C 8.742188 -3.09375 9.367188 -3.347656 9.734375 -3.859375 C 10.109375 -4.367188 10.296875 -5.234375 10.296875 -6.453125 L 10.296875 -12.3125 L 14.546875 -12.3125 L 14.546875 -5.421875 C 14.546875 -3.378906 14.015625 -1.90625 12.953125 -1 C 11.890625 -0.09375 10.195312 0.359375 7.875 0.359375 C 5.550781 0.359375 3.859375 -0.09375 2.796875 -1 C 1.734375 -1.90625 1.203125 -3.378906 1.203125 -5.421875 L 1.203125 -12.3125 Z M 5.453125 -12.3125 "/></g></g></g><g fill="#0077b6" fill-opacity="1"><g transform="translate(135.163601, 113.92386)"><g><path d="M 6.796875 -12.671875 C 7.492188 -12.671875 8.1875 -12.585938 8.875 -12.421875 C 9.5625 -12.265625 10.078125 -12.109375 10.421875 -11.953125 L 10.921875 -11.71875 L 9.53125 -8.921875 C 8.570312 -9.441406 7.660156 -9.703125 6.796875 -9.703125 C 6.316406 -9.703125 5.972656 -9.648438 5.765625 -9.546875 C 5.566406 -9.441406 5.46875 -9.242188 5.46875 -8.953125 C 5.46875 -8.890625 5.472656 -8.820312 5.484375 -8.75 C 5.503906 -8.6875 5.535156 -8.628906 5.578125 -8.578125 C 5.628906 -8.523438 5.675781 -8.476562 5.71875 -8.4375 C 5.757812 -8.394531 5.828125 -8.347656 5.921875 -8.296875 C 6.023438 -8.253906 6.101562 -8.21875 6.15625 -8.1875 C 6.207031 -8.164062 6.296875 -8.128906 6.421875 -8.078125 C 6.554688 -8.035156 6.65625 -8 6.71875 -7.96875 C 6.78125 -7.945312 6.882812 -7.910156 7.03125 -7.859375 C 7.1875 -7.816406 7.304688 -7.789062 7.390625 -7.78125 C 7.890625 -7.632812 8.320312 -7.472656 8.6875 -7.296875 C 9.050781 -7.117188 9.4375 -6.878906 9.84375 -6.578125 C 10.257812 -6.273438 10.578125 -5.890625 10.796875 -5.421875 C 11.023438 -4.960938 11.140625 -4.4375 11.140625 -3.84375 C 11.140625 -1.039062 9.191406 0.359375 5.296875 0.359375 C 4.421875 0.359375 3.585938 0.222656 2.796875 -0.046875 C 2.003906 -0.316406 1.429688 -0.585938 1.078125 -0.859375 L 0.546875 -1.296875 L 2.28125 -4.203125 C 2.40625 -4.085938 2.570312 -3.953125 2.78125 -3.796875 C 2.988281 -3.648438 3.363281 -3.441406 3.90625 -3.171875 C 4.457031 -2.910156 4.929688 -2.78125 5.328125 -2.78125 C 6.203125 -2.78125 6.640625 -3.078125 6.640625 -3.671875 C 6.640625 -3.941406 6.523438 -4.148438 6.296875 -4.296875 C 6.078125 -4.453125 5.703125 -4.625 5.171875 -4.8125 C 4.640625 -5.007812 4.21875 -5.191406 3.90625 -5.359375 C 3.144531 -5.753906 2.539062 -6.203125 2.09375 -6.703125 C 1.644531 -7.210938 1.421875 -7.882812 1.421875 -8.71875 C 1.421875 -9.957031 1.898438 -10.925781 2.859375 -11.625 C 3.828125 -12.320312 5.140625 -12.671875 6.796875 -12.671875 Z M 6.796875 -12.671875 "/></g></g></g></svg>