<svg xmlns="http://www.w3.org/2000/svg" xmlns:xlink="http://www.w3.org/1999/xlink" width="200" zoomAndPan="magnify" viewBox="0 0 150 149.999998" height="200" preserveAspectRatio="xMidYMid meet" version="1.0"><defs><g/><clipPath id="ebc67e0540"><path d="M 99.007812 46.859375 L 109.613281 46.859375 L 109.613281 57.46875 L 99.007812 57.46875 Z M 99.007812 46.859375 " clip-rule="nonzero"/></clipPath><clipPath id="23034e4025"><path d="M 104.3125 46.859375 C 101.382812 46.859375 99.007812 49.234375 99.007812 52.164062 C 99.007812 55.09375 101.382812 57.46875 104.3125 57.46875 C 107.242188 57.46875 109.613281 55.09375 109.613281 52.164062 C 109.613281 49.234375 107.242188 46.859375 104.3125 46.859375 Z M 104.3125 46.859375 " clip-rule="nonzero"/></clipPath><clipPath id="088048425f"><path d="M 116.179688 46.859375 L 126.785156 46.859375 L 126.785156 57.46875 L 116.179688 57.46875 Z M 116.179688 46.859375 " clip-rule="nonzero"/></clipPath><clipPath id="8ca0ec3ac4"><path d="M 121.480469 46.859375 C 118.554688 46.859375 116.179688 49.234375 116.179688 52.164062 C 116.179688 55.09375 118.554688 57.46875 121.480469 57.46875 C 124.410156 57.46875 126.785156 55.09375 126.785156 52.164062 C 126.785156 49.234375 124.410156 46.859375 121.480469 46.859375 Z M 121.480469 46.859375 " clip-rule="nonzero"/></clipPath><clipPath id="4a1c82f5e5"><path d="M 133.535156 46.859375 L 144.144531 46.859375 L 144.144531 57.46875 L 133.535156 57.46875 Z M 133.535156 46.859375 " clip-rule="nonzero"/></clipPath><clipPath id="3e942591b4"><path d="M 138.839844 46.859375 C 135.910156 46.859375 133.535156 49.234375 133.535156 52.164062 C 133.535156 55.09375 135.910156 57.46875 138.839844 57.46875 C 141.769531 57.46875 144.144531 55.09375 144.144531 52.164062 C 144.144531 49.234375 141.769531 46.859375 138.839844 46.859375 Z M 138.839844 46.859375 " clip-rule="nonzero"/></clipPath></defs><g fill="#0077b6" fill-opacity="1"><g transform="translate(33.77848, 88.601278)"><g><path d="M 15.78125 0 L -1.390625 -40.953125 L 9.140625 -40.953125 L 19.453125 -14.046875 L 29.78125 -40.953125 L 40.3125 -40.953125 L 23.125 0 Z M 15.78125 0 "/></g></g></g><g fill="#0077b6" fill-opacity="1"><g transform="translate(69.161426, 88.601278)"><g><path d="M 3.8125 -39.65625 C 4.84375 -40.6875 6.066406 -41.203125 7.484375 -41.203125 C 8.910156 -41.203125 10.132812 -40.6875 11.15625 -39.65625 C 12.1875 -38.632812 12.703125 -37.410156 12.703125 -35.984375 C 12.703125 -34.566406 12.1875 -33.34375 11.15625 -32.3125 C 10.132812 -31.289062 8.910156 -30.78125 7.484375 -30.78125 C 6.066406 -30.78125 4.84375 -31.289062 3.8125 -32.3125 C 2.789062 -33.34375 2.28125 -34.566406 2.28125 -35.984375 C 2.28125 -37.410156 2.789062 -38.632812 3.8125 -39.65625 Z M 2.984375 -25.46875 L 2.984375 0 L 11.765625 0 L 11.765625 -25.46875 Z M 2.984375 -25.46875 "/></g></g></g><g fill="#0077b6" fill-opacity="1"><g transform="translate(80.624464, 88.601278)"><g><path d="M 29.1875 -22.28125 C 31.570312 -19.664062 32.765625 -16.472656 32.765625 -12.703125 C 32.765625 -8.929688 31.570312 -5.742188 29.1875 -3.140625 C 26.800781 -0.546875 23.773438 0.75 20.109375 0.75 C 16.734375 0.75 13.953125 -0.457031 11.765625 -2.875 L 11.671875 -2.875 L 11.671875 0 L 2.984375 0 L 2.984375 -42.6875 L 11.765625 -42.6875 L 11.765625 -23.03125 C 13.953125 -25.144531 16.734375 -26.203125 20.109375 -26.203125 C 23.773438 -26.203125 26.800781 -24.894531 29.1875 -22.28125 Z M 21.796875 -8.40625 C 22.890625 -9.519531 23.4375 -10.953125 23.4375 -12.703125 C 23.4375 -14.460938 22.863281 -15.90625 21.71875 -17.03125 C 20.570312 -18.15625 19.15625 -18.71875 17.46875 -18.71875 C 15.8125 -18.71875 14.410156 -18.15625 13.265625 -17.03125 C 12.128906 -15.90625 11.5625 -14.460938 11.5625 -12.703125 C 11.5625 -10.984375 12.113281 -9.5625 13.21875 -8.4375 C 14.332031 -7.3125 15.75 -6.75 17.46875 -6.75 C 19.257812 -6.75 20.703125 -7.300781 21.796875 -8.40625 Z M 21.796875 -8.40625 "/></g></g></g><g fill="#0077b6" fill-opacity="1"><g transform="translate(110.995151, 88.601278)"><g><path d="M 28.734375 -11.515625 L 10.28125 -11.515625 C 10.28125 -9.734375 10.859375 -8.410156 12.015625 -7.546875 C 13.171875 -6.679688 14.425781 -6.25 15.78125 -6.25 C 17.207031 -6.25 18.332031 -6.4375 19.15625 -6.8125 C 19.988281 -7.195312 20.929688 -7.953125 21.984375 -9.078125 L 28.34375 -5.90625 C 25.695312 -1.46875 21.296875 0.75 15.140625 0.75 C 11.296875 0.75 8 -0.5625 5.25 -3.1875 C 2.507812 -5.820312 1.140625 -8.992188 1.140625 -12.703125 C 1.140625 -16.410156 2.507812 -19.585938 5.25 -22.234375 C 8 -24.878906 11.296875 -26.203125 15.140625 -26.203125 C 19.179688 -26.203125 22.46875 -25.035156 25 -22.703125 C 27.53125 -20.367188 28.796875 -17.035156 28.796875 -12.703125 C 28.796875 -12.109375 28.773438 -11.710938 28.734375 -11.515625 Z M 10.53125 -16.375 L 20.203125 -16.375 C 20.003906 -17.695312 19.484375 -18.710938 18.640625 -19.421875 C 17.796875 -20.140625 16.710938 -20.5 15.390625 -20.5 C 13.929688 -20.5 12.769531 -20.117188 11.90625 -19.359375 C 11.050781 -18.597656 10.59375 -17.601562 10.53125 -16.375 Z M 10.53125 -16.375 "/></g></g></g><g clip-path="url(#ebc67e0540)"><g clip-path="url(#23034e4025)"><path fill="#ffc857" d="M 99.007812 46.859375 L 109.613281 46.859375 L 109.613281 57.46875 L 99.007812 57.46875 Z M 99.007812 46.859375 " fill-opacity="1" fill-rule="nonzero"/></g></g><g clip-path="url(#088048425f)"><g clip-path="url(#8ca0ec3ac4)"><path fill="#0077b6" d="M 116.179688 46.859375 L 126.785156 46.859375 L 126.785156 57.46875 L 116.179688 57.46875 Z M 116.179688 46.859375 " fill-opacity="1" fill-rule="nonzero"/></g></g><g clip-path="url(#4a1c82f5e5)"><g clip-path="url(#3e942591b4)"><path fill="#ffc857" d="M 133.535156 46.859375 L 144.144531 46.859375 L 144.144531 57.46875 L 133.535156 57.46875 Z M 133.535156 46.859375 " fill-opacity="1" fill-rule="nonzero"/></g></g><g fill="#0077b6" fill-opacity="1"><g transform="translate(88.625768, 128.757496)"><g><path d="M 23.1875 -23.265625 C 17.21875 -23.265625 11.828125 -19.84375 8.28125 -13.859375 L 12.03125 -11.171875 C 14.71875 -16.09375 18.984375 -18.796875 23.1875 -18.796875 C 26.484375 -18.796875 28.84375 -17.21875 31.734375 -15.171875 C 35.078125 -12.875 38.234375 -11.171875 42.375 -11.171875 C 48.359375 -11.171875 53.671875 -14.59375 57.234375 -20.625 L 53.546875 -23.265625 C 50.859375 -18.390625 46.578125 -15.703125 42.375 -15.703125 C 39.03125 -15.703125 36.65625 -17.28125 33.765625 -19.25 C 30.484375 -21.609375 27.265625 -23.265625 23.1875 -23.265625 Z M 23.1875 -38.765625 C 17.21875 -38.765625 11.828125 -35.34375 8.28125 -29.296875 L 12.03125 -26.671875 C 14.71875 -31.53125 18.984375 -34.234375 23.1875 -34.234375 C 26.484375 -34.234375 28.84375 -32.65625 31.734375 -30.6875 C 35.078125 -28.3125 38.234375 -26.671875 42.375 -26.671875 C 48.359375 -26.671875 53.671875 -30.09375 57.234375 -36.078125 L 53.546875 -38.765625 C 50.859375 -33.84375 46.578125 -31.140625 42.375 -31.140625 C 39.03125 -31.140625 36.65625 -32.71875 33.765625 -34.75 C 30.484375 -37.0625 27.265625 -38.765625 23.1875 -38.765625 Z M 23.1875 -38.765625 "/></g></g></g><g fill="#0077b6" fill-opacity="1"><g transform="translate(3.716567, 43.884684)"><g><path d="M 12.890625 -19.796875 L 12.890625 -15.84375 L 5.953125 -15.84375 L 5.953125 -11.90625 L 12.359375 -11.90625 L 12.359375 -7.9375 L 5.953125 -7.9375 L 5.953125 0 L 1.4375 0 L 1.4375 -19.796875 Z M 12.890625 -19.796875 "/></g></g></g><g fill="#0077b6" fill-opacity="1"><g transform="translate(15.620598, 43.884684)"><g><path d="M 1.84375 -19.171875 C 2.34375 -19.671875 2.9375 -19.921875 3.625 -19.921875 C 4.3125 -19.921875 4.898438 -19.671875 5.390625 -19.171875 C 5.890625 -18.679688 6.140625 -18.09375 6.140625 -17.40625 C 6.140625 -16.71875 5.890625 -16.125 5.390625 -15.625 C 4.898438 -15.125 4.3125 -14.875 3.625 -14.875 C 2.9375 -14.875 2.34375 -15.125 1.84375 -15.625 C 1.351562 -16.125 1.109375 -16.71875 1.109375 -17.40625 C 1.109375 -18.09375 1.351562 -18.679688 1.84375 -19.171875 Z M 1.4375 -12.3125 L 1.4375 0 L 5.6875 0 L 5.6875 -12.3125 Z M 1.4375 -12.3125 "/></g></g></g><g fill="#0077b6" fill-opacity="1"><g transform="translate(21.16461, 43.884684)"><g><path d="M 1.4375 0 L 1.4375 -12.3125 L 5.6875 -12.3125 L 5.6875 -11.015625 L 5.734375 -11.015625 C 6.835938 -12.117188 8.015625 -12.671875 9.265625 -12.671875 C 9.867188 -12.671875 10.46875 -12.585938 11.0625 -12.421875 C 11.664062 -12.265625 12.242188 -12.019531 12.796875 -11.6875 C 13.347656 -11.351562 13.796875 -10.878906 14.140625 -10.265625 C 14.484375 -9.648438 14.65625 -8.929688 14.65625 -8.109375 L 14.65625 0 L 10.421875 0 L 10.421875 -6.953125 C 10.421875 -7.597656 10.210938 -8.160156 9.796875 -8.640625 C 9.390625 -9.117188 8.859375 -9.359375 8.203125 -9.359375 C 7.566406 -9.359375 6.988281 -9.109375 6.46875 -8.609375 C 5.945312 -8.117188 5.6875 -7.566406 5.6875 -6.953125 L 5.6875 0 Z M 1.4375 0 "/></g></g></g><g fill="#0077b6" fill-opacity="1"><g transform="translate(35.324637, 43.884684)"><g><path d="M 2.28125 -1.515625 C 1.125 -2.773438 0.546875 -4.316406 0.546875 -6.140625 C 0.546875 -7.960938 1.125 -9.503906 2.28125 -10.765625 C 3.4375 -12.035156 4.898438 -12.671875 6.671875 -12.671875 C 8.304688 -12.671875 9.648438 -12.160156 10.703125 -11.140625 L 10.703125 -20.640625 L 14.953125 -20.640625 L 14.953125 0 L 10.75 0 L 10.75 -1.390625 L 10.703125 -1.390625 C 9.648438 -0.222656 8.304688 0.359375 6.671875 0.359375 C 4.898438 0.359375 3.4375 -0.265625 2.28125 -1.515625 Z M 5.890625 -8.234375 C 5.335938 -7.691406 5.0625 -6.992188 5.0625 -6.140625 C 5.0625 -5.296875 5.320312 -4.601562 5.84375 -4.0625 C 6.375 -3.53125 7.070312 -3.265625 7.9375 -3.265625 C 8.769531 -3.265625 9.453125 -3.535156 9.984375 -4.078125 C 10.523438 -4.617188 10.796875 -5.304688 10.796875 -6.140625 C 10.796875 -6.992188 10.519531 -7.691406 9.96875 -8.234375 C 9.414062 -8.773438 8.738281 -9.046875 7.9375 -9.046875 C 7.125 -9.046875 6.441406 -8.773438 5.890625 -8.234375 Z M 5.890625 -8.234375 "/></g></g></g><g fill="#0077b6" fill-opacity="1"><g transform="translate(50.012673, 43.884684)"><g/></g></g><g fill="#0077b6" fill-opacity="1"><g transform="translate(54.86069, 43.884684)"><g><path d="M 10.78125 -12.3125 L 15.671875 -12.3125 L 6 6.234375 L 1.109375 6.234375 L 5.359375 -1.921875 L -0.484375 -12.3125 L 4.421875 -12.3125 L 7.84375 -6 Z M 10.78125 -12.3125 "/></g></g></g><g fill="#0077b6" fill-opacity="1"><g transform="translate(68.348719, 43.884684)"><g><path d="M 2.59375 -1.453125 C 1.226562 -2.671875 0.546875 -4.234375 0.546875 -6.140625 C 0.546875 -8.046875 1.257812 -9.609375 2.6875 -10.828125 C 4.113281 -12.054688 5.875 -12.671875 7.96875 -12.671875 C 10.03125 -12.671875 11.769531 -12.050781 13.1875 -10.8125 C 14.601562 -9.582031 15.3125 -8.023438 15.3125 -6.140625 C 15.3125 -4.253906 14.617188 -2.695312 13.234375 -1.46875 C 11.847656 -0.25 10.09375 0.359375 7.96875 0.359375 C 5.757812 0.359375 3.96875 -0.242188 2.59375 -1.453125 Z M 5.890625 -8.234375 C 5.335938 -7.691406 5.0625 -6.992188 5.0625 -6.140625 C 5.0625 -5.296875 5.320312 -4.601562 5.84375 -4.0625 C 6.375 -3.53125 7.070312 -3.265625 7.9375 -3.265625 C 8.769531 -3.265625 9.453125 -3.535156 9.984375 -4.078125 C 10.523438 -4.617188 10.796875 -5.304688 10.796875 -6.140625 C 10.796875 -6.992188 10.519531 -7.691406 9.96875 -8.234375 C 9.414062 -8.773438 8.738281 -9.046875 7.9375 -9.046875 C 7.125 -9.046875 6.441406 -8.773438 5.890625 -8.234375 Z M 5.890625 -8.234375 "/></g></g></g><g fill="#0077b6" fill-opacity="1"><g transform="translate(82.508744, 43.884684)"><g><path d="M 5.453125 -12.3125 L 5.453125 -6.453125 C 5.453125 -5.234375 5.632812 -4.367188 6 -3.859375 C 6.363281 -3.347656 6.984375 -3.09375 7.859375 -3.09375 C 8.742188 -3.09375 9.367188 -3.347656 9.734375 -3.859375 C 10.109375 -4.367188 10.296875 -5.234375 10.296875 -6.453125 L 10.296875 -12.3125 L 14.546875 -12.3125 L 14.546875 -5.421875 C 14.546875 -3.378906 14.015625 -1.90625 12.953125 -1 C 11.890625 -0.09375 10.195312 0.359375 7.875 0.359375 C 5.550781 0.359375 3.859375 -0.09375 2.796875 -1 C 1.734375 -1.90625 1.203125 -3.378906 1.203125 -5.421875 L 1.203125 -12.3125 Z M 5.453125 -12.3125 "/></g></g></g><g fill="#0077b6" fill-opacity="1"><g transform="translate(96.548779, 43.884684)"><g><path d="M 1.4375 0 L 1.4375 -12.3125 L 5.6875 -12.3125 L 5.6875 -10.53125 L 5.734375 -10.53125 C 5.765625 -10.59375 5.816406 -10.671875 5.890625 -10.765625 C 5.960938 -10.867188 6.117188 -11.039062 6.359375 -11.28125 C 6.597656 -11.519531 6.851562 -11.734375 7.125 -11.921875 C 7.394531 -12.117188 7.742188 -12.289062 8.171875 -12.4375 C 8.609375 -12.59375 9.050781 -12.671875 9.5 -12.671875 C 9.96875 -12.671875 10.425781 -12.601562 10.875 -12.46875 C 11.320312 -12.34375 11.648438 -12.21875 11.859375 -12.09375 L 12.1875 -11.90625 L 10.421875 -8.296875 C 9.890625 -8.742188 9.148438 -8.96875 8.203125 -8.96875 C 7.691406 -8.96875 7.253906 -8.851562 6.890625 -8.625 C 6.523438 -8.40625 6.265625 -8.132812 6.109375 -7.8125 C 5.953125 -7.5 5.84375 -7.226562 5.78125 -7 C 5.71875 -6.78125 5.6875 -6.609375 5.6875 -6.484375 L 5.6875 0 Z M 1.4375 0 "/></g></g></g><g fill="#0077b6" fill-opacity="1"><g transform="translate(106.806404, 43.884684)"><g/></g></g><g fill="#0077b6" fill-opacity="1"><g transform="translate(111.654421, 43.884684)"><g/></g></g></svg>