<svg xmlns="http://www.w3.org/2000/svg" xmlns:xlink="http://www.w3.org/1999/xlink" width="220" zoomAndPan="magnify" viewBox="0 0 165 44.999999" height="60" preserveAspectRatio="xMidYMid meet" version="1.0"><defs><g/><clipPath id="17ec77d3d9"><path d="M 37.417969 30.296875 L 43.191406 30.296875 L 43.191406 36.070312 L 37.417969 36.070312 Z M 37.417969 30.296875 " clip-rule="nonzero"/></clipPath><clipPath id="6e91613ac8"><path d="M 40.304688 30.296875 C 38.710938 30.296875 37.417969 31.589844 37.417969 33.183594 C 37.417969 34.777344 38.710938 36.070312 40.304688 36.070312 C 41.898438 36.070312 43.191406 34.777344 43.191406 33.183594 C 43.191406 31.589844 41.898438 30.296875 40.304688 30.296875 Z M 40.304688 30.296875 " clip-rule="nonzero"/></clipPath><clipPath id="ae288afe4c"><path d="M 13.78125 30.296875 L 19.554688 30.296875 L 19.554688 36.070312 L 13.78125 36.070312 Z M 13.78125 30.296875 " clip-rule="nonzero"/></clipPath><clipPath id="6f8c5146aa"><path d="M 16.667969 30.296875 C 15.074219 30.296875 13.78125 31.589844 13.78125 33.183594 C 13.78125 34.777344 15.074219 36.070312 16.667969 36.070312 C 18.261719 36.070312 19.554688 34.777344 19.554688 33.183594 C 19.554688 31.589844 18.261719 30.296875 16.667969 30.296875 Z M 16.667969 30.296875 " clip-rule="nonzero"/></clipPath><clipPath id="e282a74d80"><path d="M 25.574219 30.296875 L 31.347656 30.296875 L 31.347656 36.070312 L 25.574219 36.070312 Z M 25.574219 30.296875 " clip-rule="nonzero"/></clipPath><clipPath id="02fde9130b"><path d="M 28.460938 30.296875 C 26.867188 30.296875 25.574219 31.589844 25.574219 33.183594 C 25.574219 34.777344 26.867188 36.070312 28.460938 36.070312 C 30.054688 36.070312 31.347656 34.777344 31.347656 33.183594 C 31.347656 31.589844 30.054688 30.296875 28.460938 30.296875 Z M 28.460938 30.296875 " clip-rule="nonzero"/></clipPath><clipPath id="b7c742ed80"><path d="M 107.339844 19.613281 L 113.113281 19.613281 L 113.113281 25.386719 L 107.339844 25.386719 Z M 107.339844 19.613281 " clip-rule="nonzero"/></clipPath><clipPath id="cd18ae33cd"><path d="M 110.226562 19.613281 C 108.632812 19.613281 107.339844 20.90625 107.339844 22.5 C 107.339844 24.09375 108.632812 25.386719 110.226562 25.386719 C 111.820312 25.386719 113.113281 24.09375 113.113281 22.5 C 113.113281 20.90625 111.820312 19.613281 110.226562 19.613281 Z M 110.226562 19.613281 " clip-rule="nonzero"/></clipPath></defs><g fill="#0077b6" fill-opacity="1"><g transform="translate(4.500002, 26.542752)"><g><path d="M 6.296875 -20.953125 L 6.296875 0 L 1.53125 0 L 1.53125 -20.953125 Z M 6.296875 -20.953125 "/></g></g></g><g fill="#0077b6" fill-opacity="1"><g transform="translate(10.518121, 26.542752)"><g><path d="M 1.53125 0 L 1.53125 -13.03125 L 6.015625 -13.03125 L 6.015625 -11.65625 L 6.0625 -11.65625 C 7.238281 -12.820312 8.484375 -13.40625 9.796875 -13.40625 C 10.441406 -13.40625 11.082031 -13.320312 11.71875 -13.15625 C 12.351562 -12.988281 12.960938 -12.722656 13.546875 -12.359375 C 14.128906 -12.003906 14.601562 -11.5 14.96875 -10.84375 C 15.332031 -10.195312 15.515625 -9.441406 15.515625 -8.578125 L 15.515625 0 L 11.015625 0 L 11.015625 -7.359375 C 11.015625 -8.035156 10.796875 -8.628906 10.359375 -9.140625 C 9.929688 -9.648438 9.375 -9.90625 8.6875 -9.90625 C 8.007812 -9.90625 7.394531 -9.640625 6.84375 -9.109375 C 6.289062 -8.585938 6.015625 -8.003906 6.015625 -7.359375 L 6.015625 0 Z M 1.53125 0 "/></g></g></g><g fill="#0077b6" fill-opacity="1"><g transform="translate(25.500433, 26.542752)"><g><path d="M 8.078125 0 L -0.71875 -20.953125 L 4.671875 -20.953125 L 9.953125 -7.1875 L 15.234375 -20.953125 L 20.625 -20.953125 L 11.828125 0 Z M 8.078125 0 "/></g></g></g><g fill="#0077b6" fill-opacity="1"><g transform="translate(43.606248, 26.542752)"><g><path d="M 1.953125 -20.28125 C 2.484375 -20.8125 3.109375 -21.078125 3.828125 -21.078125 C 4.554688 -21.078125 5.179688 -20.8125 5.703125 -20.28125 C 6.234375 -19.757812 6.5 -19.132812 6.5 -18.40625 C 6.5 -17.675781 6.234375 -17.050781 5.703125 -16.53125 C 5.179688 -16.007812 4.554688 -15.75 3.828125 -15.75 C 3.109375 -15.75 2.484375 -16.007812 1.953125 -16.53125 C 1.429688 -17.050781 1.171875 -17.675781 1.171875 -18.40625 C 1.171875 -19.132812 1.429688 -19.757812 1.953125 -20.28125 Z M 1.53125 -13.03125 L 1.53125 0 L 6.015625 0 L 6.015625 -13.03125 Z M 1.53125 -13.03125 "/></g></g></g><g fill="#0077b6" fill-opacity="1"><g transform="translate(49.472002, 26.542752)"><g><path d="M 14.9375 -11.390625 C 16.15625 -10.054688 16.765625 -8.425781 16.765625 -6.5 C 16.765625 -4.570312 16.15625 -2.941406 14.9375 -1.609375 C 13.71875 -0.285156 12.164062 0.375 10.28125 0.375 C 8.550781 0.375 7.128906 -0.238281 6.015625 -1.46875 L 5.96875 -1.46875 L 5.96875 0 L 1.53125 0 L 1.53125 -21.84375 L 6.015625 -21.84375 L 6.015625 -11.78125 C 7.128906 -12.863281 8.550781 -13.40625 10.28125 -13.40625 C 12.164062 -13.40625 13.71875 -12.734375 14.9375 -11.390625 Z M 11.140625 -4.296875 C 11.703125 -4.867188 11.984375 -5.601562 11.984375 -6.5 C 11.984375 -7.394531 11.691406 -8.128906 11.109375 -8.703125 C 10.523438 -9.285156 9.800781 -9.578125 8.9375 -9.578125 C 8.09375 -9.578125 7.378906 -9.285156 6.796875 -8.703125 C 6.210938 -8.128906 5.921875 -7.394531 5.921875 -6.5 C 5.921875 -5.625 6.203125 -4.894531 6.765625 -4.3125 C 7.335938 -3.738281 8.0625 -3.453125 8.9375 -3.453125 C 9.851562 -3.453125 10.585938 -3.734375 11.140625 -4.296875 Z M 11.140625 -4.296875 "/></g></g></g><g fill="#0077b6" fill-opacity="1"><g transform="translate(65.012991, 26.542752)"><g><path d="M 14.703125 -5.890625 L 5.25 -5.890625 C 5.25 -4.972656 5.546875 -4.296875 6.140625 -3.859375 C 6.734375 -3.421875 7.378906 -3.203125 8.078125 -3.203125 C 8.804688 -3.203125 9.378906 -3.296875 9.796875 -3.484375 C 10.222656 -3.679688 10.707031 -4.066406 11.25 -4.640625 L 14.5 -3.015625 C 13.144531 -0.753906 10.894531 0.375 7.75 0.375 C 5.78125 0.375 4.09375 -0.296875 2.6875 -1.640625 C 1.28125 -2.984375 0.578125 -4.601562 0.578125 -6.5 C 0.578125 -8.394531 1.28125 -10.019531 2.6875 -11.375 C 4.09375 -12.726562 5.78125 -13.40625 7.75 -13.40625 C 9.8125 -13.40625 11.488281 -12.804688 12.78125 -11.609375 C 14.082031 -10.421875 14.734375 -8.71875 14.734375 -6.5 C 14.734375 -6.195312 14.722656 -5.992188 14.703125 -5.890625 Z M 5.390625 -8.375 L 10.328125 -8.375 C 10.234375 -9.050781 9.96875 -9.570312 9.53125 -9.9375 C 9.101562 -10.300781 8.550781 -10.484375 7.875 -10.484375 C 7.125 -10.484375 6.53125 -10.285156 6.09375 -9.890625 C 5.65625 -9.503906 5.421875 -9 5.390625 -8.375 Z M 5.390625 -8.375 "/></g></g></g><g fill="#0077b6" fill-opacity="1"><g transform="translate(78.52244, 26.542752)"><g><path d="M 8.96875 -8.984375 C 6.65625 -8.984375 4.578125 -7.671875 3.203125 -5.359375 L 4.640625 -4.3125 C 5.6875 -6.21875 7.34375 -7.265625 8.96875 -7.265625 C 10.234375 -7.265625 11.140625 -6.65625 12.265625 -5.859375 C 13.5625 -4.984375 14.78125 -4.3125 16.375 -4.3125 C 18.6875 -4.3125 20.75 -5.640625 22.109375 -7.96875 L 20.6875 -8.984375 C 19.65625 -7.109375 18 -6.0625 16.375 -6.0625 C 15.078125 -6.0625 14.171875 -6.671875 13.046875 -7.4375 C 11.78125 -8.359375 10.53125 -8.984375 8.96875 -8.984375 Z M 8.96875 -14.984375 C 6.65625 -14.984375 4.578125 -13.65625 3.203125 -11.328125 L 4.640625 -10.3125 C 5.6875 -12.1875 7.34375 -13.234375 8.96875 -13.234375 C 10.234375 -13.234375 11.140625 -12.625 12.265625 -11.859375 C 13.5625 -10.9375 14.78125 -10.3125 16.375 -10.3125 C 18.6875 -10.3125 20.75 -11.625 22.109375 -13.9375 L 20.6875 -14.984375 C 19.65625 -13.078125 18 -12.03125 16.375 -12.03125 C 15.078125 -12.03125 14.171875 -12.640625 13.046875 -13.4375 C 11.78125 -14.328125 10.53125 -14.984375 8.96875 -14.984375 Z M 8.96875 -14.984375 "/></g></g></g><g clip-path="url(#17ec77d3d9)"><g clip-path="url(#6e91613ac8)"><path fill="#ffc857" d="M 37.417969 30.296875 L 43.191406 30.296875 L 43.191406 36.070312 L 37.417969 36.070312 Z M 37.417969 30.296875 " fill-opacity="1" fill-rule="nonzero"/></g></g><g fill="#0077b6" fill-opacity="1"><g transform="translate(50.374557, 37.675368)"><g><path d="M 6.453125 -9.921875 L 6.453125 -7.9375 L 2.984375 -7.9375 L 2.984375 -5.96875 L 6.203125 -5.96875 L 6.203125 -3.984375 L 2.984375 -3.984375 L 2.984375 0 L 0.71875 0 L 0.71875 -9.921875 Z M 6.453125 -9.921875 "/></g></g></g><g fill="#0077b6" fill-opacity="1"><g transform="translate(56.598617, 37.675368)"><g><path d="M 6.96875 -2.796875 L 2.484375 -2.796875 C 2.484375 -2.359375 2.625 -2.035156 2.90625 -1.828125 C 3.1875 -1.617188 3.492188 -1.515625 3.828125 -1.515625 C 4.171875 -1.515625 4.441406 -1.5625 4.640625 -1.65625 C 4.835938 -1.75 5.066406 -1.929688 5.328125 -2.203125 L 6.875 -1.4375 C 6.226562 -0.351562 5.160156 0.1875 3.671875 0.1875 C 2.742188 0.1875 1.945312 -0.128906 1.28125 -0.765625 C 0.613281 -1.410156 0.28125 -2.179688 0.28125 -3.078125 C 0.28125 -3.972656 0.613281 -4.742188 1.28125 -5.390625 C 1.945312 -6.035156 2.742188 -6.359375 3.671875 -6.359375 C 4.648438 -6.359375 5.445312 -6.070312 6.0625 -5.5 C 6.675781 -4.9375 6.984375 -4.128906 6.984375 -3.078125 C 6.984375 -2.929688 6.976562 -2.835938 6.96875 -2.796875 Z M 2.546875 -3.96875 L 4.890625 -3.96875 C 4.847656 -4.289062 4.722656 -4.535156 4.515625 -4.703125 C 4.316406 -4.878906 4.054688 -4.96875 3.734375 -4.96875 C 3.378906 -4.96875 3.097656 -4.875 2.890625 -4.6875 C 2.679688 -4.507812 2.566406 -4.269531 2.546875 -3.96875 Z M 2.546875 -3.96875 "/></g></g></g><g fill="#0077b6" fill-opacity="1"><g transform="translate(63.25607, 37.675368)"><g><path d="M 3.40625 -6.359375 C 3.757812 -6.359375 4.109375 -6.316406 4.453125 -6.234375 C 4.796875 -6.148438 5.050781 -6.066406 5.21875 -5.984375 L 5.46875 -5.875 L 4.78125 -4.46875 C 4.289062 -4.726562 3.832031 -4.859375 3.40625 -4.859375 C 3.164062 -4.859375 2.992188 -4.832031 2.890625 -4.78125 C 2.796875 -4.726562 2.75 -4.628906 2.75 -4.484375 C 2.75 -4.453125 2.75 -4.421875 2.75 -4.390625 C 2.757812 -4.359375 2.773438 -4.328125 2.796875 -4.296875 C 2.828125 -4.273438 2.851562 -4.253906 2.875 -4.234375 C 2.894531 -4.210938 2.925781 -4.1875 2.96875 -4.15625 C 3.019531 -4.132812 3.054688 -4.117188 3.078125 -4.109375 C 3.109375 -4.097656 3.15625 -4.078125 3.21875 -4.046875 C 3.289062 -4.023438 3.34375 -4.007812 3.375 -4 C 3.40625 -3.988281 3.457031 -3.96875 3.53125 -3.9375 C 3.601562 -3.914062 3.660156 -3.898438 3.703125 -3.890625 C 3.953125 -3.828125 4.164062 -3.75 4.34375 -3.65625 C 4.53125 -3.570312 4.726562 -3.453125 4.9375 -3.296875 C 5.144531 -3.140625 5.300781 -2.945312 5.40625 -2.71875 C 5.519531 -2.488281 5.578125 -2.222656 5.578125 -1.921875 C 5.578125 -0.515625 4.601562 0.1875 2.65625 0.1875 C 2.21875 0.1875 1.800781 0.117188 1.40625 -0.015625 C 1.007812 -0.160156 0.722656 -0.300781 0.546875 -0.4375 L 0.28125 -0.65625 L 1.140625 -2.109375 C 1.203125 -2.046875 1.285156 -1.976562 1.390625 -1.90625 C 1.492188 -1.832031 1.679688 -1.726562 1.953125 -1.59375 C 2.234375 -1.457031 2.472656 -1.390625 2.671875 -1.390625 C 3.109375 -1.390625 3.328125 -1.539062 3.328125 -1.84375 C 3.328125 -1.976562 3.269531 -2.082031 3.15625 -2.15625 C 3.050781 -2.238281 2.863281 -2.328125 2.59375 -2.421875 C 2.320312 -2.515625 2.113281 -2.601562 1.96875 -2.6875 C 1.582031 -2.882812 1.273438 -3.109375 1.046875 -3.359375 C 0.816406 -3.609375 0.703125 -3.945312 0.703125 -4.375 C 0.703125 -5 0.945312 -5.484375 1.4375 -5.828125 C 1.925781 -6.179688 2.582031 -6.359375 3.40625 -6.359375 Z M 3.40625 -6.359375 "/></g></g></g><g fill="#0077b6" fill-opacity="1"><g transform="translate(68.577218, 37.675368)"><g><path d="M 1.078125 -6.171875 L 1.078125 -8.46875 L 3.21875 -8.46875 L 3.21875 -6.171875 L 4.515625 -6.171875 L 4.515625 -4.546875 L 3.21875 -4.546875 L 3.21875 -2.59375 C 3.21875 -2.019531 3.375 -1.734375 3.6875 -1.734375 C 3.769531 -1.734375 3.851562 -1.75 3.9375 -1.78125 C 4.03125 -1.8125 4.101562 -1.84375 4.15625 -1.875 L 4.21875 -1.921875 L 4.75 -0.203125 C 4.289062 0.0546875 3.769531 0.1875 3.1875 0.1875 C 2.789062 0.1875 2.445312 0.117188 2.15625 -0.015625 C 1.863281 -0.160156 1.644531 -0.351562 1.5 -0.59375 C 1.351562 -0.832031 1.242188 -1.082031 1.171875 -1.34375 C 1.109375 -1.601562 1.078125 -1.878906 1.078125 -2.171875 L 1.078125 -4.546875 L 0.1875 -4.546875 L 0.1875 -6.171875 Z M 1.078125 -6.171875 "/></g></g></g><g fill="#0077b6" fill-opacity="1"><g transform="translate(72.730605, 37.675368)"><g><path d="M 0.921875 -9.609375 C 1.171875 -9.859375 1.46875 -9.984375 1.8125 -9.984375 C 2.15625 -9.984375 2.453125 -9.859375 2.703125 -9.609375 C 2.953125 -9.359375 3.078125 -9.0625 3.078125 -8.71875 C 3.078125 -8.375 2.953125 -8.078125 2.703125 -7.828125 C 2.453125 -7.578125 2.15625 -7.453125 1.8125 -7.453125 C 1.46875 -7.453125 1.171875 -7.578125 0.921875 -7.828125 C 0.671875 -8.078125 0.546875 -8.375 0.546875 -8.71875 C 0.546875 -9.0625 0.671875 -9.359375 0.921875 -9.609375 Z M 0.71875 -6.171875 L 0.71875 0 L 2.84375 0 L 2.84375 -6.171875 Z M 0.71875 -6.171875 "/></g></g></g><g fill="#0077b6" fill-opacity="1"><g transform="translate(75.764382, 37.675368)"><g><path d="M 2.28125 -6.171875 L 3.796875 -2.8125 L 5.296875 -6.171875 L 7.828125 -6.171875 L 4.515625 0 L 3.0625 0 L -0.234375 -6.171875 Z M 2.28125 -6.171875 "/></g></g></g><g fill="#0077b6" fill-opacity="1"><g transform="translate(82.746882, 37.675368)"><g><path d="M 1.140625 -0.75 C 0.566406 -1.382812 0.28125 -2.160156 0.28125 -3.078125 C 0.28125 -3.992188 0.566406 -4.769531 1.140625 -5.40625 C 1.722656 -6.039062 2.457031 -6.359375 3.34375 -6.359375 C 4.164062 -6.359375 4.835938 -6.097656 5.359375 -5.578125 L 5.359375 -6.171875 L 7.5 -6.171875 L 7.5 0 L 5.390625 0 L 5.390625 -0.703125 L 5.359375 -0.703125 C 4.835938 -0.109375 4.164062 0.1875 3.34375 0.1875 C 2.457031 0.1875 1.722656 -0.125 1.140625 -0.75 Z M 2.953125 -4.125 C 2.671875 -3.851562 2.53125 -3.503906 2.53125 -3.078125 C 2.53125 -2.648438 2.660156 -2.300781 2.921875 -2.03125 C 3.191406 -1.769531 3.546875 -1.640625 3.984375 -1.640625 C 4.398438 -1.640625 4.742188 -1.773438 5.015625 -2.046875 C 5.285156 -2.316406 5.421875 -2.660156 5.421875 -3.078125 C 5.421875 -3.503906 5.28125 -3.851562 5 -4.125 C 4.71875 -4.394531 4.378906 -4.53125 3.984375 -4.53125 C 3.578125 -4.53125 3.234375 -4.394531 2.953125 -4.125 Z M 2.953125 -4.125 "/></g></g></g><g fill="#0077b6" fill-opacity="1"><g transform="translate(90.367442, 37.675368)"><g><path d="M 0.71875 0 L 0.71875 -10.34375 L 2.84375 -10.34375 L 2.84375 0 Z M 0.71875 0 "/></g></g></g><g clip-path="url(#ae288afe4c)"><g clip-path="url(#6f8c5146aa)"><path fill="#ffc857" d="M 13.78125 30.296875 L 19.554688 30.296875 L 19.554688 36.070312 L 13.78125 36.070312 Z M 13.78125 30.296875 " fill-opacity="1" fill-rule="nonzero"/></g></g><g clip-path="url(#e282a74d80)"><g clip-path="url(#02fde9130b)"><path fill="#0077b6" d="M 25.574219 30.296875 L 31.347656 30.296875 L 31.347656 36.070312 L 25.574219 36.070312 Z M 25.574219 30.296875 " fill-opacity="1" fill-rule="nonzero"/></g></g><g clip-path="url(#b7c742ed80)"><g clip-path="url(#cd18ae33cd)"><path fill="#0077b6" d="M 107.339844 19.613281 L 113.113281 19.613281 L 113.113281 25.386719 L 107.339844 25.386719 Z M 107.339844 19.613281 " fill-opacity="1" fill-rule="nonzero"/></g></g><g fill="#0077b6" fill-opacity="1"><g transform="translate(126.279941, 10.410016)"><g><path d="M 3.78125 -3.078125 C 3.144531 -2.753906 2.664062 -2.460938 2.34375 -2.203125 C 2.03125 -1.953125 1.820312 -1.742188 1.71875 -1.578125 C 1.625 -1.410156 1.550781 -1.21875 1.5 -1 L 6.078125 -1 L 6.078125 0 L 0.3125 0 C 0.332031 -0.601562 0.429688 -1.117188 0.609375 -1.546875 C 0.796875 -1.984375 1.070312 -2.367188 1.4375 -2.703125 C 1.800781 -3.046875 2.28125 -3.378906 2.875 -3.703125 C 3.5 -4.023438 3.957031 -4.300781 4.25 -4.53125 C 4.539062 -4.769531 4.726562 -4.992188 4.8125 -5.203125 C 4.90625 -5.410156 4.953125 -5.671875 4.953125 -5.984375 C 4.953125 -6.421875 4.800781 -6.78125 4.5 -7.0625 C 4.207031 -7.34375 3.800781 -7.484375 3.28125 -7.484375 C 2.195312 -7.484375 1.628906 -6.789062 1.578125 -5.40625 L 0.53125 -5.40625 C 0.53125 -6.382812 0.78125 -7.132812 1.28125 -7.65625 C 1.789062 -8.175781 2.519531 -8.4375 3.46875 -8.4375 C 3.957031 -8.4375 4.398438 -8.332031 4.796875 -8.125 C 5.191406 -7.925781 5.503906 -7.632812 5.734375 -7.25 C 5.960938 -6.863281 6.078125 -6.421875 6.078125 -5.921875 C 6.078125 -5.453125 5.988281 -5.050781 5.8125 -4.71875 C 5.632812 -4.382812 5.378906 -4.09375 5.046875 -3.84375 C 4.722656 -3.59375 4.300781 -3.335938 3.78125 -3.078125 Z M 3.78125 -3.078125 "/></g></g></g><g fill="#0077b6" fill-opacity="1"><g transform="translate(132.951949, 10.410016)"><g><path d="M 3.34375 0.234375 C 2.394531 0.234375 1.671875 -0.148438 1.171875 -0.921875 C 0.679688 -1.703125 0.4375 -2.765625 0.4375 -4.109375 C 0.4375 -5.484375 0.6875 -6.546875 1.1875 -7.296875 C 1.6875 -8.054688 2.40625 -8.4375 3.34375 -8.4375 C 4.300781 -8.4375 5.019531 -8.039062 5.5 -7.25 C 5.988281 -6.46875 6.234375 -5.421875 6.234375 -4.109375 C 6.234375 -2.785156 5.988281 -1.726562 5.5 -0.9375 C 5.019531 -0.15625 4.300781 0.234375 3.34375 0.234375 Z M 5.09375 -4.03125 C 5.09375 -6.332031 4.503906 -7.484375 3.328125 -7.484375 C 2.742188 -7.484375 2.304688 -7.195312 2.015625 -6.625 C 1.722656 -6.050781 1.578125 -5.210938 1.578125 -4.109375 C 1.578125 -3.015625 1.71875 -2.175781 2 -1.59375 C 2.289062 -1.007812 2.738281 -0.71875 3.34375 -0.71875 C 3.925781 -0.71875 4.363281 -1.007812 4.65625 -1.59375 C 4.945312 -2.1875 5.09375 -3 5.09375 -4.03125 Z M 5.09375 -4.03125 "/></g></g></g><g fill="#0077b6" fill-opacity="1"><g transform="translate(139.623957, 10.410016)"><g><path d="M 3.78125 -3.078125 C 3.144531 -2.753906 2.664062 -2.460938 2.34375 -2.203125 C 2.03125 -1.953125 1.820312 -1.742188 1.71875 -1.578125 C 1.625 -1.410156 1.550781 -1.21875 1.5 -1 L 6.078125 -1 L 6.078125 0 L 0.3125 0 C 0.332031 -0.601562 0.429688 -1.117188 0.609375 -1.546875 C 0.796875 -1.984375 1.070312 -2.367188 1.4375 -2.703125 C 1.800781 -3.046875 2.28125 -3.378906 2.875 -3.703125 C 3.5 -4.023438 3.957031 -4.300781 4.25 -4.53125 C 4.539062 -4.769531 4.726562 -4.992188 4.8125 -5.203125 C 4.90625 -5.410156 4.953125 -5.671875 4.953125 -5.984375 C 4.953125 -6.421875 4.800781 -6.78125 4.5 -7.0625 C 4.207031 -7.34375 3.800781 -7.484375 3.28125 -7.484375 C 2.195312 -7.484375 1.628906 -6.789062 1.578125 -5.40625 L 0.53125 -5.40625 C 0.53125 -6.382812 0.78125 -7.132812 1.28125 -7.65625 C 1.789062 -8.175781 2.519531 -8.4375 3.46875 -8.4375 C 3.957031 -8.4375 4.398438 -8.332031 4.796875 -8.125 C 5.191406 -7.925781 5.503906 -7.632812 5.734375 -7.25 C 5.960938 -6.863281 6.078125 -6.421875 6.078125 -5.921875 C 6.078125 -5.453125 5.988281 -5.050781 5.8125 -4.71875 C 5.632812 -4.382812 5.378906 -4.09375 5.046875 -3.84375 C 4.722656 -3.59375 4.300781 -3.335938 3.78125 -3.078125 Z M 3.78125 -3.078125 "/></g></g></g><g fill="#0077b6" fill-opacity="1"><g transform="translate(146.295965, 10.410016)"><g><path d="M 2.125 -7.21875 L 1.765625 -4.90625 C 2.015625 -5.082031 2.265625 -5.210938 2.515625 -5.296875 C 2.765625 -5.390625 3.054688 -5.4375 3.390625 -5.4375 C 3.890625 -5.4375 4.347656 -5.320312 4.765625 -5.09375 C 5.191406 -4.863281 5.53125 -4.546875 5.78125 -4.140625 C 6.039062 -3.734375 6.171875 -3.269531 6.171875 -2.75 C 6.171875 -2.1875 6.054688 -1.675781 5.828125 -1.21875 C 5.609375 -0.769531 5.269531 -0.414062 4.8125 -0.15625 C 4.351562 0.101562 3.785156 0.234375 3.109375 0.234375 C 2.316406 0.234375 1.679688 0.03125 1.203125 -0.375 C 0.722656 -0.789062 0.453125 -1.363281 0.390625 -2.09375 L 1.46875 -2.09375 C 1.53125 -1.613281 1.71875 -1.257812 2.03125 -1.03125 C 2.351562 -0.800781 2.757812 -0.6875 3.25 -0.6875 C 3.59375 -0.6875 3.898438 -0.769531 4.171875 -0.9375 C 4.441406 -1.101562 4.65625 -1.332031 4.8125 -1.625 C 4.96875 -1.914062 5.046875 -2.242188 5.046875 -2.609375 C 5.046875 -3.179688 4.875 -3.632812 4.53125 -3.96875 C 4.1875 -4.3125 3.734375 -4.484375 3.171875 -4.484375 C 2.566406 -4.484375 2.046875 -4.21875 1.609375 -3.6875 L 0.703125 -3.734375 L 1.328125 -8.25 L 5.703125 -8.25 L 5.703125 -7.21875 Z M 2.125 -7.21875 "/></g></g></g><g fill="#0077b6" fill-opacity="1"><g transform="translate(120.94791, 25.410015)"><g><path d="M 6.578125 0 L 5.71875 -2.515625 L 2.265625 -2.515625 L 1.375 0 L 0.171875 0 L 3.40625 -8.609375 L 4.734375 -8.609375 L 7.84375 0 Z M 5.296875 -3.546875 L 4.03125 -7.328125 L 4.015625 -7.328125 L 2.625 -3.546875 Z M 5.296875 -3.546875 "/></g></g></g><g fill="#0077b6" fill-opacity="1"><g transform="translate(128.95193, 25.410015)"><g><path d="M 3.078125 -0.734375 C 3.628906 -0.734375 4.054688 -0.925781 4.359375 -1.3125 C 4.660156 -1.695312 4.8125 -2.21875 4.8125 -2.875 L 4.8125 -6.28125 L 5.875 -6.28125 L 5.875 0 L 4.875 0 L 4.875 -0.90625 L 4.84375 -0.9375 C 4.601562 -0.539062 4.332031 -0.253906 4.03125 -0.078125 C 3.726562 0.0976562 3.335938 0.1875 2.859375 0.1875 C 2.234375 0.1875 1.734375 0.015625 1.359375 -0.328125 C 0.992188 -0.671875 0.8125 -1.140625 0.8125 -1.734375 L 0.8125 -6.28125 L 1.875 -6.28125 L 1.875 -2.0625 C 1.875 -1.644531 1.976562 -1.316406 2.1875 -1.078125 C 2.394531 -0.847656 2.691406 -0.734375 3.078125 -0.734375 Z M 3.078125 -0.734375 "/></g></g></g><g fill="#0077b6" fill-opacity="1"><g transform="translate(135.623938, 25.410015)"><g><path d="M 5.984375 -0.390625 C 5.984375 0.691406 5.734375 1.46875 5.234375 1.9375 C 4.734375 2.40625 4.007812 2.640625 3.0625 2.640625 C 2.363281 2.640625 1.800781 2.472656 1.375 2.140625 C 0.957031 1.804688 0.722656 1.347656 0.671875 0.765625 L 1.734375 0.765625 C 1.773438 1.085938 1.914062 1.332031 2.15625 1.5 C 2.40625 1.675781 2.738281 1.765625 3.15625 1.765625 C 3.75 1.765625 4.191406 1.601562 4.484375 1.28125 C 4.785156 0.957031 4.9375 0.441406 4.9375 -0.265625 L 4.9375 -0.703125 C 4.59375 -0.109375 4.015625 0.1875 3.203125 0.1875 C 2.617188 0.1875 2.125 0.03125 1.71875 -0.28125 C 1.3125 -0.59375 1.003906 -1.015625 0.796875 -1.546875 C 0.585938 -2.078125 0.484375 -2.671875 0.484375 -3.328125 C 0.484375 -3.929688 0.585938 -4.46875 0.796875 -4.9375 C 1.015625 -5.414062 1.328125 -5.785156 1.734375 -6.046875 C 2.140625 -6.316406 2.59375 -6.453125 3.09375 -6.453125 C 3.90625 -6.453125 4.535156 -6.085938 4.984375 -5.359375 L 4.984375 -6.28125 L 5.984375 -6.28125 Z M 4.984375 -2.828125 C 4.984375 -3.734375 4.84375 -4.40625 4.5625 -4.84375 C 4.28125 -5.289062 3.851562 -5.515625 3.28125 -5.515625 C 2.726562 -5.515625 2.304688 -5.328125 2.015625 -4.953125 C 1.722656 -4.578125 1.578125 -3.988281 1.578125 -3.1875 C 1.578125 -2.414062 1.722656 -1.8125 2.015625 -1.375 C 2.304688 -0.945312 2.71875 -0.734375 3.25 -0.734375 C 3.757812 -0.734375 4.175781 -0.914062 4.5 -1.28125 C 4.820312 -1.65625 4.984375 -2.171875 4.984375 -2.828125 Z M 4.984375 -2.828125 "/></g></g></g><g fill="#0077b6" fill-opacity="1"><g transform="translate(142.295947, 25.410015)"><g><path d="M 3.078125 -0.734375 C 3.628906 -0.734375 4.054688 -0.925781 4.359375 -1.3125 C 4.660156 -1.695312 4.8125 -2.21875 4.8125 -2.875 L 4.8125 -6.28125 L 5.875 -6.28125 L 5.875 0 L 4.875 0 L 4.875 -0.90625 L 4.84375 -0.9375 C 4.601562 -0.539062 4.332031 -0.253906 4.03125 -0.078125 C 3.726562 0.0976562 3.335938 0.1875 2.859375 0.1875 C 2.234375 0.1875 1.734375 0.015625 1.359375 -0.328125 C 0.992188 -0.671875 0.8125 -1.140625 0.8125 -1.734375 L 0.8125 -6.28125 L 1.875 -6.28125 L 1.875 -2.0625 C 1.875 -1.644531 1.976562 -1.316406 2.1875 -1.078125 C 2.394531 -0.847656 2.691406 -0.734375 3.078125 -0.734375 Z M 3.078125 -0.734375 "/></g></g></g><g fill="#0077b6" fill-opacity="1"><g transform="translate(148.967955, 25.410015)"><g><path d="M 5.359375 -4.484375 L 4.34375 -4.484375 C 4.34375 -4.828125 4.21875 -5.085938 3.96875 -5.265625 C 3.71875 -5.453125 3.359375 -5.546875 2.890625 -5.546875 C 2.503906 -5.546875 2.191406 -5.46875 1.953125 -5.3125 C 1.722656 -5.15625 1.609375 -4.9375 1.609375 -4.65625 C 1.609375 -4.4375 1.675781 -4.269531 1.8125 -4.15625 C 1.957031 -4.039062 2.234375 -3.9375 2.640625 -3.84375 L 3.859375 -3.546875 C 4.460938 -3.390625 4.894531 -3.179688 5.15625 -2.921875 C 5.425781 -2.671875 5.5625 -2.328125 5.5625 -1.890625 C 5.5625 -1.484375 5.457031 -1.125 5.25 -0.8125 C 5.039062 -0.5 4.742188 -0.253906 4.359375 -0.078125 C 3.984375 0.0976562 3.554688 0.1875 3.078125 0.1875 C 1.316406 0.1875 0.421875 -0.546875 0.390625 -2.015625 L 1.40625 -2.015625 C 1.425781 -1.554688 1.578125 -1.226562 1.859375 -1.03125 C 2.148438 -0.832031 2.550781 -0.734375 3.0625 -0.734375 C 3.5 -0.734375 3.847656 -0.820312 4.109375 -1 C 4.378906 -1.175781 4.515625 -1.414062 4.515625 -1.71875 C 4.515625 -1.914062 4.453125 -2.070312 4.328125 -2.1875 C 4.210938 -2.300781 4.070312 -2.382812 3.90625 -2.4375 C 3.75 -2.488281 3.507812 -2.554688 3.1875 -2.640625 L 2.09375 -2.921875 C 1.625 -3.023438 1.253906 -3.195312 0.984375 -3.4375 C 0.722656 -3.675781 0.59375 -4.015625 0.59375 -4.453125 C 0.59375 -5.066406 0.8125 -5.550781 1.25 -5.90625 C 1.6875 -6.269531 2.269531 -6.453125 3 -6.453125 C 3.738281 -6.453125 4.304688 -6.269531 4.703125 -5.90625 C 5.109375 -5.550781 5.328125 -5.078125 5.359375 -4.484375 Z M 5.359375 -4.484375 "/></g></g></g><g fill="#0077b6" fill-opacity="1"><g transform="translate(154.967966, 25.410015)"><g><path d="M 3.078125 -6.28125 L 3.078125 -5.40625 L 2.078125 -5.40625 L 2.078125 -1.296875 C 2.078125 -0.984375 2.269531 -0.828125 2.65625 -0.828125 L 3.078125 -0.828125 L 3.078125 0 C 2.660156 0.0507812 2.394531 0.078125 2.28125 0.078125 C 1.832031 0.078125 1.507812 -0.0234375 1.3125 -0.234375 C 1.113281 -0.453125 1.015625 -0.78125 1.015625 -1.21875 L 1.015625 -5.40625 L 0.171875 -5.40625 L 0.171875 -6.28125 L 1.015625 -6.28125 L 1.015625 -8.03125 L 2.078125 -8.03125 L 2.078125 -6.28125 Z M 3.078125 -6.28125 "/></g></g></g><g fill="#0077b6" fill-opacity="1"><g transform="translate(125.611972, 40.410014)"><g><path d="M 3.1875 0 L 3.1875 -5.984375 L 1.21875 -5.984375 L 1.21875 -6.828125 C 1.757812 -6.859375 2.160156 -6.914062 2.421875 -7 C 2.679688 -7.082031 2.890625 -7.226562 3.046875 -7.4375 C 3.210938 -7.65625 3.359375 -7.988281 3.484375 -8.4375 L 4.3125 -8.4375 L 4.3125 0 Z M 3.1875 0 "/></g></g></g><g fill="#0077b6" fill-opacity="1"><g transform="translate(132.28398, 40.410014)"><g/></g></g><g fill="#0077b6" fill-opacity="1"><g transform="translate(135.61999, 40.410014)"><g><path d="M 3.984375 -4.578125 L 5.5625 -2.71875 C 5.632812 -2.914062 5.691406 -3.113281 5.734375 -3.3125 C 5.785156 -3.507812 5.84375 -3.757812 5.90625 -4.0625 L 6.90625 -4.0625 C 6.832031 -3.300781 6.597656 -2.566406 6.203125 -1.859375 L 7.734375 0 L 6.375 0 L 5.5625 -0.984375 C 5.207031 -0.554688 4.828125 -0.253906 4.421875 -0.078125 C 4.023438 0.0976562 3.5625 0.1875 3.03125 0.1875 C 2.238281 0.1875 1.625 -0.0234375 1.1875 -0.453125 C 0.75 -0.890625 0.53125 -1.453125 0.53125 -2.140625 C 0.53125 -2.535156 0.582031 -2.875 0.6875 -3.15625 C 0.800781 -3.445312 0.992188 -3.71875 1.265625 -3.96875 C 1.546875 -4.21875 1.945312 -4.488281 2.46875 -4.78125 C 2.125 -5.195312 1.882812 -5.535156 1.75 -5.796875 C 1.625 -6.066406 1.5625 -6.367188 1.5625 -6.703125 C 1.5625 -7.054688 1.644531 -7.378906 1.8125 -7.671875 C 1.976562 -7.960938 2.210938 -8.191406 2.515625 -8.359375 C 2.828125 -8.523438 3.1875 -8.609375 3.59375 -8.609375 C 4.1875 -8.609375 4.65625 -8.441406 5 -8.109375 C 5.351562 -7.773438 5.53125 -7.347656 5.53125 -6.828125 C 5.53125 -6.398438 5.40625 -6.003906 5.15625 -5.640625 C 4.914062 -5.273438 4.523438 -4.921875 3.984375 -4.578125 Z M 4.515625 -6.75 C 4.515625 -7.0625 4.425781 -7.296875 4.25 -7.453125 C 4.070312 -7.617188 3.84375 -7.703125 3.5625 -7.703125 C 3.269531 -7.703125 3.03125 -7.617188 2.84375 -7.453125 C 2.664062 -7.296875 2.578125 -7.070312 2.578125 -6.78125 C 2.578125 -6.570312 2.648438 -6.332031 2.796875 -6.0625 C 2.953125 -5.789062 3.164062 -5.523438 3.4375 -5.265625 C 3.84375 -5.535156 4.125 -5.785156 4.28125 -6.015625 C 4.4375 -6.242188 4.515625 -6.488281 4.515625 -6.75 Z M 5 -1.6875 L 3.0625 -4.0625 C 2.488281 -3.71875 2.097656 -3.40625 1.890625 -3.125 C 1.679688 -2.851562 1.578125 -2.523438 1.578125 -2.140625 C 1.578125 -1.835938 1.660156 -1.578125 1.828125 -1.359375 C 2.003906 -1.148438 2.210938 -0.992188 2.453125 -0.890625 C 2.691406 -0.785156 2.921875 -0.734375 3.140625 -0.734375 C 3.910156 -0.734375 4.53125 -1.050781 5 -1.6875 Z M 5 -1.6875 "/></g></g></g><g fill="#0077b6" fill-opacity="1"><g transform="translate(143.62401, 40.410014)"><g/></g></g><g fill="#0077b6" fill-opacity="1"><g transform="translate(146.96002, 40.410014)"><g><path d="M 3.78125 -3.078125 C 3.144531 -2.753906 2.664062 -2.460938 2.34375 -2.203125 C 2.03125 -1.953125 1.820312 -1.742188 1.71875 -1.578125 C 1.625 -1.410156 1.550781 -1.21875 1.5 -1 L 6.078125 -1 L 6.078125 0 L 0.3125 0 C 0.332031 -0.601562 0.429688 -1.117188 0.609375 -1.546875 C 0.796875 -1.984375 1.070312 -2.367188 1.4375 -2.703125 C 1.800781 -3.046875 2.28125 -3.378906 2.875 -3.703125 C 3.5 -4.023438 3.957031 -4.300781 4.25 -4.53125 C 4.539062 -4.769531 4.726562 -4.992188 4.8125 -5.203125 C 4.90625 -5.410156 4.953125 -5.671875 4.953125 -5.984375 C 4.953125 -6.421875 4.800781 -6.78125 4.5 -7.0625 C 4.207031 -7.34375 3.800781 -7.484375 3.28125 -7.484375 C 2.195312 -7.484375 1.628906 -6.789062 1.578125 -5.40625 L 0.53125 -5.40625 C 0.53125 -6.382812 0.78125 -7.132812 1.28125 -7.65625 C 1.789062 -8.175781 2.519531 -8.4375 3.46875 -8.4375 C 3.957031 -8.4375 4.398438 -8.332031 4.796875 -8.125 C 5.191406 -7.925781 5.503906 -7.632812 5.734375 -7.25 C 5.960938 -6.863281 6.078125 -6.421875 6.078125 -5.921875 C 6.078125 -5.453125 5.988281 -5.050781 5.8125 -4.71875 C 5.632812 -4.382812 5.378906 -4.09375 5.046875 -3.84375 C 4.722656 -3.59375 4.300781 -3.335938 3.78125 -3.078125 Z M 3.78125 -3.078125 "/></g></g></g></svg>