<svg xmlns="http://www.w3.org/2000/svg" xmlns:xlink="http://www.w3.org/1999/xlink" width="200" zoomAndPan="magnify" viewBox="0 0 150 149.999998" height="200" preserveAspectRatio="xMidYMid meet" version="1.0"><defs><clipPath id="0361d3d4cb"><path d="M 0 0 L 35.25 0 L 35.25 35.25 L 0 35.25 Z M 0 0 " clip-rule="nonzero"/></clipPath><clipPath id="40e17e465f"><path d="M 17.625 0 C 7.890625 0 0 7.890625 0 17.625 C 0 27.359375 7.890625 35.25 17.625 35.25 C 27.359375 35.25 35.25 27.359375 35.25 17.625 C 35.25 7.890625 27.359375 0 17.625 0 Z M 17.625 0 " clip-rule="nonzero"/></clipPath><clipPath id="052fa8e0f1"><path d="M 57.066406 0 L 92.316406 0 L 92.316406 35.25 L 57.066406 35.25 Z M 57.066406 0 " clip-rule="nonzero"/></clipPath><clipPath id="c2c4d293f3"><path d="M 74.691406 0 C 64.957031 0 57.066406 7.890625 57.066406 17.625 C 57.066406 27.359375 64.957031 35.25 74.691406 35.25 C 84.425781 35.25 92.316406 27.359375 92.316406 17.625 C 92.316406 7.890625 84.425781 0 74.691406 0 Z M 74.691406 0 " clip-rule="nonzero"/></clipPath><clipPath id="20d660a4d6"><path d="M 114.75 0 L 150 0 L 150 35.25 L 114.75 35.25 Z M 114.75 0 " clip-rule="nonzero"/></clipPath><clipPath id="5c99cd5568"><path d="M 132.375 0 C 122.640625 0 114.75 7.890625 114.75 17.625 C 114.75 27.359375 122.640625 35.25 132.375 35.25 C 142.109375 35.25 150 27.359375 150 17.625 C 150 7.890625 142.109375 0 132.375 0 Z M 132.375 0 " clip-rule="nonzero"/></clipPath></defs><g clip-path="url(#0361d3d4cb)"><g clip-path="url(#40e17e465f)"><path fill="#ffc857" d="M 0 0 L 35.25 0 L 35.25 35.25 L 0 35.25 Z M 0 0 " fill-opacity="1" fill-rule="nonzero"/></g></g><g clip-path="url(#052fa8e0f1)"><g clip-path="url(#c2c4d293f3)"><path fill="#0077b6" d="M 57.066406 0 L 92.316406 0 L 92.316406 35.25 L 57.066406 35.25 Z M 57.066406 0 " fill-opacity="1" fill-rule="nonzero"/></g></g><g clip-path="url(#20d660a4d6)"><g clip-path="url(#5c99cd5568)"><path fill="#ffc857" d="M 114.75 0 L 150 0 L 150 35.25 L 114.75 35.25 Z M 114.75 0 " fill-opacity="1" fill-rule="nonzero"/></g></g></svg>