<svg xmlns="http://www.w3.org/2000/svg" xmlns:xlink="http://www.w3.org/1999/xlink" width="200" zoomAndPan="magnify" viewBox="0 0 150 149.999998" height="200" preserveAspectRatio="xMidYMid meet" version="1.0"><defs><clipPath id="8b6ce4ca15"><path d="M 14.460938 0 L 60.386719 0 L 60.386719 45.925781 L 14.460938 45.925781 Z M 14.460938 0 " clip-rule="nonzero"/></clipPath><clipPath id="6f2400635b"><path d="M 37.425781 0 C 24.742188 0 14.460938 10.28125 14.460938 22.964844 C 14.460938 35.644531 24.742188 45.925781 37.425781 45.925781 C 50.105469 45.925781 60.386719 35.644531 60.386719 22.964844 C 60.386719 10.28125 50.105469 0 37.425781 0 Z M 37.425781 0 " clip-rule="nonzero"/></clipPath><clipPath id="0d076d9044"><path d="M 89.613281 0 L 135.539062 0 L 135.539062 45.925781 L 89.613281 45.925781 Z M 89.613281 0 " clip-rule="nonzero"/></clipPath><clipPath id="d97cb3a338"><path d="M 112.574219 0 C 99.894531 0 89.613281 10.28125 89.613281 22.964844 C 89.613281 35.644531 99.894531 45.925781 112.574219 45.925781 C 125.257812 45.925781 135.539062 35.644531 135.539062 22.964844 C 135.539062 10.28125 125.257812 0 112.574219 0 Z M 112.574219 0 " clip-rule="nonzero"/></clipPath></defs><g clip-path="url(#8b6ce4ca15)"><g clip-path="url(#6f2400635b)"><path fill="#0077b6" d="M 14.460938 0 L 60.386719 0 L 60.386719 45.925781 L 14.460938 45.925781 Z M 14.460938 0 " fill-opacity="1" fill-rule="nonzero"/></g></g><g clip-path="url(#0d076d9044)"><g clip-path="url(#d97cb3a338)"><path fill="#ffc857" d="M 89.613281 0 L 135.539062 0 L 135.539062 45.925781 L 89.613281 45.925781 Z M 89.613281 0 " fill-opacity="1" fill-rule="nonzero"/></g></g></svg>