<svg xmlns="http://www.w3.org/2000/svg" xmlns:xlink="http://www.w3.org/1999/xlink" width="200" zoomAndPan="magnify" viewBox="0 0 150 149.999998" height="200" preserveAspectRatio="xMidYMid meet" version="1.0"><defs><clipPath id="4aa076baf8"><path d="M 0 57.375 L 35.25 57.375 L 35.25 92.625 L 0 92.625 Z M 0 57.375 " clip-rule="nonzero"/></clipPath><clipPath id="eb6cfe884c"><path d="M 17.625 57.375 C 7.890625 57.375 0 65.265625 0 75 C 0 84.734375 7.890625 92.625 17.625 92.625 C 27.359375 92.625 35.25 84.734375 35.25 75 C 35.25 65.265625 27.359375 57.375 17.625 57.375 Z M 17.625 57.375 " clip-rule="nonzero"/></clipPath><clipPath id="ae5a9c779d"><path d="M 57.066406 57.375 L 92.316406 57.375 L 92.316406 92.625 L 57.066406 92.625 Z M 57.066406 57.375 " clip-rule="nonzero"/></clipPath><clipPath id="d9844e6897"><path d="M 74.691406 57.375 C 64.957031 57.375 57.066406 65.265625 57.066406 75 C 57.066406 84.734375 64.957031 92.625 74.691406 92.625 C 84.425781 92.625 92.316406 84.734375 92.316406 75 C 92.316406 65.265625 84.425781 57.375 74.691406 57.375 Z M 74.691406 57.375 " clip-rule="nonzero"/></clipPath><clipPath id="8b8e950f4f"><path d="M 114.75 57.375 L 150 57.375 L 150 92.625 L 114.75 92.625 Z M 114.75 57.375 " clip-rule="nonzero"/></clipPath><clipPath id="c8d54f1828"><path d="M 132.375 57.375 C 122.640625 57.375 114.75 65.265625 114.75 75 C 114.75 84.734375 122.640625 92.625 132.375 92.625 C 142.109375 92.625 150 84.734375 150 75 C 150 65.265625 142.109375 57.375 132.375 57.375 Z M 132.375 57.375 " clip-rule="nonzero"/></clipPath></defs><g clip-path="url(#4aa076baf8)"><g clip-path="url(#eb6cfe884c)"><path fill="#ffc857" d="M 0 57.375 L 35.25 57.375 L 35.25 92.625 L 0 92.625 Z M 0 57.375 " fill-opacity="1" fill-rule="nonzero"/></g></g><g clip-path="url(#ae5a9c779d)"><g clip-path="url(#d9844e6897)"><path fill="#0077b6" d="M 57.066406 57.375 L 92.316406 57.375 L 92.316406 92.625 L 57.066406 92.625 Z M 57.066406 57.375 " fill-opacity="1" fill-rule="nonzero"/></g></g><g clip-path="url(#8b8e950f4f)"><g clip-path="url(#c8d54f1828)"><path fill="#ffc857" d="M 114.75 57.375 L 150 57.375 L 150 92.625 L 114.75 92.625 Z M 114.75 57.375 " fill-opacity="1" fill-rule="nonzero"/></g></g></svg>