<svg xmlns="http://www.w3.org/2000/svg" xmlns:xlink="http://www.w3.org/1999/xlink" width="200" zoomAndPan="magnify" viewBox="0 0 150 149.999998" height="200" preserveAspectRatio="xMidYMid meet" version="1.0"><defs><g/><clipPath id="7a9102369a"><path d="M 97.507812 2.085938 L 108.113281 2.085938 L 108.113281 12.695312 L 97.507812 12.695312 Z M 97.507812 2.085938 " clip-rule="nonzero"/></clipPath><clipPath id="e61de1cf10"><path d="M 102.8125 2.085938 C 99.882812 2.085938 97.507812 4.460938 97.507812 7.390625 C 97.507812 10.320312 99.882812 12.695312 102.8125 12.695312 C 105.742188 12.695312 108.113281 10.320312 108.113281 7.390625 C 108.113281 4.460938 105.742188 2.085938 102.8125 2.085938 Z M 102.8125 2.085938 " clip-rule="nonzero"/></clipPath><clipPath id="997ecc1b71"><path d="M 114.679688 2.085938 L 125.285156 2.085938 L 125.285156 12.695312 L 114.679688 12.695312 Z M 114.679688 2.085938 " clip-rule="nonzero"/></clipPath><clipPath id="0772dc9d5b"><path d="M 119.980469 2.085938 C 117.054688 2.085938 114.679688 4.460938 114.679688 7.390625 C 114.679688 10.320312 117.054688 12.695312 119.980469 12.695312 C 122.910156 12.695312 125.285156 10.320312 125.285156 7.390625 C 125.285156 4.460938 122.910156 2.085938 119.980469 2.085938 Z M 119.980469 2.085938 " clip-rule="nonzero"/></clipPath><clipPath id="e864e846d8"><path d="M 132.035156 2.085938 L 142.644531 2.085938 L 142.644531 12.695312 L 132.035156 12.695312 Z M 132.035156 2.085938 " clip-rule="nonzero"/></clipPath><clipPath id="5f8eed041e"><path d="M 137.339844 2.085938 C 134.410156 2.085938 132.035156 4.460938 132.035156 7.390625 C 132.035156 10.320312 134.410156 12.695312 137.339844 12.695312 C 140.269531 12.695312 142.644531 10.320312 142.644531 7.390625 C 142.644531 4.460938 140.269531 2.085938 137.339844 2.085938 Z M 137.339844 2.085938 " clip-rule="nonzero"/></clipPath></defs><g fill="#0077b6" fill-opacity="1"><g transform="translate(0.00000125, 43.826631)"><g><path d="M 15.78125 0 L -1.390625 -40.953125 L 9.140625 -40.953125 L 19.453125 -14.046875 L 29.78125 -40.953125 L 40.3125 -40.953125 L 23.125 0 Z M 15.78125 0 "/></g></g></g><g fill="#0077b6" fill-opacity="1"><g transform="translate(35.382947, 43.826631)"><g><path d="M 3.8125 -39.65625 C 4.84375 -40.6875 6.066406 -41.203125 7.484375 -41.203125 C 8.910156 -41.203125 10.132812 -40.6875 11.15625 -39.65625 C 12.1875 -38.632812 12.703125 -37.410156 12.703125 -35.984375 C 12.703125 -34.566406 12.1875 -33.34375 11.15625 -32.3125 C 10.132812 -31.289062 8.910156 -30.78125 7.484375 -30.78125 C 6.066406 -30.78125 4.84375 -31.289062 3.8125 -32.3125 C 2.789062 -33.34375 2.28125 -34.566406 2.28125 -35.984375 C 2.28125 -37.410156 2.789062 -38.632812 3.8125 -39.65625 Z M 2.984375 -25.46875 L 2.984375 0 L 11.765625 0 L 11.765625 -25.46875 Z M 2.984375 -25.46875 "/></g></g></g><g fill="#0077b6" fill-opacity="1"><g transform="translate(46.845986, 43.826631)"><g><path d="M 29.1875 -22.28125 C 31.570312 -19.664062 32.765625 -16.472656 32.765625 -12.703125 C 32.765625 -8.929688 31.570312 -5.742188 29.1875 -3.140625 C 26.800781 -0.546875 23.773438 0.75 20.109375 0.75 C 16.734375 0.75 13.953125 -0.457031 11.765625 -2.875 L 11.671875 -2.875 L 11.671875 0 L 2.984375 0 L 2.984375 -42.6875 L 11.765625 -42.6875 L 11.765625 -23.03125 C 13.953125 -25.144531 16.734375 -26.203125 20.109375 -26.203125 C 23.773438 -26.203125 26.800781 -24.894531 29.1875 -22.28125 Z M 21.796875 -8.40625 C 22.890625 -9.519531 23.4375 -10.953125 23.4375 -12.703125 C 23.4375 -14.460938 22.863281 -15.90625 21.71875 -17.03125 C 20.570312 -18.15625 19.15625 -18.71875 17.46875 -18.71875 C 15.8125 -18.71875 14.410156 -18.15625 13.265625 -17.03125 C 12.128906 -15.90625 11.5625 -14.460938 11.5625 -12.703125 C 11.5625 -10.984375 12.113281 -9.5625 13.21875 -8.4375 C 14.332031 -7.3125 15.75 -6.75 17.46875 -6.75 C 19.257812 -6.75 20.703125 -7.300781 21.796875 -8.40625 Z M 21.796875 -8.40625 "/></g></g></g><g fill="#0077b6" fill-opacity="1"><g transform="translate(77.216673, 43.826631)"><g><path d="M 3.8125 -39.65625 C 4.84375 -40.6875 6.066406 -41.203125 7.484375 -41.203125 C 8.910156 -41.203125 10.132812 -40.6875 11.15625 -39.65625 C 12.1875 -38.632812 12.703125 -37.410156 12.703125 -35.984375 C 12.703125 -34.566406 12.1875 -33.34375 11.15625 -32.3125 C 10.132812 -31.289062 8.910156 -30.78125 7.484375 -30.78125 C 6.066406 -30.78125 4.84375 -31.289062 3.8125 -32.3125 C 2.789062 -33.34375 2.28125 -34.566406 2.28125 -35.984375 C 2.28125 -37.410156 2.789062 -38.632812 3.8125 -39.65625 Z M 2.984375 -25.46875 L 2.984375 0 L 11.765625 0 L 11.765625 -25.46875 Z M 2.984375 -25.46875 "/></g></g></g><g fill="#0077b6" fill-opacity="1"><g transform="translate(88.679711, 43.826631)"><g><path d="M 2.984375 0 L 2.984375 -25.46875 L 11.765625 -25.46875 L 11.765625 -22.78125 L 11.859375 -22.78125 C 14.148438 -25.0625 16.582031 -26.203125 19.15625 -26.203125 C 20.414062 -26.203125 21.664062 -26.035156 22.90625 -25.703125 C 24.144531 -25.378906 25.335938 -24.867188 26.484375 -24.171875 C 27.628906 -23.472656 28.554688 -22.488281 29.265625 -21.21875 C 29.972656 -19.945312 30.328125 -18.46875 30.328125 -16.78125 L 30.328125 0 L 21.546875 0 L 21.546875 -14.390625 C 21.546875 -15.710938 21.125 -16.867188 20.28125 -17.859375 C 19.4375 -18.859375 18.335938 -19.359375 16.984375 -19.359375 C 15.648438 -19.359375 14.445312 -18.84375 13.375 -17.8125 C 12.300781 -16.789062 11.765625 -15.648438 11.765625 -14.390625 L 11.765625 0 Z M 2.984375 0 "/></g></g></g><g fill="#0077b6" fill-opacity="1"><g transform="translate(117.958603, 43.826631)"><g><path d="M 1.84375 6.25 L 9.03125 2.734375 C 10.351562 4.910156 12.65625 6 15.9375 6 C 17.457031 6 18.867188 5.507812 20.171875 4.53125 C 21.484375 3.5625 22.140625 2.066406 22.140625 0.046875 L 22.140625 -1.84375 C 20.585938 -0.113281 17.804688 0.75 13.796875 0.75 C 10.128906 0.75 7.101562 -0.546875 4.71875 -3.140625 C 2.332031 -5.742188 1.140625 -8.929688 1.140625 -12.703125 C 1.140625 -16.472656 2.332031 -19.664062 4.71875 -22.28125 C 7.101562 -24.894531 10.128906 -26.203125 13.796875 -26.203125 C 17.078125 -26.203125 19.804688 -25.195312 21.984375 -23.1875 L 22.140625 -23.1875 L 22.140625 -25.46875 L 30.921875 -25.46875 L 30.921875 0.6875 C 30.921875 4.832031 29.546875 8.03125 26.796875 10.28125 C 24.054688 12.53125 20.4375 13.65625 15.9375 13.65625 C 8.65625 13.65625 3.957031 11.1875 1.84375 6.25 Z M 12.1875 -17.03125 C 11.039062 -15.90625 10.46875 -14.460938 10.46875 -12.703125 C 10.46875 -10.953125 11.015625 -9.519531 12.109375 -8.40625 C 13.203125 -7.300781 14.644531 -6.75 16.4375 -6.75 C 18.15625 -6.75 19.566406 -7.3125 20.671875 -8.4375 C 21.785156 -9.5625 22.34375 -10.984375 22.34375 -12.703125 C 22.34375 -14.460938 21.769531 -15.90625 20.625 -17.03125 C 19.476562 -18.15625 18.082031 -18.71875 16.4375 -18.71875 C 14.75 -18.71875 13.332031 -18.15625 12.1875 -17.03125 Z M 12.1875 -17.03125 "/></g></g></g><g clip-path="url(#7a9102369a)"><g clip-path="url(#e61de1cf10)"><path fill="#ffc857" d="M 97.507812 2.085938 L 108.113281 2.085938 L 108.113281 12.695312 L 97.507812 12.695312 Z M 97.507812 2.085938 " fill-opacity="1" fill-rule="nonzero"/></g></g><g clip-path="url(#997ecc1b71)"><g clip-path="url(#0772dc9d5b)"><path fill="#0077b6" d="M 114.679688 2.085938 L 125.285156 2.085938 L 125.285156 12.695312 L 114.679688 12.695312 Z M 114.679688 2.085938 " fill-opacity="1" fill-rule="nonzero"/></g></g><g clip-path="url(#e864e846d8)"><g clip-path="url(#5f8eed041e)"><path fill="#ffc857" d="M 132.035156 2.085938 L 142.644531 2.085938 L 142.644531 12.695312 L 132.035156 12.695312 Z M 132.035156 2.085938 " fill-opacity="1" fill-rule="nonzero"/></g></g><g fill="#0077b6" fill-opacity="1"><g transform="translate(0.00000125, 92.108039)"><g><path d="M 27.78125 -27.859375 C 20.625 -27.859375 14.171875 -23.765625 9.921875 -16.609375 L 14.40625 -13.375 C 17.625 -19.28125 22.75 -22.515625 27.78125 -22.515625 C 31.71875 -22.515625 34.546875 -20.625 38.015625 -18.1875 C 42.03125 -15.421875 45.8125 -13.375 50.765625 -13.375 C 57.921875 -13.375 64.296875 -17.46875 68.546875 -24.71875 L 64.140625 -27.859375 C 60.921875 -22.03125 55.796875 -18.8125 50.765625 -18.8125 C 46.75 -18.8125 43.921875 -20.703125 40.453125 -23.0625 C 36.515625 -25.890625 32.65625 -27.859375 27.78125 -27.859375 Z M 27.78125 -46.4375 C 20.625 -46.4375 14.171875 -42.34375 9.921875 -35.109375 L 14.40625 -31.953125 C 17.625 -37.78125 22.75 -41 27.78125 -41 C 31.71875 -41 34.546875 -39.109375 38.015625 -36.75 C 42.03125 -33.921875 45.8125 -31.953125 50.765625 -31.953125 C 57.921875 -31.953125 64.296875 -36.046875 68.546875 -43.203125 L 64.140625 -46.4375 C 60.921875 -40.53125 55.796875 -37.3125 50.765625 -37.3125 C 46.75 -37.3125 43.921875 -39.1875 40.453125 -41.640625 C 36.515625 -44.390625 32.65625 -46.4375 27.78125 -46.4375 Z M 27.78125 -46.4375 "/></g></g></g><g fill="#ffc857" fill-opacity="1"><g transform="translate(76.877867, 88.08699)"><g><path d="M 3.8125 -39.625 C 4.84375 -40.644531 6.066406 -41.15625 7.484375 -41.15625 C 8.910156 -41.15625 10.132812 -40.644531 11.15625 -39.625 C 12.1875 -38.601562 12.703125 -37.378906 12.703125 -35.953125 C 12.703125 -34.535156 12.1875 -33.3125 11.15625 -32.28125 C 10.132812 -31.257812 8.910156 -30.75 7.484375 -30.75 C 6.066406 -30.75 4.84375 -31.257812 3.8125 -32.28125 C 2.789062 -33.3125 2.28125 -34.535156 2.28125 -35.953125 C 2.28125 -37.378906 2.789062 -38.601562 3.8125 -39.625 Z M 2.96875 -25.4375 L 2.96875 0 L 11.75 0 L 11.75 -25.4375 Z M 2.96875 -25.4375 "/></g></g></g><g fill="#ffc857" fill-opacity="1"><g transform="translate(88.333563, 88.08699)"><g><path d="M 2.96875 0 L 2.96875 -25.4375 L 11.75 -25.4375 L 11.75 -22.765625 L 11.859375 -22.765625 C 14.140625 -25.046875 16.566406 -26.1875 19.140625 -26.1875 C 20.398438 -26.1875 21.648438 -26.019531 22.890625 -25.6875 C 24.128906 -25.351562 25.316406 -24.835938 26.453125 -24.140625 C 27.597656 -23.453125 28.523438 -22.472656 29.234375 -21.203125 C 29.941406 -19.929688 30.296875 -18.453125 30.296875 -16.765625 L 30.296875 0 L 21.53125 0 L 21.53125 -14.375 C 21.53125 -15.695312 21.109375 -16.851562 20.265625 -17.84375 C 19.421875 -18.84375 18.320312 -19.34375 16.96875 -19.34375 C 15.644531 -19.34375 14.441406 -18.828125 13.359375 -17.796875 C 12.285156 -16.773438 11.75 -15.632812 11.75 -14.375 L 11.75 0 Z M 2.96875 0 "/></g></g></g><g fill="#ffc857" fill-opacity="1"><g transform="translate(117.593392, 88.08699)"><g><path d="M 1.828125 6.25 L 9.03125 2.734375 C 10.351562 4.910156 12.648438 6 15.921875 6 C 17.441406 6 18.851562 5.507812 20.15625 4.53125 C 21.46875 3.5625 22.125 2.066406 22.125 0.046875 L 22.125 -1.828125 C 20.5625 -0.109375 17.78125 0.75 13.78125 0.75 C 10.113281 0.75 7.085938 -0.546875 4.703125 -3.140625 C 2.328125 -5.742188 1.140625 -8.925781 1.140625 -12.6875 C 1.140625 -16.457031 2.328125 -19.648438 4.703125 -22.265625 C 7.085938 -24.878906 10.113281 -26.1875 13.78125 -26.1875 C 17.0625 -26.1875 19.789062 -25.175781 21.96875 -23.15625 L 22.125 -23.15625 L 22.125 -25.4375 L 30.890625 -25.4375 L 30.890625 0.6875 C 30.890625 4.820312 29.519531 8.015625 26.78125 10.265625 C 24.039062 12.515625 20.421875 13.640625 15.921875 13.640625 C 8.648438 13.640625 3.953125 11.175781 1.828125 6.25 Z M 12.171875 -17.015625 C 11.035156 -15.890625 10.46875 -14.445312 10.46875 -12.6875 C 10.46875 -10.9375 11.007812 -9.507812 12.09375 -8.40625 C 13.1875 -7.300781 14.628906 -6.75 16.421875 -6.75 C 18.140625 -6.75 19.550781 -7.304688 20.65625 -8.421875 C 21.757812 -9.546875 22.3125 -10.972656 22.3125 -12.703125 C 22.3125 -14.453125 21.738281 -15.890625 20.59375 -17.015625 C 19.457031 -18.140625 18.066406 -18.703125 16.421875 -18.703125 C 14.734375 -18.703125 13.316406 -18.140625 12.171875 -17.015625 Z M 12.171875 -17.015625 "/></g></g></g><g fill="#0077b6" fill-opacity="1"><g transform="translate(76.877867, 134.037995)"><g><path d="M 3.8125 -39.625 C 4.84375 -40.644531 6.066406 -41.15625 7.484375 -41.15625 C 8.910156 -41.15625 10.132812 -40.644531 11.15625 -39.625 C 12.1875 -38.601562 12.703125 -37.378906 12.703125 -35.953125 C 12.703125 -34.535156 12.1875 -33.3125 11.15625 -32.28125 C 10.132812 -31.257812 8.910156 -30.75 7.484375 -30.75 C 6.066406 -30.75 4.84375 -31.257812 3.8125 -32.28125 C 2.789062 -33.3125 2.28125 -34.535156 2.28125 -35.953125 C 2.28125 -37.378906 2.789062 -38.601562 3.8125 -39.625 Z M 2.96875 -25.4375 L 2.96875 0 L 11.75 0 L 11.75 -25.4375 Z M 2.96875 -25.4375 "/></g></g></g><g fill="#0077b6" fill-opacity="1"><g transform="translate(88.333563, 134.037995)"><g><path d="M 2.96875 0 L 2.96875 -25.4375 L 11.75 -25.4375 L 11.75 -22.765625 L 11.859375 -22.765625 C 14.140625 -25.046875 16.566406 -26.1875 19.140625 -26.1875 C 20.398438 -26.1875 21.648438 -26.019531 22.890625 -25.6875 C 24.128906 -25.351562 25.316406 -24.835938 26.453125 -24.140625 C 27.597656 -23.453125 28.523438 -22.472656 29.234375 -21.203125 C 29.941406 -19.929688 30.296875 -18.453125 30.296875 -16.765625 L 30.296875 0 L 21.53125 0 L 21.53125 -14.375 C 21.53125 -15.695312 21.109375 -16.851562 20.265625 -17.84375 C 19.421875 -18.84375 18.320312 -19.34375 16.96875 -19.34375 C 15.644531 -19.34375 14.441406 -18.828125 13.359375 -17.796875 C 12.285156 -16.773438 11.75 -15.632812 11.75 -14.375 L 11.75 0 Z M 2.96875 0 "/></g></g></g><g fill="#0077b6" fill-opacity="1"><g transform="translate(117.593392, 134.037995)"><g><path d="M 1.828125 6.25 L 9.03125 2.734375 C 10.351562 4.910156 12.648438 6 15.921875 6 C 17.441406 6 18.851562 5.507812 20.15625 4.53125 C 21.46875 3.5625 22.125 2.066406 22.125 0.046875 L 22.125 -1.828125 C 20.5625 -0.109375 17.78125 0.75 13.78125 0.75 C 10.113281 0.75 7.085938 -0.546875 4.703125 -3.140625 C 2.328125 -5.742188 1.140625 -8.925781 1.140625 -12.6875 C 1.140625 -16.457031 2.328125 -19.648438 4.703125 -22.265625 C 7.085938 -24.878906 10.113281 -26.1875 13.78125 -26.1875 C 17.0625 -26.1875 19.789062 -25.175781 21.96875 -23.15625 L 22.125 -23.15625 L 22.125 -25.4375 L 30.890625 -25.4375 L 30.890625 0.6875 C 30.890625 4.820312 29.519531 8.015625 26.78125 10.265625 C 24.039062 12.515625 20.421875 13.640625 15.921875 13.640625 C 8.648438 13.640625 3.953125 11.175781 1.828125 6.25 Z M 12.171875 -17.015625 C 11.035156 -15.890625 10.46875 -14.445312 10.46875 -12.6875 C 10.46875 -10.9375 11.007812 -9.507812 12.09375 -8.40625 C 13.1875 -7.300781 14.628906 -6.75 16.421875 -6.75 C 18.140625 -6.75 19.550781 -7.304688 20.65625 -8.421875 C 21.757812 -9.546875 22.3125 -10.972656 22.3125 -12.703125 C 22.3125 -14.453125 21.738281 -15.890625 20.59375 -17.015625 C 19.457031 -18.140625 18.066406 -18.703125 16.421875 -18.703125 C 14.734375 -18.703125 13.316406 -18.140625 12.171875 -17.015625 Z M 12.171875 -17.015625 "/></g></g></g></svg>