<svg xmlns="http://www.w3.org/2000/svg" xmlns:xlink="http://www.w3.org/1999/xlink" width="185" zoomAndPan="magnify" viewBox="0 0 138.75 74.999997" height="100" preserveAspectRatio="xMidYMid meet" version="1.0"><defs><g/><clipPath id="ae54702e5f"><path d="M 110 38 L 138 38 L 138 74.929688 L 110 74.929688 Z M 110 38 " clip-rule="nonzero"/></clipPath></defs><g fill="#0077b6" fill-opacity="1"><g transform="translate(2.469145, 62.579806)"><g><path d="M 14.28125 0 L -1.265625 -37.0625 L 8.265625 -37.0625 L 17.609375 -12.71875 L 26.953125 -37.0625 L 36.484375 -37.0625 L 20.9375 0 Z M 14.28125 0 "/></g></g></g><g fill="#0077b6" fill-opacity="1"><g transform="translate(34.496407, 62.579806)"><g><path d="M 3.453125 -35.890625 C 4.390625 -36.816406 5.5 -37.28125 6.78125 -37.28125 C 8.070312 -37.28125 9.179688 -36.816406 10.109375 -35.890625 C 11.035156 -34.960938 11.5 -33.851562 11.5 -32.5625 C 11.5 -31.28125 11.035156 -30.175781 10.109375 -29.25 C 9.179688 -28.320312 8.070312 -27.859375 6.78125 -27.859375 C 5.5 -27.859375 4.390625 -28.320312 3.453125 -29.25 C 2.523438 -30.175781 2.0625 -31.28125 2.0625 -32.5625 C 2.0625 -33.851562 2.523438 -34.960938 3.453125 -35.890625 Z M 2.703125 -23.046875 L 2.703125 0 L 10.640625 0 L 10.640625 -23.046875 Z M 2.703125 -23.046875 "/></g></g></g><g fill="#0077b6" fill-opacity="1"><g transform="translate(44.872694, 62.579806)"><g><path d="M 26.421875 -20.171875 C 28.578125 -17.804688 29.65625 -14.914062 29.65625 -11.5 C 29.65625 -8.082031 28.578125 -5.195312 26.421875 -2.84375 C 24.265625 -0.5 21.519531 0.671875 18.1875 0.671875 C 15.132812 0.671875 12.617188 -0.421875 10.640625 -2.609375 L 10.5625 -2.609375 L 10.5625 0 L 2.703125 0 L 2.703125 -38.640625 L 10.640625 -38.640625 L 10.640625 -20.84375 C 12.617188 -22.757812 15.132812 -23.71875 18.1875 -23.71875 C 21.519531 -23.71875 24.265625 -22.535156 26.421875 -20.171875 Z M 19.71875 -7.609375 C 20.707031 -8.617188 21.203125 -9.914062 21.203125 -11.5 C 21.203125 -13.082031 20.6875 -14.382812 19.65625 -15.40625 C 18.625 -16.425781 17.34375 -16.9375 15.8125 -16.9375 C 14.3125 -16.9375 13.046875 -16.425781 12.015625 -15.40625 C 10.984375 -14.382812 10.46875 -13.082031 10.46875 -11.5 C 10.46875 -9.945312 10.96875 -8.660156 11.96875 -7.640625 C 12.976562 -6.617188 14.257812 -6.109375 15.8125 -6.109375 C 17.425781 -6.109375 18.726562 -6.609375 19.71875 -7.609375 Z M 19.71875 -7.609375 "/></g></g></g><g fill="#0077b6" fill-opacity="1"><g transform="translate(72.363133, 62.579806)"><g><path d="M 3.453125 -35.890625 C 4.390625 -36.816406 5.5 -37.28125 6.78125 -37.28125 C 8.070312 -37.28125 9.179688 -36.816406 10.109375 -35.890625 C 11.035156 -34.960938 11.5 -33.851562 11.5 -32.5625 C 11.5 -31.28125 11.035156 -30.175781 10.109375 -29.25 C 9.179688 -28.320312 8.070312 -27.859375 6.78125 -27.859375 C 5.5 -27.859375 4.390625 -28.320312 3.453125 -29.25 C 2.523438 -30.175781 2.0625 -31.28125 2.0625 -32.5625 C 2.0625 -33.851562 2.523438 -34.960938 3.453125 -35.890625 Z M 2.703125 -23.046875 L 2.703125 0 L 10.640625 0 L 10.640625 -23.046875 Z M 2.703125 -23.046875 "/></g></g></g><g fill="#0077b6" fill-opacity="1"><g transform="translate(82.73942, 62.579806)"><g><path d="M 2.703125 0 L 2.703125 -23.046875 L 10.640625 -23.046875 L 10.640625 -20.625 L 10.734375 -20.625 C 12.804688 -22.6875 15.007812 -23.71875 17.34375 -23.71875 C 18.476562 -23.71875 19.609375 -23.566406 20.734375 -23.265625 C 21.859375 -22.972656 22.9375 -22.507812 23.96875 -21.875 C 25 -21.25 25.835938 -20.359375 26.484375 -19.203125 C 27.128906 -18.046875 27.453125 -16.707031 27.453125 -15.1875 L 27.453125 0 L 19.5 0 L 19.5 -13.03125 C 19.5 -14.226562 19.113281 -15.273438 18.34375 -16.171875 C 17.582031 -17.066406 16.585938 -17.515625 15.359375 -17.515625 C 14.160156 -17.515625 13.070312 -17.050781 12.09375 -16.125 C 11.125 -15.195312 10.640625 -14.164062 10.640625 -13.03125 L 10.640625 0 Z M 2.703125 0 "/></g></g></g><g clip-path="url(#ae54702e5f)"><g fill="#0077b6" fill-opacity="1"><g transform="translate(109.241639, 62.579806)"><g><path d="M 1.65625 5.65625 L 8.171875 2.46875 C 9.367188 4.445312 11.453125 5.4375 14.421875 5.4375 C 15.796875 5.4375 17.070312 4.992188 18.25 4.109375 C 19.4375 3.222656 20.03125 1.867188 20.03125 0.046875 L 20.03125 -1.65625 C 18.625 -0.101562 16.109375 0.671875 12.484375 0.671875 C 9.160156 0.671875 6.421875 -0.5 4.265625 -2.84375 C 2.109375 -5.195312 1.03125 -8.082031 1.03125 -11.5 C 1.03125 -14.914062 2.109375 -17.804688 4.265625 -20.171875 C 6.421875 -22.535156 9.160156 -23.71875 12.484375 -23.71875 C 15.453125 -23.71875 17.925781 -22.804688 19.90625 -20.984375 L 20.03125 -20.984375 L 20.03125 -23.046875 L 27.984375 -23.046875 L 27.984375 0.625 C 27.984375 4.375 26.738281 7.265625 24.25 9.296875 C 21.769531 11.335938 18.492188 12.359375 14.421875 12.359375 C 7.828125 12.359375 3.570312 10.125 1.65625 5.65625 Z M 11.03125 -15.40625 C 10 -14.382812 9.484375 -13.082031 9.484375 -11.5 C 9.484375 -9.914062 9.972656 -8.617188 10.953125 -7.609375 C 11.941406 -6.609375 13.25 -6.109375 14.875 -6.109375 C 16.425781 -6.109375 17.703125 -6.617188 18.703125 -7.640625 C 19.710938 -8.660156 20.21875 -9.945312 20.21875 -11.5 C 20.21875 -13.082031 19.695312 -14.382812 18.65625 -15.40625 C 17.625 -16.425781 16.363281 -16.9375 14.875 -16.9375 C 13.34375 -16.9375 12.0625 -16.425781 11.03125 -15.40625 Z M 11.03125 -15.40625 "/></g></g></g></g></svg>